<svg width="330" height="249" viewBox="0 0 330 249" fill="none" xmlns="http://www.w3.org/2000/svg">
<g clip-path="url(#clip0_778_1282)">
<path opacity="0.18" d="M61.2596 242.165C49.8971 240.295 39.2016 235.546 30.1906 228.369C19.5628 220.007 8.01631 208.741 8.37126 194.756C8.7471 179.915 14.2802 165.638 20.398 152.281C28.4784 134.241 39.7535 115.219 36.7677 95.1312C33.8236 75.3567 37.7908 51.0044 48.3559 33.9891C65.0597 7.19106 94.2913 0.690135 123.523 0.0630359C142.837 -0.334127 162.714 0.815554 180.316 8.77971C198.815 17.141 213.619 32.5886 232.515 39.7793C245.043 44.5034 258.74 45.4441 270.996 50.7535C286.426 57.4635 298.328 70.758 306.053 85.7247C313.779 100.691 317.663 117.31 320.565 133.802C325.451 161.708 313.842 196.512 297.117 219.359C285.904 234.619 267.238 252.199 247.987 248.436C150.395 229.79 169.166 259.598 61.2596 242.165Z" fill="#A400FF"/>
<path opacity="0.31" d="M294.152 96.9282C294.152 99.5635 293.108 102.091 291.249 103.956C289.389 105.822 286.867 106.873 284.234 106.878H258.699C256.063 106.878 253.535 105.83 251.671 103.964C249.807 102.098 248.76 99.5671 248.76 96.9282C248.76 94.2893 249.807 91.7585 251.671 89.8925C253.535 88.0265 256.063 86.9782 258.699 86.9782H262.373C262.352 86.7069 262.352 86.4343 262.373 86.163C262.353 84.9634 262.568 83.7715 263.008 82.6553C263.448 81.5392 264.102 80.5206 264.935 79.6578C265.768 78.795 266.762 78.1049 267.861 77.6268C268.961 77.1487 270.143 76.8921 271.341 76.8715C272.539 76.8509 273.73 77.0668 274.845 77.5068C275.96 77.9469 276.977 78.6024 277.839 79.4361C278.701 80.2698 279.39 81.2653 279.868 82.3657C280.345 83.466 280.602 84.6498 280.622 85.8494V86.163C280.622 86.4347 280.622 86.7065 280.622 86.9782H284.276C286.912 86.9782 289.44 88.0265 291.304 89.8925C293.168 91.7585 294.215 94.2893 294.215 96.9282H294.152Z" fill="#A400FF"/>
<path d="M291.061 95.9877C291.061 98.623 290.017 101.151 288.157 103.016C286.298 104.881 283.776 105.932 281.143 105.938H255.628C254.323 105.938 253.031 105.68 251.825 105.18C250.619 104.68 249.523 103.947 248.6 103.023C247.678 102.099 246.945 101.003 246.446 99.7954C245.947 98.5882 245.689 97.2943 245.689 95.9877C245.689 94.681 245.947 93.3872 246.446 92.18C246.945 90.9728 247.678 89.8759 248.6 88.952C249.523 88.028 250.619 87.2951 251.825 86.7951C253.031 86.2951 254.323 86.0377 255.628 86.0377H259.282C259.282 85.766 259.282 85.4942 259.282 85.2434C259.223 84.0056 259.415 82.7688 259.848 81.6077C260.28 80.4466 260.944 79.3854 261.798 78.4885C262.652 77.5916 263.679 76.8776 264.817 76.3898C265.954 75.9019 267.179 75.6504 268.417 75.6504C269.655 75.6504 270.88 75.9019 272.017 76.3898C273.155 76.8776 274.182 77.5916 275.036 78.4885C275.89 79.3854 276.554 80.4466 276.986 81.6077C277.419 82.7688 277.611 84.0056 277.552 85.2434C277.552 85.5151 277.552 85.7869 277.552 86.0586H281.206C283.825 86.0752 286.332 87.1286 288.178 88.9888C290.025 90.8491 291.061 93.3652 291.061 95.9877Z" fill="white"/>
<path d="M54.7656 119.421C54.7553 119.034 54.8241 118.649 54.9677 118.289C55.1113 117.93 55.3267 117.604 55.6008 117.33C56.8533 116.046 57.7587 114.463 58.2316 112.732C58.5041 111.628 58.4252 110.466 58.0059 109.409C57.5866 108.352 56.8479 107.453 55.8931 106.837C54.7603 105.961 53.4597 105.328 52.0721 104.977C51.3941 104.77 50.8117 104.328 50.4292 103.731C50.0466 103.133 49.8889 102.419 49.9841 101.716C50.0885 100.796 50.1929 99.8762 50.2764 98.9565C50.3458 98.1299 50.7373 97.3638 51.3664 96.824C51.9955 96.2842 52.8115 96.014 53.6381 96.0718C54.9635 96.0317 56.2684 95.7335 57.4799 95.1939C58.8449 94.6756 59.9558 93.6474 60.5789 92.3258C61.202 91.0041 61.2886 89.492 60.8207 88.1076C60.4591 86.93 60.0197 85.7778 59.5053 84.6586C59.21 84.0182 59.1421 83.2959 59.313 82.6116C59.4839 81.9273 59.8832 81.322 60.4449 80.896C61.1339 80.3316 61.8647 79.8508 62.5328 79.2655C63.1364 78.8007 63.882 78.5593 64.6432 78.5822C65.4043 78.605 66.1341 78.8908 66.7088 79.391C67.7072 80.3769 68.8833 81.1642 70.1748 81.7112C71.3749 82.2639 72.7298 82.3805 74.0065 82.0409C75.2832 81.7014 76.4017 80.9269 77.1695 79.8508C78.046 78.6263 78.7095 77.2623 79.1322 75.8165C79.345 75.1198 79.8029 74.524 80.4211 74.1396C81.0393 73.7552 81.7757 73.6083 82.4939 73.7262C83.4126 73.8725 84.3104 73.9979 85.2291 74.1024C85.9471 74.1845 86.6098 74.5281 87.0911 75.0678C87.5724 75.6074 87.8386 76.3054 87.8391 77.0289C87.9047 78.7734 88.3614 80.4808 89.1754 82.0248C89.783 83.0298 90.6817 83.826 91.752 84.3076C92.8223 84.7892 94.0137 84.9335 95.1678 84.7213C96.4783 84.4585 97.7441 84.0079 98.9262 83.3835C99.6238 82.9904 100.445 82.8797 101.222 83.0741C101.999 83.2685 102.671 83.7532 103.102 84.4287C103.624 85.223 104.313 85.9128 104.835 86.7071C105.226 87.262 105.41 87.9374 105.352 88.6142C105.295 89.291 105.001 89.9259 104.522 90.407C103.5 91.4692 102.692 92.7182 102.142 94.086C101.558 95.4261 101.515 96.9401 102.021 98.3114C102.527 99.6826 103.543 100.805 104.856 101.444C105.858 102.01 106.914 102.472 108.009 102.824C108.636 103.024 109.179 103.425 109.557 103.965C109.934 104.505 110.124 105.154 110.097 105.813C110.097 106.921 109.888 108.028 109.721 109.115C109.633 109.836 109.281 110.498 108.733 110.973C108.185 111.448 107.481 111.702 106.756 111.687C105.138 111.718 103.547 112.111 102.1 112.836C101.015 113.37 100.136 114.247 99.6004 115.332C99.0643 116.417 98.9007 117.648 99.135 118.835C99.3381 120.226 99.7834 121.57 100.45 122.807C100.662 123.145 100.805 123.521 100.871 123.914C100.937 124.306 100.925 124.709 100.836 125.097C100.747 125.485 100.582 125.852 100.351 126.176C100.12 126.501 99.8274 126.777 99.4899 126.988L97.6108 128.451C97.0293 128.968 96.2711 129.242 95.4935 129.215C94.716 129.187 93.9788 128.862 93.4348 128.305C92.3201 127.259 91.0064 126.448 89.5721 125.922C88.3895 125.463 87.0864 125.42 85.8763 125.8C84.6661 126.179 83.6208 126.96 82.9114 128.012C82.0364 129.237 81.3729 130.601 80.9487 132.046C80.7552 132.716 80.3292 133.295 79.7473 133.678C79.1655 134.061 78.466 134.224 77.775 134.137L74.6848 133.677C74.0462 133.546 73.4678 133.21 73.038 132.719C72.6082 132.228 72.3506 131.61 72.3045 130.959C72.2658 129.296 71.8818 127.659 71.177 126.152C70.6414 124.948 69.6977 123.973 68.5131 123.4C67.3285 122.826 65.9793 122.69 64.7043 123.016C63.4354 123.37 62.199 123.831 61.0086 124.396C60.3972 124.703 59.7018 124.8 59.03 124.671C58.3581 124.543 57.7473 124.196 57.292 123.685C56.5432 122.872 55.8458 122.014 55.204 121.114C54.9259 120.566 54.7021 119.992 54.5359 119.4L54.7656 119.421ZM80.1136 94.0442C78.8104 94.0359 77.5184 94.2854 76.3117 94.7783C75.1051 95.2713 74.0076 95.9979 73.0822 96.9166C72.1568 97.8352 71.4218 98.9278 70.9193 100.132C70.4167 101.335 70.1567 102.627 70.1539 103.931C70.1843 106.507 71.2027 108.972 72.9984 110.816C74.7941 112.661 77.2295 113.743 79.8004 113.84C81.1337 113.918 82.4691 113.726 83.7262 113.275C84.9833 112.823 86.1361 112.121 87.1152 111.212C88.0943 110.302 88.8793 109.204 89.4231 107.983C89.9669 106.761 90.2581 105.443 90.2793 104.106C90.3004 102.769 90.0511 101.441 89.5462 100.203C89.0413 98.9654 88.2914 97.8426 87.3416 96.9026C86.3918 95.9625 85.2618 95.2246 84.0196 94.7334C82.7773 94.2421 81.4487 94.0077 80.1136 94.0442Z" fill="#A400FF"/>
<path d="M129.912 90.6996C129.912 91.0758 129.912 91.4521 129.912 91.8283C129.921 92.3203 129.757 92.7997 129.447 93.182C129.138 93.5644 128.704 93.8253 128.221 93.9187L126.133 94.4413C125.606 94.591 125.042 94.5468 124.544 94.3168C124.046 94.0868 123.647 93.686 123.419 93.1871C123.007 92.3396 122.503 91.5403 121.916 90.8041C121.568 90.3232 121.124 89.92 120.613 89.6198C120.101 89.3196 119.533 89.1291 118.944 89.0603C118.355 88.9915 117.758 89.046 117.192 89.2202C116.625 89.3944 116.1 89.6847 115.652 90.0725C114.979 90.6067 114.345 91.1864 113.752 91.8074C113.403 92.2183 112.922 92.4936 112.391 92.5853C111.861 92.677 111.315 92.5793 110.849 92.3091L109.158 91.3058C108.873 91.166 108.619 90.9705 108.41 90.7309C108.201 90.4913 108.043 90.2123 107.944 89.9104C107.844 89.6085 107.807 89.2897 107.832 88.9729C107.858 88.6561 107.947 88.3477 108.093 88.0657C108.421 87.1218 108.618 86.137 108.678 85.1393C108.766 84.053 108.426 82.9753 107.732 82.1358C107.038 81.2963 106.044 80.7614 104.961 80.6451C103.917 80.4778 102.873 80.6451 101.767 80.436C101.237 80.4373 100.727 80.2373 100.34 79.8764C99.9519 79.5155 99.7157 79.0207 99.6786 78.492C99.5884 77.9117 99.4558 77.3388 99.2819 76.778C99.1206 76.2304 99.1629 75.6429 99.4009 75.1241C99.6388 74.6053 100.056 74.1904 100.576 73.956C101.575 73.4366 102.508 72.7979 103.353 72.0538C104.083 71.3886 104.543 70.4784 104.647 69.4959C104.751 68.5134 104.491 67.5269 103.917 66.7235C103.419 65.9586 102.83 65.2568 102.163 64.6332C101.884 64.4443 101.646 64.1995 101.466 63.9142C101.285 63.6289 101.166 63.3092 101.115 62.9754C101.064 62.6416 101.082 62.3008 101.169 61.9745C101.256 61.6482 101.41 61.3435 101.62 61.0796C101.913 60.5988 102.184 60.0971 102.497 59.6164C102.776 59.1187 103.23 58.7426 103.77 58.561C104.31 58.3795 104.898 58.4054 105.421 58.6339C106.589 59.1196 107.855 59.3202 109.116 59.2192C109.977 59.1744 110.799 58.8472 111.456 58.2881C112.113 57.729 112.567 56.969 112.749 56.1255C113.007 55.0089 113.119 53.8637 113.083 52.7183C113.05 52.1941 113.187 51.6732 113.473 51.2327C113.759 50.7923 114.178 50.4556 114.67 50.2726C115.443 50.0427 116.215 49.8754 116.988 49.7082C117.256 49.6185 117.54 49.5843 117.822 49.6078C118.104 49.6313 118.379 49.712 118.629 49.8449C118.879 49.9779 119.099 50.1603 119.276 50.3812C119.454 50.602 119.584 50.8567 119.66 51.1296C120.187 52.3474 120.996 53.4222 122.02 54.2651C122.82 54.8613 123.8 55.1638 124.796 55.1219C125.792 55.08 126.743 54.6963 127.49 54.0352C128.092 53.555 128.651 53.0235 129.161 52.4465C129.522 52.0341 130.014 51.759 130.554 51.6676C131.094 51.5762 131.649 51.6742 132.126 51.9449L134.068 53.0945C134.534 53.3706 134.884 53.8068 135.053 54.3221C135.222 54.8373 135.198 55.3965 134.986 55.8956C134.55 56.9847 134.337 58.1505 134.36 59.3237C134.352 60.3476 134.719 61.3389 135.393 62.1095C136.066 62.8801 136.999 63.3764 138.014 63.5044C138.961 63.6405 139.917 63.7034 140.874 63.6925C141.458 63.6337 142.041 63.8067 142.498 64.1743C142.955 64.5418 143.249 65.0745 143.317 65.6574C143.484 66.3263 143.672 66.9743 143.818 67.7477C143.954 68.2548 143.894 68.7943 143.65 69.2591C143.406 69.7238 142.997 70.0797 142.503 70.2561C141.396 70.7456 140.401 71.457 139.58 72.3465C138.979 72.9503 138.589 73.7326 138.468 74.5765C138.348 75.4204 138.503 76.2806 138.912 77.0288C139.501 77.9862 140.202 78.8703 141 79.6626C141.484 80.029 141.808 80.5698 141.901 81.1706C141.995 81.7714 141.851 82.3851 141.501 82.8817L140.561 84.4495C140.295 84.993 139.826 85.4098 139.256 85.6094C138.685 85.8089 138.059 85.7752 137.513 85.5155C136.133 84.9355 134.604 84.811 133.149 85.1602C132.411 85.3781 131.747 85.7961 131.231 86.3678C130.715 86.9396 130.367 87.6429 130.226 88.4002C130.072 89.1529 129.96 89.9135 129.892 90.6787L129.912 90.6996ZM121.561 64.6541C120.584 64.643 119.615 64.8263 118.709 65.1935C117.804 65.5607 116.981 66.1043 116.287 66.7928C115.594 67.4813 115.044 68.301 114.669 69.2042C114.295 70.1073 114.104 71.076 114.106 72.0538C114.053 73.0656 114.206 74.0778 114.556 75.0285C114.906 75.9793 115.445 76.8488 116.142 77.5839C116.838 78.3191 117.677 78.9046 118.607 79.3047C119.537 79.7048 120.538 79.9111 121.55 79.9111C122.562 79.9111 123.564 79.7048 124.494 79.3047C125.423 78.9046 126.262 78.3191 126.959 77.5839C127.655 76.8488 128.195 75.9793 128.545 75.0285C128.894 74.0778 129.047 73.0656 128.994 72.0538C128.999 71.0734 128.809 70.1017 128.435 69.1959C128.06 68.29 127.508 67.4683 126.812 66.7789C126.116 66.0896 125.289 65.5465 124.38 65.1816C123.471 64.8167 122.498 64.6373 121.519 64.6541H121.561Z" fill="#A400FF"/>
<path d="M110.827 195.947L135.027 197.828C136.17 197.82 137.298 198.1 138.305 198.644C139.027 199.219 139.55 200.006 139.801 200.895C140.052 201.784 140.018 202.729 139.704 203.598C139.038 205.319 137.893 206.814 136.405 207.904C127.614 214.99 115.274 215.345 103.916 215.283L50.4637 214.99C48.3976 215.125 46.3265 214.818 44.3877 214.091C43.4306 213.7 42.6179 213.022 42.0609 212.15C41.5039 211.278 41.23 210.255 41.2766 209.221C41.502 208.319 41.9215 207.478 42.5058 206.756C43.0901 206.033 43.825 205.448 44.6591 205.04C49.4339 202.422 54.6639 200.741 60.0683 200.086C68.2114 198.623 76.3684 197.229 84.5394 195.905" fill="url(#paint0_linear_778_1282)"/>
<path d="M254.626 193.418L278.825 195.279C279.972 195.267 281.102 195.556 282.103 196.115C282.821 196.688 283.342 197.472 283.593 198.357C283.843 199.241 283.812 200.182 283.502 201.048C282.834 202.774 281.681 204.269 280.183 205.354C271.413 212.545 259.073 212.816 247.735 212.733L194.262 212.419C192.197 212.546 190.127 212.24 188.186 211.52C187.214 211.138 186.386 210.461 185.817 209.584C185.248 208.707 184.966 207.674 185.013 206.629C185.231 205.725 185.648 204.88 186.233 204.157C186.818 203.434 187.557 202.85 188.395 202.448C193.202 199.844 198.46 198.177 203.888 197.536C212.031 196.073 220.188 194.679 228.359 193.355" fill="url(#paint1_linear_778_1282)"/>
<path d="M239.133 198.268C239.18 199.524 238.945 200.774 238.444 201.926C237.838 202.992 236.919 203.846 235.813 204.372C233.43 205.607 230.663 205.877 228.087 205.124C227.929 205.117 227.775 205.077 227.633 205.007C227.492 204.936 227.367 204.836 227.267 204.714C227.166 204.592 227.092 204.45 227.05 204.297C227.008 204.145 226.999 203.985 227.022 203.828C227.244 202.399 227.988 201.102 229.11 200.191C230.221 199.295 231.167 198.213 231.908 196.993C233.077 194.61 232.201 188.235 236.711 189.259C240.406 190.053 239.237 195.551 239.133 198.268Z" fill="#CE9E95"/>
<path d="M239.76 202.448C239.76 202.448 240.387 204.016 239.614 204.935C238.842 205.855 230.74 210.893 225.291 206.838C219.841 202.782 232.682 202.26 232.682 202.26L239.76 202.448Z" fill="#A400FF"/>
<path d="M239.447 198.853C239.199 198.733 238.915 198.705 238.648 198.774C238.38 198.842 238.146 199.004 237.986 199.229C237.454 199.838 236.777 200.301 236.017 200.576C235.257 200.85 234.44 200.926 233.643 200.797C231.868 200.379 231.158 198.331 230.281 198.31C229.404 198.289 224.685 202.323 224.414 204.037C224.142 205.751 226.502 207.026 229.216 207.194C231.931 207.361 237.902 205.521 239.051 204.121C239.536 203.34 239.825 202.453 239.894 201.536C239.964 200.618 239.81 199.698 239.447 198.853Z" fill="white"/>
<path d="M254.585 200.672C254.633 201.927 254.397 203.178 253.896 204.33C253.29 205.396 252.372 206.25 251.265 206.775C248.885 208.018 246.118 208.295 243.539 207.549C243.185 207.48 242.867 207.287 242.642 207.005C242.513 206.769 242.455 206.5 242.474 206.232C242.696 204.802 243.44 203.506 244.562 202.595C245.673 201.698 246.619 200.616 247.36 199.396C248.53 197.013 247.653 190.638 252.163 191.662C255.858 192.519 254.689 198.017 254.585 200.672Z" fill="#CE9E95"/>
<path d="M255.211 204.999C255.211 204.999 255.838 206.566 255.065 207.486C254.293 208.406 246.191 213.444 240.742 209.388C235.292 205.333 248.112 204.811 248.112 204.811L255.211 204.999Z" fill="#A400FF"/>
<path d="M254.898 201.341C254.651 201.212 254.365 201.179 254.096 201.248C253.826 201.318 253.591 201.485 253.437 201.717C252.901 202.319 252.222 202.776 251.463 203.046C250.704 203.317 249.889 203.391 249.094 203.264C247.319 202.846 246.609 200.797 245.732 200.776C244.855 200.756 240.137 204.79 239.865 206.504C239.594 208.218 241.953 209.493 244.667 209.66C247.382 209.828 253.353 207.988 254.502 206.588C254.987 205.81 255.276 204.927 255.346 204.013C255.415 203.099 255.261 202.182 254.898 201.341Z" fill="white"/>
<path d="M257.8 134.095C257.8 134.095 258.656 180.417 255.21 195.885L246.524 196.951L240.49 133.468L257.8 134.095Z" fill="#473F47"/>
<path d="M230.928 129.036C230.928 129.036 226.752 154.12 231.805 194.171L240.491 195.237L246.525 131.795L230.928 129.036Z" fill="#473F47"/>
<path d="M220.842 109.095C220.842 110.767 221.49 112.23 222.93 112.711C223.05 112.765 223.176 112.8 223.306 112.815C225.979 113.359 229.57 111.331 231.93 109.555C232.941 108.816 233.91 108.02 234.832 107.172V89.2783L221.845 102.594C221.164 104.693 220.825 106.888 220.842 109.095Z" fill="#A400FF"/>
<path d="M231.722 109.491C231.722 110.327 231.722 111.184 231.722 112.02C231.722 116.64 232.787 121.406 231.409 125.942C230.967 126.91 230.835 127.99 231.033 129.036C231.435 129.87 232.125 130.53 232.975 130.896C237.181 132.871 241.707 134.074 246.338 134.45C249.783 134.93 254.689 135.955 257.884 134.094C259.097 133.191 259.907 131.848 260.139 130.353C261.35 125.563 262.05 120.658 262.227 115.72C262.227 115.093 262.227 114.445 262.352 113.797C262.624 109.387 262.707 104.934 262.624 100.524C262.624 97.3046 262.311 93.8346 260.223 91.4098C256.847 88.2096 252.58 86.1104 247.987 85.3897C246.655 85.1149 245.291 85.0374 243.936 85.1598C242.028 85.4659 240.185 86.095 238.487 87.0201C236.474 87.7088 234.761 89.0756 233.643 90.8873C232.518 93.1886 231.723 95.6376 231.283 98.1616C230.918 100.542 230.876 102.961 231.158 105.352C231.283 106.523 231.576 107.694 231.701 108.843C231.722 109.073 231.722 109.282 231.722 109.491Z" fill="#A400FF"/>
<path opacity="0.1" d="M250.575 135.662C251.912 136.059 255.002 134.847 256.025 134.659C256.631 134.659 257.194 134.241 257.8 134.095C260.869 133.321 261.224 124.73 261.516 122.41C262.573 116.261 263.27 110.056 263.604 103.827C263.744 101.456 263.468 99.0789 262.79 96.8031C262.451 95.6627 261.866 94.6108 261.076 93.7222C260.286 92.8335 259.31 92.1298 258.217 91.6609C254.313 90.2604 253.144 102.635 252.601 105.185L249.678 119.17C249.261 120.893 248.988 122.648 248.863 124.416C248.933 126.568 249.378 128.69 250.179 130.687C250.534 131.921 249.552 134.241 250.033 135.14C250.071 135.266 250.141 135.38 250.236 135.472C250.331 135.563 250.448 135.629 250.575 135.662Z" fill="#020202"/>
<path d="M241.159 81.4811C241.646 82.0186 242.316 82.3542 243.038 82.4218C243.643 82.4738 244.25 82.4738 244.855 82.4218H245.21C245.285 82.4003 245.364 82.4003 245.439 82.4218C245.51 82.4958 245.554 82.5915 245.565 82.6935C245.669 83.9036 245.669 85.1205 245.565 86.3307V86.9787C245.501 87.2042 245.501 87.4429 245.565 87.6685C245.69 87.9402 246.003 88.0447 246.295 88.1493C246.826 88.3324 247.384 88.4243 247.945 88.421C249.137 88.3108 250.285 87.9088 251.286 87.2504C251.194 85.1542 251.306 83.054 251.62 80.9794C252.204 78.3664 252.47 75.6923 252.413 73.0153C252.344 71.9638 251.959 70.9579 251.307 70.1306C250.787 69.6269 250.167 69.2396 249.486 68.9945C248.806 68.7495 248.081 68.6522 247.36 68.7092C245.452 68.6705 243.574 69.1859 241.952 70.1933C241.347 70.5905 241.284 71.1131 241.138 71.782C240.95 72.8272 240.783 73.8723 240.658 74.9593C240.533 76.0463 240.449 77.3632 240.428 78.5965C240.31 79.6152 240.57 80.6419 241.159 81.4811Z" fill="#CE9E95"/>
<path d="M242.412 66.6815C242.043 66.745 241.705 66.9292 241.452 67.2054C241.199 67.4815 241.044 67.834 241.013 68.2075C241 68.5844 241.114 68.9548 241.338 69.2584C241.561 69.562 241.881 69.7809 242.245 69.8797C242.189 70.3074 242.298 70.7402 242.551 71.0898C242.803 71.4394 243.179 71.6795 243.602 71.761C244.457 71.8859 245.33 71.7776 246.128 71.4475C246.563 71.9879 247.177 72.3546 247.859 72.4812C248.541 72.6077 249.245 72.4857 249.845 72.1373V72.6181C250.243 73.453 250.49 74.3517 250.576 75.2728L250.346 77.0496C250.399 76.5906 250.63 76.1708 250.989 75.8813C251.349 75.5917 251.808 75.4557 252.267 75.5027C252.395 75.4892 252.524 75.5027 252.646 75.5423C252.769 75.5819 252.881 75.6467 252.977 75.7327C253.056 75.8594 253.106 76.0022 253.123 76.1507C253.136 76.4273 253.082 76.7029 252.966 76.9541C252.85 77.2053 252.674 77.4245 252.455 77.593C252.142 77.8021 251.745 77.9484 251.599 78.3038C251.495 78.6445 251.495 79.0082 251.599 79.3489C251.683 79.7494 251.639 80.1664 251.473 80.5404L252.058 80.3941C252.231 80.3019 252.392 80.1897 252.538 80.0596C252.698 79.8831 252.816 79.6734 252.884 79.4457C252.953 79.218 252.97 78.9779 252.935 78.7427C253.246 78.7438 253.553 78.67 253.83 78.5274C254.107 78.3849 254.345 78.1779 254.525 77.9238C254.705 77.6697 254.822 77.376 254.865 77.0674C254.908 76.7589 254.876 76.4445 254.772 76.1507C254.927 76.1303 255.075 76.0792 255.21 76.0006C255.344 75.9219 255.461 75.8172 255.554 75.6926C255.648 75.568 255.715 75.4261 255.753 75.275C255.791 75.1239 255.798 74.9668 255.775 74.8129C255.651 74.1905 255.363 73.6129 254.94 73.1406C255.429 73.1351 255.896 72.9367 256.24 72.5884C256.584 72.2401 256.777 71.7701 256.777 71.2802C256.735 70.9961 256.735 70.7073 256.777 70.4232C256.899 70.1005 257.068 69.7975 257.278 69.5244C257.464 69.1659 257.531 68.7568 257.467 68.3577C257.403 67.9586 257.212 67.5908 256.923 67.3086C256.505 66.9324 255.921 66.7442 255.608 66.2844C255.44 65.8557 255.334 65.4052 255.294 64.9466C254.919 63.2534 253.039 62.4591 251.39 61.9156C250.947 61.735 250.469 61.6564 249.991 61.6856C249.754 61.7042 249.53 61.8002 249.352 61.9588C249.175 62.1174 249.055 62.3299 249.01 62.5636C248.56 62.1851 248.007 61.9518 247.423 61.8947C246.859 61.8947 246.233 62.4173 246.379 62.9607C246.149 62.041 244.604 64.424 244.521 64.4867C243.497 65.1138 241.931 64.4867 242.412 66.6815Z" fill="#473F47"/>
<path d="M244.854 82.4632H245.209C245.284 82.4417 245.364 82.4417 245.439 82.4632C245.51 82.5372 245.554 82.6329 245.564 82.7349C245.668 83.9451 245.668 85.162 245.564 86.3721C246.643 86.0398 247.573 85.3439 248.197 84.4027C248.822 83.4616 249.101 82.3331 248.988 81.209C247.644 81.7618 246.244 82.1683 244.812 82.4214L244.854 82.4632Z" fill="#AF807A"/>
<path d="M209.902 104.474C211.61 106.914 213.73 109.036 216.166 110.745C217.915 111.925 219.933 112.644 222.033 112.836C222.309 112.864 222.588 112.828 222.848 112.731C223.296 112.599 223.69 112.328 223.975 111.958C224.852 110.913 225.378 109.618 225.479 108.258C225.625 104.683 221.762 102.614 221.762 102.614C221.762 102.614 212.972 99.8128 211.928 100.273C211.364 100.503 210.821 101.757 210.445 102.823C210.069 103.889 209.902 104.474 209.902 104.474Z" fill="#A400FF"/>
<path opacity="0.1" d="M209.902 104.475C211.61 106.914 213.73 109.037 216.166 110.746C217.915 111.926 219.933 112.645 222.033 112.836C222.309 112.865 222.588 112.829 222.848 112.732C222.967 112.786 223.094 112.821 223.224 112.836C225.896 113.38 229.488 111.352 231.847 109.575L231.012 104.224C229.412 105.907 227.551 107.319 225.499 108.405C224.055 109.179 222.404 109.479 220.781 109.262C220.34 109.198 219.912 109.071 219.507 108.886C216.213 107.277 213.151 105.231 210.403 102.803C210.111 103.702 209.902 104.475 209.902 104.475Z" fill="#020202"/>
<path d="M268.095 110.307C269.451 113.38 270.038 116.738 269.807 120.09C269.222 124.103 266.549 127.469 263.981 130.541C261.893 130.855 259.325 130.813 258.594 128.89C258.426 128.271 258.383 127.624 258.469 126.988L258.761 122.807C259 120.965 258.901 119.095 258.469 117.289C257.671 115.324 256.625 113.47 255.358 111.77C253.528 108.858 252.432 105.544 252.163 102.113C251.934 98.8939 254.377 88.4841 259.116 91.6614C261.079 92.9574 262.833 98.3086 263.877 100.462C265.464 103.681 266.87 106.963 268.095 110.307Z" fill="#A400FF"/>
<path d="M257.383 133.467C257.277 133.621 257.219 133.803 257.216 133.99C257.216 134.04 257.228 134.089 257.252 134.133C257.275 134.177 257.308 134.215 257.349 134.244C257.39 134.272 257.437 134.291 257.486 134.297C257.536 134.304 257.586 134.299 257.633 134.282C258.113 135.766 257.111 137.334 257.111 138.902C257.091 139.041 257.091 139.181 257.111 139.32C257.187 139.49 257.311 139.635 257.466 139.738C257.729 139.904 258.03 140.001 258.34 140.02C258.65 140.038 258.96 139.977 259.241 139.843C259.803 139.574 260.306 139.197 260.723 138.735C261.621 137.909 262.302 136.876 262.707 135.725C262.856 135.192 262.954 134.646 262.999 134.094L263.5 129.914C260.515 128.973 258.802 131 257.383 133.467Z" fill="#CE9E95"/>
<path d="M210.403 96.8237C210.316 96.5438 210.158 96.2915 209.944 96.0921C209.895 96.0415 209.836 96.0013 209.772 95.9738C209.707 95.9464 209.638 95.9322 209.568 95.9322C209.498 95.9322 209.428 95.9464 209.364 95.9738C209.299 96.0013 209.241 96.0415 209.192 96.0921C209.109 96.2399 209.059 96.4039 209.046 96.5729C208.965 96.7543 208.833 96.9082 208.666 97.0158C208.499 97.1234 208.305 97.1802 208.106 97.1791C207.709 97.1536 207.319 97.0544 206.958 96.8865C205.91 96.5055 204.844 96.1776 203.763 95.904C203.512 95.8211 203.241 95.8211 202.991 95.904C202.859 95.9725 202.743 96.0672 202.65 96.1823C202.557 96.2973 202.488 96.4302 202.448 96.5729C202.223 97.2318 202.167 97.9364 202.284 98.6227C202.4 99.3089 202.687 99.9552 203.116 100.503C203.996 101.593 205.192 102.382 206.54 102.76C207.903 103.126 209.305 103.33 210.716 103.366C211.064 103.416 211.419 103.365 211.739 103.22C213.41 102.259 210.883 97.9316 210.403 96.8237Z" fill="#CE9E95"/>
<path d="M109.951 128.053C109.951 128.053 109.951 147.41 108.573 150.921C105.002 160.746 100.221 164.759 100.221 164.759C98.3416 171.881 96.4763 179.009 94.625 186.144C96.4415 188.234 99.4691 190.324 101.515 188.506C102.05 187.969 102.469 187.329 102.747 186.624L112.582 165.178C114.71 161.008 116.296 156.582 117.3 152.008V151.611V151.507C117.3 151.235 117.447 150.336 117.572 149.04C117.885 145.257 117.259 127.363 115.484 122.66C115.484 122.66 108.865 124.939 106.965 122.347L109.951 128.053Z" fill="#A400FF"/>
<path d="M109.951 128.053C109.951 128.053 109.951 147.41 108.573 150.922C105.002 160.746 100.221 164.76 100.221 164.76C98.3416 171.881 96.4763 179.009 94.625 186.144C96.4415 188.234 99.4691 190.324 101.515 188.506C102.05 187.969 102.469 187.329 102.747 186.624L112.582 165.178C114.71 161.008 116.296 156.582 117.3 152.009V151.611V151.507C117.3 151.235 117.447 150.336 117.572 149.04C117.885 145.257 117.321 130.771 115.651 126.047C114.592 126.234 113.504 126.158 112.481 125.827C111.458 125.495 110.532 124.918 109.784 124.145L109.951 128.053Z" fill="url(#paint2_linear_778_1282)"/>
<path d="M93.4767 125.274C91.7229 127.855 91.0553 131.024 91.6184 134.095C92.2866 138.714 95.5856 142.456 96.2537 147.013C96.3813 148.186 96.1164 149.369 95.5004 150.375C94.8845 151.381 93.9524 152.154 92.8503 152.573L79.9884 159.221C77.7602 160.139 75.8252 161.65 74.3926 163.589C73.731 164.573 73.4746 165.775 73.6769 166.943C73.8792 168.112 74.5246 169.157 75.4784 169.86L100.242 164.823C105.021 161.916 108.56 157.346 110.18 151.988C111.12 148.372 109.846 124.145 109.846 124.145C105.837 120.299 104.459 121.741 101.975 118.814C98.9889 121.072 95.7108 122.243 93.4767 125.274Z" fill="#A400FF"/>
<path d="M73.5146 173.832C73.5146 175.232 73.7861 176.905 72.7212 177.845C72.6782 177.899 72.6245 177.944 72.5634 177.976C72.5023 178.009 72.4352 178.028 72.3662 178.033C72.1625 178.029 71.9681 177.947 71.8234 177.803C69.3804 175.713 68.7332 172.222 68.5244 169.003C68.376 168.194 68.5164 167.358 68.9211 166.641C69.4846 166.055 70.2128 165.654 71.0091 165.491C72.2772 165.103 73.5073 164.599 74.6839 163.986C74.3289 164.174 74.4542 166.265 74.4542 166.62C74.6124 167.404 74.6893 168.203 74.6839 169.003C74.452 169.715 74.1801 170.413 73.8696 171.093C73.6074 171.982 73.4876 172.906 73.5146 173.832Z" fill="#EC9C7D"/>
<path d="M100.596 193.71C101.251 194.71 101.6 195.88 101.598 197.076C101.582 197.293 101.494 197.499 101.348 197.661C100.909 198.079 100.199 197.786 99.7192 197.452C97.8754 195.98 96.294 194.206 95.0421 192.205C94.8409 191.973 94.7041 191.692 94.6454 191.39C94.6332 190.981 94.7501 190.579 94.9795 190.24L96.3993 187.627C96.4374 187.545 96.4947 187.474 96.5663 187.418C96.6612 187.387 96.7638 187.387 96.8586 187.418C97.6098 187.568 98.3442 187.792 99.051 188.087C100.011 188.484 100.032 188.526 99.928 189.509C99.7851 190.944 100.015 192.391 100.596 193.71Z" fill="#EC9C7D"/>
<path d="M93.4758 193.711C93.4352 193.847 93.4352 193.993 93.4758 194.129C93.4758 194.317 93.7055 194.443 93.8516 194.547C94.6791 195.212 95.4349 195.962 96.1066 196.784C97.6122 198.291 99.2241 199.688 100.93 200.964C101.252 201.298 101.638 201.562 102.065 201.742C102.492 201.922 102.951 202.013 103.415 202.01C103.518 202.03 103.624 202.03 103.728 202.01C103.841 201.89 103.907 201.735 103.916 201.571C104.076 200.14 103.837 198.693 103.227 197.39C103.035 196.876 102.752 196.402 102.391 195.989C102.203 195.786 101.973 195.625 101.717 195.517C101.462 195.409 101.186 195.356 100.909 195.362C100.303 195.362 99.7606 195.864 99.1342 195.864C98.5123 195.761 97.9566 195.415 97.5891 194.902C97.1045 194.353 96.6646 193.766 96.2737 193.147C95.9813 192.687 95.7099 191.851 95.2297 191.558C94.123 190.764 93.6846 193 93.4758 193.711Z" fill="#A400FF"/>
<path d="M67.1888 167.206C67.1023 167.254 67.0272 167.321 66.9687 167.401C66.9102 167.481 66.8697 167.573 66.8499 167.67C66.83 167.767 66.8314 167.868 66.8539 167.964C66.8763 168.061 66.9194 168.152 66.98 168.23C67.3325 169.381 67.5703 170.565 67.6899 171.763C68.1367 174.169 68.7648 176.538 69.5691 178.849C69.6666 179.371 69.8662 179.869 70.1565 180.314C70.4467 180.759 70.8218 181.142 71.2604 181.441C71.3839 181.47 71.5126 181.47 71.6362 181.441C71.8153 181.392 71.9755 181.29 72.0955 181.148C73.1834 179.89 73.9057 178.357 74.1835 176.717C74.3089 176.096 74.3089 175.456 74.1835 174.836C74.1344 174.525 74.0196 174.228 73.8467 173.964C73.6739 173.701 73.4471 173.478 73.1813 173.31C72.5758 172.975 71.7823 173.059 71.1977 172.641C70.9307 172.405 70.7164 172.116 70.5689 171.792C70.4214 171.467 70.3439 171.116 70.3416 170.759C70.2382 169.935 70.1963 169.103 70.2164 168.272C70.2164 167.624 70.4878 166.662 70.2164 166.182C69.6526 164.823 67.8152 166.662 67.1888 167.206Z" fill="#A400FF"/>
<path d="M117.301 78.4503C116.948 81.3548 116.116 84.1805 114.837 86.8116C114.757 87.0824 114.588 87.3181 114.357 87.4805C114.136 87.5856 113.891 87.629 113.647 87.606L103.917 87.4805C103.145 87.4805 102.184 87.3551 101.829 86.6235C101.516 87.2715 100.618 87.3133 99.9084 87.2297C96.7982 86.8706 93.7818 85.9349 91.0137 84.4705C92.0704 80.6833 93.4248 76.9858 95.0643 73.4126C95.6247 72.1498 96.3942 70.9907 97.3402 69.9845C98.6198 68.7702 100.153 67.8562 101.829 67.3089C106.005 65.8038 111.956 64.9677 115.151 68.8348C116.139 70.2092 116.839 71.7697 117.209 73.4223C117.578 75.0748 117.61 76.7852 117.301 78.4503Z" fill="#F89659"/>
<path d="M117.008 92.2881C120.913 96.3224 124.921 100.294 128.742 104.412C129.94 103.558 131.196 102.79 132.501 102.113C134.255 101.402 145.676 95.6117 150.082 94.7129C152.441 94.2308 154.885 94.3603 157.181 95.0891C157.56 95.176 157.89 95.4088 158.099 95.7371C158.413 96.3642 157.724 97.054 157.055 97.2004C156.35 97.2528 155.651 97.3718 154.967 97.5557C154.41 97.8864 153.932 98.336 153.568 98.8726C152.815 99.72 151.892 100.4 150.86 100.868C149.828 101.336 148.709 101.582 147.576 101.59C146.636 101.59 145.676 101.13 144.757 101.193C143.489 101.549 142.323 102.201 141.354 103.095C138.284 105.185 135.549 107.84 132.438 109.93C131.835 110.415 131.115 110.732 130.35 110.85C129.627 110.847 128.914 110.682 128.262 110.369C123.657 108.846 119.399 106.423 115.734 103.241C115.433 102.969 115.185 102.643 115.004 102.28C114.886 101.901 114.829 101.506 114.837 101.109C114.837 99.4788 114.837 97.8275 114.837 96.197C114.837 95.4729 115.002 94.7584 115.317 94.1067C115.491 93.7747 115.769 93.5091 116.109 93.3505C116.448 93.1919 116.83 93.1491 117.196 93.2287" fill="#FDB9A9"/>
<path d="M124.441 105.06C124.815 105.366 125.23 105.62 125.673 105.813C126.656 106.132 127.696 106.232 128.722 106.105C130.278 106.07 131.836 106.161 133.378 106.377C133.77 106.406 134.149 106.527 134.484 106.732C134.646 106.837 134.77 106.991 134.838 107.172C134.906 107.353 134.913 107.55 134.86 107.736C134.755 107.935 134.605 108.107 134.422 108.237C133.265 109.363 131.82 110.144 130.246 110.495C128.287 110.543 126.368 109.932 124.796 108.76L121.372 106.67C120.856 106.422 120.406 106.057 120.057 105.604C119.576 104.851 119.472 102.782 120.641 102.573C121.81 102.364 123.669 104.538 124.441 105.06Z" fill="#DE9F93"/>
<path d="M115.003 89.5701C113.771 88.6295 112.33 89.2775 110.827 89.3402C109.324 89.4029 107.465 89.4656 105.795 89.3402C102.6 89.2357 97.443 88.9012 94.499 92.3921C90.9912 96.5727 93.7473 103.471 95.5638 107.861C96.2051 109.006 96.6564 110.249 96.9001 111.539C97.0879 112.969 97.0879 114.416 96.9001 115.846C96.491 118.636 95.393 121.28 93.7055 123.538C93.3161 123.909 93.0075 124.357 92.7991 124.854C92.5907 125.35 92.487 125.884 92.4945 126.423C92.6361 126.887 92.8777 127.315 93.2024 127.677C93.5271 128.038 93.9269 128.323 94.3737 128.513C97.7119 130.465 101.474 131.577 105.336 131.753C107.137 131.724 108.93 131.493 110.681 131.063C112.268 130.812 114.001 131.356 115.17 129.872C115.534 129.349 115.789 128.759 115.922 128.137C117.258 123.099 117.237 117.685 119.241 112.919C120.306 110.327 122.102 107.192 121.935 104.307C121.817 103.194 121.521 102.107 121.058 101.088C120.056 98.5585 118.97 96.0711 117.759 93.6463C117.158 92.0975 116.216 90.7043 115.003 89.5701Z" fill="white"/>
<path d="M111.057 90.6158C111.057 90.6158 110.013 93.2497 103.061 89.3616C103.061 89.3616 104.94 89.1944 104.418 85.3273C104.27 83.9961 103.804 82.72 103.061 81.6065C103.144 81.692 103.249 81.7535 103.365 81.7845C103.48 81.8156 103.602 81.8151 103.717 81.783C103.832 81.751 103.936 81.6887 104.019 81.6025C104.102 81.5163 104.16 81.4094 104.188 81.293C104.315 81.6757 104.476 82.0465 104.668 82.4008C105.754 84.4912 108.134 86.9787 110.786 86.2679C110.522 86.7723 110.363 87.3255 110.32 87.8934C110.277 88.4613 110.35 89.0321 110.535 89.5707C110.668 89.9382 110.843 90.289 111.057 90.6158Z" fill="#FDB9A9"/>
<path d="M110.536 89.5708H110.181C107.571 89.8426 104.502 82.2129 104.502 82.2129H104.669C105.755 84.3032 108.135 86.7907 110.787 86.08C110.496 86.6092 110.322 87.1953 110.279 87.7979C110.236 88.4006 110.324 89.0054 110.536 89.5708Z" fill="#DE9F93"/>
<path d="M108.551 86.5602C112.351 86.8947 114.69 83.3202 115.108 78.6588C115.108 78.1432 115.108 77.6206 115.108 77.091C115.117 75.5704 114.941 74.0543 114.586 72.5759C112.915 65.4061 102.747 68.2698 102.747 68.2698C94.8125 71.8652 101.828 86.0167 108.551 86.5602Z" fill="#FDB9A9"/>
<path d="M111.265 68.1242C111.144 68.6852 110.984 69.237 110.785 69.7755C110.465 70.9041 110.082 72.0138 109.637 73.0991C108.866 75.2754 107.398 77.135 105.461 78.3877C105.01 78.7078 104.469 78.8761 103.916 78.8685C103.394 78.7639 103.435 78.3668 103.039 77.9905C102.905 77.8628 102.736 77.7785 102.553 77.7486C102.37 77.7188 102.183 77.7448 102.016 77.8233C101.878 77.9325 101.769 78.0728 101.696 78.2327C101.623 78.3927 101.59 78.5676 101.598 78.743C101.606 79.1634 101.719 79.5751 101.926 79.9404C102.134 80.3056 102.431 80.6127 102.788 80.8334C103.126 80.9813 103.448 81.1634 103.749 81.3769C104.104 81.6904 104.145 82.1503 104.333 82.5474L104.96 84.0316C105.191 84.4987 105.306 85.0152 105.294 85.5366C105.239 85.8373 105.119 86.1223 104.942 86.3715C104.765 86.6207 104.536 86.828 104.271 86.9789C102.887 87.6877 101.301 87.8945 99.7815 87.5642C98.7011 87.5039 97.653 87.1733 96.7331 86.6027C96.2234 86.1896 95.7421 85.7426 95.2924 85.2649C94.5587 84.7255 93.7587 84.2829 92.9121 83.948C93.7862 83.3443 94.5433 82.5864 95.1462 81.7113C95.6468 80.8853 95.962 79.9602 96.0702 79.0001C96.1783 78.0401 96.0768 77.0679 95.7726 76.151C95.4386 74.9805 95.7726 68.7513 100.157 66.6818C102.976 65.4458 106.117 65.1526 109.115 65.8457C109.67 65.9315 110.191 66.1704 110.618 66.5355C110.859 66.7171 111.047 66.9607 111.161 67.2404C111.275 67.5201 111.311 67.8255 111.265 68.1242Z" fill="#F89659"/>
<path d="M104.501 111.686L101.599 118.104C97.7845 113.215 94.8521 107.698 92.9341 101.799C90.8462 94.3366 94.5419 92.4553 94.5419 92.4553C97.3815 91.4101 99.3024 95.4445 102.079 103.618C103.604 108.112 104.501 111.686 104.501 111.686Z" fill="#FDB9A9"/>
<path d="M101.599 118.104C101.599 118.104 101.473 112.878 104.021 111.833C106.568 110.787 124.358 107.986 124.358 107.986L126.028 109.93C126.028 109.93 108.552 120.027 101.599 118.104Z" fill="#FDB9A9"/>
<path d="M130.454 131.878L130.225 131.648C131.102 132.631 131.686 133.321 131.853 133.53C131.415 132.965 130.935 132.401 130.454 131.878Z" fill="#DC9BD5"/>
<path d="M126.279 107.715C127.804 107.448 129.346 107.294 130.894 107.255C131.727 107.22 132.562 107.29 133.378 107.464C134.399 107.736 135.387 108.121 136.322 108.614C136.573 108.739 136.886 108.906 136.928 109.199C136.932 109.334 136.897 109.467 136.827 109.583C136.756 109.698 136.653 109.79 136.531 109.847C136.283 109.952 136.024 110.029 135.759 110.077C135.195 110.265 134.694 110.641 134.151 110.871C133.274 111.227 132.272 111.185 131.374 111.498C130.81 111.707 130.288 112.063 129.724 112.293C128.542 112.752 127.231 112.752 126.049 112.293C125.643 112.133 125.246 111.951 124.859 111.749C124.488 111.53 124.097 111.348 123.69 111.206C123.419 111.206 123.231 111.206 123.022 110.955C122.839 110.637 122.742 110.277 122.742 109.91C122.742 109.543 122.839 109.182 123.022 108.864C123.543 108.394 124.22 108.133 124.922 108.133L126.279 107.715Z" fill="#FDB9A9"/>
<path d="M91.8053 95.0051C91.3569 96.3635 91.0491 97.7644 90.8865 99.1858L90.6151 101.109C90.4955 101.504 90.4955 101.926 90.6151 102.321C90.9492 102.99 92.2229 102.718 92.8492 102.823L96.2735 103.366L103.101 104.37C103.247 103.204 103.247 102.024 103.101 100.858C102.892 99.7711 102.412 98.7677 102.141 97.6598C101.869 96.5519 101.828 95.8412 101.619 95.026C101.135 93.183 100.038 91.5605 98.5077 90.4273C96.1065 88.6714 92.5987 92.9148 91.8679 94.8379L91.8053 95.0051Z" fill="white"/>
<path d="M209.485 62.8984H136.531V128.535H209.485V62.8984Z" fill="white"/>
<path d="M155.403 106.304L146.467 106.345L146.527 119.639L155.463 119.598L155.403 106.304Z" fill="#A400FF"/>
<path d="M166.364 92.4574L157.428 92.498L157.55 119.568L166.487 119.527L166.364 92.4574Z" fill="#A400FF"/>
<path d="M177.436 103.005L168.5 103.046L168.575 119.538L177.511 119.498L177.436 103.005Z" fill="#A400FF"/>
<path d="M188.352 83.7875L179.416 83.8281L179.578 119.489L188.514 119.448L188.352 83.7875Z" fill="#A400FF"/>
<path d="M166.364 92.4574L157.428 92.498L157.55 119.568L166.487 119.527L166.364 92.4574Z" fill="url(#paint3_linear_778_1282)"/>
<path d="M188.352 83.7875L179.416 83.8281L179.578 119.489L188.514 119.448L188.352 83.7875Z" fill="url(#paint4_linear_778_1282)"/>
<path d="M199.333 73.7875L190.396 73.8281L190.603 119.439L199.54 119.398L199.333 73.7875Z" fill="#A400FF"/>
<path d="M179.71 184.409L161.732 183.823L163.967 196.658L176.703 197.055L179.71 184.409Z" fill="#A400FF"/>
<path d="M179.71 184.409L161.732 183.823L163.967 196.658L176.703 197.055L179.71 184.409Z" fill="url(#paint5_linear_778_1282)"/>
<path d="M160.292 152.845C159.835 153.743 159.612 154.743 159.644 155.75C159.235 160.292 159.631 164.871 160.814 169.275C162.902 175.65 167.453 180.792 171.984 185.726C171.629 185.182 172.653 182.297 172.778 181.545C173.049 180.186 173.342 178.848 173.613 177.511C173.904 175.356 173.711 173.164 173.049 171.093C171.921 166.377 169.696 161.993 166.556 158.3C164.744 156.186 162.634 154.348 160.292 152.845Z" fill="#A400FF"/>
<path d="M160.292 152.845C159.835 153.743 159.612 154.743 159.644 155.75C159.235 160.292 159.631 164.871 160.814 169.275C162.902 175.65 167.453 180.792 171.984 185.726C171.629 185.182 172.653 182.297 172.778 181.545C173.049 180.186 173.342 178.848 173.613 177.511C173.904 175.356 173.711 173.164 173.049 171.093C171.921 166.377 169.696 161.993 166.556 158.3C164.744 156.186 162.634 154.348 160.292 152.845Z" fill="url(#paint6_linear_778_1282)"/>
<path d="M180.378 168.23C182.043 164.922 183.264 161.407 184.011 157.778C184.383 155.955 184.39 154.075 184.032 152.249C183.673 150.423 182.956 148.686 181.923 147.139L173.216 160.35C171.42 162.809 170.011 165.531 169.04 168.418C168.351 171.362 168.287 174.418 168.851 177.389C169.416 180.36 170.597 183.178 172.318 185.663C174.26 183.991 175.178 180.166 176.243 177.804L180.378 168.23Z" fill="#A400FF"/>
<path d="M180.378 168.23C182.043 164.922 183.264 161.407 184.011 157.778C184.383 155.955 184.39 154.075 184.032 152.249C183.673 150.423 182.956 148.686 181.923 147.139L173.216 160.35C171.42 162.809 170.011 165.531 169.04 168.418C168.351 171.362 168.287 174.418 168.851 177.389C169.416 180.36 170.597 183.178 172.318 185.663C174.26 183.991 175.178 180.166 176.243 177.804L180.378 168.23Z" fill="url(#paint7_linear_778_1282)"/>
<path d="M180.535 180.013L161.273 179.39C159.66 179.338 158.309 180.601 158.258 182.21C158.206 183.82 159.472 185.167 161.085 185.219L180.347 185.842C181.961 185.894 183.311 184.632 183.363 183.022C183.415 181.413 182.149 180.065 180.535 180.013Z" fill="#A400FF"/>
<path d="M161.963 90.0728C162.782 90.0728 163.445 89.4083 163.445 88.5886C163.445 87.769 162.782 87.1045 161.963 87.1045C161.144 87.1045 160.48 87.769 160.48 88.5886C160.48 89.4083 161.144 90.0728 161.963 90.0728Z" fill="#A400FF"/>
<path d="M149.496 104.224C150.315 104.224 150.979 103.56 150.979 102.74C150.979 101.92 150.315 101.256 149.496 101.256C148.677 101.256 148.014 101.92 148.014 102.74C148.014 103.56 148.677 104.224 149.496 104.224Z" fill="#A400FF"/>
<path d="M172.693 101.422C173.512 101.422 174.176 100.758 174.176 99.9382C174.176 99.1186 173.512 98.4541 172.693 98.4541C171.875 98.4541 171.211 99.1186 171.211 99.9382C171.211 100.758 171.875 101.422 172.693 101.422Z" fill="#A400FF"/>
<path d="M183.344 82.1919C184.163 82.1919 184.826 81.5274 184.826 80.7078C184.826 79.8881 184.163 79.2236 183.344 79.2236C182.525 79.2236 181.861 79.8881 181.861 80.7078C181.861 81.5274 182.525 82.1919 183.344 82.1919Z" fill="#A400FF"/>
<path d="M194.973 72.8901C195.791 72.8901 196.455 72.2257 196.455 71.406C196.455 70.5863 195.791 69.9219 194.973 69.9219C194.154 69.9219 193.49 70.5863 193.49 71.406C193.49 72.2257 194.154 72.8901 194.973 72.8901Z" fill="#A400FF"/>
<path d="M149.832 103.032L149.143 102.426L161.963 87.8983L172.591 99.6459L183.051 80.3522L194.681 71.0293L195.245 71.7609L183.699 81.0002L172.778 101.255L161.963 89.2779L149.832 103.032Z" fill="#A400FF"/>
<path opacity="0.31" d="M192.781 42.0787C192.781 44.1042 191.979 46.047 190.55 47.4811C189.122 48.9153 187.183 49.7238 185.16 49.7293H165.554C163.527 49.7293 161.584 48.9233 160.15 47.4885C158.717 46.0537 157.912 44.1078 157.912 42.0787C157.912 40.0497 158.717 38.1037 160.15 36.6689C161.584 35.2342 163.527 34.4281 165.554 34.4281H168.373C168.362 34.2262 168.362 34.0238 168.373 33.8219C168.34 31.9592 169.047 30.1595 170.339 28.8188C171.631 27.4781 173.403 26.7063 175.263 26.673C177.124 26.6397 178.921 27.3478 180.261 28.6414C181.6 29.9351 182.371 31.7083 182.404 33.5711V33.8219C182.415 34.0238 182.415 34.2262 182.404 34.4281H185.223C186.225 34.4281 187.218 34.6262 188.144 35.0109C189.07 35.3956 189.911 35.9595 190.619 36.6702C191.327 37.3809 191.888 38.2245 192.27 39.1525C192.652 40.0806 192.847 41.075 192.844 42.0787H192.781Z" fill="#A400FF"/>
<path d="M190.421 41.3467C190.421 43.3758 189.616 45.3217 188.183 46.7565C186.749 48.1913 184.806 48.9973 182.779 48.9973H163.194C162.158 49.0516 161.122 48.8942 160.149 48.5347C159.176 48.1753 158.286 47.6213 157.534 46.9065C156.781 46.1917 156.182 45.3311 155.773 44.377C155.363 43.423 155.152 42.3955 155.152 41.3572C155.152 40.3188 155.363 39.2913 155.773 38.3373C156.182 37.3832 156.781 36.5226 157.534 35.8078C158.286 35.093 159.176 34.539 160.149 34.1796C161.122 33.8201 162.158 33.6628 163.194 33.717H165.992C165.992 33.508 165.992 33.2989 165.992 33.0899C165.992 31.2272 166.731 29.4407 168.046 28.1235C169.362 26.8064 171.146 26.0664 173.007 26.0664C174.868 26.0664 176.652 26.8064 177.968 28.1235C179.284 29.4407 180.023 31.2272 180.023 33.0899C180.033 33.2918 180.033 33.4942 180.023 33.6961H182.821C184.838 33.7126 186.768 34.5253 188.191 35.9577C189.614 37.39 190.415 39.3265 190.421 41.3467Z" fill="white"/>
<path d="M252.412 74.9387C252.502 74.8911 252.602 74.8662 252.704 74.8662C252.806 74.8662 252.907 74.8911 252.997 74.9387C253.079 75.0185 253.137 75.1199 253.164 75.2313C253.375 75.7213 253.391 76.2735 253.208 76.7748C253.026 77.2762 252.659 77.6887 252.182 77.9279C252.033 78.0375 251.862 78.1157 251.681 78.1578C251.592 78.1819 251.499 78.1809 251.41 78.1551C251.322 78.1293 251.242 78.0796 251.18 78.0115C251.063 77.8795 251.003 77.7067 251.013 77.5307C250.898 77.0025 250.975 76.4504 251.232 75.9747C251.489 75.4991 251.907 75.1314 252.412 74.9387Z" fill="#CE9E95"/>
<path d="M234.896 38.19C234.899 39.8822 234.445 41.5436 233.58 42.9978V43.1232L229.404 50.7738H220.635L217.085 42.517C216.441 41.2489 216.092 39.8514 216.064 38.429C216.036 37.0067 216.33 35.5964 216.924 34.304C217.518 33.0116 218.396 31.8704 219.493 30.9661C220.59 30.0618 221.878 29.4178 223.259 29.0823C224.639 28.7468 226.078 28.7286 227.467 29.0289C228.856 29.3292 230.159 29.9404 231.279 30.8166C232.398 31.6928 233.305 32.8112 233.932 34.0882C234.558 35.3651 234.888 36.7674 234.896 38.19Z" fill="#A400FF"/>
<path d="M234.894 38.1902C234.898 39.8823 234.443 41.5438 233.579 42.9979V43.1233L229.403 50.7739H220.634L217.084 42.5172C216.045 40.4897 215.772 38.1545 216.317 35.9419C216.862 33.7293 218.187 31.7884 220.049 30.4769C221.636 29.3535 223.534 28.7543 225.478 28.7628C226.714 28.7628 227.939 29.0066 229.081 29.4804C230.224 29.9542 231.262 30.6486 232.136 31.524C233.011 32.3994 233.704 33.4387 234.178 34.5825C234.651 35.7262 234.894 36.9521 234.894 38.1902Z" fill="url(#paint8_linear_778_1282)"/>
<path d="M230.217 38.0021C230.009 42.1828 226.334 50.7741 226.334 50.7741H220.634L217.084 42.5173C216.045 40.4898 215.772 38.1546 216.317 35.942C216.862 33.7294 218.187 31.7885 220.049 30.477C221.225 30.1085 222.471 30.0231 223.686 30.2277C224.901 30.4323 226.051 30.9211 227.042 31.6544C228.033 32.3877 228.837 33.3448 229.389 34.4478C229.94 35.5508 230.224 36.7686 230.217 38.0021Z" fill="url(#paint9_linear_778_1282)"/>
<path d="M220.634 50.7529H229.258V53.5749C229.258 54.6836 228.818 55.747 228.035 56.531C227.252 57.3151 226.189 57.7555 225.082 57.7555H224.664C223.557 57.7555 222.495 57.3151 221.711 56.531C220.928 55.747 220.488 54.6836 220.488 53.5749V50.7529H220.634Z" fill="#A400FF"/>
<path d="M223.139 51.0881C223.059 51.0942 222.98 51.0694 222.918 51.0188C222.856 50.9683 222.816 50.8958 222.805 50.8164C221.406 43.4793 221.197 42.3506 221.156 42.1833C221.143 42.0976 221.165 42.0106 221.216 41.9404C221.266 41.8702 221.342 41.8224 221.427 41.8071H222.325C222.826 41.8071 222.993 41.8071 223.077 41.4308C223.099 41.2455 223.188 41.0748 223.327 40.95C223.451 40.8619 223.604 40.8237 223.755 40.843C223.906 40.8624 224.044 40.9379 224.141 41.0546C224.275 41.208 224.362 41.3966 224.392 41.598L224.643 42.5805C224.643 42.5805 224.643 42.5805 224.643 42.4342C224.681 42.2161 224.766 42.0091 224.893 41.828C224.983 41.731 225.093 41.656 225.216 41.6089C225.339 41.5618 225.472 41.5437 225.603 41.5562C225.835 41.5737 226.051 41.6782 226.209 41.8489C226.209 41.4726 226.417 41.0964 226.543 40.741C226.668 40.3856 226.96 40.302 227.023 40.3438C227.133 40.347 227.239 40.3882 227.323 40.4606C227.407 40.5329 227.463 40.632 227.482 40.741C227.563 41.0344 227.612 41.3358 227.628 41.6398C227.611 41.7296 227.611 41.8218 227.628 41.9116H227.879H228.15H228.735C228.783 41.9131 228.831 41.9251 228.874 41.9467C228.917 41.9684 228.955 41.9992 228.986 42.037C229.005 42.0798 229.014 42.1261 229.014 42.1729C229.014 42.2197 229.005 42.266 228.986 42.3087L227.294 50.9627C227.293 51.0112 227.281 51.0588 227.259 51.1023C227.238 51.1457 227.207 51.1839 227.169 51.2143C227.132 51.2446 227.088 51.2664 227.041 51.278C226.993 51.2896 226.944 51.2909 226.897 51.2817C226.849 51.2725 226.804 51.253 226.765 51.2246C226.726 51.1962 226.693 51.1596 226.669 51.1174C226.645 51.0751 226.631 51.0281 226.627 50.9798C226.623 50.9314 226.63 50.8828 226.647 50.8373L228.255 42.5805H227.921C227.67 42.5805 227.232 42.7059 227.002 42.3506C226.907 42.1774 226.857 41.9835 226.856 41.7862C226.817 41.9561 226.768 42.1236 226.71 42.2878C226.584 42.7686 226.271 42.8731 226.042 42.8313C225.952 42.8086 225.869 42.767 225.797 42.7093C225.725 42.6516 225.666 42.5792 225.624 42.4969C225.624 42.4969 225.624 42.3715 225.457 42.3715C225.435 42.3586 225.409 42.3519 225.384 42.3519C225.358 42.3519 225.333 42.3586 225.311 42.3715C225.249 42.4669 225.207 42.5734 225.185 42.685C225.148 42.874 225.085 43.0569 224.998 43.2285C224.917 43.3523 224.796 43.4447 224.655 43.4903C224.515 43.5359 224.363 43.5321 224.225 43.4793C224.052 43.3626 223.932 43.1823 223.891 42.9777L223.619 41.8489C223.629 41.8076 223.629 41.7648 223.619 41.7235C223.529 42.0067 223.34 42.2485 223.088 42.4054C222.835 42.5624 222.535 42.6245 222.241 42.5805H221.803C222.116 44.2946 223.369 50.8373 223.369 50.8373C223.378 50.8785 223.379 50.9212 223.371 50.9627C223.363 51.0042 223.347 51.0437 223.324 51.0788C223.3 51.114 223.27 51.144 223.235 51.1672C223.199 51.1903 223.16 51.2061 223.118 51.2136L223.139 51.0881Z" fill="#A400FF"/>
</g>
<defs>
<linearGradient id="paint0_linear_778_1282" x1="95.9188" y1="133.488" x2="84.1371" y2="292.497" gradientUnits="userSpaceOnUse">
<stop offset="0.01"/>
<stop offset="0.08" stop-opacity="0.69"/>
<stop offset="0.21" stop-opacity="0.32"/>
<stop offset="1" stop-opacity="0"/>
</linearGradient>
<linearGradient id="paint1_linear_778_1282" x1="239.718" y1="130.938" x2="227.915" y2="289.969" gradientUnits="userSpaceOnUse">
<stop offset="0.01"/>
<stop offset="0.08" stop-opacity="0.69"/>
<stop offset="0.21" stop-opacity="0.32"/>
<stop offset="1" stop-opacity="0"/>
</linearGradient>
<linearGradient id="paint2_linear_778_1282" x1="69.2701" y1="121.406" x2="180.378" y2="228.634" gradientUnits="userSpaceOnUse">
<stop offset="0.01"/>
<stop offset="0.08" stop-opacity="0.69"/>
<stop offset="0.21" stop-opacity="0.32"/>
<stop offset="1" stop-opacity="0"/>
</linearGradient>
<linearGradient id="paint3_linear_778_1282" x1="140.978" y1="64.0165" x2="246.452" y2="249.247" gradientUnits="userSpaceOnUse">
<stop offset="0.01"/>
<stop offset="0.08" stop-opacity="0.69"/>
<stop offset="0.21" stop-opacity="0.32"/>
<stop offset="1" stop-opacity="0"/>
</linearGradient>
<linearGradient id="paint4_linear_778_1282" x1="159.831" y1="53.2788" x2="265.304" y2="238.51" gradientUnits="userSpaceOnUse">
<stop offset="0.01"/>
<stop offset="0.08" stop-opacity="0.69"/>
<stop offset="0.21" stop-opacity="0.32"/>
<stop offset="1" stop-opacity="0"/>
</linearGradient>
<linearGradient id="paint5_linear_778_1282" x1="164.758" y1="168.09" x2="187.184" y2="223.875" gradientUnits="userSpaceOnUse">
<stop offset="0.01"/>
<stop offset="0.08" stop-opacity="0.69"/>
<stop offset="0.21" stop-opacity="0.32"/>
<stop offset="1" stop-opacity="0"/>
</linearGradient>
<linearGradient id="paint6_linear_778_1282" x1="187.241" y1="132.576" x2="135.222" y2="139.606" gradientUnits="userSpaceOnUse">
<stop offset="0.01"/>
<stop offset="0.13" stop-opacity="0.69"/>
<stop offset="0.25" stop-opacity="0.32"/>
<stop offset="1" stop-opacity="0"/>
</linearGradient>
<linearGradient id="paint7_linear_778_1282" x1="126.134" y1="155.166" x2="206.839" y2="140.927" gradientUnits="userSpaceOnUse">
<stop offset="0.01"/>
<stop offset="0.13" stop-opacity="0.69"/>
<stop offset="0.25" stop-opacity="0.32"/>
<stop offset="1" stop-opacity="0"/>
</linearGradient>
<linearGradient id="paint8_linear_778_1282" x1="224.81" y1="58.5709" x2="225.856" y2="25.6065" gradientUnits="userSpaceOnUse">
<stop offset="0.01" stop-color="white"/>
<stop offset="1" stop-color="white" stop-opacity="0"/>
</linearGradient>
<linearGradient id="paint9_linear_778_1282" x1="232.535" y1="48.851" x2="216.776" y2="34.947" gradientUnits="userSpaceOnUse">
<stop offset="0.01" stop-color="white"/>
<stop offset="1" stop-color="white" stop-opacity="0"/>
</linearGradient>
<clipPath id="clip0_778_1282">
<rect width="330" height="249" fill="white"/>
</clipPath>
</defs>
</svg>
