<svg width="310" height="234" viewBox="0 0 310 234" fill="none" xmlns="http://www.w3.org/2000/svg">
<g clip-path="url(#clip0_1639_3124)">
<path opacity="0.18" d="M91.8704 22.4227C86.6028 27.871 82.2404 34.1136 77.5935 40.1059C60.2044 62.5552 38.7202 81.8962 23.4864 105.891C8.25258 129.886 -0.00660628 161.142 12.1666 186.786C20.3741 204.116 36.7545 216.402 54.3161 224.035C69.3356 230.674 85.5833 234.069 102 233.999C136.322 233.593 168.143 216.808 201.705 209.59C216.586 206.386 231.88 205.057 246.588 201.18C257.02 198.434 267.227 194.35 275.9 187.935C299.876 170.226 308.359 136.396 301.281 107.411C294.203 78.4252 273.883 54.1281 250.079 36.1772C209.706 5.7238 133.115 -20.2397 91.8704 22.4227Z" fill="#7209B7"/>
<path d="M103.156 170.875L72.0938 169.873L75.9475 192.063L97.9576 192.78L103.156 170.875Z" fill="#7209B7"/>
<path d="M103.156 170.875L72.0938 169.873L75.9475 192.063L97.9576 192.78L103.156 170.875Z" fill="url(#paint0_linear_1639_3124)"/>
<path d="M69.4984 116.314C68.7305 117.873 68.3518 119.594 68.3948 121.331C68.0069 129.197 68.0672 137.218 70.4208 144.722C73.8693 155.756 81.9044 164.658 89.7153 173.215C89.129 172.274 90.8619 167.283 91.0947 166.092C91.5516 163.76 92.0689 161.438 92.5517 159.115C93.3276 155.437 92.5517 151.569 91.6378 147.951C89.643 139.749 85.734 132.138 80.2318 125.743C77.1193 122.106 73.5052 118.931 69.4984 116.314V116.314Z" fill="#7209B7"/>
<path d="M69.4984 116.314C68.7305 117.873 68.3518 119.594 68.3948 121.331C68.0069 129.197 68.0672 137.218 70.4208 144.722C73.8693 155.756 81.9044 164.658 89.7153 173.215C89.129 172.274 90.8619 167.283 91.0947 166.092C91.5516 163.76 92.0689 161.438 92.5517 159.115C93.3276 155.437 92.5517 151.569 91.6378 147.951C89.643 139.749 85.734 132.138 80.2318 125.743C77.1193 122.106 73.5052 118.931 69.4984 116.314V116.314Z" fill="url(#paint1_linear_1639_3124)"/>
<path d="M104.294 142.926C106.932 137.054 109.596 131.105 110.587 124.742C111.579 118.378 110.699 111.471 106.811 106.342C101.793 113.957 96.7701 121.57 91.741 129.18C88.8443 133.575 85.8958 138.064 84.4733 143.141C81.9818 152.044 84.1974 165.738 90.1202 172.956C93.4998 170.063 95.0775 163.458 96.9052 159.374L104.294 142.926Z" fill="#7209B7"/>
<path d="M104.294 142.926C106.932 137.054 109.596 131.105 110.587 124.742C111.579 118.378 110.699 111.471 106.811 106.342C101.793 113.957 96.7701 121.57 91.741 129.18C88.8443 133.575 85.8958 138.064 84.4733 143.141C81.9818 152.044 84.1974 165.738 90.1202 172.956C93.4998 170.063 95.0775 163.458 96.9052 159.374L104.294 142.926Z" fill="url(#paint2_linear_1639_3124)"/>
<path d="M71.2312 162.231L104.544 163.31C105.876 163.353 107.136 163.922 108.05 164.893C108.965 165.863 109.458 167.157 109.423 168.491C109.378 169.823 108.809 171.083 107.84 171.997C106.872 172.911 105.581 173.404 104.251 173.369L70.9036 172.368C69.5727 172.323 68.3134 171.753 67.3996 170.783C66.4858 169.813 65.9914 168.52 66.024 167.187V167.187C66.0373 166.518 66.183 165.858 66.4527 165.246C66.7223 164.634 67.1105 164.081 67.5948 163.621C68.0791 163.16 68.6498 162.799 69.274 162.561C69.8982 162.322 70.5635 162.21 71.2312 162.231Z" fill="#7209B7"/>
<path d="M156.401 161.021L167.143 186.312L200.525 191.838L189.783 162.187L156.401 161.021Z" fill="#7209B7"/>
<path d="M156.401 161.021L167.143 186.312L200.525 191.838L189.783 162.187L156.401 161.021Z" fill="url(#paint3_linear_1639_3124)"/>
<path d="M167.143 186.312L145.659 191.838L189.636 204.488L200.525 191.838L167.143 186.312Z" fill="url(#paint4_linear_1639_3124)"/>
<path d="M167.143 186.312L145.659 191.838L184.412 210.558L200.525 191.838L167.143 186.312Z" fill="#7209B7"/>
<path d="M167.143 186.312L145.659 191.838L184.412 210.558L200.525 191.838L167.143 186.312Z" fill="url(#paint5_linear_1639_3124)"/>
<path d="M150.082 161.021L160.824 186.312L194.214 191.838L183.472 162.187L150.082 161.021Z" fill="#7209B7"/>
<path d="M158.143 180L187.585 173.533L183.472 162.187L150.082 161.021L158.143 180Z" fill="url(#paint6_linear_1639_3124)"/>
<path d="M160.823 186.312L139.348 191.838L183.325 204.488L194.213 191.838L160.823 186.312Z" fill="#7209B7"/>
<path d="M160.823 186.312L139.348 191.838L183.325 204.488L194.213 191.838L160.823 186.312Z" fill="url(#paint7_linear_1639_3124)"/>
<path d="M183.325 204.487L184.411 210.557L138.253 196.639L139.348 191.838L183.325 204.487Z" fill="#7209B7"/>
<path d="M183.325 204.487L184.411 210.557L138.253 196.639L139.348 191.838L183.325 204.487Z" fill="url(#paint8_linear_1639_3124)"/>
<path d="M236.734 55.2944V168.862C236.734 169.496 236.609 170.124 236.366 170.71C236.123 171.296 235.767 171.828 235.319 172.275C234.87 172.723 234.338 173.077 233.752 173.318C233.167 173.56 232.539 173.682 231.906 173.68H231.389L104.285 159.468C103.102 159.344 102.007 158.786 101.211 157.901C100.415 157.016 99.9746 155.867 99.9746 154.676V68.2632C99.9746 67.0721 100.415 65.9231 101.211 65.0382C102.007 64.1532 103.102 63.5949 104.285 63.4711L231.389 50.5196C232.658 50.3789 233.93 50.7481 234.927 51.5461C235.925 52.3442 236.565 53.5059 236.708 54.7763C236.725 54.949 236.734 55.1217 236.734 55.2944Z" fill="#7209B7"/>
<path d="M236.734 55.2944V168.862C236.734 169.496 236.609 170.124 236.366 170.71C236.123 171.296 235.767 171.828 235.319 172.275C234.87 172.723 234.338 173.077 233.752 173.318C233.167 173.56 232.539 173.682 231.906 173.68H231.389L104.285 159.468C103.102 159.344 102.007 158.786 101.211 157.901C100.415 157.016 99.9746 155.867 99.9746 154.676V68.2632C99.9746 67.0721 100.415 65.9231 101.211 65.0382C102.007 64.1532 103.102 63.5949 104.285 63.4711L231.389 50.5196C232.658 50.3789 233.93 50.7481 234.927 51.5461C235.925 52.3442 236.565 53.5059 236.708 54.7763C236.725 54.949 236.734 55.1217 236.734 55.2944Z" fill="url(#paint9_linear_1639_3124)"/>
<path d="M233.545 55.2947V168.863C233.545 169.497 233.42 170.125 233.177 170.71C232.934 171.296 232.578 171.828 232.129 172.275C231.681 172.723 231.149 173.078 230.563 173.319C229.977 173.56 229.35 173.683 228.717 173.681H228.199L101.096 159.468C99.9129 159.345 98.8177 158.786 98.0217 157.901C97.2256 157.016 96.7851 155.867 96.7852 154.676V68.2635C96.7851 67.0724 97.2256 65.9234 98.0217 65.0385C98.8177 64.1535 99.9129 63.5952 101.096 63.4714L228.251 50.5026C228.88 50.4394 229.515 50.5009 230.12 50.6837C230.726 50.8665 231.289 51.1669 231.778 51.5679C232.267 51.9688 232.673 52.4624 232.972 53.0204C233.27 53.5783 233.456 54.1898 233.519 54.8198C233.536 54.9775 233.544 55.136 233.545 55.2947Z" fill="#7209B7"/>
<path d="M103.156 147.355V68.2465L223.535 58.4551V153.934L103.156 147.355Z" fill="url(#paint10_linear_1639_3124)"/>
<path d="M207.663 113.395H135.262V78.7195L207.663 75.4902V113.395Z" fill="url(#paint11_linear_1639_3124)"/>
<path d="M207.663 153.251L135.262 149.4V117.004H207.663V153.251Z" fill="url(#paint12_linear_1639_3124)"/>
<path d="M233.545 154.624V168.862C233.545 169.496 233.42 170.124 233.177 170.71C232.934 171.296 232.578 171.828 232.129 172.275C231.681 172.723 231.149 173.077 230.563 173.318C229.977 173.56 229.35 173.682 228.717 173.68H228.199L101.096 159.468C99.9129 159.344 98.8177 158.786 98.0217 157.901C97.2256 157.016 96.7851 155.867 96.7852 154.676V147.328L233.545 154.624Z" fill="url(#paint13_linear_1639_3124)"/>
<path d="M118.579 82.3465C118.579 83.4517 116.803 84.4965 115.932 84.7555C115.569 84.8337 115.214 84.9464 114.872 85.0923C114.705 85.1772 114.565 85.307 114.468 85.4671C114.37 85.6272 114.319 85.8114 114.32 85.9989C114.363 86.3184 114.622 86.5774 114.691 86.8623C114.733 87.1535 114.701 87.4507 114.596 87.7258C114.26 88.7878 112.941 89.4526 112.622 90.5319C110.794 90.342 109.975 90.5319 108.165 90.1952L106.69 89.2195L108.966 84.9541C109.261 84.3539 109.623 83.7891 110.044 83.2704C110.534 82.7451 111.097 82.2942 111.717 81.9321C113.297 80.9051 114.945 79.985 116.648 79.1777C116.389 79.2813 118.579 82.0616 118.579 82.3465Z" fill="url(#paint14_linear_1639_3124)"/>
<path d="M122.864 37.0411L122.683 37.1101C121.687 37.4203 120.674 37.6711 119.648 37.8613L117.312 38.4139C116.617 38.6921 115.87 38.8158 115.122 38.7766C115.416 38.0748 115.939 37.4935 116.605 37.1274C117.105 36.8857 117.683 36.8079 118.174 36.5489C118.666 36.2729 119.046 35.8343 119.251 35.3082C119.455 34.7822 119.471 34.2013 119.295 33.665C119.184 33.3468 118.987 33.0657 118.726 32.8534C118.332 32.6313 117.876 32.544 117.428 32.6048C116.98 32.6655 116.564 32.8711 116.243 33.1901C115.622 33.8437 115.046 34.539 114.519 35.271C113.496 36.1937 112.422 37.0585 111.303 37.8613C110.268 38.7852 109.449 40.1926 109.846 41.5223C110.243 42.852 111.941 42.6966 113.122 42.6966C114.603 42.6757 116.077 42.4934 117.519 42.1526C118.941 41.8418 120.347 41.4446 121.761 41.0733C122.438 40.8598 123.13 40.6924 123.83 40.5725C124.293 40.5892 124.756 40.5308 125.201 40.3998C125.596 40.1974 125.937 39.9009 126.192 39.5364C126.676 38.9853 126.977 38.2975 127.054 37.5678C127.106 36.5489 126.416 35.556 125.33 35.8409C124.483 36.1885 123.66 36.5893 122.864 37.0411V37.0411Z" fill="#F9C6D6"/>
<path d="M117.519 77.3286C117.66 77.6149 117.732 77.9294 117.732 78.2482C117.732 78.567 117.66 78.8815 117.519 79.1678C117.345 79.3835 117.116 79.5476 116.856 79.6426C116.551 79.7903 116.211 79.85 115.875 79.8149C115.538 79.7798 115.218 79.6514 114.95 79.4441C114.673 79.1315 114.477 78.7546 114.381 78.3475C113.906 76.861 113.563 75.3354 113.355 73.7885C113.32 73.6497 113.32 73.5043 113.355 73.3655C113.433 73.2142 113.561 73.095 113.717 73.0287C114.519 72.5884 115.787 72.243 116.244 73.21C116.759 74.5531 117.186 75.929 117.519 77.3286V77.3286Z" fill="#F9C6D6"/>
<path d="M115.079 78.0377C114.908 78.0117 114.733 78.0296 114.571 78.0895C114.457 78.1488 114.359 78.2347 114.286 78.3399L112.562 80.3431C112.226 80.7317 111.863 81.267 112.105 81.716C112.189 81.8446 112.3 81.9526 112.432 82.0318C112.563 82.1111 112.711 82.1595 112.864 82.1736C113.707 82.2584 114.558 82.0965 115.312 81.7073C115.855 81.4656 116.39 81.2065 116.907 80.9216C117.297 80.7459 117.638 80.4759 117.898 80.1359C118.295 79.5142 118.416 78.0205 117.709 77.5456C117.347 77.3125 117.028 77.4765 116.691 77.6406C116.193 77.9002 115.641 78.0364 115.079 78.0377V78.0377Z" fill="#7209B7"/>
<path d="M107.803 84.1503C107.777 84.2611 107.777 84.3763 107.803 84.4871C107.861 84.5975 107.951 84.6877 108.061 84.7461C108.394 84.9778 108.786 85.1096 109.191 85.126C109.393 85.1341 109.594 85.0946 109.778 85.0106C109.962 84.9266 110.124 84.8005 110.251 84.6425C110.44 84.3435 110.553 84.0025 110.579 83.6495C110.726 82.8841 110.801 82.1064 110.803 81.3269C110.808 81.2166 110.771 81.1084 110.699 81.0247C110.641 80.9826 110.573 80.9559 110.501 80.947C109.863 80.8088 108.613 80.4721 108.294 81.2578C107.976 82.1893 107.81 83.166 107.803 84.1503V84.1503Z" fill="#F9C6D6"/>
<path d="M105.13 84.073C104.59 84.0992 104.056 84.2009 103.544 84.3752C103.287 84.4688 103.051 84.6135 102.851 84.8004C102.651 84.9873 102.491 85.2127 102.38 85.4631C102.294 85.715 102.294 85.9883 102.38 86.2402C102.553 86.6236 102.859 86.9306 103.242 87.1036C105.047 88.0808 107.092 88.5268 109.139 88.3902C109.664 88.4075 110.174 88.2184 110.562 87.8635C110.845 87.432 110.978 86.9192 110.941 86.4043L111.01 83.978C110.55 84.0046 110.102 84.1344 109.699 84.3579C108.949 84.6169 108.656 83.9953 108.027 83.8485C107.056 83.7803 106.079 83.856 105.13 84.073V84.073Z" fill="#7209B7"/>
<path d="M115.079 78.0377C114.908 78.0117 114.733 78.0296 114.571 78.0895C114.457 78.1488 114.359 78.2347 114.286 78.3399L112.562 80.3431C112.226 80.7317 111.863 81.267 112.105 81.716C112.189 81.8446 112.3 81.9526 112.432 82.0318C112.563 82.1111 112.711 82.1595 112.864 82.1736C113.707 82.2584 114.558 82.0965 115.312 81.7073C115.855 81.4656 116.39 81.2065 116.907 80.9216C117.297 80.7459 117.638 80.4759 117.898 80.1359C118.295 79.5142 118.416 78.0205 117.709 77.5456C117.347 77.3125 117.028 77.4765 116.691 77.6406C116.193 77.9002 115.641 78.0364 115.079 78.0377V78.0377Z" fill="url(#paint15_linear_1639_3124)"/>
<path d="M105.13 84.073C104.59 84.0992 104.056 84.2009 103.544 84.3752C103.287 84.4688 103.051 84.6135 102.851 84.8004C102.651 84.9873 102.491 85.2127 102.38 85.4631C102.294 85.715 102.294 85.9883 102.38 86.2402C102.553 86.6236 102.859 86.9306 103.242 87.1036C105.047 88.0808 107.092 88.5268 109.139 88.3902C109.664 88.4075 110.174 88.2184 110.562 87.8635C110.845 87.432 110.978 86.9192 110.941 86.4043L111.01 83.978C110.55 84.0046 110.102 84.1344 109.699 84.3579C108.949 84.6169 108.656 83.9953 108.027 83.8485C107.056 83.7803 106.079 83.856 105.13 84.073V84.073Z" fill="url(#paint16_linear_1639_3124)"/>
<path d="M111.604 57.2708C111.322 57.2999 111.049 57.3844 110.799 57.5196C110.55 57.6548 110.33 57.8379 110.151 58.0585C109.973 58.279 109.839 58.5327 109.759 58.805C109.678 59.0773 109.652 59.3628 109.682 59.6453C109.682 59.7402 109.682 59.8266 109.734 59.9216C109.744 64.8241 110.655 69.683 112.423 74.2546C112.463 74.4243 112.536 74.584 112.64 74.7237C112.744 74.8634 112.876 74.98 113.027 75.0662C113.289 75.1612 113.576 75.1612 113.837 75.0662C114.898 74.771 115.943 74.4193 116.967 74.0128L115.579 64.6964C115.515 64.4359 115.53 64.1625 115.622 63.9106C115.725 63.7369 115.867 63.5892 116.036 63.4789C117.613 62.3142 119.279 61.2749 121.019 60.3705C122.407 59.6539 123.993 58.8336 124.373 57.3053C124.446 57.0511 124.46 56.7835 124.414 56.523C124.367 56.2625 124.262 56.0161 124.105 55.803C123.883 55.5877 123.623 55.415 123.338 55.2935C122.394 54.7052 121.311 54.3775 120.2 54.3438C119.338 54.4387 119.027 54.9309 118.32 55.3022C116.346 56.2692 113.734 56.6664 111.604 57.2708Z" fill="#282328"/>
<path d="M119.407 47.0749C119.389 46.9821 119.348 46.8956 119.286 46.8245C119.2 46.7653 119.097 46.7378 118.993 46.7468C115.385 46.5242 111.766 46.9095 108.285 47.8865C108.585 48.83 109.002 49.7321 109.527 50.5718C110.923 53.024 112.32 55.4847 113.742 57.9283C113.829 58.2221 113.973 58.4958 114.166 58.7339C114.359 58.9719 114.596 59.1695 114.865 59.3155C115.135 59.4614 115.43 59.5528 115.734 59.5845C116.038 59.6161 116.346 59.5873 116.639 59.4997L116.837 59.4306L122.209 58.3427C123.071 58.17 121.346 53.7233 121.036 52.9031C120.364 51.0035 119.915 49.0262 119.407 47.0749Z" fill="white"/>
<path d="M126.597 57.0901C125.737 56.7539 124.902 56.3586 124.097 55.9072C121.045 54.1803 123.545 53.3169 124.562 51.2878C125.287 49.82 124.993 48.0672 124.614 46.4785C123.95 43.6896 123.062 40.7971 123.752 38.0082C123.833 37.5559 124.009 37.1261 124.269 36.7476C124.455 36.5122 124.67 36.3005 124.907 36.1172C125.549 35.551 126.292 35.1115 127.097 34.8221C128.681 34.3957 130.368 34.6097 131.796 35.4179C137.701 38.4313 137.667 48.0499 137.106 53.7055C137.09 55.0242 136.702 56.3114 135.986 57.4182C134.822 58.9551 133.735 58.4025 132.261 58.1435C130.27 57.8068 128.494 57.8327 126.597 57.0901Z" fill="#7209B7"/>
<path d="M130.037 38.8201C129.787 39.131 129.476 39.3872 129.123 39.5729C128.77 39.7585 128.383 39.8697 127.985 39.8994C127.858 39.915 127.73 39.8844 127.623 39.8131C127.508 39.6988 127.443 39.5436 127.442 39.3814C127.442 39.0619 127.364 38.6475 127.33 38.2416C127.295 37.8358 127.227 37.3264 127.183 36.9724C127.096 36.0298 126.744 35.1314 126.166 34.3821C126.047 34.2213 125.911 34.0737 125.761 33.9417C124.778 33.0783 128.787 33.4064 129.313 32.2148C129.925 33.0006 129.873 34.1144 130.175 35.0815C130.354 35.5523 130.504 36.0339 130.623 36.5234C130.693 36.926 130.677 37.3388 130.576 37.7347C130.475 38.1306 130.291 38.5005 130.037 38.8201V38.8201Z" fill="#F9C6D6"/>
<path d="M127.382 38.423L127.33 38.2417C127.278 37.784 127.226 37.3264 127.183 36.9724C127.096 36.0298 126.744 35.1314 126.166 34.3821V34.2871C126.166 34.2871 129.339 32.1976 129.683 34.6411C130.028 37.0847 127.382 38.423 127.382 38.423Z" fill="url(#paint17_linear_1639_3124)"/>
<path d="M124.045 32.9581C123.987 33.4659 124.08 33.9796 124.313 34.4346C124.443 34.623 124.603 34.7892 124.787 34.9267C125.453 35.363 126.24 35.5764 127.035 35.536C127.829 35.4957 128.591 35.2037 129.209 34.7022C129.818 34.1773 130.309 33.5285 130.647 32.799C130.986 32.0694 131.166 31.276 131.175 30.4714C131.272 29.6329 131.036 28.7898 130.52 28.1228C130.209 27.8207 129.828 27.6014 129.41 27.4853C128.993 27.3691 128.554 27.3597 128.132 27.458C126.976 27.7233 125.923 28.3239 125.106 29.1849C124.304 30.0828 124.106 31.8097 124.045 32.9581Z" fill="#F9C6D6"/>
<path d="M112.596 63.7727C111.94 64.6167 111.425 65.5614 111.07 66.5702C109.069 71.4805 107.769 76.6486 107.208 81.9221C108.84 82.1294 110.491 82.1294 112.122 81.9221C112.26 78.1886 112.839 74.4846 113.846 70.8874C114.011 70.1192 114.303 69.3839 114.709 68.7115C115.523 67.7065 116.579 66.9251 117.778 66.4407C120.415 65.1264 123.176 64.0766 126.02 63.3064C127.218 62.9697 128.425 62.6675 129.606 62.2617C130.616 61.9531 131.562 61.4646 132.399 60.8197C133.874 59.585 134.986 56.8825 133.037 55.5528C132.098 55.0364 131.048 54.7578 129.977 54.7411L126.683 54.4303C126.378 54.3636 126.06 54.3736 125.76 54.4595C125.459 54.5453 125.184 54.7044 124.959 54.9225C122.511 56.8134 120.002 58.4971 117.433 60.2153C115.812 61.286 113.872 62.2703 112.596 63.7727Z" fill="#473F47"/>
<path d="M135.486 41.3069C135.475 41.4881 135.498 41.6697 135.555 41.8422C135.717 44.4798 135.694 47.1256 135.486 49.76C135.425 51.3832 135.21 54.4916 133.511 55.3205C130.321 56.8833 124.192 56.2789 124.192 56.2789C123.48 56.1647 122.753 56.1941 122.054 56.3653C121.666 56.4861 121.321 56.6934 120.942 56.8401C119.552 57.2363 118.08 57.2363 116.691 56.8401C116.444 56.8082 116.207 56.726 115.993 56.5984C115.748 56.3723 115.6 56.0602 115.579 55.7272C115.558 55.3943 115.666 55.0661 115.881 54.8111C116.341 54.3194 116.944 53.9868 117.605 53.8613C119.386 53.2642 121.301 53.1893 123.123 53.6454C123.364 53.7145 123.597 53.7922 123.838 53.844C124.124 53.8871 124.412 53.9044 124.7 53.8958H126.864C129.356 53.8958 131.701 53.8958 132.037 50.9601C132.174 49.8633 132.202 48.7557 132.123 47.6532C131.977 45.6586 131.459 43.69 131.572 41.6955C131.573 41.0637 131.726 40.4415 132.02 39.8822C132.164 39.6068 132.378 39.3736 132.639 39.2056C132.901 39.0376 133.201 38.9405 133.511 38.9238C133.837 38.9487 134.151 39.0581 134.421 39.2413C134.692 39.4245 134.91 39.6752 135.055 39.9686C135.27 40.3881 135.416 40.8402 135.486 41.3069V41.3069Z" fill="#F9C6D6"/>
<path d="M128.795 31.6276C128.914 32.2329 128.96 32.8503 128.933 33.4667C129.356 33.0868 129.33 32.1456 129.89 32.1715C130.226 32.1715 130.382 32.6551 130.226 32.9573C130.129 33.1043 130.002 33.2295 129.853 33.3246C129.705 33.4198 129.538 33.4829 129.364 33.5099C129.269 34.805 130.295 35.6857 131.14 36.4714C132.072 37.3832 132.724 38.5426 133.02 39.813C133.356 41.4392 133.477 43.1025 133.382 44.7604C133.839 44.3978 134.485 44.5878 135.063 44.6482C135.923 44.6879 136.77 44.4235 137.456 43.901C138.142 43.3786 138.622 42.6314 138.813 41.7902C138.976 40.9485 138.876 40.077 138.528 39.2939C138.179 38.5108 137.599 37.854 136.865 37.4126C136.374 37.2149 135.939 36.9008 135.597 36.4973C135.218 35.8929 135.442 35.0899 135.468 34.3647C135.464 33.5721 135.198 32.8032 134.711 32.1782C134.225 31.5533 133.545 31.1076 132.778 30.9109C133.087 30.3434 133.286 29.7222 133.364 29.0804C133.365 28.648 133.276 28.2202 133.104 27.8236C132.932 27.427 132.68 27.07 132.364 26.7751C131.731 26.1974 131.002 25.7356 130.209 25.4108C129.498 24.9991 128.663 24.8552 127.855 25.005C127.412 25.1925 127.018 25.4803 126.704 25.8457C126.389 26.2112 126.164 26.6446 126.045 27.1118C125.824 27.0094 125.576 26.9802 125.337 27.0283C125.099 27.0765 124.882 27.1994 124.717 27.3795C124.555 27.5639 124.432 27.7787 124.353 28.0114C124.275 28.2441 124.243 28.4901 124.26 28.7351C124.271 29.058 124.338 29.3767 124.459 29.6762C124.76 29.3136 125.123 28.9595 125.485 29.2186C125.847 29.4776 126.071 30.0129 126.398 30.3065C126.762 30.6115 127.158 30.875 127.58 31.0922C128.001 31.2311 128.408 31.4104 128.795 31.6276Z" fill="#F86938"/>
<path d="M120.898 30.6779L120.596 32.353C120.575 32.5749 120.478 32.7825 120.32 32.94C120.163 33.0976 119.956 33.1954 119.734 33.2164C118.105 32.9315 114.113 32.353 111.268 33.1128C109.715 33.51 108.196 34.0296 106.725 34.667C106.139 34.9261 105.561 34.2698 105.656 33.4755L106.69 24.5216C106.785 23.7359 107.466 23.3474 107.966 23.805C110.018 25.6614 114.777 29.3742 120.096 29.3569C120.622 29.3569 121.019 29.9958 120.898 30.6779Z" fill="#7209B7"/>
<path d="M109.343 29.2623C109.588 26.1628 108.59 23.5555 107.114 23.4386C105.637 23.3217 104.242 25.7396 103.998 28.8391C103.753 31.9386 104.751 34.5459 106.228 34.6628C107.704 34.7797 109.099 32.3618 109.343 29.2623Z" fill="#7209B7"/>
<path d="M109.343 29.2623C109.588 26.1628 108.59 23.5555 107.114 23.4386C105.637 23.3217 104.242 25.7396 103.998 28.8391C103.753 31.9386 104.751 34.5459 106.228 34.6628C107.704 34.7797 109.099 32.3618 109.343 29.2623Z" fill="url(#paint18_linear_1639_3124)"/>
<path d="M115.669 36.7227L115.375 37.6075C115.245 38.0012 115.457 38.4265 115.85 38.5574L116.734 38.8518C117.127 38.9827 117.552 38.7697 117.682 38.3761L117.976 37.4912C118.107 37.0976 117.894 36.6723 117.501 36.5414L116.618 36.247C116.225 36.1161 115.8 36.329 115.669 36.7227Z" fill="#7209B7"/>
<path opacity="0.89" d="M248.08 119.534H177.54C176.11 119.532 174.738 118.962 173.727 117.949C172.715 116.935 172.146 115.562 172.144 114.129V88.1051C172.145 86.7111 172.683 85.3715 173.647 84.3659C174.611 83.3603 175.926 82.7665 177.316 82.7086L247.838 79.4362C248.545 79.4014 249.252 79.5065 249.918 79.7455C250.584 79.9845 251.196 80.3528 251.72 80.8292C252.244 81.3056 252.668 81.8808 252.97 82.5219C253.271 83.1629 253.444 83.8572 253.477 84.565C253.477 84.66 253.477 84.7463 253.477 84.8327V114.129C253.477 115.563 252.908 116.937 251.896 117.951C250.884 118.965 249.511 119.534 248.08 119.534V119.534Z" fill="white"/>
<path d="M203.706 72.5191L153.246 75.049C152.285 75.1105 151.34 74.7876 150.617 74.1513C149.895 73.515 149.454 72.6173 149.392 71.6557C149.388 71.5722 149.388 71.4887 149.392 71.4053V52.9536C149.406 51.947 149.791 50.981 150.471 50.2404C151.152 49.4997 152.081 49.0362 153.082 48.9386L203.568 44.0861C204.077 44.0304 204.592 44.0825 205.079 44.2393C205.567 44.3961 206.016 44.6539 206.397 44.996C206.779 45.3381 207.084 45.7568 207.293 46.2248C207.502 46.6929 207.611 47.1998 207.611 47.7125V68.4955C207.599 69.5395 207.187 70.539 206.46 71.2877C205.734 72.0363 204.748 72.4771 203.706 72.5191V72.5191Z" fill="#E3F6EC"/>
<path d="M123.675 126.607L87.1638 124.88C86.1452 124.831 85.1846 124.391 84.4814 123.651C83.7782 122.912 83.3865 121.929 83.3877 120.908V105.953C83.3876 104.91 83.7986 103.908 84.5314 103.166C85.2643 102.424 86.2597 102.001 87.3018 101.99L123.813 101.584C124.334 101.579 124.851 101.676 125.334 101.87C125.817 102.064 126.258 102.352 126.63 102.717C127.002 103.082 127.299 103.516 127.503 103.996C127.708 104.476 127.816 104.991 127.822 105.513V122.669C127.818 123.191 127.712 123.707 127.509 124.188C127.306 124.669 127.01 125.104 126.638 125.47C126.267 125.836 125.827 126.125 125.343 126.32C124.86 126.515 124.343 126.612 123.821 126.607H123.675Z" fill="#F6E8FF"/>
</g>
<defs>
<linearGradient id="paint0_linear_1639_3124" x1="73.7922" y1="142.14" x2="112.561" y2="238.584" gradientUnits="userSpaceOnUse">
<stop offset="0.01"/>
<stop offset="0.08" stop-opacity="0.69"/>
<stop offset="0.21" stop-opacity="0.32"/>
<stop offset="1" stop-opacity="0"/>
</linearGradient>
<linearGradient id="paint1_linear_1639_3124" x1="110.422" y1="140.601" x2="20.4837" y2="152.733" gradientUnits="userSpaceOnUse">
<stop offset="0.01"/>
<stop offset="0.13" stop-opacity="0.69"/>
<stop offset="0.25" stop-opacity="0.32"/>
<stop offset="1" stop-opacity="0"/>
</linearGradient>
<linearGradient id="paint2_linear_1639_3124" x1="25.1608" y1="152.601" x2="164.679" y2="128.027" gradientUnits="userSpaceOnUse">
<stop offset="0.01"/>
<stop offset="0.13" stop-opacity="0.69"/>
<stop offset="0.25" stop-opacity="0.32"/>
<stop offset="1" stop-opacity="0"/>
</linearGradient>
<linearGradient id="paint3_linear_1639_3124" x1="223.234" y1="152.62" x2="64.41" y2="236.813" gradientUnits="userSpaceOnUse">
<stop offset="0.01"/>
<stop offset="0.08" stop-opacity="0.69"/>
<stop offset="0.21" stop-opacity="0.32"/>
<stop offset="1" stop-opacity="0"/>
</linearGradient>
<linearGradient id="paint4_linear_1639_3124" x1="229.846" y1="165.089" x2="71.0224" y2="249.282" gradientUnits="userSpaceOnUse">
<stop offset="0.01"/>
<stop offset="0.08" stop-opacity="0.69"/>
<stop offset="0.21" stop-opacity="0.32"/>
<stop offset="1" stop-opacity="0"/>
</linearGradient>
<linearGradient id="paint5_linear_1639_3124" x1="230.527" y1="166.376" x2="71.7035" y2="250.56" gradientUnits="userSpaceOnUse">
<stop offset="0.01"/>
<stop offset="0.08" stop-opacity="0.69"/>
<stop offset="0.21" stop-opacity="0.32"/>
<stop offset="1" stop-opacity="0"/>
</linearGradient>
<linearGradient id="paint6_linear_1639_3124" x1="160.816" y1="145.445" x2="183.74" y2="207.357" gradientUnits="userSpaceOnUse">
<stop offset="0.01"/>
<stop offset="0.08" stop-opacity="0.69"/>
<stop offset="0.21" stop-opacity="0.32"/>
<stop offset="1" stop-opacity="0"/>
</linearGradient>
<linearGradient id="paint7_linear_1639_3124" x1="142.555" y1="156.066" x2="203.211" y2="245.381" gradientUnits="userSpaceOnUse">
<stop offset="0.01"/>
<stop offset="0.08" stop-opacity="0.69"/>
<stop offset="0.21" stop-opacity="0.32"/>
<stop offset="1" stop-opacity="0"/>
</linearGradient>
<linearGradient id="paint8_linear_1639_3124" x1="149.349" y1="167.446" x2="170.588" y2="228.756" gradientUnits="userSpaceOnUse">
<stop offset="0.01"/>
<stop offset="0.08" stop-opacity="0.69"/>
<stop offset="0.21" stop-opacity="0.32"/>
<stop offset="1" stop-opacity="0"/>
</linearGradient>
<linearGradient id="paint9_linear_1639_3124" x1="292.798" y1="73.9187" x2="-48.2737" y2="195.913" gradientUnits="userSpaceOnUse">
<stop offset="0.01"/>
<stop offset="0.08" stop-opacity="0.69"/>
<stop offset="0.21" stop-opacity="0.32"/>
<stop offset="1" stop-opacity="0"/>
</linearGradient>
<linearGradient id="paint10_linear_1639_3124" x1="157.453" y1="-19.7205" x2="169.871" y2="237.729" gradientUnits="userSpaceOnUse">
<stop offset="0.01" stop-color="white"/>
<stop offset="0.08" stop-opacity="0.69"/>
<stop offset="0.21" stop-opacity="0.32"/>
<stop offset="1" stop-opacity="0"/>
</linearGradient>
<linearGradient id="paint11_linear_1639_3124" x1="138.702" y1="-8.19406" x2="222.429" y2="253.319" gradientUnits="userSpaceOnUse">
<stop offset="0.01"/>
<stop offset="0.08" stop-opacity="0.69"/>
<stop offset="0.177083" stop-color="#D8A8F2" stop-opacity="0.54"/>
<stop offset="0.536458" stop-color="#F9FAFF"/>
</linearGradient>
<linearGradient id="paint12_linear_1639_3124" x1="143.978" y1="37.5245" x2="203.856" y2="245.331" gradientUnits="userSpaceOnUse">
<stop offset="0.241461" stop-color="#B8F0DA" stop-opacity="0.87"/>
<stop offset="0.599121" stop-color="white"/>
<stop offset="0.654468" stop-color="#CFD8DC"/>
<stop offset="1" stop-opacity="0"/>
</linearGradient>
<linearGradient id="paint13_linear_1639_3124" x1="97.0697" y1="54.8022" x2="263.867" y2="300.422" gradientUnits="userSpaceOnUse">
<stop offset="0.01"/>
<stop offset="0.08" stop-opacity="0.69"/>
<stop offset="0.21" stop-opacity="0.32"/>
<stop offset="1" stop-opacity="0"/>
</linearGradient>
<linearGradient id="paint14_linear_1639_3124" x1="101.88" y1="75.1282" x2="129.869" y2="100.963" gradientUnits="userSpaceOnUse">
<stop offset="0.01"/>
<stop offset="0.13" stop-opacity="0.69"/>
<stop offset="0.25" stop-opacity="0.32"/>
<stop offset="1" stop-opacity="0"/>
</linearGradient>
<linearGradient id="paint15_linear_1639_3124" x1="112.389" y1="78.4522" x2="122.163" y2="83.3015" gradientUnits="userSpaceOnUse">
<stop offset="0.01"/>
<stop offset="0.13" stop-opacity="0.69"/>
<stop offset="0.25" stop-opacity="0.32"/>
<stop offset="1" stop-opacity="0"/>
</linearGradient>
<linearGradient id="paint16_linear_1639_3124" x1="104.406" y1="91.3518" x2="110.145" y2="78.4585" gradientUnits="userSpaceOnUse">
<stop offset="0.01"/>
<stop offset="0.13" stop-opacity="0.69"/>
<stop offset="0.25" stop-opacity="0.32"/>
<stop offset="1" stop-opacity="0"/>
</linearGradient>
<linearGradient id="paint17_linear_1639_3124" x1="125.942" y1="30.7557" x2="132.147" y2="44.2872" gradientUnits="userSpaceOnUse">
<stop offset="0.01"/>
<stop offset="0.13" stop-opacity="0.69"/>
<stop offset="0.25" stop-opacity="0.32"/>
<stop offset="1" stop-opacity="0"/>
</linearGradient>
<linearGradient id="paint18_linear_1639_3124" x1="112.693" y1="26.4736" x2="73.3215" y2="43.2631" gradientUnits="userSpaceOnUse">
<stop offset="0.01"/>
<stop offset="0.08" stop-opacity="0.69"/>
<stop offset="0.21" stop-opacity="0.32"/>
<stop offset="1" stop-opacity="0"/>
</linearGradient>
<clipPath id="clip0_1639_3124">
<rect width="310" height="234" fill="white"/>
</clipPath>
</defs>
</svg>
