<svg width="264" height="199" viewBox="0 0 264 199" fill="none" xmlns="http://www.w3.org/2000/svg">
<g clip-path="url(#clip0_2948_6609)">
<path opacity="0.18" d="M117.203 0.191762C115.987 0.149329 114.778 0.12104 113.576 0.0927507C94.2778 -0.31037 74.5839 0.340281 56.3609 6.69827C38.1378 13.0563 21.3432 25.942 14.3355 43.9056C10.7078 53.2339 9.8522 63.3614 8.50156 73.2768C5.97707 91.8698 1.58572 110.3 1.35237 129.056C1.11901 147.812 5.59521 167.557 18.4723 181.221C40.8108 204.956 71.7978 190.889 98.3792 184.496C114.155 180.715 130.565 180.423 146.465 183.64C156.959 185.762 167.092 189.418 177.579 191.667C185.124 193.286 192.973 194.178 200.66 193.18C208.043 192.226 213.735 188.704 220.46 185.868C233.259 180.436 246.2 173.519 254.36 161.857C260.614 152.702 263.485 141.654 262.478 130.612C259.968 101.502 232.778 89.2814 218.742 66.4025C210.567 53.1066 204.995 38.0285 194.48 26.5007C175.613 5.84959 145.39 1.08994 117.203 0.191762Z" fill="#7209B7"/>
<path d="M158.875 29.5271V173.908C158.875 177.252 157.547 180.46 155.183 182.824C152.818 185.189 149.611 186.518 146.267 186.518H83.7841C80.4402 186.518 77.2332 185.189 74.8687 182.824C72.5042 180.46 71.1758 177.252 71.1758 173.908V29.5271C71.1749 27.8706 71.5003 26.2301 72.1335 24.6994C72.7667 23.1686 73.6953 21.7777 74.8662 20.606C76.0371 19.4343 77.4273 18.5049 78.9575 17.8707C80.4877 17.2366 82.1278 16.9102 83.7841 16.9102H146.267C147.923 16.9102 149.564 17.2366 151.094 17.8707C152.624 18.5049 154.014 19.4343 155.185 20.606C156.356 21.7777 157.285 23.1686 157.918 24.6994C158.551 26.2301 158.876 27.8706 158.875 29.5271V29.5271Z" fill="#7209B7"/>
<path d="M144.951 19.0527H85.0915C78.3585 19.0527 72.9004 24.5116 72.9004 31.2454V171.92C72.9004 178.654 78.3585 184.113 85.0915 184.113H144.951C151.684 184.113 157.142 178.654 157.142 171.92V31.2454C157.142 24.5116 151.684 19.0527 144.951 19.0527Z" fill="#473F47"/>
<path d="M154.851 32.6242V168.843C154.82 171.932 153.563 174.881 151.358 177.042C149.153 179.204 146.179 180.401 143.092 180.371H87.0083C84.9595 180.378 82.9442 179.851 81.1602 178.844C79.3713 177.856 77.8788 176.408 76.837 174.65C75.7951 172.892 75.2419 170.887 75.2344 168.843V32.6242C75.268 29.5342 76.5271 26.5841 78.735 24.4223C80.9428 22.2606 83.9187 21.0643 87.0083 21.0963H96.484V22.7725C96.508 23.8721 96.8564 24.9401 97.4855 25.8423C98.1146 26.7445 98.9962 27.4407 100.02 27.8433C100.707 28.1142 101.438 28.2533 102.176 28.2535H128.228C129.719 28.263 131.155 27.6827 132.221 26.6389C133.287 25.5952 133.898 24.1725 133.92 22.6805V21.0963H143.113C146.129 21.0897 149.035 22.2328 151.238 24.293C152.379 25.3594 153.289 26.6494 153.911 28.0827C154.533 29.516 154.853 31.0618 154.851 32.6242V32.6242Z" fill="white"/>
<path opacity="0.31" d="M118.737 113.75H86.1445C85.5782 113.75 85.1191 114.209 85.1191 114.775V114.783C85.1191 115.349 85.5782 115.808 86.1445 115.808H118.737C119.303 115.808 119.762 115.349 119.762 114.783V114.775C119.762 114.209 119.303 113.75 118.737 113.75Z" fill="#7209B7"/>
<path opacity="0.31" d="M118.737 118.779H86.1445C85.5782 118.779 85.1191 119.238 85.1191 119.805V119.812C85.1191 120.378 85.5782 120.837 86.1445 120.837H118.737C119.303 120.837 119.762 120.378 119.762 119.812V119.805C119.762 119.238 119.303 118.779 118.737 118.779Z" fill="#7209B7"/>
<path opacity="0.18" d="M158.875 95.2285H71.168V100.738H158.875V95.2285Z" fill="#7209B7"/>
<path d="M58.0508 81.332H164.872C166.771 81.332 168.593 82.0868 169.937 83.4304C171.28 84.7739 172.035 86.5962 172.035 88.4963C172.035 90.3963 171.28 92.2186 169.937 93.5621C168.593 94.9057 166.771 95.6605 164.872 95.6605H58.0508V81.332Z" fill="#7209B7"/>
<path d="M144.308 81.332H58.0508V95.6534H144.308V81.332Z" fill="white"/>
<path d="M157.114 91.1413C159.024 91.1413 160.572 89.593 160.572 87.683C160.572 85.773 159.024 84.2246 157.114 84.2246C155.204 84.2246 153.656 85.773 153.656 87.683C153.656 89.593 155.204 91.1413 157.114 91.1413Z" stroke="white" stroke-width="1.57687" stroke-miterlimit="10"/>
<path d="M160.276 93.304L158.861 90.666" stroke="white" stroke-width="1.57687" stroke-miterlimit="10"/>
<path d="M139.215 108.652H86.7738C85.86 108.652 85.1191 109.393 85.1191 110.307C85.1191 111.221 85.86 111.962 86.7738 111.962H139.215C140.129 111.962 140.87 111.221 140.87 110.307C140.87 109.393 140.129 108.652 139.215 108.652Z" fill="#7209B7"/>
<path opacity="0.31" d="M118.737 131.057H86.1445C85.5782 131.057 85.1191 131.516 85.1191 132.082V132.089C85.1191 132.656 85.5782 133.115 86.1445 133.115H118.737C119.303 133.115 119.762 132.656 119.762 132.089V132.082C119.762 131.516 119.303 131.057 118.737 131.057Z" fill="#7209B7"/>
<path opacity="0.31" d="M118.737 136.084H86.1445C85.5782 136.084 85.1191 136.543 85.1191 137.109V137.117C85.1191 137.683 85.5782 138.142 86.1445 138.142H118.737C119.303 138.142 119.762 137.683 119.762 137.117V137.109C119.762 136.543 119.303 136.084 118.737 136.084Z" fill="#7209B7"/>
<path d="M139.215 125.951H86.7738C85.86 125.951 85.1191 126.692 85.1191 127.606C85.1191 128.52 85.86 129.261 86.7738 129.261H139.215C140.129 129.261 140.87 128.52 140.87 127.606C140.87 126.692 140.129 125.951 139.215 125.951Z" fill="#7209B7"/>
<path opacity="0.31" d="M118.737 148.355H86.1445C85.5782 148.355 85.1191 148.815 85.1191 149.381V149.388C85.1191 149.954 85.5782 150.414 86.1445 150.414H118.737C119.303 150.414 119.762 149.954 119.762 149.388V149.381C119.762 148.815 119.303 148.355 118.737 148.355Z" fill="#7209B7"/>
<path opacity="0.31" d="M118.737 153.391H86.1445C85.5782 153.391 85.1191 153.85 85.1191 154.416V154.423C85.1191 154.99 85.5782 155.449 86.1445 155.449H118.737C119.303 155.449 119.762 154.99 119.762 154.423V154.416C119.762 153.85 119.303 153.391 118.737 153.391Z" fill="#7209B7"/>
<path d="M139.215 143.256H86.7738C85.86 143.256 85.1191 143.997 85.1191 144.911C85.1191 145.825 85.86 146.566 86.7738 146.566H139.215C140.129 146.566 140.87 145.825 140.87 144.911C140.87 143.997 140.129 143.256 139.215 143.256Z" fill="#7209B7"/>
<g opacity="0.41">
<path opacity="0.41" d="M147.624 60.4037C151.444 60.3993 155.24 60.9935 158.875 62.1647V56.9949C152.669 55.2601 146.146 54.985 139.816 56.1914C133.486 57.3977 127.52 60.0526 122.387 63.9484C117.254 67.8442 113.091 72.8751 110.226 78.6475C107.36 84.42 105.869 90.7773 105.869 97.222C105.869 103.667 107.36 110.024 110.226 115.797C113.091 121.569 117.254 126.6 122.387 130.496C127.52 134.392 133.486 137.046 139.816 138.253C146.146 139.459 152.669 139.184 158.875 137.449V132.279C153.814 133.904 148.46 134.413 143.183 133.771C137.906 133.13 132.831 131.353 128.306 128.563C123.781 125.773 119.914 122.035 116.971 117.608C114.027 113.181 112.077 108.169 111.255 102.917C110.433 97.664 110.758 92.2958 112.208 87.1808C113.658 82.0659 116.198 77.3256 119.654 73.286C123.109 69.2463 127.399 66.0031 132.228 63.7793C137.056 61.5555 142.309 60.404 147.624 60.4037V60.4037Z" fill="url(#paint0_linear_2948_6609)"/>
</g>
<path d="M149.852 136.975C141.59 136.975 133.513 134.525 126.645 129.933C119.776 125.342 114.423 118.816 111.263 111.181C108.103 103.546 107.279 95.1456 108.893 87.0421C110.508 78.9386 114.49 71.4961 120.335 65.6563C126.18 59.8166 133.626 55.8418 141.73 54.2349C149.834 52.6281 158.233 53.4613 165.863 56.6292C173.494 59.7971 180.014 65.1573 184.598 72.0318C189.182 78.9062 191.624 86.986 191.615 95.2489C191.591 106.315 187.182 116.921 179.354 124.742C171.525 132.563 160.917 136.962 149.852 136.975V136.975ZM149.852 58.3881C142.572 58.3881 135.456 60.5464 129.403 64.5902C123.35 68.634 118.632 74.3817 115.844 81.1069C113.057 87.8321 112.325 95.2329 113.742 102.374C115.159 109.515 118.661 116.075 123.805 121.226C128.95 126.377 135.505 129.887 142.644 131.312C149.782 132.738 157.183 132.014 163.91 129.234C170.638 126.454 176.39 121.742 180.441 115.692C184.491 109.643 186.657 102.529 186.665 95.2489C186.662 85.4832 182.783 76.1184 175.88 69.211C168.978 62.3037 159.616 58.4187 149.852 58.4093V58.3881Z" fill="#7209B7"/>
<path d="M206.416 157.096C205.853 157.097 205.295 156.985 204.775 156.768C204.256 156.55 203.785 156.232 203.389 155.83L176.023 128.057C175.63 127.661 175.32 127.19 175.109 126.673C174.898 126.157 174.792 125.603 174.795 125.045C174.799 124.487 174.912 123.935 175.129 123.42C175.346 122.906 175.663 122.44 176.061 122.048C176.458 121.656 176.929 121.347 177.447 121.138C177.964 120.928 178.518 120.823 179.076 120.828C179.634 120.833 180.186 120.948 180.7 121.167C181.213 121.386 181.678 121.704 182.069 122.102L209.435 149.875C210.022 150.471 210.42 151.227 210.578 152.048C210.737 152.869 210.649 153.719 210.327 154.49C210.004 155.261 209.461 155.92 208.765 156.384C208.069 156.848 207.252 157.095 206.416 157.096V157.096Z" fill="#7209B7"/>
<path d="M219.526 165.922C219.059 166.384 218.505 166.75 217.897 166.997C217.288 167.245 216.637 167.37 215.98 167.365C215.323 167.361 214.673 167.227 214.068 166.97C213.463 166.714 212.915 166.341 212.454 165.873L180.237 133.17C180.057 132.992 179.894 132.798 179.749 132.59C179.664 132.477 179.587 132.364 179.516 132.251C179.286 131.864 179.182 131.416 179.218 130.968C179.253 130.52 179.426 130.093 179.714 129.747C180.34 129.002 181.023 128.307 181.757 127.668C182.601 126.919 183.515 126.253 184.487 125.681C184.884 125.443 185.345 125.336 185.806 125.375C186.267 125.415 186.703 125.598 187.054 125.9V125.9C187.151 125.977 187.243 126.059 187.33 126.148L219.604 158.857C220.063 159.326 220.425 159.88 220.67 160.489C220.914 161.098 221.036 161.749 221.029 162.406C221.022 163.062 220.885 163.71 220.627 164.314C220.37 164.917 219.995 165.464 219.526 165.922V165.922Z" fill="#473F47"/>
<path opacity="0.18" d="M103.669 52.384V66.7832C103.669 68.6708 102.921 70.4816 101.589 71.8191C100.257 73.1565 98.4496 73.9116 96.5622 73.9191H71.1758V45.248H96.5622C98.4496 45.2555 100.257 46.0106 101.589 47.3481C102.921 48.6855 103.669 50.4963 103.669 52.384V52.384Z" fill="#7209B7"/>
<path d="M95.3022 41.4648H48.0511C44.1105 41.4648 40.916 44.6597 40.916 48.6008V63C40.916 66.941 44.1105 70.1359 48.0511 70.1359H95.3022C99.2428 70.1359 102.437 66.941 102.437 63V48.6008C102.437 44.6597 99.2428 41.4648 95.3022 41.4648Z" fill="white"/>
<path d="M100.282 47.4687C103.121 47.4687 105.422 45.1667 105.422 42.3271C105.422 39.4875 103.121 37.1855 100.282 37.1855C97.4423 37.1855 95.1406 39.4875 95.1406 42.3271C95.1406 45.1667 97.4423 47.4687 100.282 47.4687Z" fill="#7209B7"/>
<path d="M87.8841 50.623H54.4787C53.6976 50.623 53.0645 51.2563 53.0645 52.0375V52.0446C53.0645 52.8258 53.6976 53.459 54.4787 53.459H87.8841C88.6652 53.459 89.2984 52.8258 89.2984 52.0446V52.0375C89.2984 51.2563 88.6652 50.623 87.8841 50.623Z" fill="#7209B7"/>
<path d="M87.8841 58.1699H54.4787C53.6976 58.1699 53.0645 58.8032 53.0645 59.5844V59.5915C53.0645 60.3726 53.6976 61.0059 54.4787 61.0059H87.8841C88.6652 61.0059 89.2984 60.3726 89.2984 59.5915V59.5844C89.2984 58.8032 88.6652 58.1699 87.8841 58.1699Z" fill="#7209B7"/>
<path d="M216.267 188.201C216.569 188.58 216.751 189.04 216.789 189.523C216.827 190.006 216.719 190.489 216.479 190.91C216.227 191.311 215.855 191.623 215.416 191.799C214.976 191.976 214.492 192.009 214.032 191.893C213.871 191.852 213.721 191.775 213.594 191.667C213.332 191.412 213.29 190.959 213.042 190.705C212.785 190.493 212.474 190.356 212.144 190.309C211.56 190.095 211.01 189.797 210.511 189.425C210.43 189.379 210.36 189.316 210.306 189.241C210.255 189.147 210.229 189.043 210.228 188.937C210.107 188.393 210.19 187.825 210.461 187.338C210.61 187.156 210.792 187.005 210.999 186.893C211.388 186.652 211.835 186.517 212.293 186.504C212.65 186.528 213.001 186.609 213.332 186.744C214.272 187.015 215.154 187.456 215.935 188.046" fill="#7209B7"/>
<path d="M214.435 183.865L216.011 189.297C216.011 189.297 215.714 190.662 214.046 190.089C212.377 189.516 210.977 185.237 210.977 185.237L214.435 183.865Z" fill="#FCBDBA"/>
<path d="M197.788 195.222C197.359 195.149 196.923 195.119 196.487 195.13C196.269 195.14 196.055 195.194 195.858 195.289C195.661 195.383 195.485 195.517 195.342 195.682C195.135 196.016 195.052 196.412 195.109 196.8C195.166 197.188 195.359 197.544 195.653 197.804C196.246 198.294 196.973 198.595 197.739 198.667C198.204 198.773 198.688 198.773 199.153 198.667C199.74 198.497 200.299 198.009 200.886 198.193C201.142 198.3 201.381 198.445 201.593 198.624C201.994 198.914 202.49 199.042 202.981 198.98C203.472 198.918 203.921 198.672 204.238 198.292C204.408 198.038 204.53 197.755 204.598 197.457C204.846 196.517 204.733 195.336 203.955 194.791C203.035 194.133 202.321 194.586 201.437 194.89C200.258 195.258 199.015 195.371 197.788 195.222V195.222Z" fill="#7209B7"/>
<path d="M198.553 189.954L200.858 195.611C200.858 195.611 202.18 196.411 203.121 196.057L204.047 195.675L203.234 187.775L198.553 189.954Z" fill="#FCBDBA"/>
<path d="M181.419 132.443C181.264 132.238 181.058 132.012 180.811 132.047C180.563 132.083 180.521 132.182 180.373 132.139C180.28 132.106 180.201 132.044 180.146 131.962C179.794 131.589 179.403 131.255 178.979 130.965C178.721 130.738 178.41 130.58 178.074 130.505C177.83 130.493 177.587 130.554 177.377 130.68C177.166 130.806 176.998 130.991 176.893 131.213C176.683 131.653 176.63 132.153 176.745 132.627C176.87 133.102 177.06 133.556 177.311 133.978C177.462 134.294 177.655 134.589 177.883 134.855C178.591 135.626 179.764 135.753 180.712 136.227C180.813 136.289 180.927 136.327 181.044 136.34C181.145 136.324 181.24 136.284 181.323 136.223C181.405 136.163 181.472 136.084 181.518 135.994C181.884 135.471 182.106 134.861 182.162 134.225C182.111 133.567 181.851 132.943 181.419 132.443V132.443Z" fill="#FCBDBA"/>
<path d="M190.611 126.312C190.497 126.28 190.376 126.293 190.271 126.347C190.212 126.394 190.16 126.449 190.116 126.51C189.918 126.722 189.592 126.729 189.324 126.849C189.151 126.936 188.999 127.059 188.877 127.209C188.755 127.359 188.667 127.533 188.617 127.719C188.523 128.091 188.482 128.475 188.496 128.858C188.478 129.061 188.5 129.265 188.56 129.459C188.592 129.554 188.65 129.637 188.728 129.7C188.805 129.763 188.899 129.802 188.998 129.813C189.16 129.784 189.312 129.718 189.444 129.622C189.713 129.474 190.026 129.424 190.328 129.48C190.716 129.606 191.086 129.779 191.431 129.997C191.607 130.1 191.807 130.155 192.011 130.155C192.215 130.155 192.415 130.1 192.591 129.997C192.747 129.856 192.871 129.682 192.951 129.487C193.27 128.78 193.659 127.995 192.951 127.422C192.288 126.845 191.478 126.461 190.611 126.312V126.312Z" fill="#FCBDBA"/>
<path d="M211.627 152.301C211.461 155.276 211.128 158.239 210.63 161.177C209.993 164.09 209.612 167.4 209.612 167.4L215.502 184.374C215.502 184.374 211.917 186.757 209.612 185.831C207.306 184.904 201.472 171.891 201.472 171.891L199.252 157.089L205.128 150.342L211.627 152.301Z" fill="#473F47"/>
<path d="M195.37 151.121C195.37 151.121 191.17 164.891 191.17 168.469C191.17 172.048 196.205 189.686 196.205 189.686C196.205 189.686 201.671 191.539 202.951 189.686L204.231 187.833L201.155 170.082C201.155 170.082 205.511 160.817 206.282 158.434C206.748 156.965 207.082 155.457 207.279 153.929L195.37 151.121Z" fill="#473F47"/>
<path d="M197.138 113.403C196.647 114.385 196.333 115.446 196.212 116.536C196.156 117.076 196.243 117.621 196.462 118.117C196.682 118.613 197.027 119.043 197.463 119.365C197.731 119.493 197.98 119.654 198.206 119.846C198.998 120.652 198.093 122.116 198.545 123.163C198.728 123.499 199.027 123.757 199.387 123.888C199.746 124.018 200.141 124.012 200.497 123.87C200.845 123.706 201.152 123.467 201.397 123.17C201.642 122.873 201.817 122.525 201.911 122.152C202.114 121.394 202.205 120.61 202.18 119.825L202.258 115.15C202.369 114.11 202.205 113.059 201.784 112.102C201.503 111.608 201.089 111.203 200.589 110.933C200.088 110.663 199.523 110.538 198.955 110.574C197.866 110.808 197.534 112.491 197.138 113.403Z" fill="#FCBDBA"/>
<path d="M180.832 136.743C180.832 136.743 189.798 144.756 190.435 144.756C191.071 144.756 195.052 139.721 195.052 139.721L195.371 151.114C196.478 151.768 197.631 152.34 198.821 152.826C200.759 153.618 203.213 154.353 205.355 154.155C209.711 153.759 211.628 152.302 211.628 152.302L208.948 125.47C208.948 125.47 203.87 121.814 202.138 122.373C200.896 122.594 199.625 122.594 198.383 122.373C195.88 122.047 193.32 125.47 193.32 125.47L189.989 136.411L182.175 133.639C181.665 133.961 181.264 134.43 181.024 134.983C180.784 135.537 180.717 136.151 180.832 136.743V136.743Z" fill="#7209B7"/>
<path d="M197.896 108.334C198.836 107.478 200.965 107.125 202.004 107.012C202.803 106.898 203.617 106.956 204.392 107.183C205.166 107.41 205.883 107.8 206.494 108.327C208.192 109.939 208.368 112.57 208.347 114.989C208.326 117.408 208.291 120.003 209.705 121.842C210.921 123.412 212.908 124.063 214.457 125.272C215.221 125.839 215.857 126.563 216.32 127.394C216.783 128.226 217.064 129.147 217.144 130.095C217.505 137.366 206.403 134.247 202.732 132.627C202.083 132.377 201.486 132.007 200.972 131.538C200.429 130.952 200.03 130.247 199.805 129.48C198.943 126.882 199.09 124.055 200.215 121.559C200.385 121.191 200.569 120.732 200.335 120.406C200.208 120.262 200.048 120.151 199.869 120.081C199.399 119.886 198.996 119.561 198.706 119.143C198.417 118.726 198.253 118.234 198.235 117.726C198.387 116.981 198.722 116.286 199.211 115.703C199.451 115.412 199.616 115.066 199.692 114.697C199.768 114.327 199.754 113.944 199.649 113.582C199.395 113.009 198.787 112.726 198.334 112.309C197.542 111.601 196.969 109.699 197.627 108.681C197.702 108.555 197.792 108.438 197.896 108.334V108.334Z" fill="#F6A569"/>
</g>
<defs>
<linearGradient id="paint0_linear_2948_6609" x1="97.1275" y1="255.945" x2="216.309" y2="-221.455" gradientUnits="userSpaceOnUse">
<stop offset="0.01"/>
<stop offset="0.08" stop-opacity="0.69"/>
<stop offset="0.21" stop-opacity="0.32"/>
<stop offset="1" stop-opacity="0"/>
</linearGradient>
<clipPath id="clip0_2948_6609">
<rect width="264" height="199" fill="white"/>
</clipPath>
</defs>
</svg>
