<svg width="244" height="184" viewBox="0 0 244 184" fill="none" xmlns="http://www.w3.org/2000/svg">
<g clip-path="url(#clip0_2948_2995)">
<path opacity="0.18" d="M237.647 136.022C235.007 124.444 226.701 117.124 222.961 105.979C219.839 96.664 220.492 86.5305 218.677 76.8785C215.17 58.2212 202.45 42.2676 187.048 31.1846C171.646 20.1017 153.583 13.2979 135.637 7.21635C128.541 4.8154 121.329 2.49012 113.978 1.15549C110.258 0.460261 106.486 0.0759736 102.702 0.00660314C83.0784 -0.24794 65.1255 9.97505 51.9583 23.968C46.0244 30.2972 38.1447 39.1924 35.5319 47.6611C32.5134 57.4369 35.3256 68.6506 32.479 78.7635C30.1756 86.9364 24.9156 93.8985 20.2331 100.957C9.68557 116.78 1.16639 136.448 7.3409 154.438C12.7178 170.117 28.5666 180.553 44.9449 183.188C61.3232 185.823 78.0384 181.75 93.4815 175.765C103.575 171.857 113.717 167.035 124.54 167.083C134.592 167.124 144.074 171.362 153.652 174.41C170.645 179.789 188.584 181.503 206.287 179.439C213.341 178.606 220.561 177.079 226.371 172.986C237.51 165.095 240.687 149.348 237.647 136.022Z" fill="#7209B7"/>
<path d="M95.7793 153.545C80.4606 155.363 65.3633 158.716 50.715 163.555C49.051 164.105 47.1808 164.882 46.6582 166.554C62.5375 168.578 78.5818 168.975 94.5416 167.737C105.02 166.926 115.437 165.412 125.916 164.655C147.994 163.059 170.252 164.834 192.261 162.44C193.355 162.399 194.425 162.11 195.39 161.594C195.861 161.327 196.235 160.915 196.455 160.42C196.675 159.925 196.731 159.371 196.614 158.842C196.253 158.065 195.605 157.458 194.805 157.15C191.106 155.313 186.802 155.279 182.669 155.334C154.795 155.712 126.762 158.65 99.1416 154.866" fill="url(#paint0_linear_2948_2995)"/>
<path d="M139.242 79.1284C127.553 73.7142 115.307 68.3964 102.442 68.7335C97.7118 68.8573 93.0156 69.7516 88.2781 69.7791C80.3772 69.8144 72.6501 67.4595 66.1104 63.0234C62.5762 75.214 59.0741 87.4137 55.6041 99.6226C54.6484 102.987 53.3763 106.433 52.7437 109.873C51.6986 115.562 64.5633 118.404 68.7026 118.927C73.4744 119.532 78.3288 119.064 83.1419 119.222C87.2365 119.255 91.2731 120.195 94.9615 121.974C98.5507 123.804 102.731 124.815 106.554 126.253C115.967 129.782 125.896 132.816 135.907 131.915C145.918 131.014 156.081 125.345 159.636 115.941C160.481 113.705 160.935 111.338 161.698 109.061C163.665 103.317 169.908 95.8251 163.335 91.0851C156.335 85.9873 147.08 82.7471 139.242 79.1284Z" fill="#7209B7"/>
<path d="M130.35 80.2086C125.351 77.9315 120.366 75.5168 115.024 74.2303C102.228 71.1689 88.4898 74.8426 75.7695 71.4785C75.1691 72.8319 74.0561 73.8914 72.6753 74.4242C71.2944 74.957 69.7586 74.9194 68.4055 74.3198H68.3711C67.7866 76.6107 67.8004 79.39 67.3466 81.8047C66.7782 84.795 66.1066 87.7647 65.332 90.7137C63.8101 96.5167 61.9035 102.212 59.625 107.761C60.7664 107.644 61.729 108.759 61.8803 109.901C61.9367 111.051 61.7001 112.197 61.1927 113.23C61.1171 113.409 64.8713 114.538 65.2288 114.606C66.599 114.771 67.9841 114.771 69.3543 114.606C72.3384 114.366 75.2401 113.506 78.2035 113.093C89.3906 111.538 100.323 116.381 111.249 119.284C114.917 120.249 118.639 120.996 122.395 121.52C125.09 121.899 127.854 122.153 130.508 121.52C133.162 120.887 135.741 119.381 138.072 117.75C142.534 114.613 146.68 110.871 149.589 106.282C151.906 102.608 156.299 92.8532 151.968 89.2759C149.382 87.1432 144.494 86.2489 141.379 84.9624C137.661 83.4489 133.985 81.8643 130.35 80.2086Z" fill="url(#paint1_linear_2948_2995)"/>
<path d="M126.948 82.0584C114.571 78.5361 101.631 75.1789 88.9793 77.5386C84.3175 78.4054 79.8207 80.0221 75.152 80.7926C67.3498 82.0603 59.3468 80.938 52.1935 77.573C50.6029 90.1717 49.049 102.77 47.5317 115.369C47.1123 118.843 46.3972 122.441 46.3078 125.943C46.1634 131.722 59.3101 132.52 63.4974 132.389C68.3105 132.238 73.0136 131.013 77.7855 130.428C81.8348 129.795 85.9745 130.077 89.9007 131.254C93.7306 132.492 98.0211 132.843 102.023 133.662C111.869 135.677 122.148 137.102 131.898 134.673C141.648 132.245 150.793 125.042 152.842 115.183C153.324 112.844 153.406 110.436 153.819 108.084C154.871 102.098 159.869 93.7261 152.629 90.0731C144.873 86.1861 135.254 84.4387 126.948 82.0584Z" fill="#7209B7"/>
<path d="M118.331 84.5296C113.036 83.0574 107.735 81.4544 102.262 81.021C89.1428 79.996 76.1337 85.7748 63.0696 84.4608C62.8798 85.1735 62.5511 85.8417 62.1023 86.4268C61.6534 87.0119 61.0933 87.5024 60.4543 87.8701C59.8152 88.2377 59.1097 88.4753 58.3785 88.5691C57.6473 88.6629 56.9048 88.611 56.1937 88.4165C55.9737 90.7762 56.4206 93.5142 56.345 95.984C56.2487 99.0248 56.0493 102.072 55.7468 105.099C55.1512 111.069 54.1566 116.992 52.7695 122.828C53.8834 122.532 55.0111 123.516 55.3342 124.589C55.562 125.719 55.4981 126.889 55.1486 127.988C55.1004 128.18 58.9853 128.71 59.3497 128.71C60.7192 128.668 62.0788 128.463 63.3996 128.098C66.315 127.41 69.0447 126.096 71.905 125.222C82.7139 121.94 94.2653 125.016 105.5 126.144C109.274 126.523 113.067 126.68 116.859 126.612C119.61 126.557 122.36 126.385 124.877 125.373C127.51 124.328 129.69 122.443 131.752 120.468C135.665 116.671 139.185 112.357 141.337 107.342C143.049 103.359 145.875 93.0327 141.035 90.1433C138.147 88.4371 133.176 88.3202 129.903 87.5359C126.025 86.6003 122.167 85.5982 118.331 84.5296Z" fill="url(#paint2_linear_2948_2995)"/>
<path d="M78.4794 124.458C78.2058 123.2 78.0038 121.928 77.8743 120.647C77.8948 119.381 78.0259 118.12 78.2662 116.877C78.8988 112.275 78.2662 107.603 77.9912 102.96C77.7161 98.316 77.6886 93.5209 79.4351 89.2006C80.083 87.4101 81.2133 85.8338 82.7011 84.6463C84.4751 83.353 86.7235 82.9333 88.8894 82.6788C91.6397 82.3554 94.5276 82.2385 97.1404 83.2292C96.4699 83.5821 95.8796 84.0698 95.4063 84.6617C94.933 85.2536 94.587 85.937 94.3901 86.6689C94.0163 88.1469 93.8771 89.6744 93.9775 91.1957C94.1152 96.0719 94.6789 100.927 95.6621 105.705C96.6316 110.458 97.9793 115.48 96.3497 120.048C95.4352 122.594 93.6681 124.72 92.3273 127.072C91.4403 128.634 90.3471 130.56 88.5456 130.512C87.9844 130.45 87.4327 130.321 86.9023 130.127C85.5587 129.859 84.1754 129.859 82.8318 130.127C81.9379 130.251 80.0058 130.904 79.1944 130.423C77.7918 129.652 78.6925 125.841 78.4794 124.458Z" fill="url(#paint3_linear_2948_2995)"/>
<path d="M175.133 82.9395H95.4074C89.5366 82.9395 84.7773 87.7012 84.7773 93.5752V150.132C84.7773 156.006 89.5366 160.768 95.4074 160.768H175.133C181.004 160.768 185.763 156.006 185.763 150.132V93.5752C185.763 87.7012 181.004 82.9395 175.133 82.9395Z" fill="#7209B7"/>
<path d="M175.133 82.9395H95.4074C89.5366 82.9395 84.7773 87.7012 84.7773 93.5752V150.132C84.7773 156.006 89.5366 160.768 95.4074 160.768H175.133C181.004 160.768 185.763 156.006 185.763 150.132V93.5752C185.763 87.7012 181.004 82.9395 175.133 82.9395Z" fill="url(#paint4_linear_2948_2995)"/>
<path d="M185.763 100.346H84.7773V145.173H185.763V100.346Z" fill="url(#paint5_linear_2948_2995)"/>
<path d="M183.804 117.516H144.639C140.53 117.516 137.199 120.848 137.199 124.959V130.69C137.199 134.801 140.53 138.134 144.639 138.134H183.804C187.913 138.134 191.243 134.801 191.243 130.69V124.959C191.243 120.848 187.913 117.516 183.804 117.516Z" fill="url(#paint6_linear_2948_2995)"/>
<path d="M184.903 111.709H145.738C141.63 111.709 138.299 115.042 138.299 119.153V124.883C138.299 128.994 141.63 132.327 145.738 132.327H184.903C189.012 132.327 192.343 128.994 192.343 124.883V119.153C192.343 115.042 189.012 111.709 184.903 111.709Z" fill="#7209B7"/>
<path d="M148.564 128.71C152.35 128.71 155.419 125.639 155.419 121.851C155.419 118.063 152.35 114.992 148.564 114.992C144.778 114.992 141.709 118.063 141.709 121.851C141.709 125.639 144.778 128.71 148.564 128.71Z" fill="url(#paint7_linear_2948_2995)"/>
<path d="M63.422 161.649C71.6092 161.649 78.2463 155.008 78.2463 146.817C78.2463 138.625 71.6092 131.984 63.422 131.984C55.2347 131.984 48.5977 138.625 48.5977 146.817C48.5977 155.008 55.2347 161.649 63.422 161.649Z" fill="#F8C244"/>
<path d="M63.4288 159.467C70.4085 159.467 76.0666 153.806 76.0666 146.822C76.0666 139.839 70.4085 134.178 63.4288 134.178C56.4492 134.178 50.791 139.839 50.791 146.822C50.791 153.806 56.4492 159.467 63.4288 159.467Z" fill="#E8A825"/>
<path d="M62.2658 154.783V152.754C61.1821 152.748 60.1209 152.444 59.1992 151.873L59.6805 150.497C60.534 151.053 61.5294 151.352 62.5478 151.357C63.9848 151.357 64.9406 150.538 64.9406 149.396C64.9406 148.254 64.1636 147.608 62.6784 147.002C60.6156 146.197 59.3642 145.276 59.3642 143.563C59.3642 141.85 60.5469 140.632 62.3965 140.329V138.307H63.641V140.247C64.5532 140.256 65.4488 140.493 66.247 140.935L65.7519 142.311C64.9903 141.853 64.1169 141.614 63.2285 141.623C61.6814 141.623 61.1038 142.551 61.1038 143.349C61.1038 144.395 61.8464 144.911 63.586 145.64C65.6488 146.48 66.6939 147.525 66.6939 149.307C66.6872 150.171 66.3598 151.001 65.7753 151.637C65.1907 152.273 64.3908 152.668 63.531 152.747V154.811L62.2658 154.783Z" fill="#F8C244"/>
<path d="M65.1958 140.762C64.101 143.457 63.946 146.443 64.7558 149.237C65.3815 151.37 66.5503 153.31 67.1829 155.429C67.3897 156.047 67.4783 156.698 67.4442 157.348C67.3136 158.648 66.3922 159.715 65.519 160.685C66.6947 160.926 67.8843 160.382 68.9569 159.797C70.6213 158.981 72.0842 157.807 73.2405 156.358C74.0356 155.178 74.6088 153.863 74.932 152.477C76.0734 148.209 76.0734 143.716 74.932 139.448C74.4988 137.858 72.7936 133.476 70.5383 134.501C68.2831 135.526 66.124 138.471 65.1958 140.762Z" fill="url(#paint8_linear_2948_2995)"/>
<path d="M81.5255 162.055C89.7128 162.055 96.3498 155.415 96.3498 147.223C96.3498 139.031 89.7128 132.391 81.5255 132.391C73.3382 132.391 66.7012 139.031 66.7012 147.223C66.7012 155.415 73.3382 162.055 81.5255 162.055Z" fill="#F8C244"/>
<path d="M81.5245 159.867C88.5042 159.867 94.1623 154.206 94.1623 147.223C94.1623 140.239 88.5042 134.578 81.5245 134.578C74.5449 134.578 68.8867 140.239 68.8867 147.223C68.8867 154.206 74.5449 159.867 81.5245 159.867Z" fill="#E8A825"/>
<path d="M75.6126 152.678L76.8915 151.103C76.0527 150.417 75.4197 149.512 75.0625 148.489L76.2795 147.746C76.5948 148.716 77.1819 149.576 77.971 150.222C79.0849 151.124 80.3431 151.089 81.0651 150.222C81.7871 149.355 81.5808 148.344 80.8107 146.941C79.7243 145.021 79.3255 143.501 80.4188 142.125C81.512 140.749 83.1691 140.598 84.8056 141.527L86.0776 139.951L87.0471 140.735L85.8232 142.242C86.5262 142.828 87.0721 143.58 87.4115 144.43L86.2014 145.173C85.8933 144.34 85.363 143.607 84.6681 143.054C83.4648 142.077 82.4334 142.435 81.9177 143.054C81.2301 143.866 81.512 144.739 82.4059 146.397C83.4854 148.351 83.6367 149.837 82.5159 151.213C81.9671 151.875 81.1938 152.31 80.3438 152.437C79.4939 152.564 78.6271 152.373 77.9091 151.901L76.5752 153.49L75.6126 152.678Z" fill="#F8C244"/>
<path d="M171.483 77.188C179.67 77.188 186.307 70.5473 186.307 62.3557C186.307 54.1641 179.67 47.5234 171.483 47.5234C163.295 47.5234 156.658 54.1641 156.658 62.3557C156.658 70.5473 163.295 77.188 171.483 77.188Z" fill="#F8C244"/>
<path d="M171.482 74.9942C178.461 74.9942 184.119 69.3331 184.119 62.3497C184.119 55.3662 178.461 49.7051 171.482 49.7051C164.502 49.7051 158.844 55.3662 158.844 62.3497C158.844 69.3331 164.502 74.9942 171.482 74.9942Z" fill="#E8A825"/>
<path d="M172.238 70.3633L171.756 68.3957C170.701 68.6486 169.597 68.6033 168.566 68.265L168.717 66.8409C169.679 67.1779 170.717 67.2328 171.708 66.9992C173.083 66.6621 173.84 65.6233 173.572 64.5294C173.304 63.4356 172.389 62.9746 170.821 62.7407C168.642 62.438 167.198 61.8395 166.785 60.1472C166.373 58.4548 167.239 57.0238 168.965 56.2946L168.484 54.3271L169.694 54.0312L170.154 55.9162C171.047 55.7119 171.976 55.7355 172.857 55.985L172.692 57.4091C171.844 57.1455 170.939 57.1217 170.079 57.3403C168.573 57.7049 168.229 58.7162 168.422 59.5211C168.669 60.5324 169.515 60.897 171.378 61.1516C173.585 61.4818 174.816 62.2523 175.263 63.9859C175.452 64.8243 175.325 65.7029 174.906 66.4532C174.487 67.2035 173.807 67.7727 172.994 68.0517L173.489 70.1156L172.238 70.3633Z" fill="#F8C244"/>
<path d="M149.83 93.4725C154.718 96.5648 160.467 98.0112 166.236 97.6003C164.716 102.885 163.863 108.339 163.698 113.836C163.6 114.773 163.742 115.72 164.111 116.588C164.737 117.778 166.091 118.383 167.384 118.748C169.694 119.402 172.108 119.601 174.494 119.333C173.623 114.79 173.067 110.193 172.83 105.574C172.72 101.811 173.036 98.0612 173.132 94.305C173.173 92.702 173.483 90.6244 173.132 89.0559C172.781 87.4873 171.069 86.6343 169.997 85.6161C168.285 83.9713 167.013 81.9228 166.298 79.6584C165.844 78.3975 165.747 77.0361 166.016 75.7233C166.414 74.1823 167.542 72.9303 168.078 71.4374C168.615 69.9445 168.298 67.8394 166.758 67.4129C165.589 67.0895 164.159 67.9013 163.19 67.1583C162.846 66.89 162.64 66.4704 162.275 66.2158C161.939 66.0415 161.554 65.9835 161.181 66.0506C160.808 66.1178 160.467 66.3065 160.212 66.5873C159.72 67.1687 159.329 67.8293 159.057 68.5411C157.557 71.4042 155.256 73.7683 152.436 75.345C150.665 76.3675 148.797 77.2109 146.86 77.8629C145.402 78.3788 143.098 78.5027 141.847 79.342C140.417 80.2982 141.593 82.7129 142.225 84.254C143.796 88.0101 146.442 91.2175 149.83 93.4725Z" fill="url(#paint9_linear_2948_2995)"/>
<path d="M171.002 117.832C171.146 118.004 171.333 118.135 171.545 118.21C174.556 119.545 177.967 119.586 181.267 119.586C181.483 119.607 181.701 119.571 181.9 119.483C182.073 119.357 182.195 119.173 182.244 118.965C182.294 118.757 182.266 118.538 182.168 118.348C181.951 117.979 181.64 117.676 181.267 117.467C180.306 116.833 179.294 116.279 178.242 115.809C177.41 115.445 176.475 115.046 176.138 114.206C176.008 113.758 175.93 113.296 175.904 112.83C175.588 110.897 172.556 111.847 171.538 112.83C170.63 113.759 170.321 116.862 171.002 117.832Z" fill="#FCAB9A"/>
<path d="M141.895 72.5854C141.895 72.5854 140.011 82.2167 148.303 86.2481C154.051 89.0412 161.01 89.5503 167.294 89.7911C168.401 89.8323 169.639 89.7223 170.732 89.8736C172.919 90.1557 172.286 91.5385 172.025 93.3753C171.433 98.0259 170.801 102.667 170.127 107.299C169.618 109.712 169.653 112.208 170.23 114.606L176.838 113.718C177.541 106.975 178.804 100.301 180.613 93.7674C181.397 90.9331 182.483 87.4039 180.86 84.7002C179.259 82.2711 176.987 80.3592 174.321 79.1966L157.709 71.4434L141.895 72.5854Z" fill="#473F47"/>
<path d="M164.62 46.7743C166.477 46.0175 168.595 45.3158 170.444 46.0863C170.913 46.2594 171.307 46.5902 171.558 47.0219C171.711 47.4478 171.72 47.9121 171.583 48.3434C171.446 48.7748 171.172 49.1492 170.802 49.4091C170.038 49.9035 169.178 50.2295 168.278 50.3654C166.683 50.73 165.102 51.1772 163.541 51.6932C163.273 51.7688 163.016 51.8798 162.778 52.0234C162.515 52.217 162.284 52.4489 162.09 52.7113C160.651 54.4312 159.004 55.9656 157.188 57.2793C157.683 56.9216 157.504 53.6401 157.634 52.959C157.678 52.5413 157.822 52.1403 158.055 51.7905C158.287 51.4407 158.6 51.1523 158.968 50.9502C160.997 49.6568 162.331 47.7099 164.62 46.7743Z" fill="#FCAB9A"/>
<path d="M160.089 29.6031C160.337 30.181 160.949 30.58 161.093 31.206C161.238 31.832 160.667 32.6232 160.309 33.3318C159.835 34.2812 159.801 35.3956 159.319 36.3725C159.234 36.5844 159.088 36.7664 158.9 36.8954C158.723 36.9781 158.531 37.0248 158.336 37.033C157.576 37.0942 156.811 37.0409 156.067 36.8747C155.932 36.8125 155.781 36.7933 155.634 36.8197C155.509 36.9037 155.421 37.0313 155.386 37.1774C154.707 39.0182 154.485 40.9968 154.74 42.9425C154.823 43.5754 154.905 44.3597 154.389 44.7449C154.208 44.8753 153.993 44.9516 153.771 44.9651C152.292 45.1302 151.02 43.8919 150.223 42.6673C149.495 41.5533 148.902 40.3571 148.455 39.1037C148.304 38.7416 148.222 38.3541 148.215 37.9617C148.243 37.4989 148.359 37.0457 148.559 36.6271C149.171 35.1123 149.631 33.5407 149.934 31.9352C150.312 29.8714 150.477 27.7112 151.46 25.895C151.784 25.2714 152.297 24.7658 152.925 24.4503C153.648 24.2203 154.421 24.1917 155.159 24.3677C156.685 24.4647 158.115 25.1445 159.154 26.2665C159.429 26.6724 159.773 28.8807 160.089 29.6031Z" fill="#FCAB9A"/>
<path d="M156.582 73.1159C155.503 73.8277 154.283 74.2971 153.006 74.4918C151.188 74.9125 149.44 75.5913 147.815 76.5075C146.838 77.0923 146.178 78.0898 145.319 78.8328C144.636 79.4111 143.834 79.8312 142.97 80.0632C142.105 80.2951 141.201 80.333 140.32 80.1743C140.238 79.9335 140.148 79.6859 140.066 79.4382C137.315 71.1828 137.755 62.2394 138.574 53.7019C138.966 49.6567 142.142 36.7025 148.241 38.2091C148.241 38.2091 154.024 42.2062 155.571 44.9373C156.98 47.4621 159.009 49.4916 158.658 52.608C158.149 56.9903 155.805 60.8635 155.578 65.4246C155.497 66.0852 155.577 66.7555 155.811 67.3784C156.231 68.2658 157.221 68.7956 157.634 69.6761C157.857 70.2859 157.875 70.9519 157.685 71.5728C157.495 72.1938 157.108 72.7356 156.582 73.1159Z" fill="white"/>
<path d="M147.347 66.0979C147.478 66.7165 147.711 67.3092 148.035 67.8522C148.913 68.9659 150.181 69.7037 151.583 69.9161C153.169 70.3006 154.776 70.5923 156.396 70.7898C158.789 71.0925 160.707 72.1657 163.203 71.2301C164.916 70.4975 166.441 69.3875 167.665 67.9829C168.05 67.577 168.353 66.8065 167.872 66.552C167.738 66.5015 167.595 66.4781 167.452 66.4832H163.292C163.21 66.153 163.45 65.8365 163.615 65.5407C163.78 65.2449 163.849 64.7908 163.547 64.6257C163.244 64.4606 162.99 64.6739 162.756 64.839C161.584 65.6344 160.239 66.1364 158.833 66.3028C157.427 66.4692 156.001 66.2952 154.677 65.7952C152.229 64.8665 152.043 61.8189 151.686 59.4867C151.682 59.1963 151.61 58.9108 151.475 58.6536C151.34 58.3965 151.146 58.1751 150.909 58.0076C150.715 57.9362 150.508 57.9043 150.302 57.9137C150.095 57.9232 149.892 57.9738 149.706 58.0626C148.285 58.5079 147.082 59.4702 146.336 60.7594C145.724 62.0597 146.969 64.6601 147.347 66.0979Z" fill="#FCAB9A"/>
<path d="M148.648 46.3687C148.648 46.3687 152.691 56.977 153.461 57.7543C154.231 58.5317 145.939 63.3405 145.939 63.3405C145.939 63.3405 140.397 53.0212 140.603 48.5495C140.81 44.0778 145.533 42.1584 148.648 46.3687Z" fill="white"/>
<path d="M160.529 26.2866C159.244 28.2198 158.061 27.0503 156.596 25.7569L157.023 27.5731L154.513 28.722L153.138 27.4286C153.468 28.9628 152.87 30.5244 152.375 32.0173C151.646 34.2118 151.137 36.6197 151.88 38.8074C152.485 40.5961 153.901 42.1783 153.853 44.0633L150.924 41.3115C150.238 40.5877 149.442 39.977 148.565 39.5022C148.133 39.275 147.655 39.1483 147.167 39.1316C146.679 39.1149 146.193 39.2087 145.746 39.4059C145.354 39.6485 144.996 39.9423 144.681 40.2796C143.182 41.7656 141.47 43.1621 140.596 45.1365C139.826 46.8633 139.847 49.0304 138.534 50.537C136.746 52.649 133.342 52.0918 130.874 50.8603C129.167 50.0883 127.677 48.9068 126.535 47.4206C125.96 46.5919 125.554 45.6578 125.339 44.6719C125.125 43.6859 125.107 42.6673 125.287 41.6744C125.466 40.6815 125.839 39.7338 126.385 38.8853C126.931 38.0369 127.638 37.3044 128.467 36.7298C129.091 36.2975 129.774 35.9591 130.496 35.7253C131.699 35.3401 133.109 35.1819 133.879 34.1775C134.793 32.9804 134.291 31.2812 134.346 29.7745C134.392 28.7896 134.694 27.8337 135.222 27.0012C135.751 26.1687 136.487 25.4885 137.358 25.0277C139.785 23.7756 143.202 24.209 144.798 21.9938C145.26 21.1753 145.669 20.3273 146.021 19.4553C147.486 16.7034 151.763 16.0705 153.977 18.2582C154.392 18.7969 154.914 19.2442 155.51 19.5722C155.974 19.709 156.458 19.7649 156.94 19.7373C157.739 19.7228 158.528 19.9114 159.234 20.2857C159.94 20.6599 160.54 21.2074 160.976 21.8768C161.616 23.012 161.334 25.007 160.653 26.1078L160.529 26.2866Z" fill="#FC682D"/>
<path d="M170.505 115.803C170.008 116.606 169.806 117.557 169.934 118.493C169.956 118.793 170.071 119.08 170.264 119.311C170.476 119.49 170.729 119.613 171 119.669C174.431 120.728 177.998 121.279 181.589 121.306C182.055 121.335 182.522 121.272 182.964 121.121C183.183 121.045 183.379 120.915 183.534 120.743C183.689 120.571 183.798 120.362 183.851 120.137C183.879 119.825 183.822 119.511 183.686 119.229C183.242 118.181 182.4 117.351 181.346 116.923C180.291 116.495 179.11 116.503 178.061 116.945L177.938 117C177.577 117.205 177.197 117.373 176.803 117.502C176.412 117.57 176.012 117.57 175.62 117.502C174.609 117.386 173.608 117.185 172.63 116.903C171.902 116.575 171.193 116.208 170.505 115.803Z" fill="#473F47"/>
</g>
<defs>
<linearGradient id="paint0_linear_2948_2995" x1="122.733" y1="106.62" x2="120.296" y2="235.026" gradientUnits="userSpaceOnUse">
<stop offset="0.01"/>
<stop offset="0.13" stop-opacity="0.69"/>
<stop offset="0.25" stop-opacity="0.32"/>
<stop offset="1" stop-opacity="0"/>
</linearGradient>
<linearGradient id="paint1_linear_2948_2995" x1="153.925" y1="136.039" x2="-18.0479" y2="8.13162" gradientUnits="userSpaceOnUse">
<stop offset="0.01"/>
<stop offset="0.13" stop-opacity="0.69"/>
<stop offset="0.25" stop-opacity="0.32"/>
<stop offset="1" stop-opacity="0"/>
</linearGradient>
<linearGradient id="paint2_linear_2948_2995" x1="150.64" y1="137.385" x2="-38.2977" y2="36.8077" gradientUnits="userSpaceOnUse">
<stop offset="0.01"/>
<stop offset="0.13" stop-opacity="0.69"/>
<stop offset="0.25" stop-opacity="0.32"/>
<stop offset="1" stop-opacity="0"/>
</linearGradient>
<linearGradient id="paint3_linear_2948_2995" x1="132.015" y1="138.547" x2="23.9554" y2="60.4784" gradientUnits="userSpaceOnUse">
<stop offset="0.01"/>
<stop offset="0.13" stop-opacity="0.69"/>
<stop offset="0.25" stop-opacity="0.32"/>
<stop offset="1" stop-opacity="0"/>
</linearGradient>
<linearGradient id="paint4_linear_2948_2995" x1="87.287" y1="174.073" x2="205.462" y2="45.5916" gradientUnits="userSpaceOnUse">
<stop offset="0.01"/>
<stop offset="0.13" stop-opacity="0.69"/>
<stop offset="0.25" stop-opacity="0.32"/>
<stop offset="1" stop-opacity="0"/>
</linearGradient>
<linearGradient id="paint5_linear_2948_2995" x1="227.843" y1="55.1747" x2="46.8034" y2="187.204" gradientUnits="userSpaceOnUse">
<stop offset="0.01"/>
<stop offset="0.13" stop-opacity="0.69"/>
<stop offset="0.25" stop-opacity="0.32"/>
<stop offset="1" stop-opacity="0"/>
</linearGradient>
<linearGradient id="paint6_linear_2948_2995" x1="162.633" y1="87.8167" x2="166.171" y2="176.961" gradientUnits="userSpaceOnUse">
<stop offset="0.01"/>
<stop offset="0.13" stop-opacity="0.69"/>
<stop offset="0.25" stop-opacity="0.32"/>
<stop offset="1" stop-opacity="0"/>
</linearGradient>
<linearGradient id="paint7_linear_2948_2995" x1="135.067" y1="91.1271" x2="172.622" y2="176.522" gradientUnits="userSpaceOnUse">
<stop offset="0.01"/>
<stop offset="0.13" stop-opacity="0.69"/>
<stop offset="0.25" stop-opacity="0.32"/>
<stop offset="1" stop-opacity="0"/>
</linearGradient>
<linearGradient id="paint8_linear_2948_2995" x1="89.8457" y1="142.929" x2="27.6644" y2="156.523" gradientUnits="userSpaceOnUse">
<stop offset="0.01"/>
<stop offset="0.13" stop-opacity="0.69"/>
<stop offset="0.25" stop-opacity="0.32"/>
<stop offset="1" stop-opacity="0"/>
</linearGradient>
<linearGradient id="paint9_linear_2948_2995" x1="204.307" y1="32.967" x2="77.9756" y2="214.255" gradientUnits="userSpaceOnUse">
<stop offset="0.01"/>
<stop offset="0.08" stop-opacity="0.69"/>
<stop offset="0.21" stop-opacity="0.32"/>
<stop offset="1" stop-opacity="0"/>
</linearGradient>
<clipPath id="clip0_2948_2995">
<rect width="244" height="184" fill="white"/>
</clipPath>
</defs>
</svg>
