<svg width="240" height="182" viewBox="0 0 240 182" fill="none" xmlns="http://www.w3.org/2000/svg">
<g clip-path="url(#clip0_2577_6327)">
<path opacity="0.18" d="M109.767 3.27142C116.308 4.28623 122.672 6.23039 128.67 9.04569C136.987 13.055 143.853 19.2096 151.671 24.0025C164.994 32.1656 180.948 36.7835 196.093 39.9787C202.142 41.2645 208.267 42.4589 213.711 45.3574C222.028 49.8003 227.986 57.8569 232.13 66.4004C241.203 85.1535 242.859 107.901 234.784 127.148C226.89 145.856 208.856 161.657 188.366 163.665C162.506 166.336 136.654 171.433 110.75 174.658C92.7617 177.336 74.698 179.984 56.5133 180.22C48.9521 180.303 41.1944 179.931 33.9885 177.473C20.4691 172.84 8.25778 163.293 2.96494 149.659C0.838357 144.131 -0.165617 138.229 0.0123001 132.303C0.190218 126.378 1.54642 120.548 4.00082 115.158C7.0253 108.547 11.7284 102.712 13.9287 95.7739C15.9173 89.5051 15.698 82.8864 15.3955 76.397C15.0175 70.3545 15.7742 64.2945 17.6261 58.534C21.2101 46.7496 26.8583 35.4826 34.8354 26.1098C44.6649 14.508 58.1995 5.82001 73.1026 3.02036C78.8692 2.04431 84.7158 1.62904 90.5614 1.7803C96.9919 1.77833 103.413 2.27686 109.767 3.27142Z" fill="#7209B7"/>
<path d="M69.3429 132.101C69.3183 132.863 69.4602 133.622 69.7587 134.323C70.1269 134.982 70.6861 135.513 71.3617 135.844C72.8103 136.597 74.4907 136.763 76.0572 136.308C76.2707 136.265 76.463 136.15 76.6016 135.981C76.677 135.836 76.7086 135.672 76.6924 135.509C76.5757 134.64 76.1385 133.847 75.4674 133.288C74.7972 132.74 74.2245 132.081 73.7737 131.34C73.0176 129.88 73.5923 126.015 70.8551 126.608C68.5716 127.088 69.2824 130.45 69.3429 132.101Z" fill="#FFBAA8"/>
<path d="M68.9657 134.71C68.9657 134.71 68.5801 135.668 69.0565 136.231C69.5328 136.794 74.4476 139.868 77.7594 137.395C81.0712 134.923 73.268 134.596 73.268 134.596L68.9657 134.71Z" fill="#7209B7"/>
<path d="M69.1625 132.467C69.3137 132.393 69.486 132.377 69.6482 132.42C69.8104 132.463 69.952 132.563 70.0472 132.703C70.3726 133.067 70.7847 133.343 71.2449 133.504C71.7051 133.665 72.1983 133.706 72.6785 133.623C73.7522 133.364 74.1907 132.102 74.72 132.102C75.2493 132.102 78.1225 134.551 78.2813 135.601C78.4401 136.651 76.9808 137.427 75.3627 137.526C73.7446 137.625 70.0699 136.506 69.3969 135.647C69.1062 135.175 68.933 134.639 68.8922 134.086C68.8514 133.532 68.9441 132.977 69.1625 132.467Z" fill="white"/>
<path d="M59.9611 133.577C59.9365 134.339 60.0784 135.097 60.3769 135.798C60.746 136.459 61.3082 136.991 61.9875 137.32C63.4332 138.073 65.1114 138.239 66.6754 137.784C66.8987 137.736 67.0974 137.609 67.2349 137.426C67.3104 137.281 67.3419 137.117 67.3257 136.954C67.2091 136.085 66.7718 135.292 66.1008 134.733C65.4305 134.185 64.8578 133.527 64.4071 132.785C63.6887 131.325 64.2256 127.46 61.4884 128.061C59.1898 128.594 59.9006 131.956 59.9611 133.577Z" fill="#FFBAA8"/>
<path d="M59.5829 136.216C59.5829 136.216 59.1973 137.174 59.6736 137.737C60.15 138.3 65.0648 141.374 68.3766 138.901C71.6884 136.429 63.8852 136.102 63.8852 136.102L59.5829 136.216Z" fill="#7209B7"/>
<path d="M59.7796 133.981C59.9297 133.905 60.1018 133.886 60.2644 133.928C60.427 133.97 60.569 134.07 60.6643 134.209C60.9886 134.576 61.4 134.854 61.8602 135.018C62.3203 135.181 62.8142 135.225 63.2956 135.145C64.3693 134.886 64.8078 133.623 65.3447 133.623C65.8815 133.623 68.7397 136.073 68.8984 137.123C69.0572 138.172 67.5979 138.948 65.9798 139.047C64.3617 139.146 60.687 138.028 60.014 137.168C59.7208 136.696 59.5462 136.159 59.5054 135.604C59.4646 135.048 59.5587 134.491 59.7796 133.981Z" fill="white"/>
<path d="M58.0094 92.9359C58.0094 92.9359 57.4953 121.214 59.5746 130.647L64.8674 131.302L68.527 92.5859L58.0094 92.9359Z" fill="#473F47"/>
<path d="M74.3274 89.8477C74.3274 89.8477 76.8151 105.063 73.7982 129.598L68.5053 130.26L64.8457 91.5366L74.3274 89.8477Z" fill="#473F47"/>
<path d="M73.843 77.9191C73.843 78.4288 73.9111 78.9461 73.9111 79.4406C73.9111 82.2631 73.2608 85.1693 74.1001 87.9385C74.3709 88.5278 74.4503 89.1879 74.3269 89.8252C74.0889 90.3358 73.6714 90.7396 73.1549 90.9587C70.6824 92.3205 67.8621 92.739 65.0342 93.1346C62.9398 93.4313 59.9607 94.0551 58.025 92.9215C57.2876 92.3708 56.7937 91.5516 56.6488 90.6392C55.9072 87.7259 55.4688 84.7428 55.3408 81.7382C55.3408 81.3426 55.2878 80.9774 55.2651 80.5666C55.1064 77.8582 55.0459 75.1575 55.0988 72.4567C55.0988 70.4939 55.2954 68.3714 56.5657 66.8879C58.2594 64.9175 61.5334 63.6089 64.021 63.1525C64.8297 62.9906 65.6578 62.9495 66.4784 63.0308C67.638 63.218 68.7577 63.6012 69.7902 64.1643C71.0302 64.7805 72.1266 65.2979 72.7315 66.5227C73.3984 67.944 73.8641 69.4523 74.1152 71.0037C74.337 72.4568 74.3624 73.9334 74.1908 75.3933C74.1152 76.1084 73.9337 76.816 73.8657 77.5311C73.8506 77.6604 73.8506 77.7898 73.843 77.9191Z" fill="white"/>
<path d="M71.4996 65.1534L78.902 69.1247L94.5688 63.5254L97.2909 70.2658C97.2909 70.2658 82.9246 77.6606 80.1496 77.691C77.3747 77.7214 70.0781 75.6902 70.0781 75.6902L71.4996 65.1534Z" fill="white"/>
<path opacity="0.1" d="M77.9931 73.3851C77.1538 73.2862 72.9573 71.1865 72.4961 70.8365C73.1388 72.1983 74.0083 76.4282 74.152 76.5119C75.7342 77.3065 77.4547 77.7845 79.218 77.9193C80.9869 78.0504 82.7591 77.7147 84.3596 76.9455C85.1457 76.4836 85.9559 76.0645 86.7868 75.6903C87.2858 75.5001 87.8075 75.3936 88.299 75.2262C89.6066 74.7281 90.8364 74.0441 91.9511 73.1949C92.1326 73.105 92.2935 72.9781 92.4237 72.8222C92.5539 72.6664 92.6504 72.485 92.7072 72.2896C92.7828 71.7875 92.3367 71.3615 91.883 71.1408C91.1679 70.8252 90.3955 70.662 89.6146 70.6615C88.5888 70.5281 87.5487 70.5512 86.5297 70.73C85.887 70.9126 85.4106 71.4908 84.783 71.8027C82.9684 72.6015 79.959 73.6133 77.9931 73.3851Z" fill="#020202"/>
<path opacity="0.1" d="M62.4027 93.9027C61.5861 94.1385 59.7109 93.393 59.0909 93.2789C58.7129 93.218 58.3348 93.0278 58.0097 92.9365C56.1496 92.4724 55.9303 87.2231 55.7413 85.8081C55.2574 82.0727 54.5164 78.2003 54.471 74.4573C54.3902 73.0143 54.5564 71.5681 54.9625 70.1818C55.1727 69.4883 55.5315 68.8496 56.0136 68.3107C56.4956 67.7718 57.0892 67.3458 57.7526 67.0626C58.0127 66.9521 58.2999 66.9229 58.5768 66.9789C59.7034 67.268 59.9378 69.1471 60.1344 70.022C60.4746 71.6196 61.2459 72.35 62.0322 73.6281C62.8186 74.9062 62.8715 76.5038 63.6201 77.8199C63.805 78.1877 64.0623 78.5138 64.3762 78.7785C65.0154 79.1538 65.758 79.3113 66.4933 79.2274H71.8315C72.2611 79.1675 72.6971 79.2765 73.0489 79.5317C73.2032 79.7349 73.3115 79.9695 73.3663 80.2191C73.4212 80.4688 73.4212 80.7275 73.3665 80.9772L73.0413 84.9484C73.0466 85.1222 73.002 85.2939 72.9128 85.4429C72.7596 85.601 72.5564 85.7005 72.3381 85.7244C70.8759 85.9365 69.4552 86.3753 68.1266 87.0253C66.8365 87.9167 65.4641 88.681 64.0284 89.3076C63.6146 89.4944 63.2359 89.7518 62.9093 90.0684C62.5279 90.5476 62.3366 91.1521 62.3725 91.7649C62.3725 92.1529 62.864 93.3473 62.7203 93.6288C62.6883 93.6935 62.6437 93.7511 62.5891 93.7982C62.5346 93.8452 62.4712 93.8807 62.4027 93.9027Z" fill="#020202"/>
<path d="M68.112 60.8233C67.8163 61.1524 67.4091 61.3586 66.9702 61.4015C66.603 61.4356 66.2335 61.4356 65.8663 61.4015H65.6622C65.613 61.3857 65.5601 61.3857 65.5109 61.4015C65.4885 61.4229 65.4708 61.449 65.4591 61.4778C65.4473 61.5067 65.4418 61.5377 65.4429 61.5688C65.3786 62.3079 65.3786 63.0512 65.4429 63.7903C65.4429 63.9272 65.4429 64.0566 65.4429 64.1935C65.4818 64.3302 65.4818 64.4752 65.4429 64.6119C65.3374 64.7632 65.1773 64.867 64.9968 64.901C64.6752 65.0113 64.3384 65.0704 63.9987 65.076C63.2672 65.0238 62.5602 64.7884 61.942 64.3913C61.9953 63.12 61.9295 61.8464 61.7455 60.5874C61.5111 58.967 61.0876 57.3465 61.2615 55.7185C61.3067 55.0816 61.5441 54.4737 61.942 53.9763C62.2602 53.6727 62.6375 53.4389 63.0501 53.2896C63.4626 53.1403 63.9015 53.0788 64.3389 53.109C65.4983 53.0923 66.6386 53.4062 67.6281 54.0144C67.991 54.2654 68.0288 54.5849 68.112 54.9958C68.2405 55.6348 68.3388 56.2815 68.4144 56.9281C68.49 57.5748 68.5354 58.404 68.5505 59.1496C68.6075 59.7423 68.452 60.3359 68.112 60.8233Z" fill="#FFBAA8"/>
<path d="M66.826 54.3808C66.0699 54.5862 65.0945 54.3808 64.3308 54.7155C63.8071 54.9854 63.3979 55.4366 63.1784 55.9859C62.9589 56.5352 62.9439 57.1458 63.1362 57.7053C62.8261 57.8195 62.7657 57.2489 62.5237 57.0206C62.2817 56.7924 61.7676 57.0967 61.6995 57.4923C61.7206 57.8898 61.8374 58.2762 62.0398 58.6183C62.3383 59.3176 62.3916 60.0983 62.191 60.8321C62.1381 61.0071 62.0095 61.2125 61.8432 61.1669C61.6768 61.1212 61.5483 60.8245 61.4424 60.6952C61.274 60.4927 61.0894 60.3044 60.8905 60.1322C60.5124 59.7975 60.089 59.5008 59.6958 59.1736C59.3026 58.8465 59.159 58.5346 58.7053 58.4129C58.2764 58.3265 57.8417 58.2731 57.4048 58.2531C57.0614 58.1864 56.7433 58.0248 56.4861 57.7864C56.2288 57.548 56.0427 57.2423 55.9485 56.9034C55.8543 56.5645 55.8558 56.206 55.9527 55.8679C56.0497 55.5299 56.2383 55.2256 56.4974 54.9894C56.6469 54.8849 56.7731 54.7501 56.8679 54.5938C56.9249 54.4172 56.9404 54.2297 56.9133 54.046C56.9233 53.5658 57.0515 53.0955 57.2864 52.6773C57.5212 52.2591 57.8555 51.906 58.2592 51.6496C59.0686 51.1363 60.0094 50.8719 60.9661 50.8888C61.1732 50.9025 61.381 50.8767 61.5785 50.8127C61.761 50.7187 61.927 50.5954 62.07 50.4476C62.4744 50.1032 62.9497 49.8535 63.4616 49.7165C63.9736 49.5796 64.5094 49.5588 65.0303 49.6556C65.5513 49.7524 66.0443 49.9644 66.4739 50.2764C66.9034 50.5883 67.2587 50.9924 67.5141 51.4594C67.8229 51.9808 67.9431 52.5936 67.8543 53.1939C67.8273 53.4749 67.7136 53.7404 67.5292 53.9532C67.3448 54.166 67.099 54.3155 66.826 54.3808Z" fill="#FF681C"/>
<path d="M65.8664 61.4248H65.6623C65.6131 61.4091 65.5602 61.4091 65.511 61.4248C65.4886 61.4463 65.4709 61.4723 65.4592 61.5012C65.4474 61.53 65.4419 61.5611 65.443 61.5922C65.3787 62.3313 65.3787 63.0746 65.443 63.8137C64.7943 63.6055 64.2368 63.1784 63.8649 62.6046C63.4929 62.0307 63.3292 61.3453 63.4015 60.6641C64.2022 61.0037 65.0359 61.2586 65.8891 61.4248H65.8664Z" fill="#E0A091"/>
<path d="M62.3563 69.6082C61.6164 67.5094 59.3257 66.4115 57.2398 67.156C55.1539 67.9004 54.0627 70.2053 54.8026 72.304L58.4298 82.593C59.1697 84.6918 61.4605 85.7897 63.5464 85.0452C65.6323 84.3008 66.7235 81.9959 65.9836 79.8972L62.3563 69.6082Z" fill="white"/>
<path d="M172.335 69.9159C169.091 131.097 128.397 147.089 128.397 147.089C83.2185 120.005 83.4453 67.1162 83.4453 67.1162C112.238 59.2955 128.707 43.2964 129.221 42.7715C139.958 58.5119 172.335 69.9159 172.335 69.9159Z" fill="#7209B7"/>
<path d="M172.335 69.6726C169.091 130.854 128.397 146.845 128.397 146.845C83.2185 119.762 83.4453 66.8729 83.4453 66.8729C112.253 59.0674 128.722 43.0911 129.236 42.5586C139.958 58.3066 172.335 69.6726 172.335 69.6726Z" fill="url(#paint0_linear_2577_6327)"/>
<path d="M79.332 75.0432C79.7101 74.7617 80.0881 74.4498 80.4057 74.1454C81.2271 73.3996 82.1548 72.7816 83.158 72.312C84.1655 71.8403 85.2941 71.6967 86.3866 71.9012C86.621 71.9468 86.9008 72.0914 86.8705 72.3348C86.8403 72.5783 86.7042 72.5935 86.5605 72.6695C85.9246 73.0243 85.2529 73.3099 84.5568 73.5216C84.2695 73.6053 83.9368 73.7118 83.8007 73.9933C84.0334 74.0194 84.2689 73.9907 84.4887 73.9096C85.3504 73.6907 86.2437 73.6263 87.1276 73.7194C87.2108 73.7194 87.3091 73.7194 87.3544 73.8259C87.3998 73.9324 87.3544 74.0542 87.2183 74.1226C86.3715 74.7997 85.1012 74.7541 84.2922 75.4844C84.1485 75.6061 84.0426 75.8648 84.2014 75.9637C84.2676 75.9863 84.3394 75.9863 84.4056 75.9637C84.7534 75.9637 85.0936 75.8192 85.4415 75.7583C85.997 75.6481 86.567 75.6327 87.1276 75.7126C87.1648 75.7139 87.2013 75.7227 87.235 75.7384C87.2688 75.754 87.2991 75.7763 87.3242 75.8039C87.4074 75.9333 87.2335 76.0778 87.0974 76.1463L84.1712 77.432C84.5737 77.4664 84.9784 77.4664 85.381 77.432C85.7909 77.4087 86.1948 77.5388 86.5152 77.7972C86.5279 77.8037 86.5388 77.8134 86.5468 77.8254C86.5547 77.8374 86.5595 77.8513 86.5605 77.8656C86.5605 77.9189 86.5605 77.9493 86.4773 77.9721C86.0094 78.2264 85.4948 78.3817 84.9651 78.4286C84.6503 78.4528 84.3387 78.5089 84.0351 78.596C83.8508 78.6647 83.6714 78.746 83.4982 78.8394C82.9356 79.1401 82.3276 79.3457 81.6987 79.448C81.0672 79.5558 80.418 79.4487 79.8537 79.1437C79.703 79.0476 79.5435 78.9661 79.3774 78.9003C78.7725 78.7329 78.0995 79.3644 77.54 79.0677C77.3523 78.9389 77.2012 78.7633 77.1015 78.5579C76.799 78.0558 75.7858 76.656 76.6024 76.1919C77.0616 76.0113 77.5313 75.8589 78.0088 75.7355C78.475 75.557 78.919 75.3246 79.332 75.0432Z" fill="#FFBAA8"/>
<path d="M66.6753 76.6634L76.6863 75.6973L78.3044 80.6119C78.3044 80.6119 63.6735 86.5991 60.8305 84.9331C57.9875 83.267 60.6263 80.551 60.6263 80.551C60.6263 80.551 60.959 76.5645 66.6753 76.6634Z" fill="white"/>
<path d="M167.08 72.8822C164.214 126.806 128.351 140.903 128.351 140.903C88.5339 117.03 88.7305 70.4173 88.7305 70.4173C114.113 63.5247 128.623 49.42 129.077 48.9863C138.529 62.8704 167.08 72.8822 167.08 72.8822Z" fill="#7209B7"/>
<path d="M129.084 48.9785L128.328 140.903C88.5105 117.03 88.7071 70.4171 88.7071 70.4171C114.09 63.5245 128.6 49.4198 129.054 48.9861L129.084 48.9785Z" fill="url(#paint1_linear_2577_6327)"/>
<path d="M128.351 95.4535C132.23 95.4535 135.375 92.2893 135.375 88.3859C135.375 84.4826 132.23 81.3184 128.351 81.3184C124.471 81.3184 121.326 84.4826 121.326 88.3859C121.326 92.2893 124.471 95.4535 128.351 95.4535Z" fill="#473F47"/>
<path d="M124.125 106.014H131.694L129.546 94.6934H126.787L124.125 106.014Z" fill="#473F47"/>
<path opacity="0.18" d="M90.6445 85.801H99.6802V79.2051H106.841" stroke="white" stroke-width="1.22794" stroke-miterlimit="10"/>
<path opacity="0.18" d="M92.4121 92.8672H104.177V107.261H111.542" stroke="white" stroke-width="1.22794" stroke-miterlimit="10"/>
<path opacity="0.18" d="M166.33 81.3201H151.435V72.8223H138.135" stroke="white" stroke-width="1.22794" stroke-miterlimit="10"/>
<path opacity="0.18" d="M163.557 95.4551H149.047V110.419H138.816" stroke="white" stroke-width="1.22794" stroke-miterlimit="10"/>
<path opacity="0.18" d="M106.84 121.792H119.013V116.041H126.378" stroke="white" stroke-width="1.22794" stroke-miterlimit="10"/>
<path d="M97.9788 64.2162C98.1232 64.2704 98.2798 64.2827 98.4309 64.2518C98.5819 64.2208 98.7213 64.1479 98.8332 64.0413C99.1659 63.6533 98.9012 63.0675 98.629 62.6338C98.8861 62.436 99.2566 62.6871 99.4532 62.9534C99.6498 63.2196 99.8842 63.5392 100.209 63.5011C100.534 63.4631 100.716 63.0142 100.633 62.6795C100.502 62.3534 100.337 62.0423 100.141 61.7513C100.285 61.5535 100.603 61.7513 100.731 61.9415C100.86 62.1317 101.033 62.4208 101.268 62.3676C101.36 62.3258 101.434 62.2522 101.477 62.1602C101.52 62.0681 101.529 61.9635 101.502 61.8655C101.445 61.6685 101.402 61.4676 101.374 61.2644C101.774 61.1351 102.236 61.5535 102.606 61.3557C102.671 61.3071 102.725 61.2451 102.765 61.174C102.804 61.1029 102.828 61.0241 102.835 60.9429C102.843 60.8618 102.833 60.78 102.806 60.703C102.78 60.626 102.737 60.5554 102.682 60.4961C102.443 60.2634 102.135 60.1163 101.805 60.0776C100.989 59.9027 100.138 60.0043 99.3852 60.3667C98.5156 60.7167 97.6083 60.8993 96.7614 61.3405C95.9793 61.6742 95.2911 62.1968 94.7577 62.8621C94.7158 62.9358 94.7027 63.0226 94.7209 63.1056C94.739 63.1885 94.7872 63.2617 94.856 63.3109C94.9688 63.3492 95.091 63.3492 95.2038 63.3109C95.805 63.1973 96.4268 63.3025 96.958 63.6076C97.2436 63.809 97.5416 63.9919 97.8502 64.1554L97.9788 64.2162Z" fill="#FFBAA8"/>
<path d="M210.761 68.956C202.535 51.306 164.699 37.9316 119.407 37.9316C68.1119 37.9316 26.4043 55.0795 26.4043 76.1605C26.4043 97.2415 68.1345 114.389 119.407 114.389C154.37 114.389 184.887 106.424 200.781 94.6777C203.068 93.0165 205.167 91.1083 207.041 88.9871C209.508 86.3067 211.245 83.0312 212.085 79.4775C212.314 78.3868 212.43 77.2753 212.432 76.1605C212.413 73.664 211.843 71.203 210.761 68.956ZM206.308 88.9187C204.677 90.7199 202.88 92.3604 200.939 93.8181C185.378 105.671 154.665 113.75 119.392 113.75C68.4521 113.75 27.0016 96.8916 27.0016 76.1605C27.0016 55.4294 68.4521 38.5631 119.407 38.5631C164.124 38.5631 201.522 51.5571 209.998 68.7506C211.163 71.0459 211.779 73.5833 211.797 76.1605C211.8 77.0613 211.719 77.9604 211.555 78.846C210.935 82.3608 209.136 85.7386 206.308 88.9187Z" fill="white"/>
<path opacity="0.18" d="M213.589 74.4259C213.532 73.8102 213.442 73.1981 213.317 72.5925C213.088 71.5133 212.764 70.4567 212.349 69.4353L212.213 69.3896C211.737 69.2375 211.245 69.1005 210.761 68.956C202.535 51.306 164.699 37.9316 119.407 37.9316C68.1119 37.9316 26.4043 55.0795 26.4043 76.1605C26.4043 97.2415 68.1345 114.389 119.407 114.389C154.37 114.389 184.887 106.424 200.781 94.6777C200.766 94.9065 200.796 95.136 200.87 95.3528C200.944 95.5696 201.06 95.7694 201.212 95.9406C204.088 93.9012 206.675 91.4774 208.901 88.7361C210.704 86.5241 212.069 83.9857 212.924 81.2577C213.426 79.6083 213.68 77.893 213.68 76.1681C213.68 75.5862 213.65 75.0047 213.589 74.4259ZM119.407 113.75C68.4672 113.75 27.0168 96.8916 27.0168 76.1605C27.0168 55.4294 68.4521 38.5631 119.407 38.5631C164.124 38.5631 201.522 51.5571 209.998 68.7506C209.557 68.6642 209.1 68.7427 208.712 68.9712C209.885 71.1854 210.51 73.6515 210.535 76.1605C210.533 76.7403 210.498 77.3195 210.429 77.8951C209.983 81.562 208.16 85.1529 204.985 88.5459C203.795 89.8215 202.511 91.0041 201.144 92.0835C201.235 92.4093 201.235 92.7543 201.144 93.0801C201.076 93.3236 201 93.567 200.932 93.8409C185.378 105.671 154.665 113.75 119.407 113.75Z" fill="#7209B7"/>
<path opacity="0.18" d="M209.982 68.752C209.541 68.6656 209.084 68.7441 208.697 68.9726C205.219 62.1941 196.818 55.8949 184.214 50.7673C166.891 43.7225 143.867 39.8426 119.407 39.8426C94.9461 39.8426 71.8996 43.7225 54.5769 50.7673C37.602 57.6675 28.2639 66.675 28.2639 76.1619C28.2639 85.6487 37.602 94.6487 54.5618 101.549C71.8845 108.601 94.9083 112.481 119.391 112.481C143.875 112.481 166.891 108.601 184.214 101.549C191.178 98.7188 196.848 95.5388 201.128 92.0925C201.219 92.4183 201.219 92.7633 201.128 93.0891C201.06 93.3325 200.984 93.576 200.916 93.8499C185.355 105.703 154.642 113.782 119.369 113.782C68.429 113.782 26.9785 96.9234 26.9785 76.1923C26.9785 55.4612 68.4517 38.5645 119.407 38.5645C164.108 38.5645 201.506 51.5585 209.982 68.752Z" fill="#7209B7"/>
<path opacity="0.18" d="M212.35 69.4362L212.213 69.3906C211.737 69.2384 211.246 69.1015 210.762 68.9569C202.535 51.307 164.699 37.9326 119.407 37.9326C68.1121 37.9326 26.4045 55.0804 26.4045 76.1615C26.4045 97.2425 68.1348 114.39 119.407 114.39C154.37 114.39 184.887 106.425 200.781 94.6787C200.766 94.9074 200.796 95.1369 200.87 95.3537C200.944 95.5706 201.06 95.7704 201.212 95.9416C196.365 99.3559 191.134 102.183 185.628 104.363C167.882 111.652 144.359 115.661 119.407 115.661C94.4553 115.661 70.9173 111.652 53.1863 104.363C35.0848 96.923 25.1191 86.9036 25.1191 76.1615C25.1191 65.4193 35.0697 55.4 53.1712 47.9672C70.9022 40.6714 94.4553 36.6621 119.407 36.6621C144.359 36.6621 167.897 40.6714 185.628 47.9672C199.874 53.8252 209.083 61.2807 212.35 69.4362Z" fill="#7209B7"/>
<path opacity="0.35" d="M115.3 151.593C155.486 151.593 188.062 146.191 188.062 139.527C188.062 132.863 155.486 127.461 115.3 127.461C75.1155 127.461 42.5391 132.863 42.5391 139.527C42.5391 146.191 75.1155 151.593 115.3 151.593Z" fill="#7209B7"/>
<path d="M99.2944 49.367H81.4727V27.2285H96.837L99.2944 30.3857V49.367Z" fill="white"/>
<path d="M97.7143 50.6756H79.8926V28.5371H95.2569L97.7143 31.6943V50.6756Z" fill="white"/>
<path d="M97.562 50.828H79.7402V28.6895H95.1046L97.562 31.8467V50.828Z" fill="url(#paint2_linear_2577_6327)"/>
<path d="M95.9975 52.6617H78.1758V30.5156H93.5401L95.9975 33.6728V52.6617Z" fill="white"/>
<path d="M93.5391 30.5156V33.6424H95.9965L93.5391 30.5156Z" fill="url(#paint3_linear_2577_6327)"/>
<path d="M95.1055 28.6895V31.9075H97.5629L95.1055 28.6895Z" fill="url(#paint4_linear_2577_6327)"/>
<path d="M96.8359 27.2285V30.4466H99.2933L96.8359 27.2285Z" fill="url(#paint5_linear_2577_6327)"/>
<path d="M212.356 95.9798C212.12 95.919 211.899 95.81 211.706 95.6595C211.514 95.509 211.354 95.3202 211.237 95.1049C211.055 94.793 210.889 94.4659 210.708 94.154C210.552 93.8421 210.302 93.5879 209.993 93.428C209.685 93.268 209.334 93.2106 208.991 93.2638C208.641 93.2868 208.307 93.4194 208.036 93.6432C207.765 93.867 207.57 94.1707 207.479 94.5115C207.366 94.8843 207.275 95.2723 207.146 95.6299C207.002 96.0907 206.683 96.4758 206.258 96.7021C205.834 96.9284 205.338 96.9777 204.878 96.8395L202.799 96.2233C202.56 96.1585 202.337 96.0463 202.143 95.8934C201.949 95.7404 201.787 95.5497 201.667 95.3327C201.547 95.1156 201.472 94.8765 201.445 94.6296C201.419 94.3827 201.442 94.133 201.513 93.8953C201.612 93.5149 201.74 93.1345 201.831 92.7694C201.928 92.442 201.921 92.0925 201.811 91.7694C201.701 91.4463 201.494 91.1656 201.218 90.9663C200.967 90.7446 200.654 90.6078 200.321 90.575C199.989 90.5423 199.655 90.6153 199.366 90.7837C199.041 90.9435 198.731 91.1337 198.413 91.3011C198.195 91.4238 197.954 91.5015 197.706 91.5296C197.457 91.5578 197.205 91.5358 196.965 91.465C196.725 91.3941 196.502 91.2759 196.308 91.1171C196.113 90.9583 195.953 90.7623 195.835 90.5403C195.472 89.8784 195.079 89.2241 194.754 88.5623C194.625 88.3453 194.543 88.104 194.512 87.8535C194.481 87.6031 194.501 87.3488 194.572 87.1067C194.643 86.8646 194.763 86.6399 194.924 86.4465C195.086 86.2532 195.285 86.0955 195.51 85.9832C195.812 85.8083 196.13 85.6561 196.425 85.4811C196.722 85.3289 196.966 85.088 197.123 84.7912C197.28 84.4945 197.343 84.1563 197.302 83.8227C197.289 83.4776 197.169 83.1452 196.959 82.8722C196.749 82.5993 196.459 82.3995 196.13 82.3011C195.767 82.1794 195.374 82.0881 195.018 81.9664C194.77 81.9006 194.538 81.7833 194.337 81.6221C194.136 81.4608 193.971 81.2592 193.852 81.03C193.733 80.8008 193.663 80.5492 193.646 80.2912C193.63 80.0332 193.667 79.7746 193.755 79.5319C193.944 78.87 194.133 78.2081 194.33 77.5463C194.45 77.0855 194.744 76.6899 195.149 76.444C195.554 76.1982 196.039 76.1214 196.5 76.2301C196.893 76.3062 197.256 76.4355 197.657 76.5421C197.995 76.6577 198.361 76.6653 198.703 76.5638C199.046 76.4622 199.349 76.2566 199.571 75.9749C199.793 75.6933 199.923 75.3496 199.943 74.9907C199.963 74.6319 199.872 74.2756 199.683 73.9706C199.517 73.6739 199.351 73.3772 199.199 73.0805C199.085 72.8688 199.014 72.6362 198.99 72.3965C198.967 72.1568 198.991 71.9147 199.061 71.6844C199.132 71.4541 199.247 71.2403 199.401 71.0555C199.554 70.8707 199.743 70.7185 199.956 70.608C200.659 70.2048 201.37 69.8472 202.095 69.4516C202.525 69.2391 203.02 69.1995 203.478 69.3409C203.936 69.4822 204.323 69.7939 204.56 70.2124C204.749 70.5395 204.916 70.8743 205.105 71.2014C205.261 71.4983 205.505 71.739 205.803 71.8902C206.101 72.0415 206.438 72.0959 206.768 72.0459C207.108 72.025 207.432 71.8979 207.697 71.6824C207.961 71.4669 208.152 71.1738 208.243 70.8439C208.356 70.5015 208.447 70.1439 208.553 69.8016C208.618 69.548 208.734 69.3107 208.895 69.1049C209.056 68.8991 209.258 68.7292 209.487 68.6062C209.717 68.4831 209.97 68.4095 210.229 68.39C210.489 68.3705 210.75 68.4056 210.995 68.4931L212.931 69.0636C213.177 69.1249 213.409 69.236 213.611 69.3902C213.813 69.5445 213.982 69.7386 214.107 69.9607C214.233 70.1829 214.312 70.4284 214.339 70.6823C214.367 70.9361 214.343 71.193 214.269 71.4373C214.178 71.772 214.072 72.1143 213.974 72.4491C213.857 72.7834 213.849 73.1466 213.951 73.4859C214.053 73.8252 214.259 74.1229 214.541 74.3358C214.81 74.5661 215.143 74.7054 215.495 74.7341C215.846 74.7628 216.198 74.6793 216.5 74.4956C216.794 74.3358 217.089 74.1608 217.384 74.0087C217.602 73.8895 217.84 73.8147 218.086 73.7885C218.333 73.7622 218.581 73.7851 218.819 73.8558C219.056 73.9264 219.277 74.0435 219.47 74.2003C219.662 74.3571 219.822 74.5505 219.94 74.7694C220.318 75.4465 220.696 76.1312 221.059 76.8159C221.178 77.0307 221.254 77.2676 221.28 77.5123C221.307 77.757 221.284 78.0046 221.214 78.2403C221.143 78.476 221.026 78.695 220.87 78.8842C220.713 79.0735 220.52 79.229 220.303 79.3417C219.978 79.5243 219.637 79.684 219.312 79.8742C219.039 80.0173 218.813 80.2375 218.663 80.5078C218.513 80.7781 218.444 81.0867 218.465 81.3958C218.464 81.7253 218.562 82.0474 218.747 82.3193C218.932 82.5911 219.195 82.7998 219.501 82.9173C219.879 83.0695 220.257 83.1684 220.681 83.2901C220.913 83.3426 221.132 83.4436 221.323 83.5865C221.514 83.7294 221.673 83.9111 221.79 84.1198C221.907 84.3284 221.979 84.5594 222.001 84.7979C222.024 85.0363 221.997 85.2769 221.921 85.504C221.724 86.2647 221.505 87.0255 221.263 87.7863C221.202 88.0255 221.092 88.2491 220.94 88.4425C220.787 88.636 220.596 88.7949 220.378 88.909C220.161 89.0232 219.922 89.0899 219.677 89.1049C219.432 89.1198 219.187 89.0827 218.957 88.9959C218.609 88.897 218.269 88.7829 217.913 88.6992C217.592 88.6122 217.252 88.6269 216.94 88.7413C216.627 88.8556 216.357 89.0641 216.167 89.3383C215.954 89.5891 215.824 89.9006 215.795 90.2294C215.767 90.5581 215.841 90.8876 216.008 91.1717C216.182 91.5065 216.379 91.8336 216.552 92.1607C216.672 92.3761 216.748 92.6135 216.774 92.8588C216.801 93.1041 216.778 93.3522 216.708 93.5886C216.637 93.8249 216.52 94.0445 216.364 94.2345C216.207 94.4244 216.014 94.5807 215.796 94.6941C215.123 95.0745 214.443 95.4549 213.762 95.8124C213.551 95.9342 213.318 96.0118 213.076 96.0405C212.834 96.0693 212.59 96.0486 212.356 95.9798ZM202.141 80.9469C201.805 82.0897 201.814 83.3071 202.166 84.445C202.517 85.5829 203.197 86.5903 204.118 87.3397C205.038 88.0891 206.16 88.547 207.339 88.6554C208.519 88.7637 209.704 88.5177 210.744 87.9485C211.785 87.3793 212.634 86.5124 213.185 85.4574C213.736 84.4024 213.963 83.2068 213.839 82.0217C213.714 80.8366 213.243 79.7152 212.486 78.7995C211.728 77.8837 210.717 77.2146 209.581 76.8768C208.827 76.6504 208.036 76.5762 207.253 76.6585C206.47 76.7407 205.712 76.9777 205.02 77.3559C204.329 77.7342 203.718 78.2461 203.224 78.8624C202.73 79.4786 202.362 80.187 202.141 80.9469Z" fill="#7209B7"/>
<g opacity="0.27">
<path opacity="0.27" d="M212.356 95.9798C212.12 95.919 211.899 95.81 211.706 95.6595C211.514 95.509 211.354 95.3202 211.237 95.1049C211.055 94.793 210.889 94.4659 210.708 94.154C210.552 93.8421 210.302 93.5879 209.993 93.428C209.685 93.268 209.334 93.2106 208.991 93.2638C208.641 93.2868 208.307 93.4194 208.036 93.6432C207.765 93.867 207.57 94.1707 207.479 94.5115C207.366 94.8843 207.275 95.2723 207.146 95.6299C207.002 96.0907 206.683 96.4758 206.258 96.7021C205.834 96.9284 205.338 96.9777 204.878 96.8395L202.799 96.2233C202.56 96.1585 202.337 96.0463 202.143 95.8934C201.949 95.7404 201.787 95.5497 201.667 95.3327C201.547 95.1156 201.472 94.8765 201.445 94.6296C201.419 94.3827 201.442 94.133 201.513 93.8953C201.612 93.5149 201.74 93.1345 201.831 92.7694C201.928 92.442 201.921 92.0925 201.811 91.7694C201.701 91.4463 201.494 91.1656 201.218 90.9663C200.967 90.7446 200.654 90.6078 200.321 90.575C199.989 90.5423 199.655 90.6153 199.366 90.7837C199.041 90.9435 198.731 91.1337 198.413 91.3011C198.195 91.4238 197.954 91.5015 197.706 91.5296C197.457 91.5578 197.205 91.5358 196.965 91.465C196.725 91.3941 196.502 91.2759 196.308 91.1171C196.113 90.9583 195.953 90.7623 195.835 90.5403C195.472 89.8784 195.079 89.2241 194.754 88.5623C194.625 88.3453 194.543 88.104 194.512 87.8535C194.481 87.6031 194.501 87.3488 194.572 87.1067C194.643 86.8646 194.763 86.6399 194.924 86.4465C195.086 86.2532 195.285 86.0955 195.51 85.9832C195.812 85.8083 196.13 85.6561 196.425 85.4811C196.722 85.3289 196.966 85.088 197.123 84.7912C197.28 84.4945 197.343 84.1563 197.302 83.8227C197.289 83.4776 197.169 83.1452 196.959 82.8722C196.749 82.5993 196.459 82.3995 196.13 82.3011C195.767 82.1794 195.374 82.0881 195.018 81.9664C194.77 81.9006 194.538 81.7833 194.337 81.6221C194.136 81.4608 193.971 81.2592 193.852 81.03C193.733 80.8008 193.663 80.5492 193.646 80.2912C193.63 80.0332 193.667 79.7746 193.755 79.5319C193.944 78.87 194.133 78.2081 194.33 77.5463C194.45 77.0855 194.744 76.6899 195.149 76.444C195.554 76.1982 196.039 76.1214 196.5 76.2301C196.893 76.3062 197.256 76.4355 197.657 76.5421C197.995 76.6577 198.361 76.6653 198.703 76.5638C199.046 76.4622 199.349 76.2566 199.571 75.9749C199.793 75.6933 199.923 75.3496 199.943 74.9907C199.963 74.6319 199.872 74.2756 199.683 73.9706C199.517 73.6739 199.351 73.3772 199.199 73.0805C199.085 72.8688 199.014 72.6362 198.99 72.3965C198.967 72.1568 198.991 71.9147 199.061 71.6844C199.132 71.4541 199.247 71.2403 199.401 71.0555C199.554 70.8707 199.743 70.7185 199.956 70.608C200.659 70.2048 201.37 69.8472 202.095 69.4516C202.525 69.2391 203.02 69.1995 203.478 69.3409C203.936 69.4822 204.323 69.7939 204.56 70.2124C204.749 70.5395 204.916 70.8743 205.105 71.2014C205.261 71.4983 205.505 71.739 205.803 71.8902C206.101 72.0415 206.438 72.0959 206.768 72.0459C207.108 72.025 207.432 71.8979 207.697 71.6824C207.961 71.4669 208.152 71.1738 208.243 70.8439C208.356 70.5015 208.447 70.1439 208.553 69.8016C208.618 69.548 208.734 69.3107 208.895 69.1049C209.056 68.8991 209.258 68.7292 209.487 68.6062C209.717 68.4831 209.97 68.4095 210.229 68.39C210.489 68.3705 210.75 68.4056 210.995 68.4931L212.931 69.0636C213.177 69.1249 213.409 69.236 213.611 69.3902C213.813 69.5445 213.982 69.7386 214.107 69.9607C214.233 70.1829 214.312 70.4284 214.339 70.6823C214.367 70.9361 214.343 71.193 214.269 71.4373C214.178 71.772 214.072 72.1143 213.974 72.4491C213.857 72.7834 213.849 73.1466 213.951 73.4859C214.053 73.8252 214.259 74.1229 214.541 74.3358C214.81 74.5661 215.143 74.7054 215.495 74.7341C215.846 74.7628 216.198 74.6793 216.5 74.4956C216.794 74.3358 217.089 74.1608 217.384 74.0087C217.602 73.8895 217.84 73.8147 218.086 73.7885C218.333 73.7622 218.581 73.7851 218.819 73.8558C219.056 73.9264 219.277 74.0435 219.47 74.2003C219.662 74.3571 219.822 74.5505 219.94 74.7694C220.318 75.4465 220.696 76.1312 221.059 76.8159C221.178 77.0307 221.254 77.2676 221.28 77.5123C221.307 77.757 221.284 78.0046 221.214 78.2403C221.143 78.476 221.026 78.695 220.87 78.8842C220.713 79.0735 220.52 79.229 220.303 79.3417C219.978 79.5243 219.637 79.684 219.312 79.8742C219.039 80.0173 218.813 80.2375 218.663 80.5078C218.513 80.7781 218.444 81.0867 218.465 81.3958C218.464 81.7253 218.562 82.0474 218.747 82.3193C218.932 82.5911 219.195 82.7998 219.501 82.9173C219.879 83.0695 220.257 83.1684 220.681 83.2901C220.913 83.3426 221.132 83.4436 221.323 83.5865C221.514 83.7294 221.673 83.9111 221.79 84.1198C221.907 84.3284 221.979 84.5594 222.001 84.7979C222.024 85.0363 221.997 85.2769 221.921 85.504C221.724 86.2647 221.505 87.0255 221.263 87.7863C221.202 88.0255 221.092 88.2491 220.94 88.4425C220.787 88.636 220.596 88.7949 220.378 88.909C220.161 89.0232 219.922 89.0899 219.677 89.1049C219.432 89.1198 219.187 89.0827 218.957 88.9959C218.609 88.897 218.269 88.7829 217.913 88.6992C217.592 88.6122 217.252 88.6269 216.94 88.7413C216.627 88.8556 216.357 89.0641 216.167 89.3383C215.954 89.5891 215.824 89.9006 215.795 90.2294C215.767 90.5581 215.841 90.8876 216.008 91.1717C216.182 91.5065 216.379 91.8336 216.552 92.1607C216.672 92.3761 216.748 92.6135 216.774 92.8588C216.801 93.1041 216.778 93.3522 216.708 93.5886C216.637 93.8249 216.52 94.0445 216.364 94.2345C216.207 94.4244 216.014 94.5807 215.796 94.6941C215.123 95.0745 214.443 95.4549 213.762 95.8124C213.551 95.9342 213.318 96.0118 213.076 96.0405C212.834 96.0693 212.59 96.0486 212.356 95.9798ZM202.141 80.9469C201.805 82.0897 201.814 83.3071 202.166 84.445C202.517 85.5829 203.197 86.5903 204.118 87.3397C205.038 88.0891 206.16 88.547 207.339 88.6554C208.519 88.7637 209.704 88.5177 210.744 87.9485C211.785 87.3793 212.634 86.5124 213.185 85.4574C213.736 84.4024 213.963 83.2068 213.839 82.0217C213.714 80.8366 213.243 79.7152 212.486 78.7995C211.728 77.8837 210.717 77.2146 209.581 76.8768C208.827 76.6504 208.036 76.5762 207.253 76.6585C206.47 76.7407 205.712 76.9777 205.02 77.3559C204.329 77.7342 203.718 78.2461 203.224 78.8624C202.73 79.4786 202.362 80.187 202.141 80.9469Z" fill="#020202"/>
</g>
<path d="M219.971 83.6325C219.585 83.5108 219.177 83.4195 218.799 83.2598C218.493 83.1422 218.23 82.9336 218.045 82.6617C217.86 82.3899 217.761 82.0677 217.763 81.7382C217.743 81.4285 217.813 81.1197 217.965 80.8495C218.117 80.5793 218.343 80.3594 218.617 80.2167C218.935 80.0341 219.275 79.8667 219.6 79.6841C219.818 79.5715 220.011 79.4159 220.167 79.2267C220.324 79.0374 220.441 78.8184 220.511 78.5827C220.582 78.347 220.604 78.0994 220.578 77.8547C220.551 77.61 220.476 77.3732 220.356 77.1584C219.994 76.4737 219.6 75.789 219.237 75.1195C219.119 74.9005 218.96 74.7071 218.767 74.5503C218.575 74.3935 218.354 74.2765 218.116 74.2058C217.879 74.1351 217.63 74.1123 217.384 74.1385C217.138 74.1648 216.899 74.2396 216.682 74.3587L215.797 74.8456C215.496 75.0304 215.145 75.1151 214.793 75.0878C214.442 75.0605 214.108 74.9225 213.839 74.6935C213.756 74.6174 213.68 74.5413 213.604 74.4576C213.405 74.2371 213.269 73.9665 213.211 73.6745C213.152 73.3825 213.173 73.0801 213.272 72.7991C213.272 72.7459 213.309 72.6774 213.332 72.6242C213.408 72.3427 213.491 72.0688 213.559 71.7873C213.704 71.3202 213.66 70.8143 213.436 70.3798C213.212 69.9452 212.827 69.6172 212.364 69.4669L212.228 69.4213C211.752 69.2691 211.26 69.1322 210.776 68.9877L210.285 68.8431L209.998 68.7822C209.557 68.6959 209.1 68.7744 208.712 69.0029C208.304 69.2574 208.004 69.6562 207.873 70.1212C207.759 70.4712 207.669 70.8211 207.563 71.1711C207.467 71.5043 207.269 71.7988 206.998 72.0131C206.726 72.2274 206.395 72.3506 206.051 72.3655C205.722 72.4151 205.385 72.3613 205.087 72.2115C204.79 72.0618 204.545 71.8233 204.387 71.5286C204.191 71.2015 204.032 70.8668 203.843 70.532C203.608 70.1127 203.222 69.8 202.765 69.6584C202.308 69.5169 201.814 69.5573 201.385 69.7713C200.629 70.1288 199.941 70.532 199.238 70.92C199.025 71.0305 198.837 71.1827 198.683 71.3675C198.529 71.5523 198.414 71.7661 198.344 71.9964C198.273 72.2267 198.249 72.4688 198.273 72.7085C198.297 72.9482 198.368 73.1808 198.482 73.3925C198.633 73.6968 198.807 73.9859 198.966 74.2826C199.162 74.5858 199.257 74.9442 199.237 75.3056C199.217 75.6669 199.082 76.0123 198.852 76.2911C198.634 76.5767 198.331 76.7857 197.988 76.8882C197.644 76.9906 197.277 76.9813 196.939 76.8617C196.554 76.7475 196.183 76.6182 195.783 76.5421C195.322 76.4334 194.837 76.5102 194.431 76.756C194.026 77.0019 193.732 77.3975 193.613 77.8583C193.423 78.5201 193.227 79.182 193.038 79.8515C192.95 80.0942 192.913 80.3528 192.93 80.6107C192.947 80.8686 193.018 81.12 193.137 81.3487C193.257 81.5774 193.423 81.7783 193.625 81.9384C193.826 82.0986 194.059 82.2144 194.308 82.2784C194.671 82.4077 195.064 82.4838 195.412 82.6131C195.74 82.7135 196.029 82.9138 196.239 83.1863C196.448 83.4589 196.569 83.7902 196.584 84.1347C196.628 84.4677 196.568 84.8062 196.412 85.1033C196.256 85.4004 196.012 85.6415 195.715 85.7931C195.412 85.9681 195.095 86.1279 194.792 86.2953C194.567 86.4075 194.368 86.5652 194.207 86.7585C194.045 86.9519 193.926 87.1766 193.855 87.4187C193.784 87.6608 193.763 87.9151 193.794 88.1655C193.825 88.416 193.908 88.6573 194.036 88.8743C194.391 89.5361 194.754 90.198 195.117 90.8523C195.237 91.0728 195.398 91.2674 195.592 91.425C195.787 91.5826 196.01 91.7001 196.25 91.7708C196.489 91.8415 196.74 91.8639 196.988 91.8368C197.236 91.8098 197.477 91.7337 197.696 91.6131C198.013 91.4381 198.323 91.2555 198.648 91.0881C198.938 90.9219 199.272 90.8502 199.603 90.8829C199.935 90.9156 200.249 91.0511 200.501 91.2707C200.776 91.4766 200.983 91.7599 201.098 92.0847C201.19 92.4106 201.19 92.7555 201.098 93.0814C201.03 93.3248 200.954 93.5682 200.886 93.8421L200.773 94.2301C200.698 94.5284 200.692 94.8401 200.757 95.141C200.821 95.4418 200.953 95.7237 201.143 95.9647C201.38 96.2548 201.699 96.4647 202.058 96.5657L204.138 97.1743C204.598 97.3105 205.093 97.2603 205.517 97.0342C205.941 96.8082 206.26 96.4243 206.406 95.9647C206.535 95.5995 206.625 95.2039 206.739 94.8463C206.832 94.5066 207.027 94.2042 207.298 93.9807C207.569 93.7573 207.902 93.6238 208.251 93.5987C208.593 93.5483 208.941 93.6071 209.248 93.7668C209.554 93.9265 209.804 94.179 209.96 94.4888C210.141 94.8007 210.308 95.1278 210.482 95.4474C210.724 95.8812 211.125 96.2031 211.599 96.3451C212.073 96.487 212.583 96.4379 213.022 96.2081C213.703 95.8354 214.383 95.4474 215.056 95.0898C215.274 94.9771 215.466 94.8216 215.623 94.6323C215.779 94.4431 215.896 94.2241 215.967 93.9884C216.037 93.7527 216.06 93.5051 216.034 93.2604C216.007 93.0157 215.932 92.7788 215.812 92.564C215.631 92.2293 215.434 91.9098 215.268 91.575C215.098 91.2924 215.021 90.9629 215.048 90.6336C215.075 90.3043 215.205 89.9921 215.419 89.7416C215.61 89.4677 215.88 89.259 216.192 89.1434C216.504 89.0279 216.844 89.0109 217.166 89.0949C217.521 89.1786 217.861 89.3003 218.209 89.3992C218.437 89.4809 218.678 89.5141 218.919 89.4965C219.16 89.479 219.395 89.4112 219.608 89.2974C219.822 89.1836 220.009 89.0263 220.159 88.8356C220.308 88.6448 220.417 88.4248 220.477 88.1896C220.727 87.4288 220.946 86.668 221.143 85.9073C221.228 85.6812 221.265 85.4395 221.251 85.1981C221.237 84.9568 221.173 84.721 221.062 84.5064C220.951 84.2917 220.797 84.1029 220.609 83.9523C220.421 83.8018 220.204 83.6928 219.971 83.6325ZM212.939 84.652C212.559 85.9253 211.776 87.0386 210.708 87.8217C209.64 88.6048 208.347 89.0145 207.026 88.9884C206.785 88.9848 206.545 88.9619 206.308 88.9199C206.034 88.8798 205.764 88.8214 205.499 88.7449C205.318 88.6929 205.142 88.6294 204.969 88.5548C203.541 87.9803 202.387 86.8742 201.748 85.4662C201.109 84.0582 201.034 82.4566 201.539 80.9943C202.043 79.532 203.088 78.3214 204.456 77.6141C205.824 76.9068 207.411 76.7572 208.886 77.1964C209.421 77.3559 209.93 77.5916 210.398 77.8963C210.816 78.159 211.195 78.4791 211.525 78.8473C211.718 79.0433 211.895 79.2545 212.054 79.4787C212.432 80.0197 212.72 80.6182 212.909 81.2513C213.248 82.3577 213.258 83.5397 212.939 84.652Z" fill="#7209B7"/>
</g>
<defs>
<linearGradient id="paint0_linear_2577_6327" x1="237.331" y1="37.5755" x2="133.97" y2="91.3886" gradientUnits="userSpaceOnUse">
<stop/>
<stop offset="1" stop-opacity="0"/>
</linearGradient>
<linearGradient id="paint1_linear_2577_6327" x1="-31.8033" y1="127.468" x2="142.959" y2="92.4838" gradientUnits="userSpaceOnUse">
<stop/>
<stop offset="1" stop-opacity="0"/>
</linearGradient>
<linearGradient id="paint2_linear_2577_6327" x1="35.235" y1="68.6453" x2="103.958" y2="31.9321" gradientUnits="userSpaceOnUse">
<stop/>
<stop offset="1" stop-opacity="0"/>
</linearGradient>
<linearGradient id="paint3_linear_2577_6327" x1="89.7509" y1="33.7185" x2="96.2686" y2="31.6194" gradientUnits="userSpaceOnUse">
<stop/>
<stop offset="1" stop-opacity="0"/>
</linearGradient>
<linearGradient id="paint4_linear_2577_6327" x1="91.2946" y1="33.566" x2="97.3577" y2="29.6819" gradientUnits="userSpaceOnUse">
<stop/>
<stop offset="1" stop-opacity="0"/>
</linearGradient>
<linearGradient id="paint5_linear_2577_6327" x1="93.0327" y1="32.1127" x2="99.0958" y2="28.221" gradientUnits="userSpaceOnUse">
<stop/>
<stop offset="1" stop-opacity="0"/>
</linearGradient>
<clipPath id="clip0_2577_6327">
<rect width="240" height="182" fill="white"/>
</clipPath>
</defs>
</svg>
