<svg width="262" height="197" viewBox="0 0 262 197" fill="none" xmlns="http://www.w3.org/2000/svg">
<g clip-path="url(#clip0_2948_6730)">
<path opacity="0.18" d="M48.6361 191.592C39.615 190.113 31.1234 186.356 23.9692 180.677C15.5314 174.062 6.36417 165.148 6.64599 154.084C6.94438 142.342 11.3373 131.047 16.1945 120.479C22.6099 106.207 31.5616 91.1574 29.191 75.2644C26.8536 59.6195 30.0033 40.3528 38.3914 26.8909C51.6532 5.68927 74.8613 0.545967 98.0694 0.0498286C113.403 -0.264392 129.185 0.645195 143.159 6.94615C157.847 13.5613 169.6 25.7829 184.603 31.4719C194.549 35.2095 205.424 35.9537 215.154 40.1543C227.405 45.463 236.854 55.9812 242.988 67.8223C249.121 79.6635 252.205 92.8112 254.509 105.86C258.388 127.938 249.171 155.473 235.893 173.549C226.991 185.622 212.171 199.531 196.886 196.554C119.404 181.802 134.307 205.385 48.6361 191.592Z" fill="#A400FF"/>
<path opacity="0.31" d="M233.539 76.6856C233.539 78.7706 232.71 80.7704 231.234 82.2462C229.757 83.722 227.755 84.5533 225.665 84.5577H205.391C203.298 84.5577 201.291 83.7283 199.811 82.252C198.331 80.7757 197.5 78.7734 197.5 76.6856C197.5 74.5978 198.331 72.5955 199.811 71.1192C201.291 69.6429 203.298 68.8136 205.391 68.8136H208.308C208.292 68.5989 208.292 68.3833 208.308 68.1686C208.292 67.2195 208.463 66.2765 208.812 65.3935C209.161 64.5104 209.681 63.7046 210.342 63.0219C211.003 62.3393 211.793 61.7933 212.666 61.4151C213.538 61.0368 214.477 60.8338 215.428 60.8175C216.38 60.8012 217.325 60.972 218.21 61.3201C219.095 61.6683 219.903 62.1869 220.587 62.8465C221.271 63.5061 221.819 64.2937 222.198 65.1643C222.577 66.0349 222.781 66.9714 222.797 67.9205V68.1686C222.797 68.3836 222.797 68.5986 222.797 68.8136H225.698C227.791 68.8136 229.798 69.6429 231.278 71.1192C232.757 72.5955 233.589 74.5978 233.589 76.6856H233.539Z" fill="#A400FF"/>
<path d="M231.085 75.9417C231.085 78.0266 230.256 80.0264 228.78 81.5023C227.303 82.9781 225.301 83.8094 223.211 83.8138H202.953C201.917 83.8138 200.891 83.6101 199.934 83.2145C198.976 82.8189 198.106 82.2391 197.374 81.5081C196.641 80.7771 196.06 79.9093 195.663 78.9542C195.267 77.9991 195.063 76.9755 195.062 75.9417C195.063 74.9079 195.267 73.8843 195.663 72.9292C196.06 71.9741 196.641 71.1063 197.374 70.3753C198.106 69.6443 198.976 69.0645 199.934 68.6689C200.891 68.2733 201.917 68.0696 202.953 68.0696H205.854C205.854 67.8546 205.854 67.6397 205.854 67.4412C205.807 66.4619 205.96 65.4834 206.303 64.5647C206.647 63.6461 207.173 62.8066 207.851 62.097C208.53 61.3874 209.345 60.8225 210.248 60.4365C211.152 60.0506 212.124 59.8516 213.107 59.8516C214.09 59.8516 215.062 60.0506 215.965 60.4365C216.869 60.8225 217.684 61.3874 218.362 62.097C219.04 62.8066 219.567 63.6461 219.91 64.5647C220.253 65.4834 220.406 66.4619 220.359 67.4412V67.4412C220.359 67.6562 220.359 67.8712 220.359 68.0862H223.26C225.34 68.0993 227.33 68.9327 228.796 70.4045C230.262 71.8763 231.085 73.8669 231.085 75.9417V75.9417Z" fill="white"/>
<path d="M43.4808 94.4822C43.4726 94.176 43.5272 93.8714 43.6412 93.587C43.7553 93.3026 43.9263 93.0445 44.1439 92.8284C45.1383 91.8121 45.8571 90.56 46.2326 89.19C46.4489 88.3166 46.3863 87.3975 46.0534 86.5613C45.7205 85.7252 45.134 85.0137 44.376 84.5263C43.4766 83.8334 42.444 83.3324 41.3423 83.0544C40.804 82.8907 40.3416 82.5412 40.0379 82.0686C39.7342 81.5959 39.609 81.0309 39.6846 80.4745C39.7675 79.7468 39.8504 79.0192 39.9167 78.2915C39.9717 77.6375 40.2826 77.0315 40.782 76.6044C41.2815 76.1773 41.9294 75.9635 42.5856 76.0093C43.6379 75.9775 44.6739 75.7416 45.6358 75.3147C46.7195 74.9046 47.6015 74.0912 48.0962 73.0455C48.5909 71.9999 48.6597 70.8036 48.2882 69.7083C48.0011 68.7766 47.6522 67.865 47.2438 66.9795C47.0093 66.4729 46.9555 65.9014 47.0912 65.36C47.2268 64.8186 47.5439 64.3397 47.9898 64.0027C48.5368 63.5562 49.117 63.1758 49.6475 62.7128C50.1267 62.345 50.7187 62.154 51.323 62.1721C51.9273 62.1902 52.5067 62.4163 52.963 62.812C53.7556 63.592 54.6894 64.2149 55.7148 64.6477C56.6676 65.0849 57.7433 65.1772 58.7569 64.9085C59.7705 64.6399 60.6585 64.0272 61.2681 63.1758C61.964 62.207 62.4908 61.1279 62.8264 59.984C62.9953 59.4328 63.3589 58.9614 63.8497 58.6573C64.3405 58.3532 64.9252 58.237 65.4953 58.3302C66.2247 58.446 66.9376 58.5452 67.667 58.6279C68.237 58.6928 68.7632 58.9647 69.1453 59.3916C69.5274 59.8186 69.7388 60.3708 69.7391 60.9432C69.7913 62.3234 70.1539 63.6743 70.8001 64.8958C71.2825 65.6909 71.996 66.3208 72.8458 66.7018C73.6955 67.0829 74.6414 67.197 75.5577 67.0292C76.5982 66.8212 77.6031 66.4648 78.5416 65.9707C79.0955 65.6597 79.7477 65.5721 80.3643 65.7259C80.9809 65.8797 81.5151 66.2632 81.8571 66.7976C82.2715 67.4261 82.8186 67.9718 83.233 68.6003C83.5436 69.0393 83.689 69.5736 83.6435 70.1091C83.598 70.6446 83.3646 71.1469 82.9843 71.5275C82.1731 72.3678 81.5315 73.356 81.0945 74.4382C80.6314 75.4984 80.5971 76.6962 80.9988 77.7811C81.4004 78.866 82.2069 79.7541 83.2496 80.2595C84.0447 80.707 84.8834 81.0727 85.7527 81.351C86.2504 81.5099 86.6821 81.8272 86.9815 82.2545C87.281 82.6817 87.4317 83.1951 87.4104 83.7159C87.4104 84.5925 87.2447 85.469 87.1121 86.3289C87.0423 86.8988 86.7628 87.4225 86.3279 87.7984C85.8929 88.1743 85.3334 88.3755 84.7581 88.3631C83.4734 88.3882 82.2104 88.6989 81.0614 89.2727C80.2 89.695 79.5025 90.3891 79.0769 91.2473C78.6513 92.1055 78.5214 93.0798 78.7074 94.0191C78.8687 95.1194 79.2222 96.1829 79.7518 97.1613C79.9196 97.4284 80.0331 97.7258 80.0856 98.0367C80.1381 98.3475 80.1287 98.6656 80.0579 98.9728C79.9871 99.28 79.8562 99.5703 79.6729 99.827C79.4895 100.084 79.2572 100.302 78.9892 100.469L77.4973 101.627C77.0356 102.036 76.4336 102.252 75.8163 102.231C75.199 102.209 74.6137 101.951 74.1818 101.511C73.2968 100.683 72.2538 100.042 71.115 99.6255C70.1762 99.2625 69.1416 99.2285 68.1808 99.5289C67.22 99.8294 66.39 100.447 65.8269 101.279C65.1321 102.249 64.6054 103.328 64.2686 104.471C64.115 105.001 63.7767 105.459 63.3148 105.762C62.8528 106.065 62.2975 106.194 61.7489 106.125L59.2955 105.761C58.7884 105.658 58.3292 105.391 57.988 105.003C57.6467 104.615 57.4422 104.126 57.4057 103.611C57.3749 102.295 57.07 101 56.5105 99.8074C56.0852 98.8553 55.336 98.084 54.3955 97.63C53.455 97.176 52.3838 97.0686 51.3715 97.3267C50.3641 97.6064 49.3825 97.9716 48.4374 98.4182C47.952 98.6611 47.3999 98.7377 46.8665 98.636C46.3331 98.5344 45.8481 98.2602 45.4866 97.8559C44.8921 97.213 44.3384 96.5336 43.8289 95.8217C43.6081 95.3881 43.4304 94.9339 43.2984 94.4656L43.4808 94.4822ZM63.6055 74.4051C62.5709 74.3985 61.5451 74.5959 60.5871 74.9859C59.6291 75.3759 58.7578 75.9508 58.0231 76.6776C57.2884 77.4044 56.7048 78.2689 56.3058 79.2213C55.9069 80.1737 55.7004 81.1953 55.6982 82.2275C55.7223 84.2651 56.5309 86.2154 57.9566 87.6746C59.3822 89.1338 61.3158 89.9903 63.3569 90.0665C64.4154 90.1289 65.4757 89.9768 66.4738 89.6195C67.4718 89.2622 68.3871 88.7071 69.1644 87.9875C69.9418 87.268 70.565 86.3989 70.9968 85.4327C71.4285 84.4665 71.6597 83.4231 71.6765 82.3653C71.6933 81.3076 71.4953 80.2574 71.0945 79.278C70.6937 78.2986 70.0983 77.4103 69.3442 76.6665C68.5901 75.9228 67.6929 75.339 66.7067 74.9504C65.7204 74.5617 64.6655 74.3762 63.6055 74.4051V74.4051Z" fill="#A400FF"/>
<path d="M103.142 71.7582C103.142 72.0559 103.142 72.3536 103.142 72.6513C103.149 73.0405 103.019 73.4198 102.773 73.7223C102.527 74.0248 102.183 74.2312 101.8 74.3051L100.142 74.7185C99.7231 74.837 99.2756 74.8021 98.8804 74.6201C98.4851 74.4381 98.1682 74.121 97.9868 73.7263C97.66 73.0557 97.2597 72.4234 96.7933 71.8409C96.5173 71.4605 96.1651 71.1414 95.759 70.904C95.3529 70.6665 94.9017 70.5157 94.4342 70.4613C93.9666 70.4069 93.4928 70.45 93.0428 70.5878C92.5929 70.7257 92.1765 70.9553 91.8201 71.2621C91.2864 71.6848 90.7824 72.1434 90.3116 72.6348C90.035 72.9598 89.6528 73.1776 89.2316 73.2502C88.8105 73.3227 88.3772 73.2454 88.0073 73.0317L86.6646 72.2378C86.4382 72.1273 86.2363 71.9726 86.0707 71.783C85.9052 71.5934 85.7793 71.3727 85.7005 71.1339C85.6217 70.895 85.5916 70.6428 85.612 70.3922C85.6324 70.1416 85.7028 69.8975 85.8191 69.6745C86.0798 68.9277 86.236 68.1485 86.2833 67.3592C86.3531 66.4997 86.0837 65.6471 85.5325 64.9829C84.9813 64.3187 84.1919 63.8955 83.3326 63.8035C82.5037 63.6712 81.6748 63.8035 80.7962 63.6381C80.376 63.6391 79.971 63.4809 79.6632 63.1953C79.3555 62.9098 79.1679 62.5183 79.1385 62.1001C79.0669 61.641 78.9617 61.1877 78.8236 60.744C78.6955 60.3108 78.7291 59.8459 78.918 59.4355C79.107 59.025 79.4385 58.6968 79.8513 58.5113C80.6445 58.1004 81.3849 57.5951 82.0561 57.0064C82.6354 56.4801 83.0009 55.76 83.0834 54.9827C83.1659 54.2054 82.9596 53.4249 82.5037 52.7892C82.1079 52.1841 81.6404 51.6288 81.1112 51.1354C80.8892 50.986 80.7006 50.7923 80.5573 50.5666C80.414 50.3409 80.3191 50.088 80.2786 49.8239C80.2381 49.5597 80.2529 49.2901 80.322 49.032C80.3911 48.7738 80.5131 48.5328 80.6802 48.324C80.9123 47.9436 81.1278 47.5467 81.3764 47.1663C81.5977 46.7726 81.9578 46.475 82.3867 46.3314C82.8156 46.1877 83.2827 46.2083 83.6973 46.389C84.6247 46.7733 85.6304 46.932 86.6314 46.8521C87.3149 46.8167 87.9677 46.5578 88.489 46.1154C89.0103 45.6731 89.3712 45.0718 89.5159 44.4045C89.7204 43.5211 89.8095 42.615 89.7811 41.7088C89.755 41.2941 89.8634 40.882 90.0903 40.5335C90.3172 40.185 90.6505 39.9187 91.041 39.7739C91.6543 39.5919 92.2677 39.4596 92.8811 39.3273C93.0942 39.2563 93.3196 39.2293 93.5436 39.2479C93.7675 39.2665 93.9854 39.3303 94.1838 39.4355C94.3823 39.5407 94.5572 39.685 94.698 39.8597C94.8389 40.0345 94.9426 40.2359 95.0029 40.4519C95.4212 41.4154 96.0633 42.2657 96.8762 42.9326C97.511 43.4042 98.2893 43.6436 99.0801 43.6105C99.871 43.5773 100.626 43.2738 101.219 42.7507C101.697 42.3708 102.141 41.9502 102.546 41.4938C102.832 41.1675 103.223 40.9499 103.652 40.8776C104.081 40.8053 104.521 40.8827 104.9 41.0969L106.441 42.0065C106.811 42.2249 107.09 42.57 107.224 42.9777C107.358 43.3853 107.339 43.8277 107.171 44.2226C106.824 45.0843 106.655 46.0066 106.673 46.9348C106.667 47.7449 106.959 48.5291 107.494 49.1388C108.028 49.7484 108.769 50.1411 109.574 50.2424C110.326 50.3501 111.086 50.3998 111.845 50.3912C112.308 50.3447 112.771 50.4816 113.134 50.7724C113.497 51.0632 113.731 51.4846 113.785 51.9458C113.918 52.475 114.067 52.9877 114.183 53.5996C114.29 54.0008 114.242 54.4276 114.049 54.7953C113.856 55.163 113.53 55.4446 113.138 55.5841C112.26 55.9714 111.47 56.5342 110.818 57.2379C110.34 57.7157 110.031 58.3346 109.935 59.0022C109.84 59.6699 109.963 60.3505 110.287 60.9424C110.755 61.6999 111.312 62.3994 111.945 63.0262C112.33 63.3161 112.586 63.7439 112.661 64.2193C112.735 64.6946 112.621 65.1801 112.343 65.5731L111.597 66.8134C111.386 67.2434 111.013 67.5732 110.56 67.7311C110.107 67.8889 109.61 67.8623 109.176 67.6568C108.081 67.1979 106.867 67.0995 105.712 67.3757C105.126 67.5481 104.599 67.8788 104.189 68.3311C103.78 68.7835 103.504 69.3399 103.391 69.9391C103.269 70.5346 103.18 71.1364 103.126 71.7417L103.142 71.7582ZM96.5115 51.152C95.736 51.1432 94.9666 51.2883 94.2479 51.5788C93.5291 51.8692 92.8755 52.2994 92.3248 52.8441C91.7742 53.3888 91.3375 54.0373 91.0403 54.7519C90.743 55.4664 90.5911 56.2328 90.5934 57.0064C90.5509 57.8069 90.6722 58.6077 90.95 59.3599C91.2278 60.1121 91.6562 60.8 92.2092 61.3816C92.7621 61.9633 93.428 62.4265 94.1663 62.743C94.9045 63.0596 95.6996 63.2228 96.5032 63.2228C97.3067 63.2228 98.1018 63.0596 98.8401 62.743C99.5783 62.4265 100.244 61.9633 100.797 61.3816C101.35 60.8 101.779 60.1121 102.056 59.3599C102.334 58.6077 102.455 57.8069 102.413 57.0064C102.417 56.2307 102.267 55.462 101.969 54.7453C101.672 54.0286 101.234 53.3785 100.681 52.8331C100.128 52.2877 99.4713 51.858 98.7496 51.5693C98.0279 51.2806 97.2557 51.1387 96.4783 51.152H96.5115Z" fill="#A400FF"/>
<path d="M87.9904 155.027L107.203 156.516C108.111 156.509 109.007 156.731 109.806 157.161C110.379 157.616 110.795 158.239 110.994 158.942C111.193 159.645 111.166 160.393 110.917 161.08C110.388 162.442 109.479 163.624 108.297 164.487C101.318 170.093 91.5213 170.374 82.5033 170.325L40.0656 170.093C38.4253 170.2 36.781 169.957 35.2416 169.382C34.4818 169.073 33.8365 168.536 33.3943 167.846C32.9521 167.156 32.7346 166.347 32.7716 165.529C32.9506 164.816 33.2836 164.15 33.7475 163.579C34.2114 163.007 34.7949 162.544 35.4571 162.221C39.248 160.15 43.4003 158.82 47.6911 158.302C54.1563 157.144 60.6324 156.042 67.1197 154.994" fill="url(#paint0_linear_2948_6730)"/>
<path d="M202.158 153.026L221.371 154.498C222.282 154.489 223.179 154.717 223.974 155.16C224.544 155.613 224.957 156.234 225.156 156.933C225.355 157.633 225.33 158.378 225.084 159.063C224.554 160.428 223.638 161.611 222.449 162.469C215.486 168.158 205.689 168.373 196.688 168.307L154.233 168.059C152.593 168.159 150.95 167.917 149.409 167.348C148.637 167.045 147.98 166.51 147.528 165.816C147.076 165.122 146.853 164.305 146.89 163.478C147.063 162.763 147.394 162.095 147.859 161.522C148.323 160.95 148.91 160.489 149.575 160.171C153.392 158.11 157.566 156.791 161.875 156.284C168.341 155.126 174.817 154.024 181.304 152.977" fill="url(#paint1_linear_2948_6730)"/>
<path d="M189.857 156.862C189.895 157.855 189.708 158.844 189.31 159.756C188.829 160.599 188.1 161.275 187.221 161.691C185.33 162.668 183.133 162.882 181.088 162.286C180.963 162.281 180.84 162.249 180.727 162.193C180.615 162.137 180.516 162.058 180.436 161.961C180.357 161.865 180.298 161.752 180.265 161.632C180.231 161.511 180.224 161.385 180.242 161.261C180.418 160.13 181.009 159.104 181.9 158.383C182.782 157.674 183.533 156.818 184.122 155.853C185.05 153.968 184.354 148.924 187.934 149.734C190.868 150.362 189.94 154.712 189.857 156.862Z" fill="#CE9E95"/>
<path d="M190.355 160.17C190.355 160.17 190.852 161.411 190.239 162.138C189.625 162.866 183.193 166.852 178.867 163.643C174.54 160.435 184.735 160.021 184.735 160.021L190.355 160.17Z" fill="#A400FF"/>
<path d="M190.106 157.325C189.908 157.229 189.683 157.207 189.471 157.262C189.259 157.316 189.072 157.444 188.945 157.622C188.523 158.104 187.985 158.47 187.382 158.687C186.779 158.904 186.13 158.965 185.497 158.863C184.088 158.532 183.525 156.911 182.828 156.895C182.132 156.878 178.386 160.07 178.17 161.426C177.955 162.782 179.828 163.791 181.983 163.923C184.138 164.056 188.879 162.6 189.791 161.492C190.176 160.874 190.406 160.173 190.461 159.447C190.516 158.721 190.394 157.993 190.106 157.325V157.325Z" fill="white"/>
<path d="M202.125 158.764C202.163 159.758 201.976 160.747 201.578 161.658C201.097 162.502 200.368 163.177 199.489 163.593C197.599 164.576 195.403 164.795 193.355 164.205C193.074 164.15 192.822 163.998 192.642 163.775C192.54 163.588 192.494 163.376 192.51 163.163C192.686 162.032 193.276 161.006 194.168 160.286C195.049 159.577 195.801 158.72 196.389 157.755C197.317 155.87 196.621 150.826 200.202 151.636C203.136 152.314 202.208 156.664 202.125 158.764Z" fill="#CE9E95"/>
<path d="M202.622 162.188C202.622 162.188 203.119 163.428 202.506 164.156C201.892 164.884 195.46 168.869 191.134 165.661C186.807 162.453 196.985 162.039 196.985 162.039L202.622 162.188Z" fill="#A400FF"/>
<path d="M202.373 159.294C202.177 159.192 201.95 159.166 201.736 159.221C201.522 159.276 201.335 159.408 201.213 159.592C200.787 160.068 200.248 160.43 199.646 160.644C199.043 160.857 198.396 160.917 197.765 160.816C196.356 160.485 195.792 158.864 195.096 158.848C194.4 158.831 190.653 162.023 190.438 163.379C190.222 164.735 192.096 165.744 194.251 165.876C196.406 166.009 201.147 164.553 202.058 163.445C202.444 162.83 202.674 162.131 202.728 161.408C202.783 160.685 202.661 159.96 202.373 159.294V159.294Z" fill="white"/>
<path d="M204.677 106.092C204.677 106.092 205.357 142.74 202.622 154.978L195.725 155.821L190.935 105.596L204.677 106.092Z" fill="#473F47"/>
<path d="M183.343 102.088C183.343 102.088 180.027 121.933 184.039 153.62L190.935 154.464L195.726 104.271L183.343 102.088Z" fill="#473F47"/>
<path d="M175.335 86.3108C175.335 87.6338 175.849 88.7915 176.993 89.1718C177.088 89.2145 177.188 89.2424 177.292 89.2545C179.413 89.6845 182.265 88.0803 184.138 86.6746C184.941 86.0903 185.711 85.4609 186.442 84.7893V70.6328L176.131 81.1675C175.591 82.8281 175.322 84.5648 175.335 86.3108V86.3108Z" fill="#A400FF"/>
<path d="M183.973 86.6267C183.973 87.2882 183.973 87.9663 183.973 88.6278C183.973 92.2827 184.818 96.0533 183.724 99.6421C183.373 100.407 183.269 101.263 183.425 102.09C183.745 102.749 184.292 103.272 184.967 103.562C188.307 105.124 191.9 106.076 195.577 106.373C198.312 106.753 202.207 107.564 204.744 106.092C205.707 105.377 206.35 104.314 206.534 103.132C207.496 99.3421 208.051 95.4615 208.192 91.555C208.192 91.0589 208.192 90.5462 208.291 90.0335C208.507 86.544 208.573 83.0214 208.507 79.5319C208.507 76.9851 208.258 74.2398 206.6 72.3214C203.92 69.7895 200.533 68.1286 196.886 67.5584C195.829 67.341 194.745 67.2797 193.67 67.3765C192.155 67.6187 190.692 68.1165 189.344 68.8484C187.745 69.3932 186.386 70.4746 185.498 71.9079C184.604 73.7286 183.974 75.6662 183.624 77.6631C183.334 79.5463 183.301 81.46 183.525 83.3522C183.624 84.2783 183.856 85.2044 183.956 86.114C183.973 86.2959 183.973 86.4613 183.973 86.6267Z" fill="#A400FF"/>
<path opacity="0.1" d="M198.941 107.331C200.002 107.645 202.456 106.686 203.268 106.537C203.749 106.537 204.196 106.207 204.677 106.091C207.114 105.479 207.396 98.6818 207.628 96.8461C208.466 91.9816 209.02 87.0726 209.286 82.1438C209.396 80.2682 209.177 78.3876 208.639 76.5871C208.37 75.6848 207.905 74.8526 207.278 74.1496C206.651 73.4465 205.876 72.8897 205.009 72.5188C201.909 71.4107 200.98 81.2012 200.549 83.2188L198.229 94.2827C197.898 95.646 197.681 97.0345 197.582 98.4337C197.637 100.136 197.991 101.815 198.626 103.395C198.908 104.371 198.129 106.207 198.51 106.918C198.541 107.018 198.596 107.108 198.672 107.18C198.747 107.253 198.84 107.305 198.941 107.331Z" fill="#020202"/>
<path d="M191.466 64.4649C191.852 64.8901 192.385 65.1556 192.958 65.2091C193.437 65.2502 193.92 65.2502 194.4 65.2091H194.682C194.741 65.1921 194.804 65.1921 194.864 65.2091C194.92 65.2677 194.955 65.3434 194.963 65.4241C195.046 66.3815 195.046 67.3443 194.963 68.3017V68.3017V68.8144C194.913 68.9928 194.913 69.1816 194.963 69.3601C195.063 69.5751 195.312 69.6578 195.544 69.7405C195.965 69.8854 196.408 69.9581 196.853 69.9555C197.8 69.8683 198.711 69.5502 199.506 69.0293C199.433 67.3709 199.522 65.7093 199.771 64.068C200.234 62.0006 200.446 59.885 200.401 57.767C200.346 56.9351 200.04 56.1392 199.522 55.4848C199.11 55.0862 198.617 54.7798 198.077 54.5859C197.537 54.392 196.961 54.3151 196.389 54.3602C194.874 54.3295 193.383 54.7374 192.096 55.5344C191.615 55.8486 191.565 56.2621 191.449 56.7913C191.3 57.6182 191.167 58.4451 191.068 59.305C190.968 60.165 190.902 61.2069 190.885 62.1826C190.792 62.9886 190.998 63.8009 191.466 64.4649Z" fill="#CE9E95"/>
<path d="M192.46 52.7561C192.167 52.8063 191.899 52.9521 191.698 53.1705C191.497 53.389 191.375 53.6679 191.349 53.9634C191.339 54.2616 191.43 54.5546 191.607 54.7948C191.785 55.035 192.039 55.2083 192.327 55.2864C192.283 55.6247 192.37 55.9671 192.57 56.2437C192.771 56.5203 193.069 56.7103 193.405 56.7748C194.084 56.8737 194.777 56.788 195.411 56.5268C195.756 56.9544 196.244 57.2445 196.785 57.3446C197.326 57.4447 197.886 57.3482 198.362 57.0725V57.4529C198.677 58.1135 198.874 58.8245 198.942 59.5532L198.759 60.9589C198.801 60.5958 198.985 60.2637 199.27 60.0346C199.556 59.8055 199.92 59.6979 200.285 59.7351C200.386 59.7244 200.489 59.7351 200.586 59.7664C200.683 59.7978 200.772 59.8491 200.848 59.917C200.911 60.0173 200.951 60.1303 200.964 60.2478C200.975 60.4666 200.932 60.6847 200.84 60.8834C200.747 61.0821 200.608 61.2556 200.434 61.3889C200.185 61.5543 199.87 61.6701 199.754 61.9512C199.672 62.2208 199.672 62.5086 199.754 62.7781C199.821 63.0949 199.786 63.4248 199.655 63.7208L200.119 63.605C200.256 63.5321 200.384 63.4433 200.5 63.3404C200.626 63.2007 200.72 63.0349 200.775 62.8547C200.829 62.6745 200.843 62.4846 200.815 62.2985C201.062 62.2993 201.306 62.2409 201.526 62.1282C201.745 62.0154 201.935 61.8516 202.078 61.6506C202.221 61.4496 202.313 61.2172 202.347 60.9731C202.381 60.7289 202.356 60.4802 202.274 60.2478C202.396 60.2316 202.514 60.1912 202.621 60.129C202.727 60.0668 202.82 59.9839 202.895 59.8854C202.969 59.7868 203.022 59.6745 203.052 59.555C203.082 59.4354 203.088 59.3112 203.07 59.1894C202.972 58.6969 202.743 58.2399 202.406 57.8663C202.795 57.862 203.166 57.705 203.439 57.4294C203.712 57.1539 203.865 56.782 203.865 56.3945C203.832 56.1697 203.832 55.9412 203.865 55.7164C203.962 55.461 204.096 55.2214 204.263 55.0053C204.411 54.7216 204.464 54.398 204.413 54.0822C204.362 53.7665 204.211 53.4755 203.981 53.2522C203.65 52.9546 203.186 52.8057 202.937 52.4419C202.804 52.1028 202.72 51.7463 202.688 51.3835C202.39 50.0439 200.898 49.4154 199.588 48.9855C199.236 48.8426 198.857 48.7804 198.478 48.8035C198.289 48.8182 198.111 48.8942 197.971 49.0196C197.83 49.1451 197.734 49.3132 197.699 49.4981C197.342 49.1987 196.903 49.0141 196.439 48.9689C195.991 48.9689 195.494 49.3824 195.61 49.8124C195.427 49.0847 194.201 50.97 194.134 51.0196C193.322 51.5158 192.079 51.0196 192.46 52.7561Z" fill="#473F47"/>
<path d="M194.399 65.2423H194.681C194.741 65.2253 194.804 65.2253 194.864 65.2423C194.92 65.3009 194.955 65.3765 194.963 65.4573C195.046 66.4147 195.046 67.3774 194.963 68.3349V68.3349C195.819 68.072 196.558 67.5214 197.054 66.7768C197.549 66.0322 197.771 65.1394 197.682 64.25C196.614 64.6874 195.503 65.009 194.366 65.2092L194.399 65.2423Z" fill="#AF807A"/>
<path d="M166.649 82.6574C168.005 84.5874 169.688 86.2665 171.623 87.6188C173.011 88.5525 174.613 89.1213 176.281 89.2726C176.5 89.2952 176.721 89.2669 176.927 89.1899C177.283 89.0853 177.596 88.8711 177.822 88.578C178.518 87.7514 178.936 86.7273 179.016 85.6508C179.132 82.8228 176.065 81.1856 176.065 81.1856C176.065 81.1856 169.086 78.9695 168.257 79.3333C167.81 79.5152 167.379 80.5075 167.08 81.3509C166.782 82.1944 166.649 82.6574 166.649 82.6574Z" fill="#A400FF"/>
<path opacity="0.1" d="M166.649 82.657C168.005 84.587 169.688 86.266 171.623 87.6184C173.011 88.552 174.613 89.1209 176.281 89.2722C176.5 89.2948 176.721 89.2665 176.927 89.1895C177.022 89.2322 177.123 89.2601 177.226 89.2722C179.348 89.7022 182.199 88.098 184.072 86.6923L183.409 82.4586C182.139 83.7901 180.661 84.9071 179.033 85.7662C177.886 86.3786 176.575 86.6158 175.286 86.4442C174.937 86.3935 174.596 86.2932 174.275 86.1465C171.66 84.874 169.229 83.2552 167.047 81.334C166.815 82.0451 166.649 82.657 166.649 82.657Z" fill="#020202"/>
<path d="M212.85 87.2702C213.926 89.7016 214.393 92.3582 214.209 95.01C213.745 98.1852 211.623 100.848 209.584 103.279C207.926 103.527 205.887 103.494 205.307 101.972C205.174 101.482 205.14 100.971 205.208 100.467L205.44 97.1599C205.629 95.7026 205.551 94.223 205.208 92.7939C204.574 91.2395 203.744 89.7723 202.738 88.4279C201.285 86.1233 200.414 83.5014 200.201 80.7873C200.019 78.2405 201.958 70.0046 205.721 72.5184C207.28 73.5437 208.672 77.7774 209.501 79.4808C210.761 82.0277 211.877 84.6241 212.85 87.2702Z" fill="#A400FF"/>
<path d="M204.346 105.595C204.262 105.717 204.216 105.861 204.213 106.008C204.214 106.048 204.223 106.087 204.242 106.122C204.26 106.157 204.287 106.187 204.319 106.209C204.352 106.232 204.389 106.246 204.428 106.252C204.468 106.257 204.508 106.253 204.545 106.24C204.926 107.414 204.13 108.654 204.13 109.895C204.114 110.004 204.114 110.116 204.13 110.226C204.191 110.36 204.289 110.475 204.412 110.556C204.621 110.688 204.86 110.764 205.106 110.779C205.353 110.793 205.599 110.745 205.821 110.639C206.267 110.426 206.667 110.129 206.998 109.762C207.711 109.109 208.252 108.292 208.573 107.381C208.692 106.959 208.77 106.527 208.805 106.091L209.203 102.783C206.833 102.039 205.473 103.643 204.346 105.595Z" fill="#CE9E95"/>
<path d="M167.047 76.6031C166.978 76.3816 166.852 76.182 166.682 76.0242C166.643 75.9842 166.597 75.9524 166.546 75.9306C166.495 75.9089 166.439 75.8977 166.384 75.8977C166.328 75.8977 166.273 75.9089 166.222 75.9306C166.17 75.9524 166.124 75.9842 166.085 76.0242C166.019 76.1411 165.98 76.2709 165.969 76.4046C165.905 76.5481 165.8 76.6699 165.668 76.755C165.535 76.8402 165.381 76.8851 165.223 76.8842C164.908 76.864 164.598 76.7855 164.312 76.6527C163.48 76.3513 162.633 76.0919 161.775 75.8754C161.576 75.8098 161.361 75.8098 161.162 75.8754C161.058 75.9296 160.966 76.0045 160.892 76.0955C160.817 76.1866 160.763 76.2917 160.731 76.4046C160.553 76.9259 160.508 77.4834 160.601 78.0263C160.693 78.5693 160.92 79.0805 161.261 79.5137C161.96 80.3761 162.91 81.0004 163.98 81.2998C165.062 81.5893 166.175 81.7503 167.295 81.7794C167.572 81.8182 167.853 81.7781 168.108 81.6637C169.434 80.9029 167.428 77.4796 167.047 76.6031Z" fill="#CE9E95"/>
<path d="M87.2937 101.312C87.2937 101.312 87.2937 116.626 86.1996 119.404C83.3649 127.177 79.5687 130.352 79.5687 130.352C78.0767 135.986 76.5958 141.626 75.126 147.271C76.5682 148.924 78.9719 150.578 80.5965 149.139C81.0207 148.715 81.3536 148.208 81.5745 147.651L89.3824 130.683C91.0721 127.384 92.3311 123.883 93.1289 120.264V119.95V119.867C93.1289 119.652 93.2449 118.941 93.3444 117.916C93.593 114.922 93.0957 100.766 91.6866 97.0449C91.6866 97.0449 86.4316 98.8476 84.9231 96.7969L87.2937 101.312Z" fill="#A400FF"/>
<path d="M87.2937 101.311C87.2937 101.311 87.2937 116.625 86.1996 119.404C83.3649 127.177 79.5687 130.352 79.5687 130.352C78.0767 135.986 76.5958 141.625 75.126 147.27C76.5682 148.924 78.9719 150.578 80.5965 149.139C81.0207 148.715 81.3536 148.208 81.5745 147.651L89.3824 130.683C91.0721 127.384 92.3311 123.882 93.1289 120.264V119.95V119.867C93.1289 119.652 93.2449 118.941 93.3444 117.915C93.593 114.922 93.1454 103.461 91.8193 99.7237C90.9786 99.8718 90.1145 99.812 89.3024 99.5497C88.4903 99.2873 87.7551 98.8303 87.161 98.2188L87.2937 101.311Z" fill="url(#paint2_linear_2948_6730)"/>
<path d="M74.2149 99.1122C72.8225 101.155 72.2924 103.662 72.7395 106.091C73.27 109.746 75.8892 112.706 76.4196 116.312C76.5209 117.24 76.3106 118.175 75.8216 118.972C75.3326 119.768 74.5925 120.379 73.7175 120.711L63.506 125.97C61.7369 126.696 60.2007 127.892 59.0633 129.426C58.538 130.205 58.3344 131.155 58.495 132.08C58.6556 133.004 59.1681 133.831 59.9253 134.388L79.5859 130.402C83.3802 128.103 86.19 124.487 87.4766 120.248C88.2226 117.387 87.2114 98.2191 87.2114 98.2191C84.0286 95.1762 82.9345 96.3173 80.9618 94.002C78.5913 95.7881 75.9886 96.7142 74.2149 99.1122Z" fill="#A400FF"/>
<path d="M58.367 137.53C58.367 138.638 58.5826 139.961 57.7371 140.705C57.703 140.748 57.6603 140.783 57.6118 140.809C57.5633 140.834 57.51 140.85 57.4553 140.854C57.2935 140.851 57.1392 140.785 57.0243 140.672C55.0848 139.018 54.5709 136.256 54.4051 133.709C54.2873 133.069 54.3988 132.407 54.7201 131.841C55.1674 131.377 55.7456 131.06 56.3778 130.931C57.3846 130.624 58.3612 130.225 59.2954 129.74C59.0136 129.889 59.113 131.543 59.113 131.824C59.2386 132.445 59.2997 133.076 59.2954 133.709C59.1113 134.272 58.8954 134.824 58.6489 135.363C58.4407 136.066 58.3456 136.797 58.367 137.53V137.53Z" fill="#EC9C7D"/>
<path d="M79.8678 153.257C80.3879 154.048 80.6645 154.973 80.6635 155.919C80.6505 156.091 80.5806 156.254 80.4646 156.382C80.1164 156.713 79.5528 156.481 79.1715 156.217C77.7077 155.052 76.4521 153.649 75.4582 152.066C75.2984 151.882 75.1898 151.66 75.1433 151.421C75.1336 151.097 75.2264 150.779 75.4085 150.511L76.5358 148.444C76.566 148.379 76.6115 148.322 76.6684 148.279C76.7437 148.253 76.8252 148.253 76.9005 148.279C77.4968 148.397 78.0799 148.574 78.6411 148.808C79.4036 149.122 79.4202 149.155 79.3373 149.932C79.2239 151.068 79.4066 152.213 79.8678 153.257Z" fill="#EC9C7D"/>
<path d="M74.2146 153.256C74.1824 153.364 74.1824 153.479 74.2146 153.587C74.2146 153.736 74.397 153.835 74.513 153.918C75.17 154.444 75.77 155.037 76.3033 155.688C77.4987 156.88 78.7784 157.986 80.1327 158.995C80.3883 159.259 80.695 159.468 81.0341 159.61C81.3731 159.752 81.7376 159.825 82.1054 159.822C82.1874 159.839 82.272 159.839 82.354 159.822C82.4436 159.728 82.4965 159.605 82.5032 159.475C82.6304 158.343 82.4411 157.198 81.9562 156.167C81.8041 155.761 81.5794 155.385 81.2931 155.059C81.1432 154.898 80.9608 154.771 80.7579 154.685C80.555 154.6 80.3363 154.558 80.1161 154.563C79.6354 154.563 79.2044 154.96 78.707 154.96C78.2133 154.878 77.7721 154.605 77.4803 154.199C77.0956 153.765 76.7464 153.3 76.436 152.81C76.2039 152.446 75.9884 151.785 75.6071 151.553C74.7285 150.925 74.3804 152.694 74.2146 153.256Z" fill="#A400FF"/>
<path d="M53.3436 132.286C53.2749 132.324 53.2153 132.377 53.1689 132.44C53.1224 132.504 53.0903 132.576 53.0745 132.653C53.0588 132.73 53.0599 132.81 53.0777 132.886C53.0955 132.963 53.1297 133.034 53.1779 133.096C53.4577 134.007 53.6465 134.943 53.7415 135.891C54.0962 137.795 54.5949 139.669 55.2334 141.498C55.3109 141.911 55.4694 142.305 55.6998 142.657C55.9302 143.009 56.228 143.312 56.5762 143.548C56.6743 143.572 56.7765 143.572 56.8746 143.548C57.0168 143.51 57.144 143.429 57.2393 143.317C58.103 142.322 58.6764 141.109 58.897 139.811C58.9966 139.32 58.9966 138.814 58.897 138.322C58.858 138.076 58.7668 137.841 58.6296 137.633C58.4924 137.425 58.3123 137.248 58.1013 137.115C57.6206 136.851 56.9906 136.917 56.5265 136.586C56.3145 136.4 56.1444 136.171 56.0272 135.914C55.9101 135.658 55.8486 135.379 55.8468 135.098C55.7646 134.445 55.7314 133.787 55.7473 133.13C55.7473 132.617 55.9628 131.856 55.7473 131.476C55.2997 130.401 53.8409 131.856 53.3436 132.286Z" fill="#A400FF"/>
<path d="M93.1295 62.0675C92.8494 64.3654 92.1884 66.601 91.1734 68.6827C91.1097 68.8969 90.9753 69.0833 90.7921 69.2119C90.6167 69.295 90.4219 69.3293 90.2285 69.3111L82.5035 69.2119C81.8902 69.2119 81.1276 69.1126 80.8458 68.5338C80.5971 69.0465 79.8843 69.0796 79.3207 69.0134C76.8513 68.7293 74.4565 67.989 72.2588 66.8304C73.0977 63.8341 74.1731 60.9088 75.4748 58.0818C75.9197 57.0827 76.5306 56.1657 77.2817 55.3696C78.2976 54.4089 79.515 53.6858 80.8458 53.2527C84.1612 52.062 88.8857 51.4005 91.4221 54.46C92.2068 55.5474 92.7626 56.782 93.056 58.0895C93.3495 59.3969 93.3745 60.7501 93.1295 62.0675Z" fill="#F89659"/>
<path d="M92.8974 73.0156C95.9973 76.2074 99.1802 79.3497 102.214 82.6076C103.164 81.9321 104.162 81.3242 105.198 80.7885C106.59 80.2262 115.658 75.6452 119.156 74.934C121.029 74.5526 122.969 74.6551 124.792 75.2317C125.093 75.3005 125.355 75.4846 125.521 75.7444C125.77 76.2405 125.223 76.7863 124.693 76.902C124.132 76.9436 123.577 77.0377 123.035 77.1832C122.592 77.4448 122.213 77.8005 121.924 78.2251C121.326 78.8955 120.593 79.4332 119.774 79.8035C118.954 80.1738 118.066 80.3685 117.166 80.375C116.42 80.375 115.658 80.0112 114.929 80.0608C113.921 80.3428 112.996 80.8585 112.226 81.5657C109.79 83.2195 107.618 85.3199 105.148 86.9736C104.669 87.3572 104.097 87.6082 103.49 87.7013C102.916 87.6984 102.35 87.5685 101.833 87.3209C98.176 86.1156 94.7953 84.1988 91.8862 81.6815C91.647 81.4662 91.4502 81.2082 91.306 80.9208C91.2123 80.6211 91.1675 80.3084 91.1734 79.9946C91.1734 78.7047 91.1734 77.3982 91.1734 76.1082C91.174 75.5353 91.3043 74.97 91.5546 74.4544C91.6929 74.1918 91.9137 73.9816 92.1832 73.8562C92.4527 73.7307 92.756 73.6969 93.0466 73.7598" fill="#FDB9A9"/>
<path d="M98.7988 83.1198C99.0958 83.3621 99.425 83.5625 99.7768 83.7152C100.557 83.9676 101.383 84.0466 102.197 83.9467C103.433 83.9189 104.669 83.9908 105.894 84.1617C106.205 84.1842 106.506 84.2806 106.772 84.4428C106.901 84.5257 106.999 84.6476 107.053 84.7905C107.107 84.9335 107.113 85.0899 107.071 85.2367C106.987 85.3943 106.868 85.5302 106.723 85.6336C105.805 86.5237 104.657 87.1421 103.407 87.4197C101.852 87.4573 100.329 86.974 99.0806 86.047L96.3619 84.3932C95.9524 84.1975 95.5947 83.9086 95.3176 83.5498C94.9363 82.9544 94.8534 81.3172 95.7817 81.1518C96.7101 80.9864 98.1854 82.7064 98.7988 83.1198Z" fill="#DE9F93"/>
<path d="M91.3061 70.8649C90.328 70.1207 89.1842 70.6334 87.9907 70.683C86.7971 70.7326 85.3217 70.7822 83.9955 70.683C81.4592 70.6003 77.3647 70.3357 75.0273 73.0975C72.2423 76.4051 74.4305 81.8627 75.8727 85.3356C76.3818 86.2422 76.7401 87.2252 76.9336 88.2463C77.0827 89.377 77.0827 90.5224 76.9336 91.6531C76.6088 93.8607 75.737 95.9525 74.3973 97.7391C74.0881 98.0329 73.8431 98.3873 73.6777 98.78C73.5122 99.1728 73.4299 99.5953 73.4358 100.021C73.5482 100.389 73.7401 100.728 73.9979 101.013C74.2556 101.299 74.5731 101.525 74.9278 101.675C77.5781 103.22 80.5646 104.099 83.6308 104.238C85.0615 104.216 86.485 104.033 87.8746 103.693C89.1345 103.494 90.5104 103.924 91.4387 102.75C91.7276 102.337 91.9305 101.87 92.0355 101.377C93.0964 97.3918 93.0799 93.1084 94.6713 89.3378C95.5167 87.2871 96.9424 84.8064 96.8097 82.5242C96.7159 81.6435 96.4808 80.7836 96.1135 79.9773C95.3178 77.9762 94.4558 76.0082 93.4943 74.0898C93.017 72.8645 92.2691 71.7622 91.3061 70.8649Z" fill="white"/>
<path d="M88.1723 71.6923C88.1723 71.6923 87.3435 73.7761 81.8232 70.7001C81.8232 70.7001 83.3152 70.5677 82.9008 67.5082C82.7831 66.455 82.4136 65.4455 81.8232 64.5645C81.8896 64.6321 81.973 64.6807 82.0646 64.7053C82.1563 64.7299 82.2528 64.7295 82.3442 64.7041C82.4357 64.6788 82.5186 64.6295 82.5844 64.5613C82.6502 64.4931 82.6965 64.4085 82.7184 64.3164C82.8193 64.6192 82.9469 64.9125 83.0997 65.1929C83.9617 66.8467 85.8515 68.8147 87.9568 68.2524C87.747 68.6515 87.6211 69.0891 87.5869 69.5384C87.5527 69.9878 87.6109 70.4393 87.7579 70.8654C87.8633 71.1562 88.0024 71.4337 88.1723 71.6923V71.6923Z" fill="#FDB9A9"/>
<path d="M87.7586 70.8643H87.4768C85.4046 71.0793 82.9678 65.043 82.9678 65.043H83.1004C83.9624 66.6968 85.8522 68.6648 87.9575 68.1025C87.7263 68.5212 87.5888 68.9849 87.5544 69.4616C87.5201 69.9384 87.5897 70.417 87.7586 70.8643V70.8643Z" fill="#DE9F93"/>
<path d="M86.1838 68.4839C89.2008 68.7485 91.0575 65.9205 91.389 62.2326C91.389 61.8246 91.389 61.4112 91.389 60.9922C91.3961 59.7892 91.257 58.5897 90.9746 57.42C89.6484 51.7475 81.5753 54.0132 81.5753 54.0132C75.276 56.8578 80.8459 68.0539 86.1838 68.4839Z" fill="#FDB9A9"/>
<path d="M88.339 53.8978C88.2426 54.3417 88.1152 54.7782 87.9577 55.2043C87.7036 56.0972 87.3992 56.9751 87.0459 57.8339C86.4344 59.5556 85.2686 61.0269 83.7305 62.018C83.3723 62.2712 82.9428 62.4044 82.5038 62.3983C82.0894 62.3156 82.1225 62.0014 81.8075 61.7037C81.7012 61.6027 81.5668 61.536 81.4219 61.5124C81.277 61.4888 81.1283 61.5094 80.9953 61.5714C80.8861 61.6578 80.7991 61.7689 80.7415 61.8954C80.6838 62.0219 80.6572 62.1603 80.6637 62.2991C80.6697 62.6317 80.7593 62.9574 80.9244 63.2464C81.0895 63.5354 81.3248 63.7783 81.6086 63.9529C81.8768 64.0699 82.1323 64.214 82.3712 64.3829C82.653 64.631 82.6861 64.9948 82.8353 65.309L83.3326 66.4832C83.5164 66.8528 83.6075 67.2615 83.5979 67.6739C83.5543 67.9118 83.459 68.1373 83.3187 68.3344C83.1784 68.5316 82.9964 68.6957 82.7856 68.8151C81.6869 69.3758 80.4275 69.5394 79.2215 69.2781C78.3637 69.2304 77.5315 68.9688 76.8012 68.5174C76.3966 68.1906 76.0144 67.837 75.6574 67.4589C75.0749 67.0322 74.4397 66.682 73.7676 66.4171C74.4616 65.9395 75.0626 65.3399 75.5413 64.6475C75.9387 63.994 76.189 63.2621 76.2749 62.5025C76.3608 61.7429 76.2802 60.9738 76.0387 60.2484C75.7734 59.3223 76.0387 54.394 79.5199 52.7567C81.7574 51.7788 84.2514 51.5468 86.6315 52.0952C87.0724 52.1631 87.4857 52.3521 87.8251 52.641C88.0165 52.7846 88.1654 52.9773 88.2559 53.1986C88.3464 53.4199 88.3751 53.6616 88.339 53.8978V53.8978Z" fill="#F89659"/>
<path d="M82.9676 88.3629L80.6634 93.44C77.6347 89.5726 75.3066 85.2071 73.7839 80.5404C72.1261 74.6364 75.0603 73.148 75.0603 73.148C77.3148 72.3211 78.8399 75.5129 81.0447 81.9792C82.2548 85.5349 82.9676 88.3629 82.9676 88.3629Z" fill="#FDB9A9"/>
<path d="M80.6629 93.4399C80.6629 93.4399 80.5634 89.3054 82.5859 88.4785C84.6083 87.6516 98.7321 85.4355 98.7321 85.4355L100.058 86.9736C100.058 86.9736 86.1831 94.9614 80.6629 93.4399Z" fill="#FDB9A9"/>
<path d="M103.573 104.338L103.391 104.156C104.087 104.934 104.551 105.479 104.684 105.645C104.336 105.198 103.954 104.752 103.573 104.338Z" fill="#DC9BD5"/>
<path d="M100.257 85.2204C101.468 85.009 102.692 84.8874 103.921 84.8566C104.583 84.8287 105.246 84.8843 105.894 85.022C106.704 85.2369 107.488 85.542 108.231 85.9316C108.43 86.0308 108.679 86.1631 108.712 86.3946C108.715 86.5015 108.687 86.607 108.631 86.6981C108.575 86.7893 108.494 86.862 108.397 86.9073C108.2 86.9906 107.994 87.0516 107.783 87.0892C107.336 87.2381 106.938 87.5358 106.507 87.7177C105.811 87.9988 105.015 87.9657 104.302 88.2138C103.855 88.3792 103.44 88.6603 102.993 88.8423C102.054 89.206 101.013 89.206 100.075 88.8423C99.7526 88.7158 99.4372 88.5723 99.1301 88.4123C98.8355 88.239 98.5246 88.0949 98.2018 87.9823C97.9863 87.9823 97.8371 87.9823 97.6713 87.7838C97.5258 87.5324 97.4492 87.2472 97.4492 86.9569C97.4492 86.6666 97.5258 86.3814 97.6713 86.13C98.0852 85.7577 98.6226 85.5515 99.1798 85.5512L100.257 85.2204Z" fill="#FDB9A9"/>
<path d="M72.8882 75.1643C72.5323 76.239 72.2878 77.3473 72.1588 78.4718L71.9433 79.9933C71.8483 80.3061 71.8483 80.6398 71.9433 80.9525C72.2085 81.4818 73.2198 81.2668 73.7171 81.3494L76.4357 81.7794L81.8565 82.5733C81.9726 81.6508 81.9726 80.7174 81.8565 79.7949C81.6907 78.9349 81.3094 78.1411 81.0939 77.2646C80.8784 76.3881 80.8453 75.8258 80.6795 75.1808C80.2958 73.7227 79.4243 72.439 78.2095 71.5424C76.3031 70.1533 73.5181 73.5105 72.9379 75.032L72.8882 75.1643Z" fill="white"/>
<path d="M166.317 49.7617H108.396V101.691H166.317V49.7617Z" fill="white"/>
<path d="M123.38 84.1046L116.285 84.1367L116.333 94.6547L123.428 94.6226L123.38 84.1046Z" fill="#A400FF"/>
<path d="M132.083 73.1495L124.988 73.1816L125.086 94.5981L132.181 94.5659L132.083 73.1495Z" fill="#A400FF"/>
<path d="M140.874 81.4952L133.779 81.5273L133.839 94.5756L140.934 94.5435L140.874 81.4952Z" fill="#A400FF"/>
<path d="M149.541 66.2901L142.446 66.3223L142.575 94.5357L149.67 94.5036L149.541 66.2901Z" fill="#A400FF"/>
<path d="M132.083 73.1495L124.988 73.1816L125.086 94.5981L132.181 94.5659L132.083 73.1495Z" fill="url(#paint3_linear_2948_6730)"/>
<path d="M149.541 66.2901L142.446 66.3223L142.575 94.5357L149.67 94.5036L149.541 66.2901Z" fill="url(#paint4_linear_2948_6730)"/>
<path d="M158.258 58.378L151.163 58.4102L151.327 94.4956L158.422 94.4635L158.258 58.378Z" fill="#A400FF"/>
<path d="M142.678 145.899L128.405 145.436L130.179 155.59L140.291 155.904L142.678 145.899Z" fill="#A400FF"/>
<path d="M142.678 145.899L128.405 145.436L130.179 155.59L140.291 155.904L142.678 145.899Z" fill="url(#paint5_linear_2948_6730)"/>
<path d="M127.262 120.926C126.899 121.637 126.722 122.427 126.748 123.225C126.423 126.818 126.738 130.44 127.676 133.925C129.334 138.969 132.948 143.037 136.545 146.94C136.263 146.51 137.076 144.228 137.175 143.632C137.391 142.557 137.623 141.499 137.838 140.441C138.069 138.736 137.916 137.002 137.391 135.363C136.495 131.632 134.729 128.164 132.235 125.242C130.797 123.569 129.122 122.115 127.262 120.926V120.926Z" fill="#A400FF"/>
<path d="M127.262 120.926C126.899 121.637 126.722 122.427 126.748 123.225C126.423 126.818 126.738 130.44 127.676 133.925C129.334 138.969 132.948 143.037 136.545 146.94C136.263 146.51 137.076 144.228 137.175 143.632C137.391 142.557 137.623 141.499 137.838 140.441C138.069 138.736 137.916 137.002 137.391 135.363C136.495 131.632 134.729 128.164 132.235 125.242C130.797 123.569 129.122 122.115 127.262 120.926V120.926Z" fill="url(#paint6_linear_2948_6730)"/>
<path d="M143.209 133.097C144.531 130.479 145.501 127.699 146.094 124.828C146.389 123.385 146.395 121.898 146.11 120.453C145.826 119.008 145.257 117.634 144.436 116.41L137.523 126.862C136.097 128.808 134.979 130.961 134.208 133.246C133.661 135.575 133.61 137.993 134.058 140.343C134.506 142.693 135.444 144.924 136.81 146.89C138.352 145.567 139.081 142.54 139.927 140.671L143.209 133.097Z" fill="#A400FF"/>
<path d="M143.209 133.097C144.531 130.479 145.501 127.699 146.094 124.828C146.389 123.385 146.395 121.898 146.11 120.453C145.826 119.008 145.257 117.634 144.436 116.41L137.523 126.862C136.097 128.808 134.979 130.961 134.208 133.246C133.661 135.575 133.61 137.993 134.058 140.343C134.506 142.693 135.444 144.924 136.81 146.89C138.352 145.567 139.081 142.54 139.927 140.671L143.209 133.097Z" fill="url(#paint7_linear_2948_6730)"/>
<path d="M143.334 142.419L128.041 141.926C126.76 141.885 125.688 142.884 125.647 144.157C125.606 145.431 126.611 146.497 127.892 146.538L143.185 147.031C144.466 147.072 145.538 146.073 145.579 144.8C145.62 143.526 144.615 142.46 143.334 142.419Z" fill="#A400FF"/>
<path d="M128.588 71.2625C129.238 71.2625 129.765 70.7368 129.765 70.0883C129.765 69.4398 129.238 68.9141 128.588 68.9141C127.938 68.9141 127.411 69.4398 127.411 70.0883C127.411 70.7368 127.938 71.2625 128.588 71.2625Z" fill="#A400FF"/>
<path d="M118.692 82.4578C119.342 82.4578 119.869 81.9321 119.869 81.2836C119.869 80.6351 119.342 80.1094 118.692 80.1094C118.042 80.1094 117.515 80.6351 117.515 81.2836C117.515 81.9321 118.042 82.4578 118.692 82.4578Z" fill="#A400FF"/>
<path d="M137.109 80.2429C137.759 80.2429 138.286 79.7172 138.286 79.0687C138.286 78.4202 137.759 77.8945 137.109 77.8945C136.459 77.8945 135.932 78.4202 135.932 79.0687C135.932 79.7172 136.459 80.2429 137.109 80.2429Z" fill="#A400FF"/>
<path d="M145.563 65.0281C146.213 65.0281 146.74 64.5024 146.74 63.8539C146.74 63.2054 146.213 62.6797 145.563 62.6797C144.913 62.6797 144.386 63.2054 144.386 63.8539C144.386 64.5024 144.913 65.0281 145.563 65.0281Z" fill="#A400FF"/>
<path d="M154.797 57.6687C155.447 57.6687 155.974 57.143 155.974 56.4945C155.974 55.846 155.447 55.3203 154.797 55.3203C154.147 55.3203 153.62 55.846 153.62 56.4945C153.62 57.143 154.147 57.6687 154.797 57.6687Z" fill="#A400FF"/>
<path d="M118.956 81.5149L118.409 81.0353L128.588 69.5414L137.025 78.8358L145.331 63.5712L154.564 56.1953L155.012 56.7741L145.845 64.0839L137.175 80.1092L128.588 70.6329L118.956 81.5149Z" fill="#A400FF"/>
<path opacity="0.31" d="M153.056 33.2909C153.056 34.8934 152.419 36.4305 151.285 37.5651C150.151 38.6998 148.612 39.3394 147.005 39.3438H131.439C129.83 39.3438 128.287 38.7061 127.149 37.571C126.011 36.4358 125.372 34.8962 125.372 33.2909C125.372 31.6856 126.011 30.146 127.149 29.0109C128.287 27.8757 129.83 27.238 131.439 27.238H133.677C133.669 27.0783 133.669 26.9182 133.677 26.7584C133.651 25.2847 134.212 23.8609 135.238 22.8001C136.264 21.7394 137.671 21.1288 139.148 21.1024C140.625 21.0761 142.052 21.6363 143.115 22.6598C144.179 23.6833 144.791 25.0862 144.817 26.56V26.7584C144.826 26.9182 144.826 27.0783 144.817 27.238H147.055C147.851 27.238 148.639 27.3947 149.374 27.6991C150.11 28.0035 150.777 28.4496 151.339 29.0119C151.902 29.5742 152.347 30.2416 152.65 30.9758C152.953 31.7101 153.108 32.4968 153.106 33.2909H153.056Z" fill="#A400FF"/>
<path d="M151.183 32.7123C151.183 34.3176 150.543 35.8572 149.406 36.9923C148.268 38.1275 146.725 38.7652 145.115 38.7652H129.566C128.744 38.8081 127.921 38.6836 127.149 38.3992C126.376 38.1148 125.67 37.6765 125.072 37.111C124.475 36.5455 123.999 35.8646 123.674 35.1098C123.349 34.355 123.182 33.5421 123.182 32.7206C123.182 31.899 123.349 31.0861 123.674 30.3313C123.999 29.5765 124.475 28.8956 125.072 28.3301C125.67 27.7646 126.376 27.3263 127.149 27.0419C127.921 26.7575 128.744 26.633 129.566 26.6759H131.787C131.787 26.5106 131.787 26.3452 131.787 26.1798C131.787 24.7061 132.374 23.2927 133.419 22.2506C134.463 21.2085 135.88 20.623 137.357 20.623C138.834 20.623 140.251 21.2085 141.296 22.2506C142.34 23.2927 142.927 24.7061 142.927 26.1798V26.1798C142.936 26.3395 142.936 26.4996 142.927 26.6594H145.149C146.751 26.6725 148.283 27.3154 149.413 28.4487C150.542 29.5819 151.178 31.114 151.183 32.7123V32.7123Z" fill="white"/>
<path d="M200.4 59.2878C200.472 59.2502 200.551 59.2305 200.632 59.2305C200.713 59.2305 200.793 59.2502 200.864 59.2878C200.93 59.3509 200.976 59.4312 200.997 59.5193C201.165 59.907 201.177 60.3439 201.032 60.7405C200.887 61.1372 200.596 61.4635 200.218 61.6527C200.099 61.7395 199.964 61.8014 199.82 61.8347C199.749 61.8537 199.675 61.853 199.605 61.8325C199.535 61.8121 199.471 61.7728 199.422 61.7189C199.329 61.6145 199.282 61.4778 199.289 61.3385C199.198 60.9207 199.259 60.4838 199.463 60.1075C199.667 59.7312 200 59.4403 200.4 59.2878V59.2878Z" fill="#CE9E95"/>
<path d="M186.493 30.2149C186.495 31.5537 186.134 32.8682 185.448 34.0186V34.1179L182.133 40.1708H175.17L172.352 33.6383C171.841 32.635 171.564 31.5293 171.541 30.404C171.519 29.2787 171.753 28.1629 172.224 27.1404C172.696 26.1179 173.393 25.2151 174.264 24.4996C175.135 23.7842 176.157 23.2746 177.253 23.0092C178.35 22.7438 179.492 22.7293 180.595 22.9669C181.698 23.2046 182.732 23.6881 183.621 24.3813C184.51 25.0745 185.23 25.9594 185.727 26.9697C186.224 27.9799 186.486 29.0894 186.493 30.2149V30.2149Z" fill="#A400FF"/>
<path d="M186.492 30.2145C186.495 31.5533 186.134 32.8678 185.448 34.0183V34.1175L182.132 40.1704H175.17L172.352 33.6379C171.527 32.0338 171.311 30.1863 171.743 28.4358C172.176 26.6853 173.228 25.1497 174.706 24.112C175.966 23.2233 177.473 22.7492 179.016 22.7559C179.998 22.7559 180.97 22.9489 181.877 23.3237C182.784 23.6985 183.608 24.2479 184.303 24.9405C184.997 25.6331 185.547 26.4553 185.923 27.3603C186.299 28.2652 186.492 29.2351 186.492 30.2145V30.2145Z" fill="url(#paint8_linear_2948_6730)"/>
<path d="M182.779 30.0668C182.613 33.3744 179.696 40.1715 179.696 40.1715H175.17L172.352 33.639C171.527 32.035 171.311 30.1874 171.743 28.4369C172.176 26.6864 173.228 25.1508 174.706 24.1132C175.64 23.8217 176.629 23.7541 177.594 23.916C178.558 24.0778 179.471 24.4646 180.258 25.0447C181.045 25.6249 181.683 26.3821 182.121 27.2547C182.559 28.1274 182.785 29.0909 182.779 30.0668V30.0668Z" fill="url(#paint9_linear_2948_6730)"/>
<path d="M175.17 40.1543H182.016V42.3869C182.016 43.2641 181.667 44.1054 181.045 44.7257C180.423 45.346 179.58 45.6945 178.701 45.6945H178.369C177.49 45.6945 176.647 45.346 176.025 44.7257C175.403 44.1054 175.054 43.2641 175.054 42.3869V40.1543H175.17Z" fill="#A400FF"/>
<path d="M177.16 40.4185C177.096 40.4232 177.033 40.4036 176.984 40.3636C176.935 40.3236 176.903 40.2663 176.894 40.2035C175.784 34.3986 175.618 33.5056 175.585 33.3733C175.575 33.3055 175.592 33.2366 175.632 33.1811C175.672 33.1256 175.733 33.0878 175.8 33.0756H176.513C176.911 33.0756 177.043 33.0756 177.11 32.7779C177.128 32.6313 177.199 32.4962 177.309 32.3976C177.407 32.3278 177.528 32.2976 177.648 32.3129C177.768 32.3282 177.878 32.388 177.955 32.4802C178.061 32.6017 178.13 32.7509 178.154 32.9102L178.353 33.6875C178.353 33.6875 178.353 33.6875 178.353 33.5717C178.383 33.3992 178.451 33.2355 178.552 33.0921C178.623 33.0154 178.711 32.9561 178.809 32.9188C178.906 32.8815 179.011 32.8673 179.116 32.8772C179.299 32.891 179.471 32.9737 179.596 33.1087C179.596 32.811 179.762 32.5133 179.862 32.2322C179.961 31.951 180.193 31.8849 180.243 31.918C180.331 31.9204 180.415 31.9531 180.481 32.0103C180.548 32.0676 180.592 32.1459 180.608 32.2322C180.672 32.4643 180.711 32.7028 180.724 32.9433C180.71 33.0143 180.71 33.0873 180.724 33.1583H180.923H181.138H181.602C181.641 33.1595 181.678 33.169 181.713 33.1861C181.747 33.2032 181.777 33.2276 181.801 33.2575C181.816 33.2914 181.824 33.328 181.824 33.365C181.824 33.4021 181.816 33.4387 181.801 33.4725L180.458 40.3192C180.457 40.3576 180.448 40.3953 180.431 40.4296C180.414 40.464 180.389 40.4942 180.359 40.5183C180.329 40.5423 180.294 40.5595 180.257 40.5687C180.22 40.5779 180.181 40.5789 180.143 40.5716C180.105 40.5643 180.069 40.5489 180.038 40.5264C180.007 40.504 179.981 40.475 179.962 40.4416C179.943 40.4081 179.932 40.371 179.929 40.3327C179.926 40.2945 179.931 40.256 179.944 40.22L181.221 33.6875H180.956C180.757 33.6875 180.409 33.7867 180.226 33.5056C180.151 33.3686 180.111 33.2152 180.11 33.0591V33.0591C180.079 33.1935 180.041 33.326 179.994 33.456C179.895 33.8364 179.646 33.919 179.464 33.886C179.393 33.868 179.326 33.8351 179.269 33.7894C179.212 33.7438 179.165 33.6865 179.132 33.6214C179.132 33.6214 179.132 33.5221 179 33.5221C178.982 33.512 178.962 33.5066 178.942 33.5066C178.921 33.5066 178.901 33.512 178.884 33.5221C178.835 33.5976 178.801 33.6819 178.784 33.7702C178.754 33.9197 178.704 34.0644 178.635 34.2002C178.571 34.2981 178.475 34.3712 178.363 34.4073C178.252 34.4434 178.131 34.4404 178.022 34.3986C177.884 34.3063 177.789 34.1637 177.756 34.0017L177.541 33.1087C177.548 33.076 177.548 33.0421 177.541 33.0095C177.469 33.2336 177.319 33.4248 177.119 33.549C176.918 33.6732 176.68 33.7223 176.447 33.6875H176.099C176.347 35.0436 177.342 40.22 177.342 40.22C177.349 40.2526 177.35 40.2864 177.343 40.3192C177.337 40.3521 177.325 40.3833 177.306 40.4111C177.287 40.4389 177.263 40.4627 177.235 40.481C177.207 40.4993 177.176 40.5118 177.143 40.5177L177.16 40.4185Z" fill="#A400FF"/>
</g>
<defs>
<linearGradient id="paint0_linear_2948_6730" x1="76.1542" y1="105.612" x2="66.8652" y2="231.419" gradientUnits="userSpaceOnUse">
<stop offset="0.01"/>
<stop offset="0.08" stop-opacity="0.69"/>
<stop offset="0.21" stop-opacity="0.32"/>
<stop offset="1" stop-opacity="0"/>
</linearGradient>
<linearGradient id="paint1_linear_2948_6730" x1="190.322" y1="103.594" x2="181.016" y2="229.418" gradientUnits="userSpaceOnUse">
<stop offset="0.01"/>
<stop offset="0.08" stop-opacity="0.69"/>
<stop offset="0.21" stop-opacity="0.32"/>
<stop offset="1" stop-opacity="0"/>
</linearGradient>
<linearGradient id="paint2_linear_2948_6730" x1="54.9957" y1="96.052" x2="142.911" y2="181.195" gradientUnits="userSpaceOnUse">
<stop offset="0.01"/>
<stop offset="0.08" stop-opacity="0.69"/>
<stop offset="0.21" stop-opacity="0.32"/>
<stop offset="1" stop-opacity="0"/>
</linearGradient>
<linearGradient id="paint3_linear_2948_6730" x1="111.928" y1="50.6481" x2="195.226" y2="197.447" gradientUnits="userSpaceOnUse">
<stop offset="0.01"/>
<stop offset="0.08" stop-opacity="0.69"/>
<stop offset="0.21" stop-opacity="0.32"/>
<stop offset="1" stop-opacity="0"/>
</linearGradient>
<linearGradient id="paint4_linear_2948_6730" x1="126.897" y1="42.1527" x2="210.194" y2="188.952" gradientUnits="userSpaceOnUse">
<stop offset="0.01"/>
<stop offset="0.08" stop-opacity="0.69"/>
<stop offset="0.21" stop-opacity="0.32"/>
<stop offset="1" stop-opacity="0"/>
</linearGradient>
<linearGradient id="paint5_linear_2948_6730" x1="130.808" y1="132.988" x2="148.505" y2="177.166" gradientUnits="userSpaceOnUse">
<stop offset="0.01"/>
<stop offset="0.08" stop-opacity="0.69"/>
<stop offset="0.21" stop-opacity="0.32"/>
<stop offset="1" stop-opacity="0"/>
</linearGradient>
<linearGradient id="paint6_linear_2948_6730" x1="148.658" y1="104.89" x2="107.363" y2="110.49" gradientUnits="userSpaceOnUse">
<stop offset="0.01"/>
<stop offset="0.13" stop-opacity="0.69"/>
<stop offset="0.25" stop-opacity="0.32"/>
<stop offset="1" stop-opacity="0"/>
</linearGradient>
<linearGradient id="paint7_linear_2948_6730" x1="100.143" y1="122.761" x2="164.204" y2="111.419" gradientUnits="userSpaceOnUse">
<stop offset="0.01"/>
<stop offset="0.13" stop-opacity="0.69"/>
<stop offset="0.25" stop-opacity="0.32"/>
<stop offset="1" stop-opacity="0"/>
</linearGradient>
<linearGradient id="paint8_linear_2948_6730" x1="178.486" y1="46.339" x2="179.31" y2="20.2586" gradientUnits="userSpaceOnUse">
<stop offset="0.01" stop-color="white"/>
<stop offset="1" stop-color="white" stop-opacity="0"/>
</linearGradient>
<linearGradient id="paint9_linear_2948_6730" x1="184.619" y1="38.65" x2="172.146" y2="27.6064" gradientUnits="userSpaceOnUse">
<stop offset="0.01" stop-color="white"/>
<stop offset="1" stop-color="white" stop-opacity="0"/>
</linearGradient>
<clipPath id="clip0_2948_6730">
<rect width="262" height="197" fill="white"/>
</clipPath>
</defs>
</svg>
