<svg width="325" height="245" viewBox="0 0 325 245" fill="none" xmlns="http://www.w3.org/2000/svg">
<g clip-path="url(#clip0_3014_8976)">
<path opacity="0.18" d="M60.3312 238.275C49.1409 236.435 38.6074 231.762 29.7329 224.7C19.2662 216.473 7.89461 205.387 8.24419 191.628C8.61433 177.025 14.0636 162.977 20.0887 149.834C28.0467 132.085 39.1509 113.368 36.2104 93.6029C33.3109 74.1461 37.218 50.1849 47.623 33.443C64.0737 7.07546 92.8624 0.67897 121.651 0.0619448C140.672 -0.328838 160.249 0.802375 177.583 8.63859C195.803 16.8656 210.382 32.065 228.992 39.1402C241.33 43.7884 254.819 44.714 266.89 49.9381C282.086 56.5403 293.808 69.6212 301.416 84.3475C309.024 99.0739 312.849 115.425 315.708 131.653C320.519 159.11 309.086 193.355 292.615 215.836C281.572 230.85 263.189 248.147 244.229 244.445C148.116 226.099 166.603 255.428 60.3312 238.275Z" fill="#7209B7"/>
<path opacity="0.31" d="M289.695 95.3716C289.695 97.9645 288.667 100.452 286.835 102.287C285.004 104.122 282.52 105.156 279.927 105.162H254.778C252.182 105.162 249.693 104.13 247.857 102.294C246.022 100.458 244.99 97.9681 244.99 95.3716C244.99 92.7751 246.022 90.2849 247.857 88.4489C249.693 86.6129 252.182 85.5814 254.778 85.5814H258.398C258.377 85.3145 258.377 85.0463 258.398 84.7793C258.377 83.599 258.59 82.4262 259.023 81.328C259.455 80.2298 260.1 79.2276 260.92 78.3787C261.741 77.5297 262.72 76.8507 263.802 76.3803C264.885 75.9099 266.049 75.6573 267.23 75.6371C268.41 75.6168 269.582 75.8292 270.68 76.2622C271.778 76.6952 272.78 77.3402 273.629 78.1605C274.478 78.9808 275.157 79.9603 275.627 81.043C276.097 82.1257 276.35 83.2905 276.37 84.4708V84.7793C276.37 85.0467 276.37 85.3141 276.37 85.5814H279.969C282.565 85.5814 285.054 86.6129 286.89 88.4489C288.725 90.2849 289.757 92.7751 289.757 95.3716H289.695Z" fill="#7209B7"/>
<path d="M286.651 94.4461C286.651 97.0391 285.623 99.5261 283.791 101.362C281.96 103.197 279.476 104.231 276.883 104.236H251.755C250.47 104.236 249.197 103.983 248.009 103.491C246.822 102.999 245.743 102.278 244.834 101.369C243.925 100.46 243.204 99.3804 242.712 98.1927C242.22 97.0049 241.967 95.7318 241.967 94.4461C241.967 93.1605 242.22 91.8874 242.712 90.6996C243.204 89.5118 243.925 88.4326 244.834 87.5235C245.743 86.6144 246.822 85.8932 248.009 85.4012C249.197 84.9092 250.47 84.656 251.755 84.656H255.354C255.354 84.3886 255.354 84.1212 255.354 83.8744C255.295 82.6566 255.485 81.4396 255.911 80.2971C256.337 79.1547 256.99 78.1106 257.831 77.2281C258.672 76.3456 259.684 75.6431 260.804 75.1631C261.925 74.6831 263.131 74.4355 264.35 74.4355C265.569 74.4355 266.775 74.6831 267.896 75.1631C269.016 75.6431 270.028 76.3456 270.869 77.2281C271.71 78.1106 272.363 79.1547 272.789 80.2971C273.215 81.4396 273.405 82.6566 273.346 83.8744V83.8744C273.346 84.1418 273.346 84.4092 273.346 84.6766H276.945C279.525 84.6929 281.993 85.7293 283.812 87.5597C285.63 89.3901 286.651 91.8657 286.651 94.4461V94.4461Z" fill="white"/>
<path d="M53.9349 117.502C53.9248 117.122 53.9925 116.743 54.1339 116.389C54.2754 116.036 54.4876 115.714 54.7574 115.446C55.991 114.182 56.8827 112.625 57.3484 110.921C57.6168 109.835 57.5391 108.692 57.1261 107.652C56.7132 106.612 55.9857 105.727 55.0453 105.121C53.9297 104.259 52.6488 103.636 51.2822 103.29C50.6145 103.087 50.0409 102.652 49.6642 102.064C49.2875 101.476 49.1321 100.774 49.2259 100.082C49.3287 99.1769 49.4315 98.2719 49.5138 97.3669C49.5821 96.5536 49.9677 95.7999 50.5872 95.2687C51.2068 94.7376 52.0105 94.4717 52.8245 94.5286C54.1298 94.4891 55.415 94.1957 56.6081 93.6648C57.9524 93.1548 59.0465 92.1432 59.6601 90.8427C60.2738 89.5423 60.3591 88.0545 59.8983 86.6924C59.5422 85.5337 59.1094 84.4 58.6028 83.2987C58.3119 82.6686 58.2451 81.958 58.4134 81.2846C58.5817 80.6113 58.975 80.0157 59.5281 79.5966C60.2067 79.0413 60.9265 78.5682 61.5845 77.9923C62.1789 77.535 62.9132 77.2974 63.6628 77.3199C64.4124 77.3424 65.1312 77.6236 65.6972 78.1157C66.6804 79.0858 67.8387 79.8605 69.1107 80.3987C70.2926 80.9425 71.627 81.0572 72.8843 80.7231C74.1416 80.389 75.2432 79.627 75.9994 78.5682C76.8626 77.3633 77.5161 76.0213 77.9324 74.5987C78.1419 73.9132 78.5929 73.327 79.2017 72.9487C79.8105 72.5705 80.5358 72.426 81.2431 72.5419C82.1478 72.6859 83.0321 72.8093 83.9368 72.9122C84.6439 72.9929 85.2966 73.331 85.7706 73.862C86.2446 74.393 86.5068 75.0798 86.5073 75.7916C86.572 77.5081 87.0217 79.1881 87.8233 80.7072C88.4218 81.6961 89.3068 82.4795 90.3609 82.9534C91.415 83.4273 92.5883 83.5692 93.725 83.3604C95.0156 83.1019 96.2623 82.6585 97.4264 82.0441C98.1135 81.6574 98.9225 81.5484 99.6874 81.7397C100.452 81.9309 101.115 82.4079 101.539 83.0725C102.053 83.8541 102.732 84.5328 103.246 85.3144C103.631 85.8604 103.812 86.5249 103.755 87.1908C103.699 87.8568 103.409 88.4814 102.937 88.9548C101.931 89.9999 101.135 91.2289 100.593 92.5747C100.019 93.8933 99.9762 95.3829 100.474 96.7322C100.973 98.0814 101.973 99.1858 103.266 99.8144C104.253 100.371 105.293 100.826 106.371 101.172C106.989 101.369 107.524 101.764 107.896 102.295C108.267 102.827 108.454 103.465 108.428 104.113C108.428 105.203 108.222 106.293 108.058 107.363C107.971 108.071 107.624 108.723 107.085 109.19C106.545 109.658 105.851 109.908 105.138 109.893C103.544 109.924 101.977 110.31 100.552 111.024C99.4836 111.549 98.6183 112.412 98.0904 113.479C97.5624 114.547 97.4013 115.758 97.632 116.927C97.8321 118.295 98.2706 119.618 98.9275 120.834C99.1358 121.167 99.2765 121.536 99.3417 121.923C99.4068 122.31 99.3951 122.705 99.3073 123.087C99.2194 123.469 99.0571 123.83 98.8297 124.15C98.6022 124.469 98.314 124.74 97.9816 124.948L96.1309 126.388C95.5582 126.897 94.8115 127.166 94.0458 127.139C93.28 127.112 92.554 126.792 92.0182 126.244C90.9204 125.215 89.6266 124.417 88.214 123.899C87.0494 123.448 85.7661 123.405 84.5742 123.779C83.3824 124.153 82.3529 124.92 81.6543 125.956C80.7925 127.161 80.1391 128.503 79.7214 129.925C79.5308 130.584 79.1112 131.154 78.5381 131.531C77.9651 131.908 77.2763 132.068 76.5957 131.982L73.5524 131.53C72.9234 131.401 72.3537 131.07 71.9305 130.587C71.5072 130.104 71.2535 129.496 71.2081 128.856C71.1699 127.219 70.7918 125.608 70.0977 124.125C69.5701 122.941 68.6408 121.982 67.4742 121.417C66.3075 120.853 64.9788 120.719 63.7231 121.04C62.4734 121.388 61.2557 121.842 60.0834 122.398C59.4812 122.7 58.7964 122.795 58.1347 122.668C57.473 122.542 56.8715 122.201 56.4231 121.698C55.6856 120.899 54.9988 120.054 54.3667 119.168C54.0928 118.629 53.8724 118.064 53.7087 117.482L53.9349 117.502ZM78.8988 92.5335C77.6154 92.5254 76.343 92.7709 75.1546 93.2559C73.9663 93.7409 72.8854 94.4559 71.974 95.3598C71.0626 96.2637 70.3387 97.3388 69.8438 98.5232C69.3489 99.7077 69.0928 100.978 69.0901 102.262C69.12 104.796 70.123 107.221 71.8915 109.036C73.66 110.851 76.0585 111.916 78.5904 112.011C79.9035 112.088 81.2187 111.899 82.4567 111.455C83.6948 111.011 84.8302 110.32 85.7944 109.425C86.7586 108.531 87.5318 107.45 88.0673 106.248C88.6029 105.046 88.8897 103.749 88.9105 102.433C88.9314 101.118 88.6858 99.8118 88.1886 98.5937C87.6913 97.3757 86.9528 96.271 86.0174 95.346C85.0819 94.421 83.969 93.695 82.7456 93.2117C81.5222 92.7283 80.2137 92.4977 78.8988 92.5335V92.5335Z" fill="#7209B7"/>
<path d="M127.943 89.2425C127.943 89.6127 127.943 89.9829 127.943 90.3531C127.952 90.8372 127.79 91.3088 127.485 91.6851C127.18 92.0613 126.753 92.3179 126.277 92.4099L124.221 92.924C123.701 93.0713 123.146 93.0279 122.656 92.8016C122.166 92.5752 121.773 92.181 121.548 91.69C121.142 90.8561 120.646 90.0697 120.067 89.3453C119.725 88.8722 119.288 88.4754 118.784 88.18C118.28 87.8847 117.721 87.6972 117.141 87.6295C116.561 87.5618 115.973 87.6154 115.415 87.7869C114.857 87.9583 114.34 88.2439 113.898 88.6254C113.236 89.1511 112.611 89.7214 112.027 90.3325C111.684 90.7368 111.21 91.0077 110.687 91.0979C110.165 91.1881 109.627 91.0919 109.169 90.8262L107.503 89.8389C107.222 89.7014 106.972 89.5091 106.766 89.2733C106.561 89.0375 106.405 88.763 106.307 88.4659C106.209 88.1689 106.172 87.8553 106.197 87.5436C106.223 87.2319 106.31 86.9284 106.454 86.651C106.778 85.7222 106.971 84.7532 107.03 83.7715C107.117 82.7027 106.782 81.6423 106.099 80.8163C105.415 79.9903 104.436 79.464 103.37 79.3495C102.342 79.185 101.313 79.3495 100.224 79.1438C99.7022 79.1451 99.1999 78.9483 98.8181 78.5932C98.4364 78.2381 98.2037 77.7512 98.1672 77.231C98.0784 76.6601 97.9478 76.0964 97.7765 75.5445C97.6177 75.0057 97.6593 74.4277 97.8937 73.9172C98.1281 73.4068 98.5394 72.9985 99.0514 72.7679C100.035 72.2569 100.954 71.6284 101.786 70.8962C102.505 70.2417 102.958 69.3461 103.061 68.3794C103.163 67.4127 102.907 66.4421 102.342 65.6515C101.851 64.8989 101.271 64.2084 100.614 63.5948C100.339 63.409 100.105 63.1681 99.9271 62.8874C99.7494 62.6066 99.6317 62.2921 99.5814 61.9637C99.5312 61.6352 99.5496 61.2999 99.6353 60.9788C99.721 60.6578 99.8723 60.358 100.08 60.0983C100.368 59.6253 100.635 59.1316 100.943 58.6586C101.218 58.169 101.664 57.7989 102.196 57.6202C102.728 57.4416 103.308 57.4671 103.822 57.6919C104.973 58.1698 106.22 58.3672 107.462 58.2678C108.31 58.2238 109.119 57.9018 109.766 57.3517C110.413 56.8015 110.86 56.0538 111.04 55.2238C111.294 54.1252 111.404 52.9983 111.369 51.8713C111.337 51.3555 111.471 50.843 111.752 50.4096C112.034 49.9763 112.447 49.645 112.932 49.4649C113.693 49.2387 114.453 49.0741 115.214 48.9096C115.479 48.8213 115.758 48.7877 116.036 48.8108C116.314 48.8339 116.584 48.9133 116.83 49.0441C117.076 49.1749 117.293 49.3544 117.468 49.5717C117.643 49.789 117.772 50.0396 117.846 50.3082C118.365 51.5064 119.162 52.564 120.17 53.3933C120.958 53.9799 121.923 54.2775 122.904 54.2363C123.885 54.1951 124.822 53.8176 125.558 53.1671C126.15 52.6946 126.701 52.1716 127.203 51.6039C127.558 51.1982 128.043 50.9275 128.575 50.8376C129.107 50.7476 129.654 50.844 130.123 51.1103L132.035 52.2415C132.494 52.5131 132.839 52.9424 133.006 53.4493C133.172 53.9563 133.149 54.5066 132.94 54.9976C132.51 56.0692 132.301 57.2163 132.323 58.3706C132.315 59.3781 132.677 60.3534 133.34 61.1116C134.004 61.8699 134.922 62.3582 135.922 62.4841C136.854 62.6181 137.796 62.68 138.739 62.6693C139.313 62.6114 139.887 62.7816 140.337 63.1433C140.787 63.5049 141.077 64.0291 141.145 64.6026C141.309 65.2608 141.494 65.8984 141.638 66.6593C141.771 67.1583 141.712 67.6891 141.472 68.1464C141.232 68.6037 140.829 68.9539 140.343 69.1274C139.253 69.609 138.273 70.309 137.464 71.1842C136.872 71.7783 136.488 72.548 136.369 73.3784C136.251 74.2087 136.404 75.0552 136.806 75.7913C137.386 76.7334 138.077 77.6033 138.862 78.3828C139.34 78.7433 139.658 79.2754 139.75 79.8666C139.842 80.4577 139.701 81.0615 139.356 81.5502L138.43 83.0928C138.169 83.6276 137.707 84.0377 137.145 84.234C136.583 84.4304 135.966 84.3972 135.428 84.1417C134.069 83.571 132.564 83.4485 131.13 83.7921C130.403 84.0065 129.75 84.4177 129.242 84.9803C128.734 85.5429 128.391 86.2349 128.251 86.98C128.1 87.7206 127.99 88.4691 127.922 89.2219L127.943 89.2425ZM119.718 63.6154C118.756 63.6045 117.801 63.7849 116.91 64.1461C116.018 64.5074 115.207 65.0423 114.524 65.7198C113.841 66.3972 113.3 67.2037 112.931 68.0924C112.562 68.981 112.374 69.9341 112.376 70.8962C112.324 71.8918 112.474 72.8877 112.819 73.8232C113.163 74.7587 113.695 75.6142 114.381 76.3375C115.067 77.0609 115.893 77.6369 116.809 78.0306C117.724 78.4243 118.711 78.6273 119.707 78.6273C120.704 78.6273 121.69 78.4243 122.606 78.0306C123.522 77.6369 124.348 77.0609 125.034 76.3375C125.72 75.6142 126.251 74.7587 126.596 73.8232C126.94 72.8877 127.091 71.8918 127.038 70.8962C127.044 69.9316 126.857 68.9755 126.488 68.0842C126.119 67.1929 125.575 66.3844 124.889 65.7061C124.204 65.0278 123.389 64.4934 122.494 64.1344C121.599 63.7754 120.641 63.5989 119.676 63.6154H119.718Z" fill="#7209B7"/>
<path d="M109.148 192.8L132.981 194.651C134.107 194.643 135.218 194.919 136.209 195.453C136.92 196.019 137.436 196.794 137.683 197.668C137.93 198.543 137.897 199.473 137.587 200.328C136.931 202.022 135.804 203.492 134.338 204.565C125.681 211.537 113.528 211.887 102.342 211.825L49.6994 211.537C47.6646 211.669 45.6249 211.368 43.7154 210.653C42.7729 210.267 41.9725 209.6 41.4239 208.742C40.8754 207.884 40.6056 206.878 40.6515 205.86C40.8735 204.973 41.2866 204.145 41.8621 203.435C42.4375 202.724 43.1613 202.148 43.9828 201.747C48.6852 199.171 53.8359 197.517 59.1585 196.872C67.1782 195.433 75.2117 194.061 83.2588 192.759" fill="url(#paint0_linear_3014_8976)"/>
<path d="M250.768 190.311L274.601 192.141C275.73 192.13 276.843 192.414 277.83 192.964C278.536 193.528 279.049 194.3 279.296 195.17C279.543 196.04 279.512 196.966 279.207 197.818C278.549 199.516 277.413 200.988 275.938 202.055C267.301 209.13 255.148 209.397 243.982 209.315L191.319 209.007C189.285 209.131 187.247 208.83 185.336 208.122C184.378 207.746 183.562 207.08 183.002 206.217C182.441 205.354 182.164 204.337 182.21 203.309C182.425 202.419 182.836 201.589 183.412 200.877C183.988 200.166 184.716 199.591 185.541 199.196C190.275 196.633 195.453 194.993 200.799 194.363C208.819 192.923 216.852 191.552 224.899 190.249" fill="url(#paint1_linear_3014_8976)"/>
<path d="M235.509 195.083C235.557 196.318 235.325 197.548 234.831 198.682C234.234 199.731 233.33 200.571 232.24 201.088C229.893 202.304 227.169 202.569 224.631 201.829C224.476 201.822 224.324 201.782 224.184 201.713C224.045 201.643 223.922 201.545 223.823 201.425C223.724 201.305 223.652 201.165 223.61 201.015C223.569 200.865 223.56 200.708 223.583 200.554C223.801 199.147 224.534 197.871 225.639 196.975C226.732 196.093 227.665 195.028 228.395 193.828C229.546 191.483 228.682 185.21 233.124 186.218C236.764 187 235.612 192.409 235.509 195.083Z" fill="#CE9E95"/>
<path d="M236.126 199.196C236.126 199.196 236.743 200.738 235.982 201.643C235.221 202.548 227.243 207.505 221.876 203.515C216.509 199.525 229.155 199.011 229.155 199.011L236.126 199.196Z" fill="#7209B7"/>
<path d="M235.819 195.659C235.574 195.541 235.295 195.513 235.031 195.581C234.768 195.648 234.537 195.807 234.379 196.029C233.856 196.628 233.188 197.084 232.44 197.354C231.692 197.624 230.887 197.699 230.102 197.572C228.354 197.16 227.655 195.145 226.791 195.124C225.928 195.104 221.281 199.073 221.013 200.76C220.746 202.446 223.07 203.701 225.743 203.865C228.416 204.03 234.297 202.22 235.428 200.842C235.906 200.073 236.191 199.201 236.259 198.298C236.327 197.396 236.176 196.49 235.819 195.659V195.659Z" fill="white"/>
<path d="M250.727 197.448C250.774 198.683 250.542 199.914 250.049 201.047C249.452 202.096 248.548 202.936 247.458 203.454C245.114 204.676 242.389 204.949 239.849 204.215C239.501 204.147 239.187 203.957 238.965 203.68C238.838 203.447 238.781 203.183 238.801 202.919C239.019 201.512 239.751 200.237 240.857 199.34C241.95 198.458 242.883 197.394 243.612 196.193C244.764 193.849 243.9 187.575 248.342 188.583C251.982 189.427 250.83 194.836 250.727 197.448Z" fill="#CE9E95"/>
<path d="M251.345 201.706C251.345 201.706 251.962 203.248 251.201 204.153C250.44 205.058 242.461 210.015 237.094 206.025C231.727 202.035 244.353 201.521 244.353 201.521L251.345 201.706Z" fill="#7209B7"/>
<path d="M251.036 198.106C250.792 197.979 250.511 197.947 250.245 198.015C249.979 198.083 249.748 198.248 249.596 198.476C249.068 199.069 248.4 199.518 247.652 199.784C246.905 200.05 246.102 200.124 245.319 199.998C243.571 199.587 242.872 197.571 242.008 197.551C241.145 197.53 236.497 201.5 236.23 203.186C235.963 204.873 238.286 206.128 240.96 206.292C243.633 206.457 249.514 204.647 250.645 203.269C251.123 202.504 251.408 201.635 251.476 200.736C251.544 199.836 251.393 198.934 251.036 198.106V198.106Z" fill="white"/>
<path d="M253.895 131.94C253.895 131.94 254.738 177.518 251.345 192.738L242.79 193.787L236.848 131.323L253.895 131.94Z" fill="#473F47"/>
<path d="M227.429 126.963C227.429 126.963 223.316 151.644 228.292 191.051L236.847 192.1L242.789 129.678L227.429 126.963Z" fill="#473F47"/>
<path d="M217.497 107.342C217.497 108.987 218.134 110.427 219.553 110.9C219.67 110.953 219.795 110.988 219.923 111.003C222.555 111.538 226.092 109.542 228.416 107.794C229.412 107.068 230.367 106.285 231.274 105.45V87.8438L218.484 100.945C217.813 103.01 217.48 105.17 217.497 107.342V107.342Z" fill="#7209B7"/>
<path d="M228.21 107.732C228.21 108.555 228.21 109.398 228.21 110.221C228.21 114.766 229.259 119.456 227.902 123.919C227.466 124.871 227.337 125.934 227.531 126.963C227.928 127.783 228.607 128.433 229.444 128.793C233.586 130.736 238.044 131.921 242.604 132.29C245.997 132.763 250.83 133.771 253.976 131.94C255.17 131.052 255.968 129.73 256.197 128.259C257.389 123.546 258.079 118.72 258.253 113.861C258.253 113.244 258.253 112.607 258.376 111.969C258.644 107.629 258.726 103.249 258.644 98.9088C258.644 95.7414 258.335 92.3272 256.279 89.9413C252.954 86.7925 248.752 84.727 244.229 84.0179C242.917 83.7475 241.573 83.6713 240.24 83.7917C238.36 84.0929 236.545 84.7119 234.873 85.6222C232.89 86.2997 231.204 87.6446 230.102 89.4272C228.994 91.6915 228.211 94.1012 227.778 96.5846C227.418 98.9267 227.377 101.307 227.655 103.66C227.778 104.812 228.066 105.963 228.189 107.095C228.21 107.321 228.21 107.527 228.21 107.732Z" fill="#7209B7"/>
<path opacity="0.1" d="M246.778 133.483C248.094 133.874 251.137 132.681 252.145 132.496C252.741 132.496 253.297 132.084 253.893 131.94C256.916 131.179 257.265 122.726 257.553 120.443C258.593 114.394 259.28 108.288 259.61 102.159C259.747 99.826 259.475 97.4873 258.808 95.248C258.474 94.1259 257.898 93.091 257.119 92.2166C256.341 91.3422 255.38 90.6498 254.304 90.1884C250.459 88.8104 249.307 100.986 248.773 103.496L245.894 117.255C245.483 118.951 245.215 120.678 245.092 122.418C245.16 124.534 245.599 126.623 246.387 128.588C246.737 129.801 245.77 132.084 246.243 132.969C246.281 133.093 246.35 133.205 246.444 133.295C246.537 133.385 246.652 133.45 246.778 133.483Z" fill="#020202"/>
<path d="M237.505 80.1722C237.985 80.701 238.645 81.0312 239.356 81.0977C239.951 81.1489 240.549 81.1489 241.145 81.0977H241.494C241.568 81.0766 241.647 81.0766 241.72 81.0977C241.79 81.1706 241.834 81.2647 241.844 81.3651C241.947 82.5558 241.947 83.7531 241.844 84.9438V84.9438V85.5814C241.781 85.8034 241.781 86.0382 241.844 86.2601C241.967 86.5275 242.276 86.6304 242.564 86.7332C243.086 86.9134 243.635 87.0038 244.188 87.0006C245.363 86.8921 246.492 86.4966 247.478 85.8488C247.388 83.7862 247.498 81.7198 247.807 79.6785C248.382 77.1075 248.645 74.4764 248.589 71.8423C248.521 70.8077 248.141 69.818 247.499 69.004C246.987 68.5084 246.376 68.1273 245.706 67.8862C245.036 67.645 244.322 67.5493 243.612 67.6054C241.733 67.5673 239.883 68.0745 238.286 69.0657C237.69 69.4565 237.628 69.9707 237.484 70.6289C237.299 71.6572 237.135 72.6856 237.011 73.7551C236.888 74.8246 236.806 76.1204 236.785 77.3339C236.669 78.3362 236.925 79.3464 237.505 80.1722Z" fill="#CE9E95"/>
<path d="M238.738 65.61C238.375 65.6724 238.042 65.8537 237.793 66.1254C237.544 66.3971 237.391 66.7439 237.36 67.1114C237.347 67.4823 237.46 67.8467 237.68 68.1454C237.901 68.4441 238.215 68.6596 238.574 68.7568C238.519 69.1776 238.627 69.6034 238.875 69.9474C239.123 70.2914 239.494 70.5276 239.91 70.6079C240.752 70.7308 241.612 70.6242 242.398 70.2994C242.827 70.8311 243.432 71.1919 244.103 71.3164C244.774 71.4409 245.468 71.3209 246.059 70.9781V71.4511C246.45 72.2727 246.694 73.1569 246.778 74.0632L246.552 75.8114C246.604 75.3598 246.832 74.9468 247.186 74.6619C247.54 74.377 247.992 74.2432 248.444 74.2894C248.57 74.2761 248.697 74.2894 248.818 74.3284C248.938 74.3674 249.049 74.4312 249.143 74.5157C249.221 74.6404 249.27 74.7809 249.287 74.927C249.3 75.1992 249.247 75.4704 249.133 75.7175C249.018 75.9647 248.845 76.1804 248.629 76.3462C248.321 76.5519 247.93 76.6958 247.786 77.0455C247.684 77.3807 247.684 77.7386 247.786 78.0739C247.869 78.4679 247.826 78.8782 247.663 79.2462L248.238 79.1022C248.408 79.0116 248.567 78.9011 248.711 78.7732C248.868 78.5995 248.984 78.3932 249.052 78.1691C249.12 77.9451 249.137 77.7088 249.102 77.4774C249.409 77.4785 249.711 77.4058 249.983 77.2656C250.256 77.1254 250.491 76.9217 250.668 76.6717C250.846 76.4217 250.96 76.1327 251.003 75.829C251.045 75.5254 251.014 75.2161 250.912 74.927C251.063 74.9069 251.21 74.8567 251.342 74.7793C251.474 74.7019 251.59 74.5989 251.682 74.4763C251.774 74.3537 251.84 74.214 251.877 74.0654C251.915 73.9168 251.922 73.7622 251.899 73.6107C251.777 72.9983 251.493 72.4299 251.076 71.9653C251.558 71.9599 252.018 71.7647 252.357 71.422C252.696 71.0793 252.886 70.6168 252.886 70.1348C252.844 69.8552 252.844 69.5711 252.886 69.2915C253.006 68.974 253.172 68.6759 253.379 68.4071C253.563 68.0544 253.628 67.6519 253.565 67.2592C253.502 66.8666 253.314 66.5046 253.03 66.227C252.618 65.8568 252.043 65.6717 251.734 65.2192C251.569 64.7974 251.465 64.3541 251.426 63.9029C251.056 62.2369 249.205 61.4553 247.58 60.9206C247.144 60.7429 246.673 60.6656 246.203 60.6943C245.969 60.7126 245.748 60.807 245.574 60.9631C245.399 61.1191 245.28 61.3282 245.236 61.5582C244.794 61.1857 244.249 60.9562 243.673 60.9C243.118 60.9 242.501 61.4142 242.645 61.949C242.419 61.044 240.897 63.3887 240.815 63.4504C239.807 64.0674 238.265 63.4504 238.738 65.61Z" fill="#473F47"/>
<path d="M241.145 81.1383H241.494C241.568 81.1172 241.646 81.1172 241.72 81.1383C241.79 81.2112 241.834 81.3053 241.844 81.4057C241.947 82.5964 241.947 83.7938 241.844 84.9845V84.9845C242.906 84.6575 243.822 83.9728 244.437 83.0468C245.052 82.1207 245.327 81.0103 245.216 79.9043C243.892 80.4482 242.513 80.8482 241.104 81.0972L241.145 81.1383Z" fill="#AF807A"/>
<path d="M206.721 102.797C208.402 105.197 210.49 107.285 212.89 108.967C214.612 110.128 216.6 110.835 218.668 111.024C218.94 111.052 219.214 111.016 219.47 110.921C219.911 110.791 220.3 110.524 220.58 110.16C221.444 109.132 221.962 107.858 222.061 106.519C222.205 103.002 218.401 100.966 218.401 100.966C218.401 100.966 209.744 98.21 208.715 98.6625C208.16 98.8887 207.625 100.123 207.255 101.172C206.885 102.221 206.721 102.797 206.721 102.797Z" fill="#7209B7"/>
<path opacity="0.1" d="M206.721 102.797C208.402 105.197 210.49 107.285 212.89 108.967C214.612 110.128 216.6 110.836 218.668 111.024C218.94 111.052 219.214 111.017 219.47 110.921C219.587 110.974 219.712 111.009 219.84 111.024C222.472 111.559 226.009 109.563 228.333 107.815L227.51 102.55C225.935 104.206 224.102 105.595 222.082 106.663C220.659 107.425 219.033 107.72 217.434 107.507C217.001 107.444 216.578 107.319 216.18 107.136C212.936 105.554 209.92 103.541 207.214 101.151C206.926 102.036 206.721 102.797 206.721 102.797Z" fill="#020202"/>
<path d="M264.031 108.535C265.366 111.559 265.945 114.863 265.717 118.161C265.141 122.11 262.509 125.421 259.98 128.444C257.923 128.753 255.394 128.712 254.674 126.82C254.509 126.21 254.467 125.574 254.551 124.948L254.839 120.834C255.074 119.022 254.976 117.182 254.551 115.405C253.765 113.472 252.735 111.647 251.487 109.975C249.685 107.109 248.605 103.848 248.341 100.473C248.115 97.3052 250.521 87.0626 255.188 90.1889C257.121 91.4641 258.849 96.7294 259.877 98.8478C261.44 102.015 262.824 105.244 264.031 108.535Z" fill="#7209B7"/>
<path d="M253.482 131.323C253.378 131.475 253.321 131.654 253.317 131.837C253.318 131.887 253.33 131.935 253.353 131.978C253.376 132.022 253.409 132.059 253.449 132.087C253.489 132.115 253.535 132.134 253.584 132.14C253.633 132.147 253.682 132.142 253.729 132.125C254.201 133.586 253.214 135.128 253.214 136.671C253.194 136.807 253.194 136.946 253.214 137.082C253.29 137.25 253.411 137.392 253.564 137.493C253.823 137.657 254.119 137.752 254.425 137.77C254.73 137.788 255.036 137.728 255.312 137.596C255.865 137.332 256.361 136.962 256.772 136.506C257.656 135.694 258.327 134.677 258.725 133.545C258.873 133.02 258.969 132.483 259.013 131.94L259.507 127.827C256.566 126.901 254.88 128.896 253.482 131.323Z" fill="#CE9E95"/>
<path d="M207.215 95.2689C207.129 94.9935 206.973 94.7452 206.762 94.549C206.714 94.4993 206.657 94.4597 206.593 94.4327C206.53 94.4056 206.461 94.3917 206.392 94.3917C206.323 94.3917 206.255 94.4056 206.191 94.4327C206.127 94.4597 206.07 94.4993 206.022 94.549C205.94 94.6944 205.891 94.8558 205.878 95.0221C205.798 95.2006 205.668 95.352 205.504 95.4579C205.34 95.5638 205.148 95.6196 204.953 95.6186C204.561 95.5935 204.177 95.4958 203.822 95.3306C202.79 94.9558 201.74 94.6332 200.675 94.3639C200.428 94.2823 200.162 94.2823 199.915 94.3639C199.785 94.4314 199.671 94.5246 199.579 94.6377C199.487 94.7509 199.419 94.8817 199.38 95.0221C199.159 95.6704 199.104 96.3637 199.218 97.0389C199.333 97.7142 199.615 98.35 200.038 98.8888C200.904 99.9613 202.083 100.738 203.41 101.11C204.753 101.47 206.133 101.67 207.523 101.707C207.866 101.755 208.215 101.705 208.531 101.563C210.176 100.616 207.687 96.359 207.215 95.2689Z" fill="#CE9E95"/>
<path d="M108.285 125.997C108.285 125.997 108.285 145.042 106.928 148.498C103.411 158.164 98.7024 162.113 98.7024 162.113C96.8517 169.12 95.0147 176.133 93.1914 183.154C94.9804 185.211 97.9621 187.267 99.9773 185.478C100.504 184.95 100.916 184.32 101.191 183.627L110.876 162.525C112.972 158.422 114.534 154.067 115.523 149.567V149.176V149.073C115.523 148.806 115.667 147.922 115.791 146.647C116.099 142.924 115.482 125.318 113.734 120.69C113.734 120.69 107.216 122.932 105.344 120.382L108.285 125.997Z" fill="#7209B7"/>
<path d="M108.285 125.997C108.285 125.997 108.285 145.042 106.928 148.497C103.411 158.164 98.7024 162.113 98.7024 162.113C96.8517 169.12 95.0147 176.133 93.1914 183.154C94.9804 185.21 97.9621 187.267 99.9773 185.478C100.504 184.95 100.916 184.32 101.191 183.627L110.876 162.524C112.972 158.421 114.534 154.067 115.523 149.567V149.176V149.073C115.523 148.806 115.667 147.921 115.791 146.646C116.099 142.924 115.544 128.67 113.899 124.022C112.856 124.206 111.784 124.132 110.777 123.806C109.769 123.479 108.857 122.911 108.12 122.15L108.285 125.997Z" fill="url(#paint2_linear_3014_8976)"/>
<path d="M92.0605 123.261C90.3333 125.801 89.6758 128.919 90.2303 131.94C90.8883 136.486 94.1374 140.167 94.7954 144.651C94.921 145.805 94.6601 146.969 94.0535 147.959C93.4469 148.949 92.529 149.71 91.4436 150.122L78.7765 156.662C76.5821 157.566 74.6764 159.052 73.2655 160.961C72.6139 161.929 72.3614 163.111 72.5606 164.261C72.7599 165.411 73.3955 166.439 74.3348 167.131L98.723 162.174C103.43 159.315 106.915 154.818 108.511 149.546C109.436 145.988 108.182 122.15 108.182 122.15C104.234 118.366 102.877 119.785 100.43 116.905C97.4892 119.127 94.2607 120.278 92.0605 123.261Z" fill="#7209B7"/>
<path d="M72.401 171.039C72.401 172.417 72.6684 174.062 71.6196 174.988C71.5773 175.041 71.5244 175.085 71.4642 175.117C71.404 175.149 71.3379 175.168 71.2701 175.173C71.0694 175.169 70.878 175.088 70.7354 174.947C68.3295 172.89 67.692 169.455 67.4864 166.288C67.3403 165.491 67.4786 164.669 67.8771 163.964C68.4321 163.387 69.1492 162.992 69.9334 162.832C71.1824 162.45 72.3938 161.954 73.5526 161.352C73.203 161.537 73.3264 163.593 73.3264 163.943C73.4821 164.715 73.5579 165.501 73.5526 166.288C73.3242 166.988 73.0564 167.675 72.7506 168.345C72.4924 169.218 72.3744 170.128 72.401 171.039V171.039Z" fill="#EC9C7D"/>
<path d="M99.0723 190.599C99.7175 191.583 100.061 192.734 100.059 193.91C100.043 194.125 99.9565 194.327 99.8126 194.486C99.3808 194.898 98.6816 194.61 98.2087 194.281C96.3928 192.832 94.8354 191.087 93.6025 189.118C93.4043 188.89 93.2696 188.613 93.2118 188.316C93.1997 187.914 93.3149 187.518 93.5408 187.185L94.9391 184.614C94.9767 184.533 95.0331 184.463 95.1036 184.408C95.197 184.377 95.2981 184.377 95.3915 184.408C96.1313 184.556 96.8545 184.776 97.5507 185.066C98.4966 185.457 98.5171 185.498 98.4143 186.465C98.2736 187.877 98.5003 189.301 99.0723 190.599Z" fill="#EC9C7D"/>
<path d="M92.0593 190.599C92.0193 190.734 92.0193 190.877 92.0593 191.011C92.0593 191.196 92.2855 191.319 92.4294 191.422C93.2444 192.076 93.9887 192.814 94.6503 193.623C96.1331 195.106 97.7205 196.481 99.4004 197.736C99.7175 198.064 100.098 198.325 100.519 198.501C100.939 198.678 101.391 198.768 101.847 198.765C101.949 198.785 102.054 198.785 102.156 198.765C102.267 198.647 102.333 198.494 102.341 198.333C102.499 196.925 102.264 195.502 101.662 194.219C101.474 193.714 101.195 193.247 100.84 192.841C100.654 192.641 100.428 192.483 100.176 192.376C99.9243 192.27 99.653 192.218 99.3799 192.224C98.7835 192.224 98.2489 192.718 97.632 192.718C97.0195 192.617 96.4723 192.276 96.1103 191.772C95.6331 191.231 95.1998 190.654 94.8148 190.044C94.5269 189.592 94.2596 188.769 93.7866 188.481C92.6968 187.699 92.2649 189.9 92.0593 190.599Z" fill="#7209B7"/>
<path d="M66.1717 164.519C66.0865 164.567 66.0126 164.633 65.955 164.711C65.8974 164.79 65.8574 164.881 65.8379 164.976C65.8184 165.072 65.8197 165.171 65.8419 165.266C65.864 165.361 65.9064 165.45 65.9661 165.527C66.3132 166.66 66.5474 167.824 66.6653 169.003C67.1052 171.371 67.7239 173.701 68.516 175.976C68.612 176.489 68.8086 176.979 69.0944 177.417C69.3803 177.855 69.7497 178.231 70.1816 178.526C70.3033 178.555 70.43 178.555 70.5517 178.526C70.7282 178.478 70.8859 178.377 71.0041 178.238C72.0755 177 72.7868 175.492 73.0605 173.878C73.184 173.267 73.184 172.637 73.0605 172.027C73.0121 171.721 72.899 171.428 72.7288 171.169C72.5586 170.91 72.3352 170.691 72.0734 170.525C71.4771 170.196 70.6957 170.278 70.1199 169.867C69.857 169.635 69.6459 169.351 69.5006 169.032C69.3553 168.713 69.2791 168.366 69.2768 168.016C69.1749 167.204 69.1337 166.386 69.1534 165.568C69.1534 164.931 69.4208 163.985 69.1534 163.512C68.5982 162.175 66.7886 163.985 66.1717 164.519Z" fill="#7209B7"/>
<path d="M115.522 77.1896C115.175 80.0474 114.355 82.8277 113.096 85.4166C113.017 85.683 112.85 85.9149 112.623 86.0747C112.405 86.1781 112.163 86.2208 111.924 86.1981L102.341 86.0747C101.58 86.0747 100.634 85.9513 100.285 85.2315C99.9762 85.869 99.092 85.9102 98.3928 85.8279C95.3297 85.4746 92.359 84.5539 89.6328 83.113C90.6735 79.3867 92.0074 75.7486 93.6221 72.2328C94.174 70.9902 94.9318 69.8498 95.8635 68.8597C97.1237 67.6649 98.6339 66.7657 100.285 66.2271C104.397 64.7462 110.258 63.9235 113.404 67.7285C114.377 69.0808 115.067 70.6163 115.431 72.2423C115.795 73.8683 115.826 75.5512 115.522 77.1896Z" fill="#F89659"/>
<path d="M115.235 90.8057C119.08 94.7752 123.028 98.683 126.792 102.735C127.971 101.895 129.208 101.139 130.493 100.472C132.22 99.7731 143.468 94.0759 147.807 93.1915C150.131 92.7172 152.538 92.8446 154.799 93.5617C155.172 93.6472 155.497 93.8762 155.704 94.1993C156.012 94.8163 155.333 95.4951 154.675 95.639C153.981 95.6907 153.292 95.8077 152.619 95.9887C152.07 96.314 151.6 96.7564 151.241 97.2844C150.499 98.1181 149.591 98.7869 148.574 99.2475C147.557 99.708 146.456 99.9501 145.34 99.9582C144.414 99.9582 143.468 99.5057 142.564 99.5674C141.314 99.9181 140.166 100.559 139.212 101.439C136.189 103.496 133.495 106.108 130.431 108.165C129.837 108.642 129.128 108.954 128.375 109.07C127.663 109.066 126.961 108.904 126.319 108.597C121.783 107.098 117.589 104.714 113.981 101.583C113.684 101.315 113.44 100.994 113.261 100.637C113.145 100.264 113.089 99.8754 113.096 99.4851C113.096 97.8809 113.096 96.256 113.096 94.6518C113.097 93.9393 113.259 93.2362 113.569 92.595C113.741 92.2684 114.015 92.007 114.349 91.851C114.683 91.695 115.06 91.6529 115.42 91.7312" fill="#FDB9A9"/>
<path d="M122.555 103.373C122.924 103.674 123.332 103.923 123.768 104.113C124.736 104.427 125.761 104.525 126.771 104.401C128.304 104.366 129.837 104.456 131.356 104.668C131.742 104.696 132.116 104.816 132.446 105.018C132.606 105.121 132.728 105.273 132.794 105.45C132.861 105.628 132.869 105.823 132.816 106.005C132.713 106.201 132.565 106.37 132.385 106.499C131.246 107.606 129.822 108.375 128.272 108.72C126.342 108.767 124.453 108.166 122.905 107.013L119.532 104.956C119.024 104.713 118.581 104.354 118.237 103.907C117.764 103.167 117.661 101.131 118.813 100.925C119.964 100.719 121.794 102.858 122.555 103.373Z" fill="#DE9F93"/>
<path d="M113.261 88.1313C112.048 87.2058 110.629 87.8434 109.149 87.9051C107.668 87.9668 105.838 88.0285 104.193 87.9051C101.047 87.8023 95.9676 87.4732 93.0682 90.908C89.6136 95.0215 92.3279 101.809 94.1169 106.128C94.7484 107.255 95.1929 108.478 95.433 109.748C95.6179 111.154 95.6179 112.578 95.433 113.985C95.03 116.73 93.9486 119.332 92.2868 121.554C91.9033 121.919 91.5994 122.36 91.3941 122.848C91.1889 123.337 91.0868 123.862 91.0941 124.392C91.2335 124.849 91.4715 125.27 91.7913 125.626C92.111 125.981 92.5048 126.262 92.9448 126.449C96.2325 128.369 99.9371 129.463 103.741 129.637C105.515 129.608 107.281 129.381 109.005 128.958C110.568 128.711 112.274 129.246 113.426 127.785C113.784 127.272 114.036 126.691 114.166 126.078C115.482 121.122 115.462 115.795 117.436 111.105C118.485 108.555 120.253 105.47 120.088 102.631C119.972 101.536 119.68 100.467 119.225 99.464C118.238 96.9754 117.168 94.5278 115.976 92.142C115.384 90.6181 114.456 89.2473 113.261 88.1313Z" fill="white"/>
<path d="M109.374 89.1604C109.374 89.1604 108.346 91.7519 101.498 87.9264C101.498 87.9264 103.349 87.7618 102.835 83.9568C102.689 82.647 102.23 81.3915 101.498 80.2958C101.58 80.3799 101.684 80.4404 101.797 80.471C101.911 80.5015 102.031 80.501 102.144 80.4695C102.258 80.438 102.361 80.3766 102.442 80.2918C102.524 80.207 102.581 80.1019 102.608 79.9873C102.734 80.3639 102.892 80.7287 103.081 81.0774C104.151 83.1341 106.495 85.5817 109.106 84.8824C108.846 85.3786 108.69 85.9229 108.648 86.4817C108.605 87.0405 108.677 87.6021 108.86 88.132C108.99 88.4937 109.163 88.8388 109.374 89.1604V89.1604Z" fill="#FDB9A9"/>
<path d="M108.861 88.1314H108.511C105.941 88.3987 102.918 80.8916 102.918 80.8916H103.082C104.152 82.9484 106.496 85.3959 109.108 84.6966C108.821 85.2173 108.65 85.7939 108.608 86.3869C108.565 86.9799 108.651 87.575 108.861 88.1314V88.1314Z" fill="#DE9F93"/>
<path d="M106.906 85.1704C110.649 85.4995 112.952 81.9824 113.363 77.3959C113.363 76.8886 113.363 76.3744 113.363 75.8533C113.372 74.3571 113.199 72.8654 112.849 71.4108C111.204 64.3561 101.19 67.1739 101.19 67.1739C93.3754 70.7115 100.285 84.6357 106.906 85.1704Z" fill="#FDB9A9"/>
<path d="M109.581 67.0299C109.462 67.5819 109.303 68.1248 109.108 68.6547C108.793 69.7652 108.415 70.857 107.977 71.925C107.218 74.0662 105.772 75.896 103.864 77.1286C103.42 77.4435 102.887 77.6091 102.343 77.6016C101.829 77.4988 101.87 77.108 101.479 76.7378C101.347 76.6121 101.18 76.5291 101.001 76.4998C100.821 76.4704 100.636 76.496 100.471 76.5732C100.336 76.6807 100.228 76.8187 100.157 76.9761C100.085 77.1334 100.052 77.3055 100.06 77.4782C100.068 77.8918 100.179 78.2969 100.384 78.6563C100.588 79.0157 100.88 79.3178 101.232 79.535C101.565 79.6805 101.882 79.8597 102.178 80.0697C102.528 80.3782 102.569 80.8307 102.754 81.2215L103.371 82.6818C103.599 83.1415 103.712 83.6496 103.7 84.1626C103.646 84.4585 103.528 84.7389 103.354 84.9841C103.18 85.2293 102.954 85.4333 102.692 85.5818C101.329 86.2792 99.7672 86.4827 98.2712 86.1577C97.2071 86.0983 96.1749 85.773 95.269 85.2116C94.767 84.8051 94.293 84.3654 93.8501 83.8953C93.1275 83.3645 92.3396 82.929 91.5059 82.5995C92.3667 82.0056 93.1123 81.2598 93.7061 80.3988C94.1991 79.586 94.5096 78.6758 94.6161 77.7312C94.7226 76.7865 94.6226 75.83 94.323 74.9278C93.994 73.7761 94.323 67.6469 98.6413 65.6108C101.417 64.3946 104.511 64.1061 107.463 64.7881C108.01 64.8725 108.523 65.1075 108.944 65.4668C109.181 65.6454 109.366 65.8851 109.478 66.1604C109.59 66.4356 109.626 66.7361 109.581 67.0299V67.0299Z" fill="#F89659"/>
<path d="M102.918 109.892L100.06 116.207C96.3029 111.397 93.4149 105.968 91.526 100.164C89.4697 92.8213 93.1094 90.9703 93.1094 90.9703C95.906 89.9419 97.7978 93.9114 100.533 101.953C102.034 106.375 102.918 109.892 102.918 109.892Z" fill="#FDB9A9"/>
<path d="M100.06 116.207C100.06 116.207 99.9362 111.065 102.445 110.036C104.954 109.008 122.474 106.252 122.474 106.252L124.119 108.165C124.119 108.165 106.907 118.099 100.06 116.207Z" fill="#FDB9A9"/>
<path d="M128.478 129.76L128.252 129.534C129.116 130.501 129.691 131.18 129.856 131.385C129.424 130.83 128.951 130.275 128.478 129.76Z" fill="#DC9BD5"/>
<path d="M124.366 105.985C125.868 105.722 127.387 105.57 128.911 105.532C129.732 105.497 130.554 105.567 131.358 105.738C132.364 106.005 133.336 106.385 134.257 106.869C134.504 106.992 134.812 107.157 134.854 107.445C134.858 107.578 134.823 107.709 134.754 107.822C134.684 107.936 134.583 108.026 134.463 108.083C134.218 108.186 133.963 108.262 133.702 108.309C133.147 108.494 132.653 108.864 132.119 109.09C131.255 109.44 130.268 109.399 129.384 109.707C128.828 109.913 128.314 110.263 127.759 110.489C126.595 110.941 125.304 110.941 124.14 110.489C123.74 110.332 123.349 110.153 122.968 109.954C122.602 109.739 122.217 109.559 121.816 109.419C121.549 109.419 121.364 109.419 121.158 109.173C120.978 108.86 120.883 108.505 120.883 108.144C120.883 107.783 120.978 107.429 121.158 107.116C121.672 106.653 122.338 106.396 123.03 106.396L124.366 105.985Z" fill="#FDB9A9"/>
<path d="M90.4148 93.4796C89.9732 94.8161 89.67 96.1945 89.51 97.5931L89.2427 99.4853C89.1248 99.8742 89.1248 100.289 89.2427 100.678C89.5717 101.336 90.826 101.069 91.4429 101.172L94.8153 101.707L101.54 102.694C101.684 101.547 101.684 100.386 101.54 99.2385C101.334 98.169 100.861 97.1817 100.594 96.0916C100.326 95.0016 100.285 94.3023 100.08 93.5001C99.6036 91.6867 98.5226 90.0903 97.0156 88.9753C94.6508 87.2476 91.1962 91.4228 90.4765 93.315L90.4148 93.4796Z" fill="white"/>
<path d="M206.309 61.8877H134.461V126.47H206.309V61.8877Z" fill="white"/>
<path d="M153.049 104.596L144.248 104.636L144.307 117.717L153.108 117.677L153.049 104.596Z" fill="#7209B7"/>
<path d="M163.844 90.9727L155.043 91.0127L155.164 117.647L163.965 117.607L163.844 90.9727Z" fill="#7209B7"/>
<path d="M174.748 101.351L165.947 101.391L166.021 117.618L174.822 117.578L174.748 101.351Z" fill="#7209B7"/>
<path d="M185.5 82.4415L176.699 82.4814L176.858 117.569L185.659 117.529L185.5 82.4415Z" fill="#7209B7"/>
<path d="M163.844 90.9727L155.043 91.0127L155.164 117.647L163.965 117.607L163.844 90.9727Z" fill="url(#paint3_linear_3014_8976)"/>
<path d="M185.5 82.4415L176.699 82.4814L176.858 117.569L185.659 117.529L185.5 82.4415Z" fill="url(#paint4_linear_3014_8976)"/>
<path d="M196.313 72.6026L187.512 72.6426L187.715 117.52L196.516 117.48L196.313 72.6026Z" fill="#7209B7"/>
<path d="M176.986 181.446L159.281 180.87L161.482 193.499L174.025 193.889L176.986 181.446Z" fill="#7209B7"/>
<path d="M176.986 181.446L159.281 180.87L161.482 193.499L174.025 193.889L176.986 181.446Z" fill="url(#paint5_linear_3014_8976)"/>
<path d="M157.864 150.39C157.413 151.274 157.194 152.257 157.226 153.249C156.823 157.717 157.213 162.222 158.378 166.556C160.434 172.829 164.917 177.888 169.379 182.742C169.029 182.208 170.037 179.369 170.16 178.629C170.428 177.292 170.716 175.976 170.983 174.659C171.269 172.539 171.079 170.382 170.428 168.345C169.317 163.704 167.126 159.391 164.033 155.758C162.249 153.677 160.17 151.869 157.864 150.39V150.39Z" fill="#7209B7"/>
<path d="M157.864 150.39C157.413 151.274 157.194 152.257 157.226 153.249C156.823 157.717 157.213 162.222 158.378 166.556C160.434 172.829 164.917 177.888 169.379 182.742C169.029 182.208 170.037 179.369 170.16 178.629C170.428 177.292 170.716 175.976 170.983 174.659C171.269 172.539 171.079 170.382 170.428 168.345C169.317 163.704 167.126 159.391 164.033 155.758C162.249 153.677 160.17 151.869 157.864 150.39V150.39Z" fill="url(#paint6_linear_3014_8976)"/>
<path d="M177.644 165.527C179.285 162.272 180.488 158.814 181.222 155.243C181.589 153.449 181.596 151.6 181.243 149.803C180.89 148.006 180.184 146.297 179.166 144.774L170.591 157.773C168.822 160.193 167.435 162.871 166.478 165.712C165.8 168.609 165.737 171.616 166.293 174.539C166.849 177.462 168.012 180.235 169.707 182.68C171.619 181.035 172.524 177.271 173.573 174.947L177.644 165.527Z" fill="#7209B7"/>
<path d="M177.644 165.527C179.285 162.272 180.488 158.814 181.222 155.243C181.589 153.449 181.596 151.6 181.243 149.803C180.89 148.006 180.184 146.297 179.166 144.774L170.591 157.773C168.822 160.193 167.435 162.871 166.478 165.712C165.8 168.609 165.737 171.616 166.293 174.539C166.849 177.462 168.012 180.235 169.707 182.68C171.619 181.035 172.524 177.271 173.573 174.947L177.644 165.527Z" fill="url(#paint7_linear_3014_8976)"/>
<path d="M177.799 177.122L158.829 176.509C157.239 176.458 155.91 177.7 155.859 179.284C155.807 180.867 157.054 182.193 158.643 182.244L177.613 182.857C179.203 182.909 180.532 181.666 180.583 180.082C180.635 178.499 179.388 177.173 177.799 177.122Z" fill="#7209B7"/>
<path d="M159.509 88.6257C160.315 88.6257 160.969 87.9719 160.969 87.1654C160.969 86.3589 160.315 85.7051 159.509 85.7051C158.702 85.7051 158.049 86.3589 158.049 87.1654C158.049 87.9719 158.702 88.6257 159.509 88.6257Z" fill="#7209B7"/>
<path d="M147.231 102.549C148.038 102.549 148.691 101.896 148.691 101.089C148.691 100.283 148.038 99.6289 147.231 99.6289C146.425 99.6289 145.771 100.283 145.771 101.089C145.771 101.896 146.425 102.549 147.231 102.549Z" fill="#7209B7"/>
<path d="M170.077 99.7936C170.884 99.7936 171.537 99.1398 171.537 98.3333C171.537 97.5268 170.884 96.873 170.077 96.873C169.271 96.873 168.617 97.5268 168.617 98.3333C168.617 99.1398 169.271 99.7936 170.077 99.7936Z" fill="#7209B7"/>
<path d="M180.565 80.8718C181.372 80.8718 182.025 80.218 182.025 79.4115C182.025 78.605 181.372 77.9512 180.565 77.9512C179.759 77.9512 179.105 78.605 179.105 79.4115C179.105 80.218 179.759 80.8718 180.565 80.8718Z" fill="#7209B7"/>
<path d="M192.019 71.7184C192.825 71.7184 193.479 71.0646 193.479 70.2581C193.479 69.4516 192.825 68.7979 192.019 68.7979C191.212 68.7979 190.559 69.4516 190.559 70.2581C190.559 71.0646 191.212 71.7184 192.019 71.7184Z" fill="#7209B7"/>
<path d="M147.561 101.378L146.883 100.781L159.509 86.4866L169.975 98.0456L180.278 79.0618L191.732 69.8887L192.287 70.6085L180.915 79.6994L170.161 99.6293L159.509 87.8441L147.561 101.378Z" fill="#7209B7"/>
<path opacity="0.31" d="M189.86 41.4025C189.86 43.3954 189.07 45.307 187.663 46.7181C186.256 48.1293 184.347 48.9248 182.355 48.9302H163.046C161.05 48.9302 159.135 48.1371 157.724 46.7254C156.312 45.3137 155.52 43.399 155.52 41.4025C155.52 39.406 156.312 37.4913 157.724 36.0796C159.135 34.6679 161.05 33.8748 163.046 33.8748H165.822C165.811 33.6761 165.811 33.477 165.822 33.2784C165.789 31.4455 166.486 29.6748 167.758 28.3556C169.031 27.0365 170.775 26.277 172.608 26.2443C174.44 26.2115 176.211 26.9082 177.529 28.1811C178.848 29.454 179.608 31.1987 179.64 33.0315V33.2784C179.651 33.477 179.651 33.6761 179.64 33.8748H182.416C183.404 33.8748 184.381 34.0697 185.293 34.4482C186.205 34.8268 187.034 35.3816 187.731 36.0809C188.428 36.7801 188.981 37.6102 189.357 38.5233C189.733 39.4365 189.925 40.4149 189.922 41.4025H189.86Z" fill="#7209B7"/>
<path d="M187.537 40.6823C187.537 42.6788 186.744 44.5935 185.332 46.0052C183.921 47.4169 182.007 48.21 180.011 48.21H160.722C159.702 48.2634 158.682 48.1085 157.724 47.7548C156.765 47.4012 155.889 46.8561 155.148 46.1528C154.407 45.4495 153.817 44.6027 153.414 43.664C153.011 42.7252 152.803 41.7143 152.803 40.6926C152.803 39.6709 153.011 38.6599 153.414 37.7212C153.817 36.7825 154.407 35.9357 155.148 35.2324C155.889 34.5291 156.765 33.984 157.724 33.6303C158.682 33.2766 159.702 33.1218 160.722 33.1752H163.478C163.478 32.9695 163.478 32.7638 163.478 32.5581C163.478 30.7253 164.206 28.9676 165.501 27.6716C166.797 26.3755 168.554 25.6475 170.387 25.6475C172.219 25.6475 173.977 26.3755 175.273 27.6716C176.568 28.9676 177.296 30.7253 177.296 32.5581V32.5581C177.307 32.7568 177.307 32.9559 177.296 33.1546H180.052C182.039 33.1708 183.94 33.9704 185.341 35.3798C186.742 36.7892 187.531 38.6946 187.537 40.6823V40.6823Z" fill="white"/>
<path d="M248.589 73.7344C248.678 73.6876 248.777 73.6631 248.877 73.6631C248.977 73.6631 249.076 73.6876 249.165 73.7344C249.246 73.8129 249.303 73.9127 249.33 74.0223C249.537 74.5044 249.553 75.0478 249.373 75.5411C249.194 76.0343 248.832 76.4402 248.363 76.6755C248.215 76.7834 248.048 76.8604 247.87 76.9018C247.782 76.9255 247.69 76.9245 247.603 76.8991C247.516 76.8738 247.437 76.8249 247.376 76.7578C247.261 76.628 247.202 76.458 247.212 76.2848C247.098 75.7651 247.174 75.2218 247.427 74.7538C247.68 74.2858 248.092 73.924 248.589 73.7344V73.7344Z" fill="#CE9E95"/>
<path d="M231.335 37.5766C231.339 39.2415 230.891 40.8763 230.04 42.3071V42.4305L225.927 49.9582H217.29L213.795 41.834C213.16 40.5863 212.816 39.2112 212.789 37.8117C212.761 36.4122 213.051 35.0246 213.636 33.753C214.221 32.4813 215.086 31.3585 216.166 30.4687C217.246 29.5789 218.514 28.9453 219.874 28.6151C221.234 28.285 222.651 28.2671 224.019 28.5626C225.387 28.8581 226.67 29.4595 227.773 30.3216C228.876 31.1837 229.769 32.2842 230.386 33.5406C231.003 34.797 231.327 36.1768 231.335 37.5766V37.5766Z" fill="#7209B7"/>
<path d="M231.335 37.5768C231.339 39.2418 230.891 40.8765 230.04 42.3073V42.4307L225.927 49.9584H217.291L213.795 41.8343C212.771 39.8394 212.503 37.5417 213.04 35.3647C213.576 33.1876 214.882 31.2779 216.715 29.9874C218.278 28.8821 220.147 28.2925 222.061 28.3009C223.279 28.3009 224.485 28.5408 225.61 29.007C226.735 29.4731 227.758 30.1564 228.619 31.0177C229.48 31.8791 230.163 32.9017 230.629 34.0271C231.095 35.1525 231.335 36.3587 231.335 37.5768V37.5768Z" fill="url(#paint8_linear_3014_8976)"/>
<path d="M226.729 37.3921C226.524 41.5056 222.904 49.9588 222.904 49.9588H217.291L213.795 41.8347C212.771 39.8398 212.503 37.5421 213.04 35.3651C213.576 33.188 214.882 31.2783 216.715 29.9878C217.873 29.6253 219.1 29.5413 220.297 29.7426C221.494 29.9439 222.626 30.4248 223.602 31.1464C224.578 31.8679 225.37 32.8096 225.913 33.8948C226.456 34.9801 226.736 36.1784 226.729 37.3921V37.3921Z" fill="url(#paint9_linear_3014_8976)"/>
<path d="M217.29 49.9375H225.783V52.7141C225.783 53.8051 225.35 54.8514 224.579 55.6228C223.807 56.3942 222.761 56.8276 221.67 56.8276H221.259C220.168 56.8276 219.122 56.3942 218.351 55.6228C217.58 54.8514 217.146 53.8051 217.146 52.7141V49.9375H217.29Z" fill="#7209B7"/>
<path d="M219.76 50.2669C219.681 50.2729 219.603 50.2485 219.542 50.1987C219.481 50.149 219.441 50.0777 219.431 49.9996C218.053 42.7804 217.847 41.6697 217.806 41.5052C217.794 41.4209 217.815 41.3352 217.865 41.2661C217.915 41.1971 217.99 41.1501 218.073 41.135H218.958C219.451 41.135 219.616 41.135 219.698 40.7648C219.72 40.5825 219.808 40.4144 219.945 40.2917C220.067 40.205 220.217 40.1674 220.366 40.1864C220.514 40.2055 220.65 40.2798 220.747 40.3945C220.878 40.5456 220.964 40.7311 220.993 40.9293L221.24 41.896C221.24 41.896 221.24 41.896 221.24 41.752C221.277 41.5374 221.362 41.3338 221.487 41.1555C221.575 41.0601 221.684 40.9864 221.805 40.94C221.926 40.8936 222.057 40.8759 222.186 40.8882C222.414 40.9053 222.627 41.0082 222.782 41.1761C222.782 40.8059 222.988 40.4357 223.111 40.086C223.235 39.7364 223.523 39.6541 223.584 39.6952C223.693 39.6983 223.798 39.7389 223.88 39.8101C223.962 39.8813 224.018 39.9788 224.037 40.086C224.117 40.3747 224.165 40.6713 224.181 40.9704C224.164 41.0588 224.164 41.1495 224.181 41.2378H224.427H224.695H225.271C225.318 41.2393 225.365 41.2511 225.407 41.2724C225.45 41.2937 225.488 41.324 225.517 41.3612C225.536 41.4033 225.546 41.4488 225.546 41.4949C225.546 41.541 225.536 41.5865 225.517 41.6286L223.852 50.1435C223.85 50.1912 223.839 50.2381 223.817 50.2808C223.796 50.3236 223.766 50.3612 223.729 50.3911C223.691 50.4209 223.648 50.4423 223.602 50.4538C223.555 50.4652 223.507 50.4664 223.46 50.4574C223.413 50.4483 223.369 50.4291 223.33 50.4012C223.292 50.3733 223.259 50.3373 223.236 50.2957C223.213 50.2541 223.199 50.2079 223.195 50.1603C223.191 50.1127 223.198 50.0649 223.214 50.0201L224.798 41.896H224.469C224.222 41.896 223.79 42.0194 223.564 41.6697C223.471 41.4994 223.421 41.3086 223.42 41.1144V41.1144C223.381 41.2816 223.333 41.4464 223.276 41.608C223.152 42.0811 222.844 42.1839 222.618 42.1428C222.53 42.1204 222.448 42.0795 222.377 42.0227C222.306 41.9659 222.248 41.8947 222.207 41.8137C222.207 41.8137 222.207 41.6903 222.042 41.6903C222.02 41.6777 221.995 41.671 221.97 41.671C221.945 41.671 221.92 41.6777 221.898 41.6903C221.837 41.7842 221.796 41.8889 221.775 41.9988C221.738 42.1847 221.676 42.3647 221.59 42.5336C221.51 42.6554 221.391 42.7463 221.253 42.7912C221.114 42.8361 220.965 42.8323 220.829 42.7804C220.659 42.6655 220.54 42.4881 220.5 42.2867L220.232 41.1761C220.241 41.1354 220.241 41.0934 220.232 41.0527C220.143 41.3314 219.957 41.5693 219.709 41.7237C219.46 41.8782 219.165 41.9393 218.875 41.896H218.443C218.752 43.5825 219.986 50.0201 219.986 50.0201C219.995 50.0607 219.995 50.1027 219.988 50.1435C219.98 50.1844 219.964 50.2232 219.941 50.2578C219.918 50.2924 219.888 50.3219 219.854 50.3447C219.819 50.3675 219.78 50.383 219.739 50.3903L219.76 50.2669Z" fill="#7209B7"/>
</g>
<defs>
<linearGradient id="paint0_linear_3014_8976" x1="94.4658" y1="131.344" x2="82.884" y2="287.801" gradientUnits="userSpaceOnUse">
<stop offset="0.01"/>
<stop offset="0.08" stop-opacity="0.69"/>
<stop offset="0.21" stop-opacity="0.32"/>
<stop offset="1" stop-opacity="0"/>
</linearGradient>
<linearGradient id="paint1_linear_3014_8976" x1="236.086" y1="128.834" x2="224.484" y2="285.312" gradientUnits="userSpaceOnUse">
<stop offset="0.01"/>
<stop offset="0.08" stop-opacity="0.69"/>
<stop offset="0.21" stop-opacity="0.32"/>
<stop offset="1" stop-opacity="0"/>
</linearGradient>
<linearGradient id="paint2_linear_3014_8976" x1="68.2207" y1="119.456" x2="177.547" y2="225.063" gradientUnits="userSpaceOnUse">
<stop offset="0.01"/>
<stop offset="0.08" stop-opacity="0.69"/>
<stop offset="0.21" stop-opacity="0.32"/>
<stop offset="1" stop-opacity="0"/>
</linearGradient>
<linearGradient id="paint3_linear_3014_8976" x1="138.843" y1="62.9887" x2="242.572" y2="245.326" gradientUnits="userSpaceOnUse">
<stop offset="0.01"/>
<stop offset="0.08" stop-opacity="0.69"/>
<stop offset="0.21" stop-opacity="0.32"/>
<stop offset="1" stop-opacity="0"/>
</linearGradient>
<linearGradient id="paint4_linear_3014_8976" x1="157.411" y1="52.4229" x2="261.141" y2="234.761" gradientUnits="userSpaceOnUse">
<stop offset="0.01"/>
<stop offset="0.08" stop-opacity="0.69"/>
<stop offset="0.21" stop-opacity="0.32"/>
<stop offset="1" stop-opacity="0"/>
</linearGradient>
<linearGradient id="paint5_linear_3014_8976" x1="162.261" y1="165.39" x2="184.312" y2="220.292" gradientUnits="userSpaceOnUse">
<stop offset="0.01"/>
<stop offset="0.08" stop-opacity="0.69"/>
<stop offset="0.21" stop-opacity="0.32"/>
<stop offset="1" stop-opacity="0"/>
</linearGradient>
<linearGradient id="paint6_linear_3014_8976" x1="184.404" y1="130.446" x2="133.175" y2="137.376" gradientUnits="userSpaceOnUse">
<stop offset="0.01"/>
<stop offset="0.13" stop-opacity="0.69"/>
<stop offset="0.25" stop-opacity="0.32"/>
<stop offset="1" stop-opacity="0"/>
</linearGradient>
<linearGradient id="paint7_linear_3014_8976" x1="124.223" y1="152.673" x2="203.7" y2="138.637" gradientUnits="userSpaceOnUse">
<stop offset="0.01"/>
<stop offset="0.13" stop-opacity="0.69"/>
<stop offset="0.25" stop-opacity="0.32"/>
<stop offset="1" stop-opacity="0"/>
</linearGradient>
<linearGradient id="paint8_linear_3014_8976" x1="221.403" y1="57.6301" x2="222.432" y2="25.1952" gradientUnits="userSpaceOnUse">
<stop offset="0.01" stop-color="white"/>
<stop offset="1" stop-color="white" stop-opacity="0"/>
</linearGradient>
<linearGradient id="paint9_linear_3014_8976" x1="229.012" y1="48.0666" x2="213.504" y2="34.3718" gradientUnits="userSpaceOnUse">
<stop offset="0.01" stop-color="white"/>
<stop offset="1" stop-color="white" stop-opacity="0"/>
</linearGradient>
<clipPath id="clip0_3014_8976">
<rect width="325" height="245" fill="white"/>
</clipPath>
</defs>
</svg>
