<svg width="320" height="200" viewBox="0 0 320 200" fill="none" xmlns="http://www.w3.org/2000/svg">
<g clip-path="url(#clip0_2944_6609)">
<path opacity="0.18" d="M47.7081 81.4567C54.8965 73.8454 65.5955 70.2921 72.7256 62.6264C82.3994 52.2268 83.6343 36.4954 91.3237 24.5696C96.7606 16.1583 105.192 10.011 114.353 5.98005C130.382 -0.995799 148.404 -1.8945 165.048 3.45199C172.729 5.95675 180.073 9.78573 188.089 10.7721C202.003 12.4808 217.526 5.67327 229.421 13.1021C237.576 18.1893 240.644 28.2937 243.743 37.3963C247.887 49.5628 254.166 55.6985 260.267 73.5114C263.098 81.7829 272.539 87.4643 272.209 96.1979C272.12 98.6056 271.366 101.099 269.592 102.722C268.166 104.027 266.256 104.633 264.411 105.196C200.582 124.594 134.053 133.617 67.3625 131.921C54.1975 131.583 46.2829 129.416 42.5392 116.756C38.912 104.497 38.2441 91.4719 47.7081 81.4567Z" fill="#7209B7"/>
<path d="M202.59 54.1339C202.878 53.1825 203.592 52.4097 203.903 51.466C204.159 50.6894 204.128 49.8506 204.334 49.0622C204.708 47.8048 205.556 46.7422 206.699 46.0992C207.839 45.47 209.107 45.1088 210.408 45.043C213.187 44.8212 215.959 45.5481 218.272 47.105C220.578 48.6823 222.188 51.0866 222.769 53.8193C222.881 54.6821 223.059 55.535 223.301 56.3707C223.6 57.1862 224.202 57.959 225.045 58.1687L224.963 59.1395C225.729 59.2939 226.433 59.6711 226.986 60.2238C227.538 60.7764 227.916 61.48 228.07 62.2462C228.311 63.5393 227.884 64.9218 228.295 66.1723C228.684 67.3373 229.701 68.2149 229.849 69.411C229.884 70.1485 229.738 70.8834 229.421 71.5507C228.818 73.1196 228.163 74.6651 227.456 76.1874C226.373 75.0224 225.243 73.8574 223.783 73.2283C222.905 72.8399 221.95 72.7079 221.064 72.4011C216.249 70.7546 213.985 65.0461 209.472 62.6928C208.458 62.1608 207.165 61.986 206.21 61.3841C205.491 60.9297 205.472 60.3084 205.045 59.6405C203.884 57.8541 201.849 56.6153 202.59 54.1339Z" fill="#3F3D56"/>
<path d="M205.329 65.2365C205.608 66.5374 206.536 67.5975 207.511 68.5062C208.016 68.9761 208.571 69.4615 208.738 70.1333C208.767 70.3549 208.833 70.5702 208.933 70.7702C209.208 71.1586 209.826 71.1042 210.265 70.8945C210.787 70.6232 211.242 70.2382 211.595 69.7677C211.949 69.2972 212.192 68.7533 212.307 68.1761C212.53 67.019 212.394 65.8215 211.919 64.7433C211.509 63.7473 210.892 62.8495 210.109 62.1092C209.327 61.3689 208.396 60.8028 207.379 60.4483C204.995 59.7376 205.018 63.7802 205.329 65.2365Z" fill="#3F3D56"/>
<path opacity="0.18" d="M319.969 122.749C320.501 117.77 314.101 115.215 309.095 115.048C298.641 114.702 288.361 117.378 278.047 119.102C251.006 123.665 223.289 121.914 196.023 124.733C174.874 126.919 154.124 131.836 133.289 136.072C108.823 141.043 84.1941 145.078 59.5028 148.767C47.4252 150.573 35.2116 152.946 23.0446 153.982C17.4329 154.464 1.97663 153.656 0.0426477 161.699C-0.419488 163.613 1.96109 164.867 3.86012 165.38C19.5417 169.628 35.2426 173.877 51.2388 176.785C61.6193 178.677 72.1514 180.009 82.198 183.228C90.9863 186.047 99.2854 190.268 108.047 193.146C122.885 198.02 138.691 198.924 154.287 199.786C158.171 200.004 162.054 200.214 165.88 199.573C170.804 198.746 175.371 196.54 179.86 194.358L313.161 129.572" fill="#1D2741"/>
<path d="M93.9805 70.8486L99.9339 57.5016C99.9339 57.5016 106.384 54.3949 110.846 57.0783C115.309 59.7617 111.53 68.7943 110.846 71.6486C110.163 74.5029 105.763 75.6174 104.089 74.3126C102.415 73.0078 100.225 76.8717 100.225 76.8717L93.9805 70.8486Z" fill="url(#paint0_linear_2944_6609)"/>
<path d="M309.568 124.881L131.316 188.284C123.777 190.967 115.548 191 107.988 188.378L19.0286 157.497C18.3599 157.267 17.7359 156.922 17.1839 156.48C16.0254 155.543 15.2797 154.189 15.1063 152.709C15.075 152.458 15.0595 152.205 15.0596 151.952C15.0337 150.594 15.4864 149.27 16.3384 148.212C17.1904 147.154 18.3874 146.43 19.7198 146.166L28.081 144.407L118.201 125.421L216.392 104.73L257.401 111.546L287.335 116.532L309.568 124.881Z" fill="url(#paint1_linear_2944_6609)"/>
<path d="M318.058 112.321C318.058 115.075 317.206 117.762 315.617 120.013C314.029 122.264 311.784 123.968 309.188 124.891L130.936 188.295C123.397 190.977 115.168 191.01 107.608 188.388L18.6409 157.496C17.9721 157.265 17.3481 156.921 16.7962 156.478L14.7263 152.708L14.6797 152.622V135.683L117.837 125.416L257.021 111.544L311.258 106.146C312.466 106.025 313.684 106.262 314.758 106.828C315.832 107.394 316.715 108.265 317.297 109.331" fill="#7209B7"/>
<path d="M318.058 112.321C318.058 115.075 317.206 117.762 315.617 120.013C314.029 122.264 311.784 123.968 309.188 124.891L130.936 188.295C123.397 190.977 115.168 191.01 107.608 188.388L18.6409 157.496C17.9721 157.265 17.3481 156.921 16.7962 156.478L14.7263 152.708L14.6797 152.622V135.683L117.837 125.416L257.021 111.544L311.258 106.146C312.466 106.025 313.684 106.262 314.758 106.828C315.832 107.394 316.715 108.265 317.297 109.331" fill="url(#paint2_linear_2944_6609)"/>
<path d="M317.67 109.342C317.011 111.217 315.941 112.921 314.538 114.329C313.135 115.737 311.435 116.813 309.562 117.478L131.309 180.885C123.769 183.567 115.541 183.598 107.981 180.975L19.0295 150.094C18.361 149.865 17.737 149.522 17.1849 149.081L15.115 145.306L15.0684 145.221V135.683L118.226 125.416L257.402 111.544L311.639 106.146C312.847 106.025 314.065 106.262 315.139 106.828C316.213 107.394 317.096 108.265 317.678 109.331" fill="url(#paint3_linear_2944_6609)"/>
<path d="M314.634 106.605L131.333 172.04C123.793 174.723 115.564 174.754 108.005 172.129L19.0298 141.249C13.3909 139.307 13.9035 131.152 19.7482 129.917L207.752 88.3263C210.107 87.8038 212.542 87.7616 214.913 88.2021L309.822 104.982C310.552 105.11 315.337 106.353 314.634 106.605" fill="#7209B7"/>
<path d="M206.784 72.1641C206.784 72.1641 198.788 81.6433 195.852 84.75C191.864 88.9712 180.645 84.75 180.645 84.75L185.2 94.0312L189.701 94.6564L205.382 83.3947L206.784 72.1641Z" fill="url(#paint4_linear_2944_6609)"/>
<path d="M178.462 82.1797L178.059 81.0846H179.95V80.2963H181.53V79.5273L184.202 80.3545L188.179 81.3176L189.235 80.8555L201.666 83.8301L201.476 84.5563L188.831 89.958L183.422 89.0687L178.462 82.1797Z" fill="#7209B7"/>
<path d="M130.448 74.3418C130.448 74.3418 132.35 63.5578 132.848 60.02C133.752 53.5349 136.265 51.3019 138.89 50.9485C149.69 49.5039 152.545 49.1933 164.133 50.832C169.838 51.6398 171.042 73.6312 171.271 79.829C171.308 80.8648 171.012 81.8853 170.428 82.7415L166.385 85.6268L165.189 95.774L135.982 97.3079L135.706 85.9452L124.168 85.6812L124.514 76.8815L130.448 74.3418Z" fill="#7209B7"/>
<path d="M135.709 85.9469L137.402 61.6023C137.402 61.6023 148.952 61.2605 148.901 63.0507C148.851 64.841 140.482 81.3296 140.482 81.3296L135.709 85.9469Z" fill="url(#paint5_linear_2944_6609)"/>
<path d="M155.65 49.6827C156.325 49.5787 157.016 49.7002 157.615 50.0283C157.615 50.0283 156.178 56.3038 150.834 58.7231C145.491 61.1424 144.547 52.6263 144.547 52.6263L155.65 49.6827Z" fill="url(#paint6_linear_2944_6609)"/>
<path d="M121.468 76.0484C121.312 76.0351 121.156 76.0604 121.013 76.1221C120.687 76.3047 120.722 76.8173 120.967 77.1007C121.244 77.3521 121.565 77.5508 121.914 77.6871C121.986 77.7165 122.052 77.7602 122.107 77.8156C122.161 77.871 122.204 77.937 122.233 78.0095C122.252 78.1178 122.236 78.2296 122.186 78.3279C121.852 79.1356 120.877 79.4191 120.039 79.6599C118.767 80.0271 117.535 80.5201 116.361 81.1317C116.216 81.186 116.097 81.2927 116.027 81.4307C115.91 81.7802 116.415 81.9976 116.772 82.0209C117.663 82.087 118.558 82.087 119.448 82.0209C119.215 82.184 118.947 82.4093 119.009 82.7005C119.072 82.9918 119.343 83.0694 119.592 83.0889C119.843 83.0786 120.094 83.1061 120.338 83.1704C120.726 83.3296 120.905 83.8112 121.262 84.0519C121.618 84.2442 122.032 84.3007 122.427 84.2111C123.181 84.1219 123.925 83.9594 124.648 83.7257C125.073 83.6114 125.47 83.4104 125.813 83.1355C126.196 82.7333 126.464 82.2358 126.59 81.6947C126.955 80.5297 127.425 78.1997 126.407 77.2017C125.39 76.2037 122.788 76.0833 121.468 76.0484Z" fill="url(#paint7_linear_2944_6609)"/>
<path d="M100.221 76.8711L108.889 90.9016C108.889 90.9016 111.673 95.915 114.951 95.2354C118.228 94.5558 121.296 90.4511 121.296 90.4511L125.65 94.9248C125.65 94.9248 118.795 106.497 111.308 105.484C107.141 104.92 98.209 96.2529 98.209 96.2529L100.221 76.8711Z" fill="#7209B7"/>
<path d="M100.221 76.8711L108.889 90.9016C108.889 90.9016 111.673 95.915 114.951 95.2354C118.228 94.5558 121.296 90.4511 121.296 90.4511L125.65 94.9248C125.65 94.9248 118.795 106.497 111.308 105.484C107.141 104.92 98.209 96.2529 98.209 96.2529L100.221 76.8711Z" fill="url(#paint8_linear_2944_6609)"/>
<path d="M26.2988 128.442L197.359 93.709L293.693 111.976L140.388 165.5L26.2988 128.442Z" fill="url(#paint9_linear_2944_6609)"/>
<path opacity="0.18" d="M118.906 138.899C120.677 144.817 127.216 148.879 133.306 147.831C137.383 147.136 140.836 144.542 144.405 142.445C153.21 137.301 163.357 134.922 173.531 135.614C179.601 136.045 186.059 137.505 191.527 134.837C195.317 132.985 197.97 129.401 201.477 127.071C204.444 125.09 207.919 124.045 211.131 122.504C216.133 120.104 221.814 113.801 229.853 107.937C234.599 104.477 242.844 101.277 245.03 98.8425C240.529 97.6192 236.459 102.796 229.853 103.502C216.04 104.943 197.807 104.054 188.133 105.3C176.595 106.784 165.045 108.271 153.647 110.586C129.302 115.525 105.543 121.983 81.0261 126.15C76.1562 126.981 63.5814 127.703 60.5484 132.546C56.028 139.788 70.3542 143.179 74.9833 143.746C78.6921 144.188 119.935 142.336 118.906 138.899Z" fill="#1D2741"/>
<path d="M171.049 120.008C171.049 120.008 165.841 120.194 164.882 121.499C163.923 122.804 165.857 123.879 165.857 123.879L176.261 119.639L171.049 120.008Z" fill="#25233A"/>
<path d="M167.72 96.2522C167.72 96.2522 170.462 96.1046 171.763 98.2443C173.064 100.384 173.064 105.479 173.064 105.479C173.064 105.479 170.874 108.217 168.439 107.273C166.004 106.329 167.021 100.982 167.021 100.982L167.72 96.2522Z" fill="#25233A"/>
<path d="M141.118 115.016L149.902 110.174L149.623 101.18C149.623 101.18 139.362 105.028 139.192 105.545C139.021 106.061 141.118 115.016 141.118 115.016Z" fill="url(#paint10_linear_2944_6609)"/>
<path d="M135.534 90.2324C135.534 90.2324 128.128 107.412 130.412 112.321C131.724 115.14 135.029 115.998 137.6 116.204C138.518 116.284 139.436 116.049 140.204 115.538C140.971 115.027 141.541 114.271 141.821 113.393C143.651 107.641 148.121 96.539 150.552 115.684C150.94 118.829 161.732 117.315 163.491 115.777C165.251 114.239 169.278 104.721 169.278 104.721C169.278 104.721 168.427 101.75 166.738 100.982C166.738 100.982 168.994 92.5352 165.449 91.2033C165.437 91.2071 140.047 98.1234 135.534 90.2324Z" fill="#7209B7"/>
<path d="M135.534 90.2324C135.534 90.2324 128.128 107.412 130.412 112.321C131.724 115.14 135.029 115.998 137.6 116.204C138.518 116.284 139.436 116.049 140.204 115.538C140.971 115.027 141.541 114.271 141.821 113.393C143.651 107.641 148.121 96.539 150.552 115.684C150.94 118.829 161.732 117.315 163.491 115.777C165.251 114.239 169.278 104.721 169.278 104.721C169.278 104.721 168.427 101.75 166.738 100.982C166.738 100.982 168.994 92.5352 165.449 91.2033C165.437 91.2071 140.047 98.1234 135.534 90.2324Z" fill="url(#paint11_linear_2944_6609)"/>
<path d="M97.2669 105.479C97.2669 105.479 129.446 114.333 135.399 117.171C141.352 120.01 142.673 120.278 142.673 120.278L140.389 126.907L78.4785 120.538L97.2669 105.479Z" fill="#7209B7"/>
<path d="M97.2669 105.479C97.2669 105.479 129.446 114.333 135.399 117.171C141.352 120.01 142.673 120.278 142.673 120.278L140.389 126.907L78.4785 120.538L97.2669 105.479Z" fill="url(#paint12_linear_2944_6609)"/>
<path d="M141.286 124.282L129.216 121.241L122.665 112.814L96.1289 121.241L97.3095 123.012L140.389 126.888L141.286 124.282Z" fill="url(#paint13_linear_2944_6609)"/>
<path d="M56.9281 142.336L79.9534 149.749C80.1205 149.808 80.3028 149.808 80.4699 149.749L80.6524 149.679C80.8023 149.621 80.9305 149.519 81.0194 149.385C81.1083 149.251 81.1535 149.093 81.1488 148.932C81.1442 148.772 81.0898 148.616 80.9932 148.488C80.8967 148.36 80.7627 148.264 80.6097 148.215L57.4019 140.876C57.2387 140.817 57.0603 140.817 56.8971 140.876V140.876C56.7482 140.933 56.6207 141.035 56.5319 141.168C56.443 141.3 56.3972 141.457 56.4006 141.617C56.404 141.776 56.4564 141.931 56.5508 142.06C56.6452 142.188 56.777 142.285 56.9281 142.336Z" fill="#25233A"/>
<path d="M234.901 97.8172L263.903 103.417C264.652 103.564 265.428 103.491 266.136 103.207L268.466 102.287C268.651 102.216 268.807 102.087 268.911 101.918C269.016 101.75 269.062 101.552 269.043 101.356C269.024 101.159 268.941 100.973 268.807 100.828C268.672 100.683 268.494 100.585 268.299 100.551L240.389 95.3358C239.548 95.177 238.681 95.2344 237.868 95.5027L234.827 96.4969C234.683 96.5432 234.559 96.636 234.474 96.7606C234.388 96.8852 234.346 97.0346 234.355 97.1855C234.363 97.3364 234.421 97.4803 234.52 97.5946C234.619 97.7089 234.753 97.7872 234.901 97.8172V97.8172Z" fill="#7209B7"/>
<path d="M234.901 97.8172L263.903 103.417C264.652 103.564 265.428 103.491 266.136 103.207L268.466 102.287C268.651 102.216 268.807 102.087 268.911 101.918C269.016 101.75 269.062 101.552 269.043 101.356C269.024 101.159 268.941 100.973 268.807 100.828C268.672 100.683 268.494 100.585 268.299 100.551L240.389 95.3358C239.548 95.177 238.681 95.2344 237.868 95.5027L234.827 96.4969C234.683 96.5432 234.559 96.636 234.474 96.7606C234.388 96.8852 234.346 97.0346 234.355 97.1855C234.363 97.3364 234.421 97.4803 234.52 97.5946C234.619 97.7089 234.753 97.7872 234.901 97.8172V97.8172Z" fill="url(#paint14_linear_2944_6609)"/>
<path d="M234.902 96.5594L263.904 102.163C264.653 102.306 265.427 102.233 266.137 101.953L268.467 101.033C268.652 100.962 268.808 100.833 268.912 100.664C269.016 100.496 269.062 100.298 269.043 100.102C269.025 99.9046 268.942 99.7193 268.807 99.574C268.673 99.4287 268.495 99.3315 268.3 99.2971L240.389 94.0701C239.549 93.9121 238.682 93.9682 237.869 94.2332L234.82 95.2351C234.675 95.2809 234.549 95.3741 234.462 95.4999C234.376 95.6257 234.334 95.7768 234.343 95.9292C234.352 96.0815 234.413 96.2263 234.514 96.3405C234.615 96.4548 234.752 96.5318 234.902 96.5594V96.5594Z" fill="#7209B7"/>
<path d="M130.26 70.7924C130.26 70.7924 130.978 69.6662 132.932 69.775C134.885 69.8837 138.473 70.8235 138.473 70.8235L126.046 97.2768H120C119.753 97.2769 119.51 97.2146 119.294 97.0956C119.077 96.9767 118.895 96.805 118.763 96.5966C118.63 96.3881 118.553 96.1496 118.538 95.9033C118.523 95.6569 118.57 95.4107 118.675 95.1876L130.26 70.7924Z" fill="#7209B7"/>
<path d="M130.26 70.7924C130.26 70.7924 130.978 69.6662 132.932 69.775C134.885 69.8837 138.473 70.8235 138.473 70.8235L126.046 97.2768H120C119.753 97.2769 119.51 97.2146 119.294 97.0956C119.077 96.9767 118.895 96.805 118.763 96.5966C118.63 96.3881 118.553 96.1496 118.538 95.9033C118.523 95.6569 118.57 95.4107 118.675 95.1876L130.26 70.7924Z" fill="url(#paint15_linear_2944_6609)"/>
<path d="M131.561 70.7924C131.561 70.7924 132.283 69.6662 134.237 69.775C135.545 69.8981 136.843 70.1162 138.12 70.4274C138.319 70.4724 138.505 70.5614 138.664 70.6879C138.824 70.8143 138.953 70.975 139.042 71.158C139.131 71.3411 139.178 71.5418 139.179 71.7453C139.18 71.9489 139.135 72.1501 139.048 72.3341L127.844 96.2283C127.697 96.5419 127.464 96.8071 127.172 96.9928C126.879 97.1785 126.54 97.2771 126.194 97.2768H121.297C121.05 97.2773 120.807 97.2151 120.591 97.0962C120.374 96.9773 120.192 96.8054 120.06 96.5967C119.928 96.388 119.851 96.1493 119.837 95.9029C119.822 95.6565 119.87 95.4104 119.976 95.1876L131.561 70.7924Z" fill="#7209B7"/>
<path d="M131.561 70.7924C131.561 70.7924 132.283 69.6662 134.237 69.775C135.545 69.8981 136.843 70.1162 138.12 70.4274C138.319 70.4724 138.505 70.5614 138.664 70.6879C138.824 70.8143 138.953 70.975 139.042 71.158C139.131 71.3411 139.178 71.5418 139.179 71.7453C139.18 71.9489 139.135 72.1501 139.048 72.3341L127.844 96.2283C127.697 96.5419 127.464 96.8071 127.172 96.9928C126.879 97.1785 126.54 97.2771 126.194 97.2768H121.297C121.05 97.2773 120.807 97.2151 120.591 97.0962C120.374 96.9773 120.192 96.8054 120.06 96.5967C119.928 96.388 119.851 96.1493 119.837 95.9029C119.822 95.6565 119.87 95.4104 119.976 95.1876L131.561 70.7924Z" fill="url(#paint16_linear_2944_6609)"/>
<path d="M69.7947 120.35C69.7947 120.35 64.2957 103.989 79.5035 83.8073C85.2355 76.1959 89.818 72.3553 93.3015 70.5223C97.119 68.5146 101.635 71.6291 101.189 75.9202C100.164 85.7722 98.2336 104.377 98.2336 104.529C98.2336 104.68 75.2238 123.503 69.7947 120.35Z" fill="#7209B7"/>
<path d="M87.7972 81.3281C87.7972 81.3281 75.7816 101.486 78.535 114.725C78.535 114.725 99.3544 106.504 98.2166 104.516C97.0787 102.527 97.2807 81.3164 97.2807 81.3164L87.7972 81.3281Z" fill="url(#paint17_linear_2944_6609)"/>
<path d="M132.846 129.712C130.89 130.718 128.796 131.431 126.633 131.829C125.961 131.953 125.285 132.046 124.609 132.108C119.293 128.034 114.31 123.543 109.708 118.676C100.07 125.464 88.7958 131.409 77.087 130.089C75.6347 129.989 74.2199 129.582 72.9356 128.897C72.0902 128.357 71.3419 127.678 70.722 126.889C69.7239 125.658 68.9356 124.171 68.8501 122.889C68.6676 120.171 70.9433 119.27 73.1725 118.043C83.8742 112.155 95.0845 107.244 106.668 103.368C109.215 102.513 112.027 101.713 114.539 102.673C117.052 103.632 118.598 106.071 119.976 108.366L132.846 129.712Z" fill="#7209B7"/>
<path d="M132.846 129.712C130.89 130.718 128.796 131.431 126.633 131.829C125.961 131.953 125.285 132.046 124.609 132.108C119.293 128.034 114.31 123.543 109.708 118.676C100.07 125.464 88.7958 131.409 77.087 130.089C75.6347 129.989 74.2199 129.582 72.9356 128.897C72.0902 128.357 71.3419 127.678 70.722 126.889C69.7239 125.658 68.9356 124.171 68.8501 122.889C68.6676 120.171 70.9433 119.27 73.1725 118.043C83.8742 112.155 95.0845 107.244 106.668 103.368C109.215 102.513 112.027 101.713 114.539 102.673C117.052 103.632 118.598 106.071 119.976 108.366L132.846 129.712Z" fill="url(#paint18_linear_2944_6609)"/>
<path d="M87.7988 81.3287C87.7988 81.3287 93.9814 100.008 97.0881 102.54C100.195 105.071 117.671 89.0216 117.671 89.0216V82.8083L102.735 89.3051C102.735 89.3051 101.939 73.7717 100.447 72.8087C98.9561 71.8456 89.659 70.7699 87.7988 81.3287Z" fill="#7209B7"/>
<path d="M87.7988 81.3287C87.7988 81.3287 93.9814 100.008 97.0881 102.54C100.195 105.071 117.671 89.0216 117.671 89.0216V82.8083L102.735 89.3051C102.735 89.3051 101.939 73.7717 100.447 72.8087C98.9561 71.8456 89.659 70.7699 87.7988 81.3287Z" fill="url(#paint19_linear_2944_6609)"/>
<path d="M119.5 81.5658C120.06 81.3604 120.645 81.2298 121.24 81.1775C122.517 81.0144 123.022 80.6765 124.308 80.7231C125.725 80.7231 124.661 81.7444 124.253 81.8881C123.83 81.9939 123.429 82.174 123.069 82.4201C122.467 82.9327 122.533 83.8492 122.44 84.6337C122.302 85.7785 121.726 86.8252 120.832 87.5538C119.938 88.2824 118.797 88.636 117.647 88.5403C117.493 88.5435 117.34 88.5128 117.2 88.4504C117.059 88.388 116.933 88.2954 116.832 88.1791C116.728 87.9906 116.678 87.7768 116.688 87.5617C116.638 86.4821 116.238 84.8783 116.813 83.9113C117.205 83.2318 118.646 81.5658 119.5 81.5658Z" fill="url(#paint20_linear_2944_6609)"/>
<path d="M96.2724 54.751C95.4563 55.3829 94.9029 56.2945 94.719 57.3101C94.5408 58.3141 94.446 59.3311 94.4355 60.3507C94.3445 61.8374 94.1184 63.3127 93.7598 64.7583C93.867 64.6653 94.0064 64.6179 94.1481 64.6263C94.207 65.0312 94.2252 65.441 94.2025 65.8496L94.8433 65.7447C94.8433 66.7466 94.8044 67.7485 94.7268 68.7504C96.3229 67.9271 97.5306 66.5291 98.6996 65.1661C98.7703 65.0913 98.8292 65.0062 98.8743 64.9137C98.9183 64.7623 98.9276 64.6031 98.9015 64.4477C98.7853 63.7322 98.9067 62.9984 99.2471 62.3584C99.6355 61.7526 100.482 61.3954 101.103 61.7487C101.9 62.2031 101.834 63.3409 102.063 64.2263C102.454 63.4424 102.738 62.6089 102.905 61.7487C102.941 61.4265 103.041 61.1147 103.201 60.8323C103.382 60.6078 103.611 60.4272 103.872 60.3041C105.419 59.4805 107.207 59.2288 108.921 59.5935C109.872 59.8032 110.832 60.2032 111.791 60.0207C112.003 59.9534 112.227 59.9335 112.447 59.9624C112.835 60.0556 113.123 60.5371 113.511 60.4439C113.614 60.4019 113.707 60.3382 113.784 60.2572C113.86 60.1761 113.918 60.0795 113.954 59.974C114.359 59.0897 114.524 58.1142 114.431 57.1459C114.338 56.1777 113.991 55.2511 113.426 54.4597C114.076 54.6304 114.743 54.7281 115.414 54.751C112.719 51.0113 107.861 48.8988 103.317 49.6754C102.304 49.8055 101.34 50.1873 100.513 50.7861C100.066 51.1548 99.6978 51.61 99.4308 52.1245C99.1639 52.639 99.0037 53.2022 98.9598 53.7801C98.8743 54.6228 98.7229 54.3743 98.0005 54.3005C97.3895 54.2434 96.7778 54.4029 96.2724 54.751V54.751Z" fill="#3F3D56"/>
<path d="M99.8594 63.3293C99.8594 63.605 99.9293 63.8769 99.9448 64.1526C99.972 64.638 99.8439 65.1778 100.12 65.5817C100.296 65.7948 100.523 65.9604 100.78 66.0632C100.854 66.1123 100.943 66.1342 101.032 66.1253C101.088 66.1061 101.138 66.0728 101.178 66.0286C101.217 65.9844 101.245 65.9308 101.257 65.8729C101.367 65.4924 101.367 65.0884 101.257 64.7079C101.153 64.34 101.075 63.9649 101.024 63.5856C101.001 63.3099 101.071 62.9099 100.877 62.673C100.419 62.1216 99.8555 62.8439 99.8594 63.3293Z" fill="url(#paint21_linear_2944_6609)"/>
<path d="M132.427 81.5961C132.159 81.2971 131.752 80.9786 131.406 81.1767C131.06 81.3747 131.15 81.9533 131.313 82.3417C131.476 82.73 131.674 83.2154 131.856 83.6504C131.661 83.2937 131.413 82.9678 131.122 82.6834C131.035 82.5818 130.916 82.5122 130.785 82.4854C130.682 82.4881 130.584 82.5258 130.506 82.5923C130.429 82.6587 130.376 82.7498 130.357 82.8504C130.329 83.0541 130.348 83.2618 130.416 83.4562L130.858 85.1649C130.612 84.7981 130.28 84.4969 129.891 84.2872C129.837 84.2452 129.772 84.2183 129.704 84.2095C129.636 84.2006 129.566 84.21 129.503 84.2368C129.352 84.33 129.363 84.5513 129.402 84.7261C129.586 85.5498 129.863 86.3498 130.229 87.1104C130.016 86.8891 129.705 86.6483 129.453 86.7959C129.2 86.9434 129.251 87.4289 129.398 87.7473L130.253 89.6113C130.318 89.8185 130.456 89.9952 130.641 90.1084C131.029 90.2598 131.379 89.8521 131.581 89.4987C132.233 88.3494 132.8 87.1541 133.278 85.9221C133.55 85.2309 133.911 84.3261 133.724 83.5921C133.538 82.8582 132.909 82.1436 132.427 81.5961Z" fill="url(#paint22_linear_2944_6609)"/>
<path d="M140.777 125.766H143.892L145.504 121.242L142.672 120.26L140.777 125.766Z" fill="url(#paint23_linear_2944_6609)"/>
<path d="M150.221 113.004C150.535 112.495 150.95 112.055 151.44 111.711C151.687 111.544 151.975 111.448 152.273 111.437C152.571 111.425 152.867 111.497 153.126 111.645C153.331 111.818 153.5 112.03 153.623 112.268C153.746 112.507 153.82 112.768 153.84 113.035C154.077 114.523 153.766 116.037 153.432 117.505C152.723 120.646 151.915 123.761 151.009 126.852C150.999 126.974 150.962 127.092 150.9 127.198C150.838 127.303 150.753 127.393 150.652 127.461C150.55 127.53 150.435 127.574 150.314 127.592C150.193 127.609 150.069 127.6 149.953 127.563C148.137 127.45 146.343 127.101 144.617 126.526C144.359 126.472 144.129 126.327 143.968 126.118C143.906 125.958 143.879 125.785 143.892 125.614C143.904 125.442 143.954 125.275 144.038 125.124C145.72 120.814 147.506 116.802 150.221 113.004Z" fill="#25233A"/>
<path d="M127.107 131.734L129.515 133.862L134.28 132.107L132.843 129.711L127.107 131.734Z" fill="url(#paint24_linear_2944_6609)"/>
<path d="M129.514 133.867L132.143 139.117L146.019 135.168C146.019 135.168 146.745 132.768 143.518 132.519C140.29 132.271 134.279 132.127 134.279 132.127L129.514 133.867Z" fill="#25233A"/>
<path d="M128.501 130.989L126.641 131.828C125.969 131.952 125.294 132.045 124.618 132.107C119.301 128.033 114.319 123.541 109.717 118.675C100.078 125.463 88.8043 131.408 77.0955 130.088C75.6431 129.987 74.2284 129.581 72.9441 128.896C72.0987 128.355 71.3503 127.677 70.7305 126.888V126.888C73.1538 128.313 77.1732 126.888 77.1732 126.888C77.1732 126.888 108.734 110.578 110.571 110.259C112.408 109.941 128.501 130.989 128.501 130.989Z" fill="url(#paint25_linear_2944_6609)"/>
<path d="M145.071 50.1645C145.071 50.1645 144.792 55.6478 148.419 56.9526C152.046 58.2574 156.601 50.1645 156.601 50.1645C156.601 50.1645 154.796 49.7567 154.31 47.4656C151.953 36.4291 147.798 49.3412 145.071 50.1645Z" fill="url(#paint26_linear_2944_6609)"/>
<path d="M138.551 44.8288C138.551 44.8288 139.542 54.9255 144.765 56.2381C149.988 57.5507 153.309 47.6598 153.309 47.6598C153.309 47.6598 157.041 37.4311 151.309 37.4078C145.577 37.3845 136.773 34.3205 138.551 44.8288Z" fill="url(#paint27_linear_2944_6609)"/>
<path d="M166.389 85.6278L157.115 88.7966C156.824 88.8963 156.516 88.9362 156.209 88.9139C155.902 88.8916 155.603 88.8076 155.33 88.6668C155.056 88.5261 154.814 88.3316 154.618 88.095C154.421 87.8584 154.275 87.5846 154.187 87.2899L152.983 83.2512C152.861 82.8401 152.887 82.3994 153.057 82.0056C153.226 81.6118 153.529 81.2899 153.911 81.0959L162.33 76.8709L160.866 61.6016L135.725 85.9462L135.829 90.2179C135.829 90.2179 137.181 93.2547 144.528 93.7129C151.876 94.1712 165.748 91.2082 165.748 91.2082L166.389 85.6278Z" fill="url(#paint28_linear_2944_6609)"/>
<path d="M153.923 82.8398C153.923 82.8398 151.593 81.8767 150.218 82.2806C148.843 82.6844 147.725 83.1194 147.725 83.1194C147.744 83.2585 147.795 83.3916 147.872 83.5091C147.949 83.6265 148.051 83.7255 148.171 83.799C148.466 84.0087 146.377 84.5756 144.998 84.8941C144.691 84.968 144.425 85.1596 144.258 85.4277C144.091 85.6958 144.036 86.0187 144.105 86.327V86.327C144.244 86.958 144.575 87.5301 145.054 87.9638C145.533 88.3974 146.135 88.6709 146.777 88.7463C148.193 88.9359 149.62 89.0229 151.049 89.0065C152.991 88.8823 155.177 86.1561 155.177 86.1561C155.177 86.1561 154.925 83.197 153.923 82.8398Z" fill="url(#paint29_linear_2944_6609)"/>
<path d="M132.145 39.7776C132.269 39.883 132.416 39.9577 132.575 39.9954C132.733 40.0332 132.899 40.0331 133.057 39.9951C132.367 38.7923 132.061 37.4077 132.179 36.0263C132.51 36.3913 133.119 36.2942 133.531 36.0263C133.943 35.7583 134.249 35.3506 134.696 35.1098C135.063 34.928 135.456 34.806 135.861 34.7487C137.895 34.3284 139.857 33.6155 141.686 32.6322C142.789 32.0381 143.853 31.343 145.053 30.9702C147.842 30.112 151.03 31.2653 152.933 33.4788C153.28 33.9246 153.649 34.3523 154.04 34.7603C154.381 35.0365 154.704 35.3349 155.007 35.6535C155.686 36.4768 155.721 37.6495 155.632 38.7136C155.401 41.4163 154.59 44.0375 153.255 46.3987L153.395 42.9037C153.418 42.2862 153.306 41.4746 152.696 41.3504C152.199 41.2494 151.776 41.7387 151.566 42.193C151.247 42.9009 151.136 43.6845 151.244 44.4531C150.397 43.9716 149.88 43.0901 149.275 42.3251C148.669 41.5601 147.83 40.8378 146.859 40.9077C145.776 40.9892 145.042 41.9911 144.187 42.6668C143.178 43.4517 141.906 43.82 140.634 43.6959C140.359 43.6298 140.073 43.6298 139.799 43.6959C139.077 43.9677 139.049 44.6395 138.211 44.5891C137.721 44.5619 136.467 43.692 136.005 43.4241C134.427 42.5591 133.098 41.3035 132.145 39.7776Z" fill="#3F3D56"/>
<path d="M216.408 107.471C216.408 107.471 210.548 111.637 201.476 109.366C192.404 107.094 187.857 105.482 187.857 105.482L177.895 117.672L177.845 117.73L176.637 117.268L172.727 115.781C172.727 115.781 177.068 100.108 179.639 97.3156C180.416 96.4807 183.36 92.8032 187.973 93.9954C193.317 95.3779 203.973 96.9195 211.309 98.5467C217.864 99.9952 216.408 107.471 216.408 107.471Z" fill="#7209B7"/>
<path d="M216.408 107.471C216.408 107.471 210.548 111.637 201.476 109.366C192.404 107.094 187.857 105.482 187.857 105.482L177.895 117.672L177.845 117.73L176.637 117.268L172.727 115.781C172.727 115.781 177.068 100.108 179.639 97.3156C180.416 96.4807 183.36 92.8032 187.973 93.9954C193.317 95.3779 203.973 96.9195 211.309 98.5467C217.864 99.9952 216.408 107.471 216.408 107.471Z" fill="url(#paint30_linear_2944_6609)"/>
<path d="M202.431 103.265L201.476 109.366C192.404 107.094 187.856 105.483 187.856 105.483L177.895 117.672L176.637 117.284L186.862 100.197L202.431 103.265Z" fill="url(#paint31_linear_2944_6609)"/>
<path d="M211.309 98.5428L166.967 122.488C166.967 122.488 169.747 124.705 170.369 125.765C170.99 126.825 173.806 127.571 173.806 127.571C173.806 127.571 200.093 119.416 202.839 116.989C202.839 116.989 209.441 116.212 212.547 115.688C215.654 115.164 219.118 111.925 220.854 107.471C222.59 103.016 221.876 97.8594 221.876 97.8594L211.324 98.5428H211.309Z" fill="#7209B7"/>
<path d="M211.309 98.5428L166.967 122.488C166.967 122.488 169.747 124.705 170.369 125.765C170.99 126.825 173.806 127.571 173.806 127.571C173.806 127.571 200.093 119.416 202.839 116.989C202.839 116.989 209.441 116.212 212.547 115.688C215.654 115.164 219.118 111.925 220.854 107.471C222.59 103.016 221.876 97.8594 221.876 97.8594L211.324 98.5428H211.309Z" fill="url(#paint32_linear_2944_6609)"/>
<path d="M167.608 123.012L164.043 124.771L168.439 129.12L172.392 127.093L167.608 123.012Z" fill="url(#paint33_linear_2944_6609)"/>
<path d="M164.867 124.771C164.867 124.771 159.954 118.08 158.339 118.732C156.723 119.385 156.23 122.227 156.354 122.616C156.447 122.895 160.75 128.891 162.878 131.846C163.195 132.286 163.666 132.589 164.198 132.695C164.729 132.8 165.281 132.699 165.741 132.413L168.04 130.992L169.069 128.806L164.867 124.771Z" fill="#25233A"/>
<path d="M173.126 115.93L171.926 119.809L176.636 117.266L173.126 115.93Z" fill="url(#paint34_linear_2944_6609)"/>
<path d="M208.322 99.5067L203.106 96.9126C203.106 96.9126 209.646 90.2333 205.227 84.7577C205.227 84.7577 202.337 82.4976 202.85 79.8298C203.176 78.1405 205.293 74.5601 206.796 72.1641C207.262 71.4209 207.876 70.7819 208.601 70.2868C209.325 69.7917 210.144 69.4512 211.005 69.2865L220.194 67.5273C220.194 67.5273 223.934 67.9817 225.421 72.6961C226.908 77.4105 221.852 97.8602 221.852 97.8602L208.322 99.5067Z" fill="#7209B7"/>
<path d="M208.322 99.5067L203.106 96.9126C203.106 96.9126 209.646 90.2333 205.227 84.7577C205.227 84.7577 202.337 82.4976 202.85 79.8298C203.176 78.1405 205.293 74.5601 206.796 72.1641C207.262 71.4209 207.876 70.7819 208.601 70.2868C209.325 69.7917 210.144 69.4512 211.005 69.2865L220.194 67.5273C220.194 67.5273 223.934 67.9817 225.421 72.6961C226.908 77.4105 221.852 97.8602 221.852 97.8602L208.322 99.5067Z" fill="url(#paint35_linear_2944_6609)"/>
<path d="M220.213 67.5384C220.213 67.5384 213.409 74.8818 211.005 73.4411C210.689 73.283 210.423 73.0418 210.234 72.7435C210.045 72.4452 209.941 72.101 209.933 71.748C209.933 70.5131 211.005 69.2976 211.005 69.2976C211.005 69.2976 212.768 65.7482 209.7 66.2569H209.646C206.504 66.8123 205.444 59.1854 206.745 54.405C208.046 49.6246 216.325 53.3293 216.551 54.9719C216.776 56.6146 220.213 67.5384 220.213 67.5384Z" fill="url(#paint36_linear_2944_6609)"/>
<path d="M209.138 50.6925C210.035 51.0226 210.501 51.9779 210.998 52.7934C212.259 54.8729 214.156 56.4917 216.408 57.4107C217.422 57.8223 218.602 58.0747 219.581 57.5854C218.978 56.4924 218.595 55.2918 218.455 54.0516C218.42 53.3334 218.335 52.6185 218.202 51.9118C217.674 49.8343 215.709 48.4518 213.744 47.6052C212.657 47.0917 211.474 46.8113 210.272 46.7819C209.671 46.771 209.075 46.8891 208.524 47.1283C207.972 47.3674 207.479 47.7221 207.076 48.1683C206.619 48.7556 206.322 49.4513 206.214 50.1876C206.082 50.9643 205.868 52.7118 206.785 51.9196C207.55 51.2517 207.767 50.1876 209.138 50.6925Z" fill="#3F3D56"/>
<path d="M215.6 59.896C215.957 59.4611 216.334 59.0456 216.726 58.6417C216.873 58.4903 217.087 58.331 217.273 58.4281C217.348 58.4772 217.406 58.5476 217.44 58.6301C217.579 58.8986 217.654 59.1953 217.66 59.4974C217.666 59.7995 217.603 60.099 217.476 60.373C217.348 60.647 217.16 60.8882 216.925 61.0781C216.69 61.268 216.415 61.4017 216.12 61.4688C217.005 61.6319 214.745 65.8181 218.334 68.5908C221.689 71.181 223.67 68.8821 224.353 68.9326C224.462 67.2977 220.031 60.8902 219.969 59.2514C219.989 58.7439 219.882 58.2393 219.658 57.7835C219.207 57.0068 217.638 56.0243 216.788 56.6923C216.027 57.2787 215.852 59.0378 215.6 59.896Z" fill="#3F3D56"/>
<path d="M225.502 71.3956C225.281 71.0101 224.964 70.6883 224.582 70.4614C224.2 70.2344 223.766 70.11 223.322 70.1002C222.878 70.0905 222.438 70.1957 222.047 70.4056C221.655 70.6156 221.325 70.9231 221.087 71.2985C220.62 71.9731 220.299 72.7379 220.145 73.5438C219.992 74.3497 220.008 75.1788 220.194 75.978C221.203 80.0788 229.902 89.2473 229.902 89.2473L236.504 101.181C236.504 101.181 234.873 105.2 237.475 102.082C238.761 100.548 241.801 100.303 243.475 100.292C243.869 100.293 244.248 100.144 244.537 99.8757C244.825 99.6075 245.001 99.2398 245.029 98.847C245.029 98.614 244.982 98.4586 244.803 98.4586C244.201 98.5208 240.586 98.0975 240.586 98.0975L237.359 98.8508C237.359 98.8508 233.118 87.0105 232.916 86.7931C232.714 86.5756 228.869 77.2245 225.502 71.3956Z" fill="url(#paint37_linear_2944_6609)"/>
<path d="M178.059 82.1796L183.659 89.9463L191.325 90.8861C191.325 90.8861 197.422 87.1619 198.653 86.5251C199.884 85.8882 202.431 84.7426 202.431 84.7426L190.245 82.1641L184.629 88.525L183.422 89.0531L178.459 82.1641L178.059 82.1796Z" fill="#7209B7"/>
<path d="M178.059 82.1796L183.659 89.9463L191.325 90.8861C191.325 90.8861 197.422 87.1619 198.653 86.5251C199.884 85.8882 202.431 84.7426 202.431 84.7426L190.245 82.1641L184.629 88.525L183.422 89.0531L178.459 82.1641L178.059 82.1796Z" fill="url(#paint38_linear_2944_6609)"/>
<path d="M179.949 80.2969L183.856 87.8616L184.101 88.4169L184.629 88.5373L181.53 80.2969H179.949Z" fill="#7209B7"/>
<path d="M178.059 81.084L183.659 88.7575H184.039L179.95 81.084H178.059Z" fill="#7209B7"/>
<path d="M181.529 79.5273L184.628 87.4261L188.178 81.3176L181.529 79.5273Z" fill="#7209B7"/>
<path d="M179.949 80.2969L183.856 87.8616L184.101 88.4169L184.629 88.5373L181.53 80.2969H179.949Z" fill="url(#paint39_linear_2944_6609)"/>
<path d="M178.059 81.084L183.659 88.7575H184.039L179.95 81.084H178.059Z" fill="url(#paint40_linear_2944_6609)"/>
<path d="M181.529 79.5273L184.628 87.4261L188.178 81.3176L181.529 79.5273Z" fill="url(#paint41_linear_2944_6609)"/>
<path d="M170.369 125.765C170.369 125.765 193.185 117.61 202.455 113.61C204.215 112.845 206.059 112.291 207.95 111.96C210.229 111.572 213.453 110.795 215.6 109.335C219.227 106.865 221.86 101.863 221.86 101.863C221.86 101.863 221.957 113.102 212.54 115.688L202.831 116.989C202.831 116.989 199.445 118.962 193.274 121.109C187.103 123.257 173.798 127.571 173.798 127.571C173.798 127.571 171.165 126.705 170.983 126.519C170.8 126.332 170.369 125.765 170.369 125.765Z" fill="url(#paint42_linear_2944_6609)"/>
<path d="M209.934 71.7484C209.934 70.5135 211.006 69.298 211.006 69.298C211.006 69.298 212.769 65.7486 209.701 66.2573C214.691 65.438 214.086 62.1604 215.262 65.1389C217.235 70.1329 210.171 71.7173 209.934 71.7484Z" fill="url(#paint43_linear_2944_6609)"/>
</g>
<defs>
<linearGradient id="paint0_linear_2944_6609" x1="93.9766" y1="66.4333" x2="112.986" y2="66.4333" gradientUnits="userSpaceOnUse">
<stop stop-color="#ECC4D7"/>
<stop offset="0.42" stop-color="#EFD4D1"/>
<stop offset="1" stop-color="#F2EAC9"/>
</linearGradient>
<linearGradient id="paint1_linear_2944_6609" x1="15.0596" y1="147.525" x2="309.568" y2="147.525" gradientUnits="userSpaceOnUse">
<stop stop-color="#68E1FD"/>
<stop offset="1" stop-color="#69B9EB"/>
</linearGradient>
<linearGradient id="paint2_linear_2944_6609" x1="168.746" y1="136.739" x2="208.821" y2="220.392" gradientUnits="userSpaceOnUse">
<stop offset="0.01" stop-color="#3C3A52" stop-opacity="0"/>
<stop offset="0.86"/>
</linearGradient>
<linearGradient id="paint3_linear_2944_6609" x1="162.117" y1="105.63" x2="176.904" y2="180.963" gradientUnits="userSpaceOnUse">
<stop offset="0.01" stop-color="white" stop-opacity="0"/>
<stop offset="0.99" stop-color="white"/>
</linearGradient>
<linearGradient id="paint4_linear_2944_6609" x1="193.949" y1="81.8258" x2="188.295" y2="95.5031" gradientUnits="userSpaceOnUse">
<stop stop-color="#ECC4D7"/>
<stop offset="0.42" stop-color="#EFD4D1"/>
<stop offset="1" stop-color="#F2EAC9"/>
</linearGradient>
<linearGradient id="paint5_linear_2944_6609" x1="139.499" y1="73.4193" x2="131.429" y2="74.3941" gradientUnits="userSpaceOnUse">
<stop offset="0.01" stop-color="white" stop-opacity="0"/>
<stop offset="0.33" stop-color="white" stop-opacity="0.36"/>
<stop offset="0.99" stop-color="white"/>
</linearGradient>
<linearGradient id="paint6_linear_2944_6609" x1="147.863" y1="53.0612" x2="176.469" y2="61.2168" gradientUnits="userSpaceOnUse">
<stop offset="0.01" stop-color="#3C3A52" stop-opacity="0"/>
<stop offset="1"/>
</linearGradient>
<linearGradient id="paint7_linear_2944_6609" x1="121.747" y1="83.6481" x2="121.316" y2="77.0114" gradientUnits="userSpaceOnUse">
<stop stop-color="#ECC4D7"/>
<stop offset="0.42" stop-color="#EFD4D1"/>
<stop offset="1" stop-color="#F2EAC9"/>
</linearGradient>
<linearGradient id="paint8_linear_2944_6609" x1="104.267" y1="89.6745" x2="150.79" y2="124.184" gradientUnits="userSpaceOnUse">
<stop offset="0.01" stop-color="#3C3A52" stop-opacity="0"/>
<stop offset="1"/>
</linearGradient>
<linearGradient id="paint9_linear_2944_6609" x1="26.2988" y1="129.607" x2="293.693" y2="129.607" gradientUnits="userSpaceOnUse">
<stop offset="0.01" stop-color="#3C3A52" stop-opacity="0"/>
<stop offset="0.86"/>
</linearGradient>
<linearGradient id="paint10_linear_2944_6609" x1="144.493" y1="105.18" x2="144.99" y2="115.226" gradientUnits="userSpaceOnUse">
<stop offset="0.01" stop-color="white" stop-opacity="0"/>
<stop offset="0.99" stop-color="white"/>
</linearGradient>
<linearGradient id="paint11_linear_2944_6609" x1="149.464" y1="87.118" x2="149.693" y2="115.439" gradientUnits="userSpaceOnUse">
<stop offset="0.01" stop-color="white" stop-opacity="0"/>
<stop offset="0.33" stop-color="white" stop-opacity="0.36"/>
<stop offset="0.99" stop-color="white"/>
</linearGradient>
<linearGradient id="paint12_linear_2944_6609" x1="78.4785" y1="116.185" x2="142.673" y2="116.185" gradientUnits="userSpaceOnUse">
<stop offset="0.01" stop-color="white" stop-opacity="0"/>
<stop offset="0.99" stop-color="white"/>
</linearGradient>
<linearGradient id="paint13_linear_2944_6609" x1="123.294" y1="110.566" x2="108.802" y2="149.408" gradientUnits="userSpaceOnUse">
<stop offset="0.01" stop-color="#3C3A52" stop-opacity="0"/>
<stop offset="0.86"/>
</linearGradient>
<linearGradient id="paint14_linear_2944_6609" x1="234.346" y1="99.3706" x2="269.025" y2="99.3706" gradientUnits="userSpaceOnUse">
<stop offset="0.01" stop-color="#3C3A52" stop-opacity="0"/>
<stop offset="0.86"/>
</linearGradient>
<linearGradient id="paint15_linear_2944_6609" x1="124.427" y1="83.522" x2="144.372" y2="83.522" gradientUnits="userSpaceOnUse">
<stop offset="0.01" stop-color="#3C3A52" stop-opacity="0"/>
<stop offset="1"/>
</linearGradient>
<linearGradient id="paint16_linear_2944_6609" x1="124.986" y1="79.0523" x2="139.273" y2="94.0464" gradientUnits="userSpaceOnUse">
<stop offset="0.01" stop-color="#3C3A52" stop-opacity="0"/>
<stop offset="1"/>
</linearGradient>
<linearGradient id="paint17_linear_2944_6609" x1="76.6787" y1="87.223" x2="116.786" y2="125.825" gradientUnits="userSpaceOnUse">
<stop offset="0.01" stop-color="#3C3A52" stop-opacity="0"/>
<stop offset="1"/>
</linearGradient>
<linearGradient id="paint18_linear_2944_6609" x1="68.8385" y1="117.173" x2="132.846" y2="117.173" gradientUnits="userSpaceOnUse">
<stop offset="0.01" stop-color="white" stop-opacity="0"/>
<stop offset="0.99" stop-color="white"/>
</linearGradient>
<linearGradient id="paint19_linear_2944_6609" x1="93.6823" y1="88.1867" x2="136.886" y2="80.2602" gradientUnits="userSpaceOnUse">
<stop offset="0.01" stop-color="#3C3A52" stop-opacity="0"/>
<stop offset="1"/>
</linearGradient>
<linearGradient id="paint20_linear_2944_6609" x1="113.861" y1="84.6259" x2="122.378" y2="84.6259" gradientUnits="userSpaceOnUse">
<stop stop-color="#ECC4D7"/>
<stop offset="0.42" stop-color="#EFD4D1"/>
<stop offset="1" stop-color="#F2EAC9"/>
</linearGradient>
<linearGradient id="paint21_linear_2944_6609" x1="100.908" y1="64.9603" x2="106.426" y2="76.1833" gradientUnits="userSpaceOnUse">
<stop stop-color="#ECC4D7"/>
<stop offset="0.42" stop-color="#EFD4D1"/>
<stop offset="1" stop-color="#F2EAC9"/>
</linearGradient>
<linearGradient id="paint22_linear_2944_6609" x1="129.216" y1="85.627" x2="133.752" y2="85.627" gradientUnits="userSpaceOnUse">
<stop stop-color="#ECC4D7"/>
<stop offset="0.42" stop-color="#EFD4D1"/>
<stop offset="1" stop-color="#F2EAC9"/>
</linearGradient>
<linearGradient id="paint23_linear_2944_6609" x1="140.777" y1="123.013" x2="145.504" y2="123.013" gradientUnits="userSpaceOnUse">
<stop stop-color="#ECC4D7"/>
<stop offset="0.42" stop-color="#EFD4D1"/>
<stop offset="1" stop-color="#F2EAC9"/>
</linearGradient>
<linearGradient id="paint24_linear_2944_6609" x1="127.107" y1="131.789" x2="134.28" y2="131.789" gradientUnits="userSpaceOnUse">
<stop stop-color="#ECC4D7"/>
<stop offset="0.42" stop-color="#EFD4D1"/>
<stop offset="1" stop-color="#F2EAC9"/>
</linearGradient>
<linearGradient id="paint25_linear_2944_6609" x1="96.6722" y1="131.33" x2="116.722" y2="115.02" gradientUnits="userSpaceOnUse">
<stop offset="0.01" stop-color="white" stop-opacity="0"/>
<stop offset="0.99" stop-color="white"/>
</linearGradient>
<linearGradient id="paint26_linear_2944_6609" x1="151.246" y1="46.5724" x2="150.334" y2="54.5643" gradientUnits="userSpaceOnUse">
<stop stop-color="#ECC4D7"/>
<stop offset="0.42" stop-color="#EFD4D1"/>
<stop offset="0.59" stop-color="#F0DACE"/>
<stop offset="1" stop-color="#F2EAC9"/>
</linearGradient>
<linearGradient id="paint27_linear_2944_6609" x1="139.072" y1="47.7677" x2="155.311" y2="44.6052" gradientUnits="userSpaceOnUse">
<stop stop-color="#ECC4D7"/>
<stop offset="0.42" stop-color="#EFD4D1"/>
<stop offset="1" stop-color="#F2EAC9"/>
</linearGradient>
<linearGradient id="paint28_linear_2944_6609" x1="143.989" y1="69.1663" x2="189.683" y2="140.291" gradientUnits="userSpaceOnUse">
<stop offset="0.01" stop-color="#3C3A52" stop-opacity="0"/>
<stop offset="1"/>
</linearGradient>
<linearGradient id="paint29_linear_2944_6609" x1="144.074" y1="85.6008" x2="155.177" y2="85.6008" gradientUnits="userSpaceOnUse">
<stop stop-color="#ECC4D7"/>
<stop offset="0.42" stop-color="#EFD4D1"/>
<stop offset="1" stop-color="#F2EAC9"/>
</linearGradient>
<linearGradient id="paint30_linear_2944_6609" x1="181.919" y1="90.081" x2="203.622" y2="123.047" gradientUnits="userSpaceOnUse">
<stop offset="0.01" stop-color="#3C3A52" stop-opacity="0"/>
<stop offset="1"/>
</linearGradient>
<linearGradient id="paint31_linear_2944_6609" x1="176.637" y1="108.919" x2="202.431" y2="108.919" gradientUnits="userSpaceOnUse">
<stop offset="0.01" stop-color="#3C3A52" stop-opacity="0"/>
<stop offset="1"/>
</linearGradient>
<linearGradient id="paint32_linear_2944_6609" x1="189.984" y1="103.055" x2="206.158" y2="129.059" gradientUnits="userSpaceOnUse">
<stop offset="0.01" stop-color="#3C3A52" stop-opacity="0"/>
<stop offset="1"/>
</linearGradient>
<linearGradient id="paint33_linear_2944_6609" x1="164.043" y1="126.068" x2="172.392" y2="126.068" gradientUnits="userSpaceOnUse">
<stop stop-color="#ECC4D7"/>
<stop offset="0.42" stop-color="#EFD4D1"/>
<stop offset="1" stop-color="#F2EAC9"/>
</linearGradient>
<linearGradient id="paint34_linear_2944_6609" x1="171.926" y1="117.871" x2="176.636" y2="117.871" gradientUnits="userSpaceOnUse">
<stop stop-color="#ECC4D7"/>
<stop offset="0.42" stop-color="#EFD4D1"/>
<stop offset="1" stop-color="#F2EAC9"/>
</linearGradient>
<linearGradient id="paint35_linear_2944_6609" x1="198.815" y1="77.5114" x2="282.154" y2="109.66" gradientUnits="userSpaceOnUse">
<stop offset="0.01" stop-color="white" stop-opacity="0"/>
<stop offset="0.99" stop-color="white"/>
</linearGradient>
<linearGradient id="paint36_linear_2944_6609" x1="206.201" y1="62.8435" x2="220.213" y2="62.8435" gradientUnits="userSpaceOnUse">
<stop stop-color="#ECC4D7"/>
<stop offset="0.42" stop-color="#EFD4D1"/>
<stop offset="1" stop-color="#F2EAC9"/>
</linearGradient>
<linearGradient id="paint37_linear_2944_6609" x1="220.034" y1="86.6843" x2="245.032" y2="86.6843" gradientUnits="userSpaceOnUse">
<stop stop-color="#ECC4D7"/>
<stop offset="0.42" stop-color="#EFD4D1"/>
<stop offset="1" stop-color="#F2EAC9"/>
</linearGradient>
<linearGradient id="paint38_linear_2944_6609" x1="185.014" y1="85.7989" x2="216.07" y2="90.1719" gradientUnits="userSpaceOnUse">
<stop offset="0.01" stop-color="#3C3A52" stop-opacity="0"/>
<stop offset="1"/>
</linearGradient>
<linearGradient id="paint39_linear_2944_6609" x1="179.949" y1="84.4171" x2="184.629" y2="84.4171" gradientUnits="userSpaceOnUse">
<stop offset="0.01" stop-color="white" stop-opacity="0"/>
<stop offset="0.99" stop-color="white"/>
</linearGradient>
<linearGradient id="paint40_linear_2944_6609" x1="178.059" y1="84.9207" x2="184.039" y2="84.9207" gradientUnits="userSpaceOnUse">
<stop offset="0.01" stop-color="white" stop-opacity="0"/>
<stop offset="0.99" stop-color="white"/>
</linearGradient>
<linearGradient id="paint41_linear_2944_6609" x1="181.529" y1="83.4767" x2="188.178" y2="83.4767" gradientUnits="userSpaceOnUse">
<stop offset="0.01" stop-color="white" stop-opacity="0"/>
<stop offset="0.99" stop-color="white"/>
</linearGradient>
<linearGradient id="paint42_linear_2944_6609" x1="170.369" y1="114.717" x2="221.86" y2="114.717" gradientUnits="userSpaceOnUse">
<stop offset="0.01" stop-color="#3C3A52" stop-opacity="0"/>
<stop offset="1"/>
</linearGradient>
<linearGradient id="paint43_linear_2944_6609" x1="215.682" y1="65.7952" x2="216.571" y2="65.2593" gradientUnits="userSpaceOnUse">
<stop stop-color="#ECC4D7"/>
<stop offset="0.42" stop-color="#EFD4D1"/>
<stop offset="1" stop-color="#F2EAC9"/>
</linearGradient>
<clipPath id="clip0_2944_6609">
<rect width="320" height="200" fill="white"/>
</clipPath>
</defs>
</svg>
